{
	"asset":{
		"generator":"Khronos glTF Blender I/O v4.2.60",
		"version":"2.0"
	},
	"scene":0,
	"scenes":[
		{
			"name":"Scene",
			"nodes":[
				1
			]
		}
	],
	"nodes":[
		{
			"mesh":0,
			"name":"Cube.015",
			"rotation":[
				0,
				0,
				-0.7071068286895752,
				0.7071068286895752
			],
			"scale":[
				1,
				97.7345199584961,
				1
			],
			"translation":[
				-0.29705810546875,
				-0.21320663392543793,
				-0.0248983483761549
			]
		},
		{
			"children":[
				0
			],
			"name":"Bar5.001",
			"scale":[
				0.0009999871253967285,
				1,
				1
			],
			"translation":[
				0.2970873713493347,
				0.21320663392543793,
				0.0248983483761549
			]
		}
	],
	"animations":[
		{
			"channels":[
				{
					"sampler":0,
					"target":{
						"node":1,
						"path":"scale"
					}
				}
			],
			"name":"Bar5.001Action",
			"samplers":[
				{
					"input":3,
					"interpolation":"LINEAR",
					"output":4
				}
			]
		}
	],
	"materials":[
		{
			"doubleSided":true,
			"name":"Mat_Roof_Cap",
			"pbrMetallicRoughness":{
				"baseColorFactor":[
					0.9822452664375305,
					0.38132646679878235,
					0.0030353753827512264,
					1
				],
				"metallicFactor":0,
				"roughnessFactor":0.699999988079071
			}
		}
	],
	"meshes":[
		{
			"name":"Cube.021",
			"primitives":[
				{
					"attributes":{
						"POSITION":0,
						"NORMAL":1
					},
					"indices":2,
					"material":0
				}
			]
		}
	],
	"accessors":[
		{
			"bufferView":0,
			"componentType":5126,
			"count":24,
			"max":[
				-0.20945662260055542,
				0.003055865177884698,
				0.02864834852516651
			],
			"min":[
				-0.21695667505264282,
				-0.004805939272046089,
				0.021148348227143288
			],
			"type":"VEC3"
		},
		{
			"bufferView":1,
			"componentType":5126,
			"count":24,
			"type":"VEC3"
		},
		{
			"bufferView":2,
			"componentType":5123,
			"count":36,
			"type":"SCALAR"
		},
		{
			"bufferView":3,
			"componentType":5126,
			"count":41,
			"max":[
				1.6666666666666667
			],
			"min":[
				0
			],
			"type":"SCALAR"
		},
		{
			"bufferView":4,
			"componentType":5126,
			"count":41,
			"type":"VEC3"
		}
	],
	"bufferViews":[
		{
			"buffer":0,
			"byteLength":288,
			"byteOffset":0,
			"target":34962
		},
		{
			"buffer":0,
			"byteLength":288,
			"byteOffset":288,
			"target":34962
		},
		{
			"buffer":0,
			"byteLength":72,
			"byteOffset":576,
			"target":34963
		},
		{
			"buffer":0,
			"byteLength":164,
			"byteOffset":648
		},
		{
			"buffer":0,
			"byteLength":492,
			"byteOffset":812
		}
	],
	"buffers":[
		{
			"byteLength":1304,
			"uri":"BarV2-5.bin"
		}
	]
}
