{
	"asset":{
		"generator":"Khronos glTF Blender I/O v4.2.60",
		"version":"2.0"
	},
	"scene":0,
	"scenes":[
		{
			"name":"Scene",
			"nodes":[
				1
			]
		}
	],
	"nodes":[
		{
			"mesh":0,
			"name":"Cube.014",
			"scale":[
				1,
				81.15946960449219,
				1
			],
			"translation":[
				-0.29491350054740906,
				0.393280029296875,
				-0.0248983483761549
			]
		},
		{
			"children":[
				0
			],
			"name":"Bar4.001",
			"scale":[
				1,
				0.0009999871253967285,
				1
			],
			"translation":[
				0.29491350054740906,
				-0.3933151364326477,
				0.0248983483761549
			]
		}
	],
	"animations":[
		{
			"channels":[
				{
					"sampler":0,
					"target":{
						"node":1,
						"path":"scale"
					}
				}
			],
			"name":"Bar4.001Action",
			"samplers":[
				{
					"input":3,
					"interpolation":"LINEAR",
					"output":4
				}
			]
		}
	],
	"materials":[
		{
			"doubleSided":true,
			"name":"Mat_Roof_Cap",
			"pbrMetallicRoughness":{
				"baseColorFactor":[
					0.9822452664375305,
					0.38132646679878235,
					0.0030353753827512264,
					1
				],
				"metallicFactor":0,
				"roughnessFactor":0.699999988079071
			}
		}
	],
	"meshes":[
		{
			"name":"Cube.020",
			"primitives":[
				{
					"attributes":{
						"POSITION":0,
						"NORMAL":1
					},
					"indices":2,
					"material":0
				}
			]
		}
	],
	"accessors":[
		{
			"bufferView":0,
			"componentType":5126,
			"count":24,
			"max":[
				0.29866349697113037,
				0.0026537952944636345,
				0.02864834852516651
			],
			"min":[
				0.29116344451904297,
				-0.004846205003559589,
				0.021148348227143288
			],
			"type":"VEC3"
		},
		{
			"bufferView":1,
			"componentType":5126,
			"count":24,
			"type":"VEC3"
		},
		{
			"bufferView":2,
			"componentType":5123,
			"count":36,
			"type":"SCALAR"
		},
		{
			"bufferView":3,
			"componentType":5126,
			"count":25,
			"max":[
				1
			],
			"min":[
				0
			],
			"type":"SCALAR"
		},
		{
			"bufferView":4,
			"componentType":5126,
			"count":25,
			"type":"VEC3"
		}
	],
	"bufferViews":[
		{
			"buffer":0,
			"byteLength":288,
			"byteOffset":0,
			"target":34962
		},
		{
			"buffer":0,
			"byteLength":288,
			"byteOffset":288,
			"target":34962
		},
		{
			"buffer":0,
			"byteLength":72,
			"byteOffset":576,
			"target":34963
		},
		{
			"buffer":0,
			"byteLength":100,
			"byteOffset":648
		},
		{
			"buffer":0,
			"byteLength":300,
			"byteOffset":748
		}
	],
	"buffers":[
		{
			"byteLength":1048,
			"uri":"BarV2-4.bin"
		}
	]
}
