{
	"asset":{
		"generator":"Khronos glTF Blender I/O v4.2.60",
		"version":"2.0"
	},
	"scene":0,
	"scenes":[
		{
			"name":"Scene",
			"nodes":[
				0,
				1,
				2,
				3,
				4,
				5,
				6,
				7,
				8
			]
		}
	],
	"nodes":[
		{
			"mesh":0,
			"name":"Building_013.004"
		},
		{
			"mesh":1,
			"name":"Pencere18"
		},
		{
			"mesh":2,
			"name":"Pencere28"
		},
		{
			"mesh":3,
			"name":"Building_018.009",
			"translation":[
				0,
				0,
				0.0005000000237487257
			]
		},
		{
			"mesh":4,
			"name":"Pencere29"
		},
		{
			"mesh":5,
			"name":"Pencere41"
		},
		{
			"mesh":6,
			"name":"Pencere46"
		},
		{
			"mesh":7,
			"name":"Pencere9.002"
		},
		{
			"mesh":8,
			"name":"Pencere1.002"
		}
	],
	"materials":[
		{
			"doubleSided":true,
			"name":"PencereSolar",
			"pbrMetallicRoughness":{
				"baseColorFactor":[
					0.9822452664375305,
					0.38132646679878235,
					0.0030353753827512264,
					1
				],
				"metallicFactor":0,
				"roughnessFactor":0.5
			}
		}
	],
	"meshes":[
		{
			"name":"Building_013_Mesh.005",
			"primitives":[
				{
					"attributes":{
						"POSITION":0,
						"NORMAL":1
					},
					"indices":2,
					"material":0
				}
			]
		},
		{
			"name":"Building_035_Mesh.001",
			"primitives":[
				{
					"attributes":{
						"POSITION":3,
						"NORMAL":4
					},
					"indices":5,
					"material":0
				}
			]
		},
		{
			"name":"Building_045_Mesh.001",
			"primitives":[
				{
					"attributes":{
						"POSITION":6,
						"NORMAL":7
					},
					"indices":5,
					"material":0
				}
			]
		},
		{
			"name":"Building_018_Mesh.003",
			"primitives":[
				{
					"attributes":{
						"POSITION":8,
						"NORMAL":9
					},
					"indices":10,
					"material":0
				}
			]
		},
		{
			"name":"Building_046_Mesh.001",
			"primitives":[
				{
					"attributes":{
						"POSITION":11,
						"NORMAL":12
					},
					"indices":13,
					"material":0
				}
			]
		},
		{
			"name":"Building_058_Mesh.001",
			"primitives":[
				{
					"attributes":{
						"POSITION":14,
						"NORMAL":15
					},
					"indices":16,
					"material":0
				}
			]
		},
		{
			"name":"Building_063_Mesh.001",
			"primitives":[
				{
					"attributes":{
						"POSITION":17,
						"NORMAL":18
					},
					"indices":19,
					"material":0
				}
			]
		},
		{
			"name":"Building_077_Mesh.020",
			"primitives":[
				{
					"attributes":{
						"POSITION":20,
						"NORMAL":21
					},
					"indices":10,
					"material":0
				}
			]
		},
		{
			"name":"Building_069_Mesh.020",
			"primitives":[
				{
					"attributes":{
						"POSITION":22,
						"NORMAL":23
					},
					"indices":24,
					"material":0
				}
			]
		}
	],
	"accessors":[
		{
			"bufferView":0,
			"componentType":5126,
			"count":48,
			"max":[
				-0.33309775590896606,
				-0.42765215039253235,
				0.035054344683885574
			],
			"min":[
				-0.3722281754016876,
				-0.46895650029182434,
				0.035054344683885574
			],
			"type":"VEC3"
		},
		{
			"bufferView":1,
			"componentType":5126,
			"count":48,
			"type":"VEC3"
		},
		{
			"bufferView":2,
			"componentType":5123,
			"count":72,
			"type":"SCALAR"
		},
		{
			"bufferView":3,
			"componentType":5126,
			"count":20,
			"max":[
				-0.03744560480117798,
				0.14300000667572021,
				0.04592391476035118
			],
			"min":[
				-0.059184730052948,
				0.1158260703086853,
				0.04592391476035118
			],
			"type":"VEC3"
		},
		{
			"bufferView":4,
			"componentType":5126,
			"count":20,
			"type":"VEC3"
		},
		{
			"bufferView":5,
			"componentType":5123,
			"count":30,
			"type":"SCALAR"
		},
		{
			"bufferView":6,
			"componentType":5126,
			"count":20,
			"max":[
				0.03864136338233948,
				-0.15047824382781982,
				0.05679347738623619
			],
			"min":[
				0.01690220832824707,
				-0.17765215039253235,
				0.05679347738623619
			],
			"type":"VEC3"
		},
		{
			"bufferView":7,
			"componentType":5126,
			"count":20,
			"type":"VEC3"
		},
		{
			"bufferView":8,
			"componentType":5126,
			"count":32,
			"max":[
				-0.257010817527771,
				-0.2483043223619461,
				0.04483695700764656
			],
			"min":[
				-0.29614123702049255,
				-0.2754782438278198,
				0.04483695700764656
			],
			"type":"VEC3"
		},
		{
			"bufferView":9,
			"componentType":5126,
			"count":32,
			"type":"VEC3"
		},
		{
			"bufferView":10,
			"componentType":5123,
			"count":48,
			"type":"SCALAR"
		},
		{
			"bufferView":11,
			"componentType":5126,
			"count":18,
			"max":[
				0.03864133358001709,
				-0.2483043223619461,
				0.04592391476035118
			],
			"min":[
				0.016902178525924683,
				-0.2733043432235718,
				0.04592391476035118
			],
			"type":"VEC3"
		},
		{
			"bufferView":12,
			"componentType":5126,
			"count":18,
			"type":"VEC3"
		},
		{
			"bufferView":13,
			"componentType":5123,
			"count":30,
			"type":"SCALAR"
		},
		{
			"bufferView":14,
			"componentType":5126,
			"count":16,
			"max":[
				0.190815269947052,
				-0.05265215039253235,
				0.03505434840917587
			],
			"min":[
				0.1690760850906372,
				-0.07547822594642639,
				0.03505434840917587
			],
			"type":"VEC3"
		},
		{
			"bufferView":15,
			"componentType":5126,
			"count":16,
			"type":"VEC3"
		},
		{
			"bufferView":16,
			"componentType":5123,
			"count":24,
			"type":"SCALAR"
		},
		{
			"bufferView":17,
			"componentType":5126,
			"count":63,
			"max":[
				0.27559781074523926,
				0.15930438041687012,
				0.035054344683885574
			],
			"min":[
				0.2364673614501953,
				0.12017399072647095,
				0.035054344683885574
			],
			"type":"VEC3"
		},
		{
			"bufferView":18,
			"componentType":5126,
			"count":63,
			"type":"VEC3"
		},
		{
			"bufferView":19,
			"componentType":5123,
			"count":93,
			"type":"SCALAR"
		},
		{
			"bufferView":20,
			"componentType":5126,
			"count":32,
			"max":[
				0.42777174711227417,
				0.14300000667572021,
				0.05679347738623619
			],
			"min":[
				0.3886412978172302,
				0.11582612991333008,
				0.05679347738623619
			],
			"type":"VEC3"
		},
		{
			"bufferView":21,
			"componentType":5126,
			"count":32,
			"type":"VEC3"
		},
		{
			"bufferView":22,
			"componentType":5126,
			"count":36,
			"max":[
				0.26690220832824707,
				-0.42765215039253235,
				0.035054344683885574
			],
			"min":[
				0.24516302347183228,
				-0.4711304008960724,
				0.035054344683885574
			],
			"type":"VEC3"
		},
		{
			"bufferView":23,
			"componentType":5126,
			"count":36,
			"type":"VEC3"
		},
		{
			"bufferView":24,
			"componentType":5123,
			"count":54,
			"type":"SCALAR"
		}
	],
	"bufferViews":[
		{
			"buffer":0,
			"byteLength":576,
			"byteOffset":0,
			"target":34962
		},
		{
			"buffer":0,
			"byteLength":576,
			"byteOffset":576,
			"target":34962
		},
		{
			"buffer":0,
			"byteLength":144,
			"byteOffset":1152,
			"target":34963
		},
		{
			"buffer":0,
			"byteLength":240,
			"byteOffset":1296,
			"target":34962
		},
		{
			"buffer":0,
			"byteLength":240,
			"byteOffset":1536,
			"target":34962
		},
		{
			"buffer":0,
			"byteLength":60,
			"byteOffset":1776,
			"target":34963
		},
		{
			"buffer":0,
			"byteLength":240,
			"byteOffset":1836,
			"target":34962
		},
		{
			"buffer":0,
			"byteLength":240,
			"byteOffset":2076,
			"target":34962
		},
		{
			"buffer":0,
			"byteLength":384,
			"byteOffset":2316,
			"target":34962
		},
		{
			"buffer":0,
			"byteLength":384,
			"byteOffset":2700,
			"target":34962
		},
		{
			"buffer":0,
			"byteLength":96,
			"byteOffset":3084,
			"target":34963
		},
		{
			"buffer":0,
			"byteLength":216,
			"byteOffset":3180,
			"target":34962
		},
		{
			"buffer":0,
			"byteLength":216,
			"byteOffset":3396,
			"target":34962
		},
		{
			"buffer":0,
			"byteLength":60,
			"byteOffset":3612,
			"target":34963
		},
		{
			"buffer":0,
			"byteLength":192,
			"byteOffset":3672,
			"target":34962
		},
		{
			"buffer":0,
			"byteLength":192,
			"byteOffset":3864,
			"target":34962
		},
		{
			"buffer":0,
			"byteLength":48,
			"byteOffset":4056,
			"target":34963
		},
		{
			"buffer":0,
			"byteLength":756,
			"byteOffset":4104,
			"target":34962
		},
		{
			"buffer":0,
			"byteLength":756,
			"byteOffset":4860,
			"target":34962
		},
		{
			"buffer":0,
			"byteLength":186,
			"byteOffset":5616,
			"target":34963
		},
		{
			"buffer":0,
			"byteLength":384,
			"byteOffset":5804,
			"target":34962
		},
		{
			"buffer":0,
			"byteLength":384,
			"byteOffset":6188,
			"target":34962
		},
		{
			"buffer":0,
			"byteLength":432,
			"byteOffset":6572,
			"target":34962
		},
		{
			"buffer":0,
			"byteLength":432,
			"byteOffset":7004,
			"target":34962
		},
		{
			"buffer":0,
			"byteLength":108,
			"byteOffset":7436,
			"target":34963
		}
	],
	"buffers":[
		{
			"byteLength":7544,
			"uri":"PencereGrup9.bin"
		}
	]
}
