{
	"asset":{
		"generator":"Khronos glTF Blender I/O v4.2.60",
		"version":"2.0"
	},
	"scene":0,
	"scenes":[
		{
			"name":"Scene",
			"nodes":[
				0,
				1,
				2,
				3,
				4,
				5,
				6,
				7,
				8
			]
		}
	],
	"nodes":[
		{
			"mesh":0,
			"name":"Building_005.004"
		},
		{
			"mesh":1,
			"name":"Pencere5"
		},
		{
			"mesh":2,
			"name":"Pencere31"
		},
		{
			"mesh":3,
			"name":"Building_004.004"
		},
		{
			"mesh":4,
			"name":"Pencere21"
		},
		{
			"mesh":5,
			"name":"Building_009.004"
		},
		{
			"mesh":6,
			"name":"Pencere8"
		},
		{
			"mesh":7,
			"name":"Pencere14.002"
		},
		{
			"mesh":8,
			"name":"Pencere3.002"
		}
	],
	"materials":[
		{
			"doubleSided":true,
			"name":"PencereSolar",
			"pbrMetallicRoughness":{
				"baseColorFactor":[
					0.9822452664375305,
					0.38132646679878235,
					0.0030353753827512264,
					1
				],
				"metallicFactor":0,
				"roughnessFactor":0.5
			}
		}
	],
	"meshes":[
		{
			"name":"Building_005_Mesh.005",
			"primitives":[
				{
					"attributes":{
						"POSITION":0,
						"NORMAL":1
					},
					"indices":2,
					"material":0
				}
			]
		},
		{
			"name":"Building_022_Mesh.001",
			"primitives":[
				{
					"attributes":{
						"POSITION":3,
						"NORMAL":4
					},
					"indices":5,
					"material":0
				}
			]
		},
		{
			"name":"Building_048_Mesh.001",
			"primitives":[
				{
					"attributes":{
						"POSITION":6,
						"NORMAL":7
					},
					"indices":2,
					"material":0
				}
			]
		},
		{
			"name":"Building_004_Mesh.005",
			"primitives":[
				{
					"attributes":{
						"POSITION":8,
						"NORMAL":9
					},
					"indices":10,
					"material":0
				}
			]
		},
		{
			"name":"Building_038_Mesh.001",
			"primitives":[
				{
					"attributes":{
						"POSITION":11,
						"NORMAL":12
					},
					"indices":13,
					"material":0
				}
			]
		},
		{
			"name":"Building_009_Mesh.005",
			"primitives":[
				{
					"attributes":{
						"POSITION":14,
						"NORMAL":15
					},
					"indices":16,
					"material":0
				}
			]
		},
		{
			"name":"Building_025_Mesh.001",
			"primitives":[
				{
					"attributes":{
						"POSITION":17,
						"NORMAL":18
					},
					"indices":16,
					"material":0
				}
			]
		},
		{
			"name":"Building_082_Mesh.020",
			"primitives":[
				{
					"attributes":{
						"POSITION":19,
						"NORMAL":20
					},
					"indices":21,
					"material":0
				}
			]
		},
		{
			"name":"Building_071_Mesh.020",
			"primitives":[
				{
					"attributes":{
						"POSITION":22,
						"NORMAL":23
					},
					"indices":24,
					"material":0
				}
			]
		}
	],
	"accessors":[
		{
			"bufferView":0,
			"componentType":5126,
			"count":48,
			"max":[
				-0.40918469429016113,
				-0.3298260569572449,
				0.05679347738623619
			],
			"min":[
				-0.4483151435852051,
				-0.3689565062522888,
				0.05679347738623619
			],
			"type":"VEC3"
		},
		{
			"bufferView":1,
			"componentType":5126,
			"count":48,
			"type":"VEC3"
		},
		{
			"bufferView":2,
			"componentType":5123,
			"count":72,
			"type":"SCALAR"
		},
		{
			"bufferView":3,
			"componentType":5126,
			"count":60,
			"max":[
				-0.18092384934425354,
				0.061478257179260254,
				0.05679347738623619
			],
			"min":[
				-0.2200542837381363,
				0.017999976873397827,
				0.05679347738623619
			],
			"type":"VEC3"
		},
		{
			"bufferView":4,
			"componentType":5126,
			"count":60,
			"type":"VEC3"
		},
		{
			"bufferView":5,
			"componentType":5123,
			"count":90,
			"type":"SCALAR"
		},
		{
			"bufferView":6,
			"componentType":5126,
			"count":48,
			"max":[
				0.04733699560165405,
				-0.42765215039253235,
				0.04592391476035118
			],
			"min":[
				0.008206546306610107,
				-0.46895650029182434,
				0.04592391476035118
			],
			"type":"VEC3"
		},
		{
			"bufferView":7,
			"componentType":5126,
			"count":48,
			"type":"VEC3"
		},
		{
			"bufferView":8,
			"componentType":5126,
			"count":39,
			"max":[
				-0.4178803563117981,
				-0.2319999784231186,
				0.04592391476035118
			],
			"min":[
				-0.4396194815635681,
				-0.2733043432235718,
				0.04592391476035118
			],
			"type":"VEC3"
		},
		{
			"bufferView":9,
			"componentType":5126,
			"count":39,
			"type":"VEC3"
		},
		{
			"bufferView":10,
			"componentType":5123,
			"count":63,
			"type":"SCALAR"
		},
		{
			"bufferView":11,
			"componentType":5126,
			"count":18,
			"max":[
				-0.037445634603500366,
				-0.15047824382781982,
				0.03505434840917587
			],
			"min":[
				-0.059184759855270386,
				-0.17765215039253235,
				0.03505434840917587
			],
			"type":"VEC3"
		},
		{
			"bufferView":12,
			"componentType":5126,
			"count":18,
			"type":"VEC3"
		},
		{
			"bufferView":13,
			"componentType":5123,
			"count":30,
			"type":"SCALAR"
		},
		{
			"bufferView":14,
			"componentType":5126,
			"count":36,
			"max":[
				-0.341793417930603,
				-0.036347806453704834,
				0.035054344683885574
			],
			"min":[
				-0.36353254318237305,
				-0.07982605695724487,
				0.035054344683885574
			],
			"type":"VEC3"
		},
		{
			"bufferView":15,
			"componentType":5126,
			"count":36,
			"type":"VEC3"
		},
		{
			"bufferView":16,
			"componentType":5123,
			"count":54,
			"type":"SCALAR"
		},
		{
			"bufferView":17,
			"componentType":5126,
			"count":36,
			"max":[
				-0.1896195113658905,
				-0.2319999635219574,
				0.05679347738623619
			],
			"min":[
				-0.21135863661766052,
				-0.27113041281700134,
				0.05679347738623619
			],
			"type":"VEC3"
		},
		{
			"bufferView":18,
			"componentType":5126,
			"count":36,
			"type":"VEC3"
		},
		{
			"bufferView":19,
			"componentType":5126,
			"count":16,
			"max":[
				0.419076144695282,
				-0.3461304306983948,
				0.05679347738623619
			],
			"min":[
				0.3973369598388672,
				-0.3689565062522888,
				0.05679347738623619
			],
			"type":"VEC3"
		},
		{
			"bufferView":20,
			"componentType":5126,
			"count":16,
			"type":"VEC3"
		},
		{
			"bufferView":21,
			"componentType":5123,
			"count":24,
			"type":"SCALAR"
		},
		{
			"bufferView":22,
			"componentType":5126,
			"count":76,
			"max":[
				0.3516847491264343,
				0.07778263092041016,
				0.04592391476035118
			],
			"min":[
				0.31255435943603516,
				0.022347837686538696,
				0.04592391476035118
			],
			"type":"VEC3"
		},
		{
			"bufferView":23,
			"componentType":5126,
			"count":76,
			"type":"VEC3"
		},
		{
			"bufferView":24,
			"componentType":5123,
			"count":114,
			"type":"SCALAR"
		}
	],
	"bufferViews":[
		{
			"buffer":0,
			"byteLength":576,
			"byteOffset":0,
			"target":34962
		},
		{
			"buffer":0,
			"byteLength":576,
			"byteOffset":576,
			"target":34962
		},
		{
			"buffer":0,
			"byteLength":144,
			"byteOffset":1152,
			"target":34963
		},
		{
			"buffer":0,
			"byteLength":720,
			"byteOffset":1296,
			"target":34962
		},
		{
			"buffer":0,
			"byteLength":720,
			"byteOffset":2016,
			"target":34962
		},
		{
			"buffer":0,
			"byteLength":180,
			"byteOffset":2736,
			"target":34963
		},
		{
			"buffer":0,
			"byteLength":576,
			"byteOffset":2916,
			"target":34962
		},
		{
			"buffer":0,
			"byteLength":576,
			"byteOffset":3492,
			"target":34962
		},
		{
			"buffer":0,
			"byteLength":468,
			"byteOffset":4068,
			"target":34962
		},
		{
			"buffer":0,
			"byteLength":468,
			"byteOffset":4536,
			"target":34962
		},
		{
			"buffer":0,
			"byteLength":126,
			"byteOffset":5004,
			"target":34963
		},
		{
			"buffer":0,
			"byteLength":216,
			"byteOffset":5132,
			"target":34962
		},
		{
			"buffer":0,
			"byteLength":216,
			"byteOffset":5348,
			"target":34962
		},
		{
			"buffer":0,
			"byteLength":60,
			"byteOffset":5564,
			"target":34963
		},
		{
			"buffer":0,
			"byteLength":432,
			"byteOffset":5624,
			"target":34962
		},
		{
			"buffer":0,
			"byteLength":432,
			"byteOffset":6056,
			"target":34962
		},
		{
			"buffer":0,
			"byteLength":108,
			"byteOffset":6488,
			"target":34963
		},
		{
			"buffer":0,
			"byteLength":432,
			"byteOffset":6596,
			"target":34962
		},
		{
			"buffer":0,
			"byteLength":432,
			"byteOffset":7028,
			"target":34962
		},
		{
			"buffer":0,
			"byteLength":192,
			"byteOffset":7460,
			"target":34962
		},
		{
			"buffer":0,
			"byteLength":192,
			"byteOffset":7652,
			"target":34962
		},
		{
			"buffer":0,
			"byteLength":48,
			"byteOffset":7844,
			"target":34963
		},
		{
			"buffer":0,
			"byteLength":912,
			"byteOffset":7892,
			"target":34962
		},
		{
			"buffer":0,
			"byteLength":912,
			"byteOffset":8804,
			"target":34962
		},
		{
			"buffer":0,
			"byteLength":228,
			"byteOffset":9716,
			"target":34963
		}
	],
	"buffers":[
		{
			"byteLength":9944,
			"uri":"PencereGrup5.bin"
		}
	]
}
