{
	"asset":{
		"generator":"Khronos glTF Blender I/O v4.2.60",
		"version":"2.0"
	},
	"scene":0,
	"scenes":[
		{
			"name":"Scene",
			"nodes":[
				0,
				1,
				2,
				3,
				4
			]
		}
	],
	"nodes":[
		{
			"mesh":0,
			"name":"Building_011.004"
		},
		{
			"mesh":1,
			"name":"Pencere23"
		},
		{
			"mesh":2,
			"name":"Pencere25"
		},
		{
			"mesh":3,
			"name":"Building_015.004"
		},
		{
			"mesh":4,
			"name":"Pencere15"
		}
	],
	"materials":[
		{
			"doubleSided":true,
			"name":"PencereSolar",
			"pbrMetallicRoughness":{
				"baseColorFactor":[
					0.9822452664375305,
					0.38132646679878235,
					0.0030353753827512264,
					1
				],
				"metallicFactor":0,
				"roughnessFactor":0.5
			}
		}
	],
	"meshes":[
		{
			"name":"Building_011_Mesh.005",
			"primitives":[
				{
					"attributes":{
						"POSITION":0,
						"NORMAL":1
					},
					"indices":2,
					"material":0
				}
			]
		},
		{
			"name":"Building_040_Mesh.001",
			"primitives":[
				{
					"attributes":{
						"POSITION":3,
						"NORMAL":4
					},
					"indices":5,
					"material":0
				}
			]
		},
		{
			"name":"Building_042_Mesh.001",
			"primitives":[
				{
					"attributes":{
						"POSITION":6,
						"NORMAL":7
					},
					"indices":8,
					"material":0
				}
			]
		},
		{
			"name":"Building_015_Mesh.005",
			"primitives":[
				{
					"attributes":{
						"POSITION":9,
						"NORMAL":10
					},
					"indices":11,
					"material":0
				}
			]
		},
		{
			"name":"Building_032_Mesh.001",
			"primitives":[
				{
					"attributes":{
						"POSITION":12,
						"NORMAL":13
					},
					"indices":14,
					"material":0
				}
			]
		}
	],
	"accessors":[
		{
			"bufferView":0,
			"componentType":5126,
			"count":60,
			"max":[
				-0.33309775590896606,
				-0.2319999784231186,
				0.035054344683885574
			],
			"min":[
				-0.3722281754016876,
				-0.2754782438278198,
				0.035054344683885574
			],
			"type":"VEC3"
		},
		{
			"bufferView":1,
			"componentType":5126,
			"count":60,
			"type":"VEC3"
		},
		{
			"bufferView":2,
			"componentType":5123,
			"count":90,
			"type":"SCALAR"
		},
		{
			"bufferView":3,
			"componentType":5126,
			"count":39,
			"max":[
				-0.037445634603500366,
				-0.3298260569572449,
				0.05679347738623619
			],
			"min":[
				-0.059184730052948,
				-0.37113040685653687,
				0.05679347738623619
			],
			"type":"VEC3"
		},
		{
			"bufferView":4,
			"componentType":5126,
			"count":39,
			"type":"VEC3"
		},
		{
			"bufferView":5,
			"componentType":5123,
			"count":63,
			"type":"SCALAR"
		},
		{
			"bufferView":6,
			"componentType":5126,
			"count":28,
			"max":[
				0.04733699560165405,
				0.14300000667572021,
				0.04592391476035118
			],
			"min":[
				0.008206546306610107,
				0.11582612991333008,
				0.04592391476035118
			],
			"type":"VEC3"
		},
		{
			"bufferView":7,
			"componentType":5126,
			"count":28,
			"type":"VEC3"
		},
		{
			"bufferView":8,
			"componentType":5123,
			"count":42,
			"type":"SCALAR"
		},
		{
			"bufferView":9,
			"componentType":5126,
			"count":36,
			"max":[
				-0.26570644974708557,
				0.061478257179260254,
				0.045923907309770584
			],
			"min":[
				-0.2874455749988556,
				0.02017390727996826,
				0.045923907309770584
			],
			"type":"VEC3"
		},
		{
			"bufferView":10,
			"componentType":5126,
			"count":36,
			"type":"VEC3"
		},
		{
			"bufferView":11,
			"componentType":5123,
			"count":54,
			"type":"SCALAR"
		},
		{
			"bufferView":12,
			"componentType":5126,
			"count":24,
			"max":[
				-0.10483691096305847,
				-0.2483043074607849,
				0.035054344683885574
			],
			"min":[
				-0.14396736025810242,
				-0.2754782438278198,
				0.035054344683885574
			],
			"type":"VEC3"
		},
		{
			"bufferView":13,
			"componentType":5126,
			"count":24,
			"type":"VEC3"
		},
		{
			"bufferView":14,
			"componentType":5123,
			"count":36,
			"type":"SCALAR"
		}
	],
	"bufferViews":[
		{
			"buffer":0,
			"byteLength":720,
			"byteOffset":0,
			"target":34962
		},
		{
			"buffer":0,
			"byteLength":720,
			"byteOffset":720,
			"target":34962
		},
		{
			"buffer":0,
			"byteLength":180,
			"byteOffset":1440,
			"target":34963
		},
		{
			"buffer":0,
			"byteLength":468,
			"byteOffset":1620,
			"target":34962
		},
		{
			"buffer":0,
			"byteLength":468,
			"byteOffset":2088,
			"target":34962
		},
		{
			"buffer":0,
			"byteLength":126,
			"byteOffset":2556,
			"target":34963
		},
		{
			"buffer":0,
			"byteLength":336,
			"byteOffset":2684,
			"target":34962
		},
		{
			"buffer":0,
			"byteLength":336,
			"byteOffset":3020,
			"target":34962
		},
		{
			"buffer":0,
			"byteLength":84,
			"byteOffset":3356,
			"target":34963
		},
		{
			"buffer":0,
			"byteLength":432,
			"byteOffset":3440,
			"target":34962
		},
		{
			"buffer":0,
			"byteLength":432,
			"byteOffset":3872,
			"target":34962
		},
		{
			"buffer":0,
			"byteLength":108,
			"byteOffset":4304,
			"target":34963
		},
		{
			"buffer":0,
			"byteLength":288,
			"byteOffset":4412,
			"target":34962
		},
		{
			"buffer":0,
			"byteLength":288,
			"byteOffset":4700,
			"target":34962
		},
		{
			"buffer":0,
			"byteLength":72,
			"byteOffset":4988,
			"target":34963
		}
	],
	"buffers":[
		{
			"byteLength":5060,
			"uri":"PencereGrup2.bin"
		}
	]
}
