{
	"asset":{
		"generator":"Khronos glTF Blender I/O v4.2.60",
		"version":"2.0"
	},
	"scene":0,
	"scenes":[
		{
			"name":"Scene",
			"nodes":[
				0,
				1,
				2,
				3,
				4
			]
		}
	],
	"nodes":[
		{
			"mesh":0,
			"name":"Building_001.004"
		},
		{
			"mesh":1,
			"name":"Pencere32"
		},
		{
			"mesh":2,
			"name":"Pencere45"
		},
		{
			"mesh":3,
			"name":"Pencere16"
		},
		{
			"mesh":4,
			"name":"Pencere22"
		}
	],
	"materials":[
		{
			"doubleSided":true,
			"name":"PencereSolar",
			"pbrMetallicRoughness":{
				"baseColorFactor":[
					0.9822452664375305,
					0.38132646679878235,
					0.0030353753827512264,
					1
				],
				"metallicFactor":0,
				"roughnessFactor":0.5
			}
		}
	],
	"meshes":[
		{
			"name":"Building_001_Mesh.005",
			"primitives":[
				{
					"attributes":{
						"POSITION":0,
						"NORMAL":1
					},
					"indices":2,
					"material":0
				}
			]
		},
		{
			"name":"Building_049_Mesh.001",
			"primitives":[
				{
					"attributes":{
						"POSITION":3,
						"NORMAL":4
					},
					"indices":5,
					"material":0
				}
			]
		},
		{
			"name":"Building_062_Mesh.001",
			"primitives":[
				{
					"attributes":{
						"POSITION":6,
						"NORMAL":7
					},
					"indices":8,
					"material":0
				}
			]
		},
		{
			"name":"Building_033_Mesh.001",
			"primitives":[
				{
					"attributes":{
						"POSITION":9,
						"NORMAL":10
					},
					"indices":11,
					"material":0
				}
			]
		},
		{
			"name":"Building_039_Mesh.001",
			"primitives":[
				{
					"attributes":{
						"POSITION":12,
						"NORMAL":13
					},
					"indices":14,
					"material":0
				}
			]
		}
	],
	"accessors":[
		{
			"bufferView":0,
			"componentType":5126,
			"count":48,
			"max":[
				-0.40918469429016113,
				0.061478257179260254,
				0.035054344683885574
			],
			"min":[
				-0.4483151435852051,
				0.022347867488861084,
				0.035054344683885574
			],
			"type":"VEC3"
		},
		{
			"bufferView":1,
			"componentType":5126,
			"count":48,
			"type":"VEC3"
		},
		{
			"bufferView":2,
			"componentType":5123,
			"count":72,
			"type":"SCALAR"
		},
		{
			"bufferView":3,
			"componentType":5126,
			"count":72,
			"max":[
				0.12342393398284912,
				0.17560869455337524,
				0.05679347738623619
			],
			"min":[
				0.08429354429244995,
				0.12017393112182617,
				0.05679347738623619
			],
			"type":"VEC3"
		},
		{
			"bufferView":4,
			"componentType":5126,
			"count":72,
			"type":"VEC3"
		},
		{
			"bufferView":5,
			"componentType":5123,
			"count":108,
			"type":"SCALAR"
		},
		{
			"bufferView":6,
			"componentType":5126,
			"count":39,
			"max":[
				0.19081521034240723,
				-0.42765215039253235,
				0.05679347738623619
			],
			"min":[
				0.1690760850906372,
				-0.46895650029182434,
				0.05679347738623619
			],
			"type":"VEC3"
		},
		{
			"bufferView":7,
			"componentType":5126,
			"count":39,
			"type":"VEC3"
		},
		{
			"bufferView":8,
			"componentType":5123,
			"count":63,
			"type":"SCALAR"
		},
		{
			"bufferView":9,
			"componentType":5126,
			"count":38,
			"max":[
				-0.11353257298469543,
				-0.3298260569572449,
				0.035054344683885574
			],
			"min":[
				-0.13527169823646545,
				-0.3689565062522888,
				0.035054344683885574
			],
			"type":"VEC3"
		},
		{
			"bufferView":10,
			"componentType":5126,
			"count":38,
			"type":"VEC3"
		},
		{
			"bufferView":11,
			"componentType":5123,
			"count":60,
			"type":"SCALAR"
		},
		{
			"bufferView":12,
			"componentType":5126,
			"count":32,
			"max":[
				-0.028749972581863403,
				-0.2483043223619461,
				0.04592391476035118
			],
			"min":[
				-0.06788039207458496,
				-0.27113041281700134,
				0.04592391476035118
			],
			"type":"VEC3"
		},
		{
			"bufferView":13,
			"componentType":5126,
			"count":32,
			"type":"VEC3"
		},
		{
			"bufferView":14,
			"componentType":5123,
			"count":48,
			"type":"SCALAR"
		}
	],
	"bufferViews":[
		{
			"buffer":0,
			"byteLength":576,
			"byteOffset":0,
			"target":34962
		},
		{
			"buffer":0,
			"byteLength":576,
			"byteOffset":576,
			"target":34962
		},
		{
			"buffer":0,
			"byteLength":144,
			"byteOffset":1152,
			"target":34963
		},
		{
			"buffer":0,
			"byteLength":864,
			"byteOffset":1296,
			"target":34962
		},
		{
			"buffer":0,
			"byteLength":864,
			"byteOffset":2160,
			"target":34962
		},
		{
			"buffer":0,
			"byteLength":216,
			"byteOffset":3024,
			"target":34963
		},
		{
			"buffer":0,
			"byteLength":468,
			"byteOffset":3240,
			"target":34962
		},
		{
			"buffer":0,
			"byteLength":468,
			"byteOffset":3708,
			"target":34962
		},
		{
			"buffer":0,
			"byteLength":126,
			"byteOffset":4176,
			"target":34963
		},
		{
			"buffer":0,
			"byteLength":456,
			"byteOffset":4304,
			"target":34962
		},
		{
			"buffer":0,
			"byteLength":456,
			"byteOffset":4760,
			"target":34962
		},
		{
			"buffer":0,
			"byteLength":120,
			"byteOffset":5216,
			"target":34963
		},
		{
			"buffer":0,
			"byteLength":384,
			"byteOffset":5336,
			"target":34962
		},
		{
			"buffer":0,
			"byteLength":384,
			"byteOffset":5720,
			"target":34962
		},
		{
			"buffer":0,
			"byteLength":96,
			"byteOffset":6104,
			"target":34963
		}
	],
	"buffers":[
		{
			"byteLength":6200,
			"uri":"PencereGrup8.bin"
		}
	]
}
