{
	"asset":{
		"generator":"Khronos glTF Blender I/O v4.2.60",
		"version":"2.0"
	},
	"scene":0,
	"scenes":[
		{
			"name":"Scene",
			"nodes":[
				0,
				1,
				2,
				3,
				4
			]
		}
	],
	"nodes":[
		{
			"mesh":0,
			"name":"Building_014.004"
		},
		{
			"mesh":1,
			"name":"Pencere38"
		},
		{
			"mesh":2,
			"name":"Pencere43"
		},
		{
			"mesh":3,
			"name":"Pencere6"
		},
		{
			"mesh":4,
			"name":"Pencere34"
		}
	],
	"materials":[
		{
			"doubleSided":true,
			"name":"PencereSolar",
			"pbrMetallicRoughness":{
				"baseColorFactor":[
					0.9822452664375305,
					0.38132646679878235,
					0.0030353753827512264,
					1
				],
				"metallicFactor":0,
				"roughnessFactor":0.5
			}
		}
	],
	"meshes":[
		{
			"name":"Building_014_Mesh.005",
			"primitives":[
				{
					"attributes":{
						"POSITION":0,
						"NORMAL":1
					},
					"indices":2,
					"material":0
				}
			]
		},
		{
			"name":"Building_055_Mesh.001",
			"primitives":[
				{
					"attributes":{
						"POSITION":3,
						"NORMAL":4
					},
					"indices":5,
					"material":0
				}
			]
		},
		{
			"name":"Building_060_Mesh.001",
			"primitives":[
				{
					"attributes":{
						"POSITION":6,
						"NORMAL":7
					},
					"indices":8,
					"material":0
				}
			]
		},
		{
			"name":"Building_023_Mesh.001",
			"primitives":[
				{
					"attributes":{
						"POSITION":9,
						"NORMAL":10
					},
					"indices":11,
					"material":0
				}
			]
		},
		{
			"name":"Building_051_Mesh.001",
			"primitives":[
				{
					"attributes":{
						"POSITION":12,
						"NORMAL":13
					},
					"indices":14,
					"material":0
				}
			]
		}
	],
	"accessors":[
		{
			"bufferView":0,
			"componentType":5126,
			"count":32,
			"max":[
				-0.257010817527771,
				0.14300000667572021,
				0.056793469935655594
			],
			"min":[
				-0.29614123702049255,
				0.12017393112182617,
				0.056793469935655594
			],
			"type":"VEC3"
		},
		{
			"bufferView":1,
			"componentType":5126,
			"count":32,
			"type":"VEC3"
		},
		{
			"bufferView":2,
			"componentType":5123,
			"count":48,
			"type":"SCALAR"
		},
		{
			"bufferView":3,
			"componentType":5126,
			"count":30,
			"max":[
				0.1234239935874939,
				-0.44395649433135986,
				0.04592391476035118
			],
			"min":[
				0.08429354429244995,
				-0.4667825996875763,
				0.04592391476035118
			],
			"type":"VEC3"
		},
		{
			"bufferView":4,
			"componentType":5126,
			"count":30,
			"type":"VEC3"
		},
		{
			"bufferView":5,
			"componentType":5123,
			"count":48,
			"type":"SCALAR"
		},
		{
			"bufferView":6,
			"componentType":5126,
			"count":48,
			"max":[
				0.1995108723640442,
				-0.2319999784231186,
				0.035054344683885574
			],
			"min":[
				0.16038042306900024,
				-0.27113041281700134,
				0.035054344683885574
			],
			"type":"VEC3"
		},
		{
			"bufferView":7,
			"componentType":5126,
			"count":48,
			"type":"VEC3"
		},
		{
			"bufferView":8,
			"componentType":5123,
			"count":72,
			"type":"SCALAR"
		},
		{
			"bufferView":9,
			"componentType":5126,
			"count":60,
			"max":[
				-0.18092384934425354,
				-0.036347806453704834,
				0.035054344683885574
			],
			"min":[
				-0.2200542837381363,
				-0.07982605695724487,
				0.035054344683885574
			],
			"type":"VEC3"
		},
		{
			"bufferView":10,
			"componentType":5126,
			"count":60,
			"type":"VEC3"
		},
		{
			"bufferView":11,
			"componentType":5123,
			"count":90,
			"type":"SCALAR"
		},
		{
			"bufferView":12,
			"componentType":5126,
			"count":63,
			"max":[
				0.12342393398284912,
				-0.036347776651382446,
				0.04592391476035118
			],
			"min":[
				0.08429354429244995,
				-0.07547822594642639,
				0.04592391476035118
			],
			"type":"VEC3"
		},
		{
			"bufferView":13,
			"componentType":5126,
			"count":63,
			"type":"VEC3"
		},
		{
			"bufferView":14,
			"componentType":5123,
			"count":93,
			"type":"SCALAR"
		}
	],
	"bufferViews":[
		{
			"buffer":0,
			"byteLength":384,
			"byteOffset":0,
			"target":34962
		},
		{
			"buffer":0,
			"byteLength":384,
			"byteOffset":384,
			"target":34962
		},
		{
			"buffer":0,
			"byteLength":96,
			"byteOffset":768,
			"target":34963
		},
		{
			"buffer":0,
			"byteLength":360,
			"byteOffset":864,
			"target":34962
		},
		{
			"buffer":0,
			"byteLength":360,
			"byteOffset":1224,
			"target":34962
		},
		{
			"buffer":0,
			"byteLength":96,
			"byteOffset":1584,
			"target":34963
		},
		{
			"buffer":0,
			"byteLength":576,
			"byteOffset":1680,
			"target":34962
		},
		{
			"buffer":0,
			"byteLength":576,
			"byteOffset":2256,
			"target":34962
		},
		{
			"buffer":0,
			"byteLength":144,
			"byteOffset":2832,
			"target":34963
		},
		{
			"buffer":0,
			"byteLength":720,
			"byteOffset":2976,
			"target":34962
		},
		{
			"buffer":0,
			"byteLength":720,
			"byteOffset":3696,
			"target":34962
		},
		{
			"buffer":0,
			"byteLength":180,
			"byteOffset":4416,
			"target":34963
		},
		{
			"buffer":0,
			"byteLength":756,
			"byteOffset":4596,
			"target":34962
		},
		{
			"buffer":0,
			"byteLength":756,
			"byteOffset":5352,
			"target":34962
		},
		{
			"buffer":0,
			"byteLength":186,
			"byteOffset":6108,
			"target":34963
		}
	],
	"buffers":[
		{
			"byteLength":6296,
			"uri":"PencereGrup10.bin"
		}
	]
}
