{
	"asset":{
		"generator":"Khronos glTF Blender I/O v4.2.60",
		"version":"2.0"
	},
	"scene":0,
	"scenes":[
		{
			"name":"Scene",
			"nodes":[
				0,
				1,
				2,
				3,
				4
			]
		}
	],
	"nodes":[
		{
			"mesh":0,
			"name":"Building_000.004"
		},
		{
			"mesh":1,
			"name":"Pencere13"
		},
		{
			"mesh":2,
			"name":"Pencere36"
		},
		{
			"mesh":3,
			"name":"Pencere49"
		},
		{
			"mesh":4,
			"name":"Pencere14"
		}
	],
	"materials":[
		{
			"doubleSided":true,
			"name":"PencereSolar",
			"pbrMetallicRoughness":{
				"baseColorFactor":[
					0.9822452664375305,
					0.38132646679878235,
					0.0030353753827512264,
					1
				],
				"metallicFactor":0,
				"roughnessFactor":0.5
			}
		}
	],
	"meshes":[
		{
			"name":"Building_000_Mesh.006",
			"primitives":[
				{
					"attributes":{
						"POSITION":0,
						"NORMAL":1
					},
					"indices":2,
					"material":0
				}
			]
		},
		{
			"name":"Building_030_Mesh.001",
			"primitives":[
				{
					"attributes":{
						"POSITION":3,
						"NORMAL":4
					},
					"indices":5,
					"material":0
				}
			]
		},
		{
			"name":"Building_053_Mesh.001",
			"primitives":[
				{
					"attributes":{
						"POSITION":6,
						"NORMAL":7
					},
					"indices":8,
					"material":0
				}
			]
		},
		{
			"name":"Building_066_Mesh.001",
			"primitives":[
				{
					"attributes":{
						"POSITION":9,
						"NORMAL":10
					},
					"indices":11,
					"material":0
				}
			]
		},
		{
			"name":"Building_031_Mesh.001",
			"primitives":[
				{
					"attributes":{
						"POSITION":12,
						"NORMAL":13
					},
					"indices":14,
					"material":0
				}
			]
		}
	],
	"accessors":[
		{
			"bufferView":0,
			"componentType":5126,
			"count":48,
			"max":[
				-0.40918469429016113,
				0.15930438041687012,
				0.05679347738623619
			],
			"min":[
				-0.4483151435852051,
				0.11800003051757812,
				0.05679347738623619
			],
			"type":"VEC3"
		},
		{
			"bufferView":1,
			"componentType":5126,
			"count":48,
			"type":"VEC3"
		},
		{
			"bufferView":2,
			"componentType":5123,
			"count":72,
			"type":"SCALAR"
		},
		{
			"bufferView":3,
			"componentType":5126,
			"count":37,
			"max":[
				-0.11353257298469543,
				-0.036347806453704834,
				0.035054344683885574
			],
			"min":[
				-0.13527169823646545,
				-0.07765215635299683,
				0.035054344683885574
			],
			"type":"VEC3"
		},
		{
			"bufferView":4,
			"componentType":5126,
			"count":37,
			"type":"VEC3"
		},
		{
			"bufferView":5,
			"componentType":5123,
			"count":63,
			"type":"SCALAR"
		},
		{
			"bufferView":6,
			"componentType":5126,
			"count":52,
			"max":[
				0.12342393398284912,
				-0.2319999784231186,
				0.04592391476035118
			],
			"min":[
				0.08429354429244995,
				-0.2754782438278198,
				0.04592391476035118
			],
			"type":"VEC3"
		},
		{
			"bufferView":7,
			"componentType":5126,
			"count":52,
			"type":"VEC3"
		},
		{
			"bufferView":8,
			"componentType":5123,
			"count":78,
			"type":"SCALAR"
		},
		{
			"bufferView":9,
			"componentType":5126,
			"count":36,
			"max":[
				0.26690220832824707,
				-0.1341738998889923,
				0.04592391476035118
			],
			"min":[
				0.24516302347183228,
				-0.17330431938171387,
				0.04592391476035118
			],
			"type":"VEC3"
		},
		{
			"bufferView":10,
			"componentType":5126,
			"count":36,
			"type":"VEC3"
		},
		{
			"bufferView":11,
			"componentType":5123,
			"count":54,
			"type":"SCALAR"
		},
		{
			"bufferView":12,
			"componentType":5126,
			"count":28,
			"max":[
				-0.10483691096305847,
				-0.15047824382781982,
				0.035054344683885574
			],
			"min":[
				-0.14396736025810242,
				-0.17765215039253235,
				0.035054344683885574
			],
			"type":"VEC3"
		},
		{
			"bufferView":13,
			"componentType":5126,
			"count":28,
			"type":"VEC3"
		},
		{
			"bufferView":14,
			"componentType":5123,
			"count":42,
			"type":"SCALAR"
		}
	],
	"bufferViews":[
		{
			"buffer":0,
			"byteLength":576,
			"byteOffset":0,
			"target":34962
		},
		{
			"buffer":0,
			"byteLength":576,
			"byteOffset":576,
			"target":34962
		},
		{
			"buffer":0,
			"byteLength":144,
			"byteOffset":1152,
			"target":34963
		},
		{
			"buffer":0,
			"byteLength":444,
			"byteOffset":1296,
			"target":34962
		},
		{
			"buffer":0,
			"byteLength":444,
			"byteOffset":1740,
			"target":34962
		},
		{
			"buffer":0,
			"byteLength":126,
			"byteOffset":2184,
			"target":34963
		},
		{
			"buffer":0,
			"byteLength":624,
			"byteOffset":2312,
			"target":34962
		},
		{
			"buffer":0,
			"byteLength":624,
			"byteOffset":2936,
			"target":34962
		},
		{
			"buffer":0,
			"byteLength":156,
			"byteOffset":3560,
			"target":34963
		},
		{
			"buffer":0,
			"byteLength":432,
			"byteOffset":3716,
			"target":34962
		},
		{
			"buffer":0,
			"byteLength":432,
			"byteOffset":4148,
			"target":34962
		},
		{
			"buffer":0,
			"byteLength":108,
			"byteOffset":4580,
			"target":34963
		},
		{
			"buffer":0,
			"byteLength":336,
			"byteOffset":4688,
			"target":34962
		},
		{
			"buffer":0,
			"byteLength":336,
			"byteOffset":5024,
			"target":34962
		},
		{
			"buffer":0,
			"byteLength":84,
			"byteOffset":5360,
			"target":34963
		}
	],
	"buffers":[
		{
			"byteLength":5444,
			"uri":"PencereGrup1.bin"
		}
	]
}
