{
	"asset":{
		"generator":"Khronos glTF Blender I/O v4.2.60",
		"version":"2.0"
	},
	"scene":0,
	"scenes":[
		{
			"name":"Scene",
			"nodes":[
				0,
				1,
				2,
				3
			]
		}
	],
	"nodes":[
		{
			"mesh":0,
			"name":"Building_012.004"
		},
		{
			"mesh":1,
			"name":"Pencere12"
		},
		{
			"mesh":2,
			"name":"Pencere50"
		},
		{
			"mesh":3,
			"name":"Pencere7"
		}
	],
	"materials":[
		{
			"doubleSided":true,
			"name":"PencereSolar",
			"pbrMetallicRoughness":{
				"baseColorFactor":[
					0.9822452664375305,
					0.38132646679878235,
					0.0030353753827512264,
					1
				],
				"metallicFactor":0,
				"roughnessFactor":0.5
			}
		}
	],
	"meshes":[
		{
			"name":"Building_012_Mesh.005",
			"primitives":[
				{
					"attributes":{
						"POSITION":0,
						"NORMAL":1
					},
					"indices":2,
					"material":0
				}
			]
		},
		{
			"name":"Building_029_Mesh.001",
			"primitives":[
				{
					"attributes":{
						"POSITION":3,
						"NORMAL":4
					},
					"indices":5,
					"material":0
				}
			]
		},
		{
			"name":"Building_067_Mesh.001",
			"primitives":[
				{
					"attributes":{
						"POSITION":6,
						"NORMAL":7
					},
					"indices":8,
					"material":0
				}
			]
		},
		{
			"name":"Building_024_Mesh.001",
			"primitives":[
				{
					"attributes":{
						"POSITION":9,
						"NORMAL":10
					},
					"indices":11,
					"material":0
				}
			]
		}
	],
	"accessors":[
		{
			"bufferView":0,
			"componentType":5126,
			"count":24,
			"max":[
				-0.33309775590896606,
				-0.3461304306983948,
				0.04592391476035118
			],
			"min":[
				-0.3722281754016876,
				-0.3733043074607849,
				0.04592391476035118
			],
			"type":"VEC3"
		},
		{
			"bufferView":1,
			"componentType":5126,
			"count":24,
			"type":"VEC3"
		},
		{
			"bufferView":2,
			"componentType":5123,
			"count":36,
			"type":"SCALAR"
		},
		{
			"bufferView":3,
			"componentType":5126,
			"count":36,
			"max":[
				-0.11353257298469543,
				0.061478257179260254,
				0.035054344683885574
			],
			"min":[
				-0.13527172803878784,
				0.022347837686538696,
				0.035054344683885574
			],
			"type":"VEC3"
		},
		{
			"bufferView":4,
			"componentType":5126,
			"count":36,
			"type":"VEC3"
		},
		{
			"bufferView":5,
			"componentType":5123,
			"count":54,
			"type":"SCALAR"
		},
		{
			"bufferView":6,
			"componentType":5126,
			"count":48,
			"max":[
				0.2669021487236023,
				-0.21569561958312988,
				0.05679347738623619
			],
			"min":[
				0.24516302347183228,
				-0.2733043432235718,
				0.05679347738623619
			],
			"type":"VEC3"
		},
		{
			"bufferView":7,
			"componentType":5126,
			"count":48,
			"type":"VEC3"
		},
		{
			"bufferView":8,
			"componentType":5123,
			"count":72,
			"type":"SCALAR"
		},
		{
			"bufferView":9,
			"componentType":5126,
			"count":56,
			"max":[
				-0.18092386424541473,
				-0.13417387008666992,
				0.035054344683885574
			],
			"min":[
				-0.22005429863929749,
				-0.17547819018363953,
				0.035054344683885574
			],
			"type":"VEC3"
		},
		{
			"bufferView":10,
			"componentType":5126,
			"count":56,
			"type":"VEC3"
		},
		{
			"bufferView":11,
			"componentType":5123,
			"count":84,
			"type":"SCALAR"
		}
	],
	"bufferViews":[
		{
			"buffer":0,
			"byteLength":288,
			"byteOffset":0,
			"target":34962
		},
		{
			"buffer":0,
			"byteLength":288,
			"byteOffset":288,
			"target":34962
		},
		{
			"buffer":0,
			"byteLength":72,
			"byteOffset":576,
			"target":34963
		},
		{
			"buffer":0,
			"byteLength":432,
			"byteOffset":648,
			"target":34962
		},
		{
			"buffer":0,
			"byteLength":432,
			"byteOffset":1080,
			"target":34962
		},
		{
			"buffer":0,
			"byteLength":108,
			"byteOffset":1512,
			"target":34963
		},
		{
			"buffer":0,
			"byteLength":576,
			"byteOffset":1620,
			"target":34962
		},
		{
			"buffer":0,
			"byteLength":576,
			"byteOffset":2196,
			"target":34962
		},
		{
			"buffer":0,
			"byteLength":144,
			"byteOffset":2772,
			"target":34963
		},
		{
			"buffer":0,
			"byteLength":672,
			"byteOffset":2916,
			"target":34962
		},
		{
			"buffer":0,
			"byteLength":672,
			"byteOffset":3588,
			"target":34962
		},
		{
			"buffer":0,
			"byteLength":168,
			"byteOffset":4260,
			"target":34963
		}
	],
	"buffers":[
		{
			"byteLength":4428,
			"uri":"PencereGrup14.bin"
		}
	]
}
