{
	"asset":{
		"generator":"Khronos glTF Blender I/O v4.2.60",
		"version":"2.0"
	},
	"scene":0,
	"scenes":[
		{
			"name":"Scene",
			"nodes":[
				0,
				1,
				2,
				3,
				4
			]
		}
	],
	"nodes":[
		{
			"mesh":0,
			"name":"Building_003.004"
		},
		{
			"mesh":1,
			"name":"Building_016.004"
		},
		{
			"mesh":2,
			"name":"Pencere47"
		},
		{
			"mesh":3,
			"name":"Pencere11"
		},
		{
			"mesh":4,
			"name":"Pencere27"
		}
	],
	"materials":[
		{
			"doubleSided":true,
			"name":"PencereSolar",
			"pbrMetallicRoughness":{
				"baseColorFactor":[
					0.9822452664375305,
					0.38132646679878235,
					0.0030353753827512264,
					1
				],
				"metallicFactor":0,
				"roughnessFactor":0.5
			}
		}
	],
	"meshes":[
		{
			"name":"Building_003_Mesh.005",
			"primitives":[
				{
					"attributes":{
						"POSITION":0,
						"NORMAL":1
					},
					"indices":2,
					"material":0
				}
			]
		},
		{
			"name":"Building_016_Mesh.005",
			"primitives":[
				{
					"attributes":{
						"POSITION":3,
						"NORMAL":4
					},
					"indices":5,
					"material":0
				}
			]
		},
		{
			"name":"Building_064_Mesh.001",
			"primitives":[
				{
					"attributes":{
						"POSITION":6,
						"NORMAL":7
					},
					"indices":8,
					"material":0
				}
			]
		},
		{
			"name":"Building_028_Mesh.001",
			"primitives":[
				{
					"attributes":{
						"POSITION":9,
						"NORMAL":10
					},
					"indices":11,
					"material":0
				}
			]
		},
		{
			"name":"Building_044_Mesh.001",
			"primitives":[
				{
					"attributes":{
						"POSITION":12,
						"NORMAL":13
					},
					"indices":14,
					"material":0
				}
			]
		}
	],
	"accessors":[
		{
			"bufferView":0,
			"componentType":5126,
			"count":39,
			"max":[
				-0.4178803563117981,
				-0.1341738998889923,
				0.05679347738623619
			],
			"min":[
				-0.4396194815635681,
				-0.1754782497882843,
				0.05679347738623619
			],
			"type":"VEC3"
		},
		{
			"bufferView":1,
			"componentType":5126,
			"count":39,
			"type":"VEC3"
		},
		{
			"bufferView":2,
			"componentType":5123,
			"count":63,
			"type":"SCALAR"
		},
		{
			"bufferView":3,
			"componentType":5126,
			"count":44,
			"max":[
				-0.26570647954940796,
				-0.02004346251487732,
				0.056793469935655594
			],
			"min":[
				-0.287445604801178,
				-0.07765215635299683,
				0.056793469935655594
			],
			"type":"VEC3"
		},
		{
			"bufferView":4,
			"componentType":5126,
			"count":44,
			"type":"VEC3"
		},
		{
			"bufferView":5,
			"componentType":5123,
			"count":66,
			"type":"SCALAR"
		},
		{
			"bufferView":6,
			"componentType":5126,
			"count":56,
			"max":[
				0.27559781074523926,
				0.07778263092041016,
				0.035054344683885574
			],
			"min":[
				0.2364673614501953,
				0.02017390727996826,
				0.035054344683885574
			],
			"type":"VEC3"
		},
		{
			"bufferView":7,
			"componentType":5126,
			"count":56,
			"type":"VEC3"
		},
		{
			"bufferView":8,
			"componentType":5123,
			"count":84,
			"type":"SCALAR"
		},
		{
			"bufferView":9,
			"componentType":5126,
			"count":38,
			"max":[
				-0.11353257298469543,
				0.15930438041687012,
				0.035054344683885574
			],
			"min":[
				-0.13527169823646545,
				0.12017399072647095,
				0.035054344683885574
			],
			"type":"VEC3"
		},
		{
			"bufferView":10,
			"componentType":5126,
			"count":38,
			"type":"VEC3"
		},
		{
			"bufferView":11,
			"componentType":5123,
			"count":60,
			"type":"SCALAR"
		},
		{
			"bufferView":12,
			"componentType":5126,
			"count":28,
			"max":[
				0.04733699560165405,
				-0.05265215039253235,
				0.035054344683885574
			],
			"min":[
				0.008206546306610107,
				-0.07982602715492249,
				0.035054344683885574
			],
			"type":"VEC3"
		},
		{
			"bufferView":13,
			"componentType":5126,
			"count":28,
			"type":"VEC3"
		},
		{
			"bufferView":14,
			"componentType":5123,
			"count":42,
			"type":"SCALAR"
		}
	],
	"bufferViews":[
		{
			"buffer":0,
			"byteLength":468,
			"byteOffset":0,
			"target":34962
		},
		{
			"buffer":0,
			"byteLength":468,
			"byteOffset":468,
			"target":34962
		},
		{
			"buffer":0,
			"byteLength":126,
			"byteOffset":936,
			"target":34963
		},
		{
			"buffer":0,
			"byteLength":528,
			"byteOffset":1064,
			"target":34962
		},
		{
			"buffer":0,
			"byteLength":528,
			"byteOffset":1592,
			"target":34962
		},
		{
			"buffer":0,
			"byteLength":132,
			"byteOffset":2120,
			"target":34963
		},
		{
			"buffer":0,
			"byteLength":672,
			"byteOffset":2252,
			"target":34962
		},
		{
			"buffer":0,
			"byteLength":672,
			"byteOffset":2924,
			"target":34962
		},
		{
			"buffer":0,
			"byteLength":168,
			"byteOffset":3596,
			"target":34963
		},
		{
			"buffer":0,
			"byteLength":456,
			"byteOffset":3764,
			"target":34962
		},
		{
			"buffer":0,
			"byteLength":456,
			"byteOffset":4220,
			"target":34962
		},
		{
			"buffer":0,
			"byteLength":120,
			"byteOffset":4676,
			"target":34963
		},
		{
			"buffer":0,
			"byteLength":336,
			"byteOffset":4796,
			"target":34962
		},
		{
			"buffer":0,
			"byteLength":336,
			"byteOffset":5132,
			"target":34962
		},
		{
			"buffer":0,
			"byteLength":84,
			"byteOffset":5468,
			"target":34963
		}
	],
	"buffers":[
		{
			"byteLength":5552,
			"uri":"PencereGrup4.bin"
		}
	]
}
