{
	"asset":{
		"generator":"Khronos glTF Blender I/O v4.2.60",
		"version":"2.0"
	},
	"scene":0,
	"scenes":[
		{
			"name":"Scene",
			"nodes":[
				0,
				1,
				2,
				3,
				4
			]
		}
	],
	"nodes":[
		{
			"mesh":0,
			"name":"Building_007.004"
		},
		{
			"mesh":1,
			"name":"Building_006.004"
		},
		{
			"mesh":2,
			"name":"Pencere39"
		},
		{
			"mesh":3,
			"name":"Pencere30"
		},
		{
			"mesh":4,
			"name":"Pencere42"
		}
	],
	"materials":[
		{
			"doubleSided":true,
			"name":"PencereSolar",
			"pbrMetallicRoughness":{
				"baseColorFactor":[
					0.9822452664375305,
					0.38132646679878235,
					0.0030353753827512264,
					1
				],
				"metallicFactor":0,
				"roughnessFactor":0.5
			}
		}
	],
	"meshes":[
		{
			"name":"Building_007_Mesh.005",
			"primitives":[
				{
					"attributes":{
						"POSITION":0,
						"NORMAL":1
					},
					"indices":2,
					"material":0
				}
			]
		},
		{
			"name":"Building_006_Mesh.005",
			"primitives":[
				{
					"attributes":{
						"POSITION":3,
						"NORMAL":4
					},
					"indices":5,
					"material":0
				}
			]
		},
		{
			"name":"Building_056_Mesh.001",
			"primitives":[
				{
					"attributes":{
						"POSITION":6,
						"NORMAL":7
					},
					"indices":8,
					"material":0
				}
			]
		},
		{
			"name":"Building_047_Mesh.001",
			"primitives":[
				{
					"attributes":{
						"POSITION":9,
						"NORMAL":10
					},
					"indices":11,
					"material":0
				}
			]
		},
		{
			"name":"Building_059_Mesh.001",
			"primitives":[
				{
					"attributes":{
						"POSITION":12,
						"NORMAL":13
					},
					"indices":14,
					"material":0
				}
			]
		}
	],
	"accessors":[
		{
			"bufferView":0,
			"componentType":5126,
			"count":28,
			"max":[
				-0.33309775590896606,
				0.143000066280365,
				0.04592391476035118
			],
			"min":[
				-0.3722281754016876,
				0.12017399072647095,
				0.04592391476035118
			],
			"type":"VEC3"
		},
		{
			"bufferView":1,
			"componentType":5126,
			"count":28,
			"type":"VEC3"
		},
		{
			"bufferView":2,
			"componentType":5123,
			"count":42,
			"type":"SCALAR"
		},
		{
			"bufferView":3,
			"componentType":5126,
			"count":76,
			"max":[
				-0.40918469429016113,
				-0.41134780645370483,
				0.05679347738623619
			],
			"min":[
				-0.4483151435852051,
				-0.4711304008960724,
				0.05679347738623619
			],
			"type":"VEC3"
		},
		{
			"bufferView":4,
			"componentType":5126,
			"count":76,
			"type":"VEC3"
		},
		{
			"bufferView":5,
			"componentType":5123,
			"count":120,
			"type":"SCALAR"
		},
		{
			"bufferView":6,
			"componentType":5126,
			"count":56,
			"max":[
				0.1995108723640442,
				0.15930438041687012,
				0.035054344683885574
			],
			"min":[
				0.16038042306900024,
				0.12017393112182617,
				0.035054344683885574
			],
			"type":"VEC3"
		},
		{
			"bufferView":7,
			"componentType":5126,
			"count":56,
			"type":"VEC3"
		},
		{
			"bufferView":8,
			"componentType":5123,
			"count":84,
			"type":"SCALAR"
		},
		{
			"bufferView":9,
			"componentType":5126,
			"count":60,
			"max":[
				0.04733699560165405,
				-0.3298260569572449,
				0.045923907309770584
			],
			"min":[
				0.008206546306610107,
				-0.3733043074607849,
				0.045923907309770584
			],
			"type":"VEC3"
		},
		{
			"bufferView":10,
			"componentType":5126,
			"count":60,
			"type":"VEC3"
		},
		{
			"bufferView":11,
			"componentType":5123,
			"count":90,
			"type":"SCALAR"
		},
		{
			"bufferView":12,
			"componentType":5126,
			"count":64,
			"max":[
				0.1995108723640442,
				-0.13417387008666992,
				0.04592391476035118
			],
			"min":[
				0.16038042306900024,
				-0.1754782497882843,
				0.04592391476035118
			],
			"type":"VEC3"
		},
		{
			"bufferView":13,
			"componentType":5126,
			"count":64,
			"type":"VEC3"
		},
		{
			"bufferView":14,
			"componentType":5123,
			"count":96,
			"type":"SCALAR"
		}
	],
	"bufferViews":[
		{
			"buffer":0,
			"byteLength":336,
			"byteOffset":0,
			"target":34962
		},
		{
			"buffer":0,
			"byteLength":336,
			"byteOffset":336,
			"target":34962
		},
		{
			"buffer":0,
			"byteLength":84,
			"byteOffset":672,
			"target":34963
		},
		{
			"buffer":0,
			"byteLength":912,
			"byteOffset":756,
			"target":34962
		},
		{
			"buffer":0,
			"byteLength":912,
			"byteOffset":1668,
			"target":34962
		},
		{
			"buffer":0,
			"byteLength":240,
			"byteOffset":2580,
			"target":34963
		},
		{
			"buffer":0,
			"byteLength":672,
			"byteOffset":2820,
			"target":34962
		},
		{
			"buffer":0,
			"byteLength":672,
			"byteOffset":3492,
			"target":34962
		},
		{
			"buffer":0,
			"byteLength":168,
			"byteOffset":4164,
			"target":34963
		},
		{
			"buffer":0,
			"byteLength":720,
			"byteOffset":4332,
			"target":34962
		},
		{
			"buffer":0,
			"byteLength":720,
			"byteOffset":5052,
			"target":34962
		},
		{
			"buffer":0,
			"byteLength":180,
			"byteOffset":5772,
			"target":34963
		},
		{
			"buffer":0,
			"byteLength":768,
			"byteOffset":5952,
			"target":34962
		},
		{
			"buffer":0,
			"byteLength":768,
			"byteOffset":6720,
			"target":34962
		},
		{
			"buffer":0,
			"byteLength":192,
			"byteOffset":7488,
			"target":34963
		}
	],
	"buffers":[
		{
			"byteLength":7680,
			"uri":"PencereGrup7.bin"
		}
	]
}
