{
	"asset":{
		"generator":"Khronos glTF Blender I/O v4.2.60",
		"version":"2.0"
	},
	"scene":0,
	"scenes":[
		{
			"name":"Scene",
			"nodes":[
				0,
				1,
				2,
				3,
				4
			]
		}
	],
	"nodes":[
		{
			"mesh":0,
			"name":"Building_002.004"
		},
		{
			"mesh":1,
			"name":"Pencere24"
		},
		{
			"mesh":2,
			"name":"Pencere40"
		},
		{
			"mesh":3,
			"name":"Pencere26"
		},
		{
			"mesh":4,
			"name":"Pencere9"
		}
	],
	"materials":[
		{
			"doubleSided":true,
			"name":"PencereSolar",
			"pbrMetallicRoughness":{
				"baseColorFactor":[
					0.9822452664375305,
					0.38132646679878235,
					0.0030353753827512264,
					1
				],
				"metallicFactor":0,
				"roughnessFactor":0.5
			}
		}
	],
	"meshes":[
		{
			"name":"Building_002_Mesh.005",
			"primitives":[
				{
					"attributes":{
						"POSITION":0,
						"NORMAL":1
					},
					"indices":2,
					"material":0
				}
			]
		},
		{
			"name":"Building_041_Mesh.001",
			"primitives":[
				{
					"attributes":{
						"POSITION":3,
						"NORMAL":4
					},
					"indices":5,
					"material":0
				}
			]
		},
		{
			"name":"Building_057_Mesh.001",
			"primitives":[
				{
					"attributes":{
						"POSITION":6,
						"NORMAL":7
					},
					"indices":5,
					"material":0
				}
			]
		},
		{
			"name":"Building_043_Mesh.001",
			"primitives":[
				{
					"attributes":{
						"POSITION":8,
						"NORMAL":9
					},
					"indices":10,
					"material":0
				}
			]
		},
		{
			"name":"Building_026_Mesh.001",
			"primitives":[
				{
					"attributes":{
						"POSITION":11,
						"NORMAL":12
					},
					"indices":13,
					"material":0
				}
			]
		}
	],
	"accessors":[
		{
			"bufferView":0,
			"componentType":5126,
			"count":38,
			"max":[
				-0.4178803563117981,
				-0.036347776651382446,
				0.035054344683885574
			],
			"min":[
				-0.4396194815635681,
				-0.07547822594642639,
				0.035054344683885574
			],
			"type":"VEC3"
		},
		{
			"bufferView":1,
			"componentType":5126,
			"count":38,
			"type":"VEC3"
		},
		{
			"bufferView":2,
			"componentType":5123,
			"count":60,
			"type":"SCALAR"
		},
		{
			"bufferView":3,
			"componentType":5126,
			"count":36,
			"max":[
				-0.037445634603500366,
				-0.42765215039253235,
				0.035054344683885574
			],
			"min":[
				-0.059184759855270386,
				-0.4711304008960724,
				0.035054344683885574
			],
			"type":"VEC3"
		},
		{
			"bufferView":4,
			"componentType":5126,
			"count":36,
			"type":"VEC3"
		},
		{
			"bufferView":5,
			"componentType":5123,
			"count":54,
			"type":"SCALAR"
		},
		{
			"bufferView":6,
			"componentType":5126,
			"count":36,
			"max":[
				0.19081521034240723,
				0.061478257179260254,
				0.05679347738623619
			],
			"min":[
				0.1690760850906372,
				0.02017390727996826,
				0.05679347738623619
			],
			"type":"VEC3"
		},
		{
			"bufferView":7,
			"componentType":5126,
			"count":36,
			"type":"VEC3"
		},
		{
			"bufferView":8,
			"componentType":5126,
			"count":39,
			"max":[
				0.03864133358001709,
				0.061478257179260254,
				0.05679347738623619
			],
			"min":[
				0.01690220832824707,
				0.02017390727996826,
				0.05679347738623619
			],
			"type":"VEC3"
		},
		{
			"bufferView":9,
			"componentType":5126,
			"count":39,
			"type":"VEC3"
		},
		{
			"bufferView":10,
			"componentType":5123,
			"count":63,
			"type":"SCALAR"
		},
		{
			"bufferView":11,
			"componentType":5126,
			"count":20,
			"max":[
				-0.1896195262670517,
				-0.3461304306983948,
				0.04592391476035118
			],
			"min":[
				-0.21135865151882172,
				-0.37113040685653687,
				0.04592391476035118
			],
			"type":"VEC3"
		},
		{
			"bufferView":12,
			"componentType":5126,
			"count":20,
			"type":"VEC3"
		},
		{
			"bufferView":13,
			"componentType":5123,
			"count":30,
			"type":"SCALAR"
		}
	],
	"bufferViews":[
		{
			"buffer":0,
			"byteLength":456,
			"byteOffset":0,
			"target":34962
		},
		{
			"buffer":0,
			"byteLength":456,
			"byteOffset":456,
			"target":34962
		},
		{
			"buffer":0,
			"byteLength":120,
			"byteOffset":912,
			"target":34963
		},
		{
			"buffer":0,
			"byteLength":432,
			"byteOffset":1032,
			"target":34962
		},
		{
			"buffer":0,
			"byteLength":432,
			"byteOffset":1464,
			"target":34962
		},
		{
			"buffer":0,
			"byteLength":108,
			"byteOffset":1896,
			"target":34963
		},
		{
			"buffer":0,
			"byteLength":432,
			"byteOffset":2004,
			"target":34962
		},
		{
			"buffer":0,
			"byteLength":432,
			"byteOffset":2436,
			"target":34962
		},
		{
			"buffer":0,
			"byteLength":468,
			"byteOffset":2868,
			"target":34962
		},
		{
			"buffer":0,
			"byteLength":468,
			"byteOffset":3336,
			"target":34962
		},
		{
			"buffer":0,
			"byteLength":126,
			"byteOffset":3804,
			"target":34963
		},
		{
			"buffer":0,
			"byteLength":240,
			"byteOffset":3932,
			"target":34962
		},
		{
			"buffer":0,
			"byteLength":240,
			"byteOffset":4172,
			"target":34962
		},
		{
			"buffer":0,
			"byteLength":60,
			"byteOffset":4412,
			"target":34963
		}
	],
	"buffers":[
		{
			"byteLength":4472,
			"uri":"PencereGrup12.bin"
		}
	]
}
