{
	"asset":{
		"generator":"Khronos glTF Blender I/O v4.2.60",
		"version":"2.0"
	},
	"scene":0,
	"scenes":[
		{
			"name":"Scene",
			"nodes":[
				0,
				1,
				2,
				3,
				4
			]
		}
	],
	"nodes":[
		{
			"mesh":0,
			"name":"Building_013.004"
		},
		{
			"mesh":1,
			"name":"Pencere18"
		},
		{
			"mesh":2,
			"name":"Pencere28"
		},
		{
			"mesh":3,
			"name":"Building_018.009",
			"translation":[
				0,
				0,
				0.0005000000237487257
			]
		},
		{
			"mesh":4,
			"name":"Pencere29"
		}
	],
	"materials":[
		{
			"doubleSided":true,
			"name":"PencereSolar",
			"pbrMetallicRoughness":{
				"baseColorFactor":[
					0.9822452664375305,
					0.38132646679878235,
					0.0030353753827512264,
					1
				],
				"metallicFactor":0,
				"roughnessFactor":0.5
			}
		}
	],
	"meshes":[
		{
			"name":"Building_013_Mesh.005",
			"primitives":[
				{
					"attributes":{
						"POSITION":0,
						"NORMAL":1
					},
					"indices":2,
					"material":0
				}
			]
		},
		{
			"name":"Building_035_Mesh.001",
			"primitives":[
				{
					"attributes":{
						"POSITION":3,
						"NORMAL":4
					},
					"indices":5,
					"material":0
				}
			]
		},
		{
			"name":"Building_045_Mesh.001",
			"primitives":[
				{
					"attributes":{
						"POSITION":6,
						"NORMAL":7
					},
					"indices":5,
					"material":0
				}
			]
		},
		{
			"name":"Building_018_Mesh.003",
			"primitives":[
				{
					"attributes":{
						"POSITION":8,
						"NORMAL":9
					},
					"indices":10,
					"material":0
				}
			]
		},
		{
			"name":"Building_046_Mesh.001",
			"primitives":[
				{
					"attributes":{
						"POSITION":11,
						"NORMAL":12
					},
					"indices":13,
					"material":0
				}
			]
		}
	],
	"accessors":[
		{
			"bufferView":0,
			"componentType":5126,
			"count":48,
			"max":[
				-0.33309775590896606,
				-0.42765215039253235,
				0.035054344683885574
			],
			"min":[
				-0.3722281754016876,
				-0.46895650029182434,
				0.035054344683885574
			],
			"type":"VEC3"
		},
		{
			"bufferView":1,
			"componentType":5126,
			"count":48,
			"type":"VEC3"
		},
		{
			"bufferView":2,
			"componentType":5123,
			"count":72,
			"type":"SCALAR"
		},
		{
			"bufferView":3,
			"componentType":5126,
			"count":20,
			"max":[
				-0.03744560480117798,
				0.14300000667572021,
				0.04592391476035118
			],
			"min":[
				-0.059184730052948,
				0.1158260703086853,
				0.04592391476035118
			],
			"type":"VEC3"
		},
		{
			"bufferView":4,
			"componentType":5126,
			"count":20,
			"type":"VEC3"
		},
		{
			"bufferView":5,
			"componentType":5123,
			"count":30,
			"type":"SCALAR"
		},
		{
			"bufferView":6,
			"componentType":5126,
			"count":20,
			"max":[
				0.03864136338233948,
				-0.15047824382781982,
				0.05679347738623619
			],
			"min":[
				0.01690220832824707,
				-0.17765215039253235,
				0.05679347738623619
			],
			"type":"VEC3"
		},
		{
			"bufferView":7,
			"componentType":5126,
			"count":20,
			"type":"VEC3"
		},
		{
			"bufferView":8,
			"componentType":5126,
			"count":32,
			"max":[
				-0.257010817527771,
				-0.2483043223619461,
				0.04483695700764656
			],
			"min":[
				-0.29614123702049255,
				-0.2754782438278198,
				0.04483695700764656
			],
			"type":"VEC3"
		},
		{
			"bufferView":9,
			"componentType":5126,
			"count":32,
			"type":"VEC3"
		},
		{
			"bufferView":10,
			"componentType":5123,
			"count":48,
			"type":"SCALAR"
		},
		{
			"bufferView":11,
			"componentType":5126,
			"count":18,
			"max":[
				0.03864133358001709,
				-0.2483043223619461,
				0.04592391476035118
			],
			"min":[
				0.016902178525924683,
				-0.2733043432235718,
				0.04592391476035118
			],
			"type":"VEC3"
		},
		{
			"bufferView":12,
			"componentType":5126,
			"count":18,
			"type":"VEC3"
		},
		{
			"bufferView":13,
			"componentType":5123,
			"count":30,
			"type":"SCALAR"
		}
	],
	"bufferViews":[
		{
			"buffer":0,
			"byteLength":576,
			"byteOffset":0,
			"target":34962
		},
		{
			"buffer":0,
			"byteLength":576,
			"byteOffset":576,
			"target":34962
		},
		{
			"buffer":0,
			"byteLength":144,
			"byteOffset":1152,
			"target":34963
		},
		{
			"buffer":0,
			"byteLength":240,
			"byteOffset":1296,
			"target":34962
		},
		{
			"buffer":0,
			"byteLength":240,
			"byteOffset":1536,
			"target":34962
		},
		{
			"buffer":0,
			"byteLength":60,
			"byteOffset":1776,
			"target":34963
		},
		{
			"buffer":0,
			"byteLength":240,
			"byteOffset":1836,
			"target":34962
		},
		{
			"buffer":0,
			"byteLength":240,
			"byteOffset":2076,
			"target":34962
		},
		{
			"buffer":0,
			"byteLength":384,
			"byteOffset":2316,
			"target":34962
		},
		{
			"buffer":0,
			"byteLength":384,
			"byteOffset":2700,
			"target":34962
		},
		{
			"buffer":0,
			"byteLength":96,
			"byteOffset":3084,
			"target":34963
		},
		{
			"buffer":0,
			"byteLength":216,
			"byteOffset":3180,
			"target":34962
		},
		{
			"buffer":0,
			"byteLength":216,
			"byteOffset":3396,
			"target":34962
		},
		{
			"buffer":0,
			"byteLength":60,
			"byteOffset":3612,
			"target":34963
		}
	],
	"buffers":[
		{
			"byteLength":3672,
			"uri":"PencereGrup9.bin"
		}
	]
}
