{
	"asset":{
		"generator":"Khronos glTF Blender I/O v4.2.60",
		"version":"2.0"
	},
	"scene":0,
	"scenes":[
		{
			"name":"Scene",
			"nodes":[
				0,
				1,
				2,
				3,
				4
			]
		}
	],
	"nodes":[
		{
			"mesh":0,
			"name":"Building_008.004"
		},
		{
			"mesh":1,
			"name":"Pencere3"
		},
		{
			"mesh":2,
			"name":"Pencere48"
		},
		{
			"mesh":3,
			"name":"Building_010.004"
		},
		{
			"mesh":4,
			"name":"Pencere20"
		}
	],
	"materials":[
		{
			"doubleSided":true,
			"name":"PencereSolar",
			"pbrMetallicRoughness":{
				"baseColorFactor":[
					0.9822452664375305,
					0.38132646679878235,
					0.0030353753827512264,
					1
				],
				"metallicFactor":0,
				"roughnessFactor":0.5
			}
		}
	],
	"meshes":[
		{
			"name":"Building_008_Mesh.005",
			"primitives":[
				{
					"attributes":{
						"POSITION":0,
						"NORMAL":1
					},
					"indices":2,
					"material":0
				}
			]
		},
		{
			"name":"Building_019_Mesh.001",
			"primitives":[
				{
					"attributes":{
						"POSITION":3,
						"NORMAL":4
					},
					"indices":5,
					"material":0
				}
			]
		},
		{
			"name":"Building_065_Mesh.001",
			"primitives":[
				{
					"attributes":{
						"POSITION":6,
						"NORMAL":7
					},
					"indices":8,
					"material":0
				}
			]
		},
		{
			"name":"Building_010_Mesh.005",
			"primitives":[
				{
					"attributes":{
						"POSITION":9,
						"NORMAL":10
					},
					"indices":11,
					"material":0
				}
			]
		},
		{
			"name":"Building_037_Mesh.001",
			"primitives":[
				{
					"attributes":{
						"POSITION":12,
						"NORMAL":13
					},
					"indices":14,
					"material":0
				}
			]
		}
	],
	"accessors":[
		{
			"bufferView":0,
			"componentType":5126,
			"count":56,
			"max":[
				-0.33309775590896606,
				0.061478257179260254,
				0.035054344683885574
			],
			"min":[
				-0.3722281754016876,
				0.022347837686538696,
				0.035054344683885574
			],
			"type":"VEC3"
		},
		{
			"bufferView":1,
			"componentType":5126,
			"count":56,
			"type":"VEC3"
		},
		{
			"bufferView":2,
			"componentType":5123,
			"count":84,
			"type":"SCALAR"
		},
		{
			"bufferView":3,
			"componentType":5126,
			"count":30,
			"max":[
				-0.257010817527771,
				-0.44395649433135986,
				0.035054344683885574
			],
			"min":[
				-0.29614126682281494,
				-0.4667825996875763,
				0.035054344683885574
			],
			"type":"VEC3"
		},
		{
			"bufferView":4,
			"componentType":5126,
			"count":30,
			"type":"VEC3"
		},
		{
			"bufferView":5,
			"componentType":5123,
			"count":48,
			"type":"SCALAR"
		},
		{
			"bufferView":6,
			"componentType":5126,
			"count":48,
			"max":[
				0.27559781074523926,
				-0.036347776651382446,
				0.05679347738623619
			],
			"min":[
				0.2364674210548401,
				-0.07765215635299683,
				0.05679347738623619
			],
			"type":"VEC3"
		},
		{
			"bufferView":7,
			"componentType":5126,
			"count":48,
			"type":"VEC3"
		},
		{
			"bufferView":8,
			"componentType":5123,
			"count":72,
			"type":"SCALAR"
		},
		{
			"bufferView":9,
			"componentType":5126,
			"count":48,
			"max":[
				-0.34179338812828064,
				-0.11786952614784241,
				0.05679347738623619
			],
			"min":[
				-0.36353254318237305,
				-0.17547819018363953,
				0.05679347738623619
			],
			"type":"VEC3"
		},
		{
			"bufferView":10,
			"componentType":5126,
			"count":48,
			"type":"VEC3"
		},
		{
			"bufferView":11,
			"componentType":5123,
			"count":72,
			"type":"SCALAR"
		},
		{
			"bufferView":12,
			"componentType":5126,
			"count":60,
			"max":[
				-0.028749972581863403,
				-0.02004346251487732,
				0.04592391476035118
			],
			"min":[
				-0.06788039207458496,
				-0.07547822594642639,
				0.04592391476035118
			],
			"type":"VEC3"
		},
		{
			"bufferView":13,
			"componentType":5126,
			"count":60,
			"type":"VEC3"
		},
		{
			"bufferView":14,
			"componentType":5123,
			"count":90,
			"type":"SCALAR"
		}
	],
	"bufferViews":[
		{
			"buffer":0,
			"byteLength":672,
			"byteOffset":0,
			"target":34962
		},
		{
			"buffer":0,
			"byteLength":672,
			"byteOffset":672,
			"target":34962
		},
		{
			"buffer":0,
			"byteLength":168,
			"byteOffset":1344,
			"target":34963
		},
		{
			"buffer":0,
			"byteLength":360,
			"byteOffset":1512,
			"target":34962
		},
		{
			"buffer":0,
			"byteLength":360,
			"byteOffset":1872,
			"target":34962
		},
		{
			"buffer":0,
			"byteLength":96,
			"byteOffset":2232,
			"target":34963
		},
		{
			"buffer":0,
			"byteLength":576,
			"byteOffset":2328,
			"target":34962
		},
		{
			"buffer":0,
			"byteLength":576,
			"byteOffset":2904,
			"target":34962
		},
		{
			"buffer":0,
			"byteLength":144,
			"byteOffset":3480,
			"target":34963
		},
		{
			"buffer":0,
			"byteLength":576,
			"byteOffset":3624,
			"target":34962
		},
		{
			"buffer":0,
			"byteLength":576,
			"byteOffset":4200,
			"target":34962
		},
		{
			"buffer":0,
			"byteLength":144,
			"byteOffset":4776,
			"target":34963
		},
		{
			"buffer":0,
			"byteLength":720,
			"byteOffset":4920,
			"target":34962
		},
		{
			"buffer":0,
			"byteLength":720,
			"byteOffset":5640,
			"target":34962
		},
		{
			"buffer":0,
			"byteLength":180,
			"byteOffset":6360,
			"target":34963
		}
	],
	"buffers":[
		{
			"byteLength":6540,
			"uri":"PencereGrup3.bin"
		}
	]
}
