{
	"asset":{
		"generator":"Khronos glTF Blender I/O v4.2.60",
		"version":"2.0"
	},
	"scene":0,
	"scenes":[
		{
			"name":"Scene",
			"nodes":[
				0,
				1,
				2,
				3,
				4
			]
		}
	],
	"nodes":[
		{
			"mesh":0,
			"name":"Pencere4"
		},
		{
			"mesh":1,
			"name":"Pencere17"
		},
		{
			"mesh":2,
			"name":"Pencere51"
		},
		{
			"mesh":3,
			"name":"Pencere37"
		},
		{
			"mesh":4,
			"name":"Pencere35"
		}
	],
	"materials":[
		{
			"doubleSided":true,
			"name":"PencereSolar",
			"pbrMetallicRoughness":{
				"baseColorFactor":[
					0.9822452664375305,
					0.38132646679878235,
					0.0030353753827512264,
					1
				],
				"metallicFactor":0,
				"roughnessFactor":0.5
			}
		}
	],
	"meshes":[
		{
			"name":"Building_021_Mesh.001",
			"primitives":[
				{
					"attributes":{
						"POSITION":0,
						"NORMAL":1
					},
					"indices":2,
					"material":0
				}
			]
		},
		{
			"name":"Building_034_Mesh.001",
			"primitives":[
				{
					"attributes":{
						"POSITION":3,
						"NORMAL":4
					},
					"indices":5,
					"material":0
				}
			]
		},
		{
			"name":"Building_068_Mesh.001",
			"primitives":[
				{
					"attributes":{
						"POSITION":6,
						"NORMAL":7
					},
					"indices":8,
					"material":0
				}
			]
		},
		{
			"name":"Building_054_Mesh.001",
			"primitives":[
				{
					"attributes":{
						"POSITION":9,
						"NORMAL":10
					},
					"indices":2,
					"material":0
				}
			]
		},
		{
			"name":"Building_052_Mesh.001",
			"primitives":[
				{
					"attributes":{
						"POSITION":11,
						"NORMAL":12
					},
					"indices":13,
					"material":0
				}
			]
		}
	],
	"accessors":[
		{
			"bufferView":0,
			"componentType":5126,
			"count":36,
			"max":[
				-0.1896195113658905,
				0.15930438041687012,
				0.035054344683885574
			],
			"min":[
				-0.21135863661766052,
				0.1158260703086853,
				0.035054344683885574
			],
			"type":"VEC3"
		},
		{
			"bufferView":1,
			"componentType":5126,
			"count":36,
			"type":"VEC3"
		},
		{
			"bufferView":2,
			"componentType":5123,
			"count":54,
			"type":"SCALAR"
		},
		{
			"bufferView":3,
			"componentType":5126,
			"count":48,
			"max":[
				-0.11353257298469543,
				-0.41134780645370483,
				0.04592391476035118
			],
			"min":[
				-0.13527172803878784,
				-0.4711304008960724,
				0.04592391476035118
			],
			"type":"VEC3"
		},
		{
			"bufferView":4,
			"componentType":5126,
			"count":48,
			"type":"VEC3"
		},
		{
			"bufferView":5,
			"componentType":5123,
			"count":72,
			"type":"SCALAR"
		},
		{
			"bufferView":6,
			"componentType":5126,
			"count":64,
			"max":[
				0.27559781074523926,
				-0.3298260569572449,
				0.05679347738623619
			],
			"min":[
				0.2364673614501953,
				-0.37113040685653687,
				0.05679347738623619
			],
			"type":"VEC3"
		},
		{
			"bufferView":7,
			"componentType":5126,
			"count":64,
			"type":"VEC3"
		},
		{
			"bufferView":8,
			"componentType":5123,
			"count":96,
			"type":"SCALAR"
		},
		{
			"bufferView":9,
			"componentType":5126,
			"count":36,
			"max":[
				0.11472827196121216,
				-0.3298260569572449,
				0.04592391476035118
			],
			"min":[
				0.09298914670944214,
				-0.3689565062522888,
				0.04592391476035118
			],
			"type":"VEC3"
		},
		{
			"bufferView":10,
			"componentType":5126,
			"count":36,
			"type":"VEC3"
		},
		{
			"bufferView":11,
			"componentType":5126,
			"count":24,
			"max":[
				0.12342393398284912,
				-0.15047824382781982,
				0.035054344683885574
			],
			"min":[
				0.08429354429244995,
				-0.17765215039253235,
				0.035054344683885574
			],
			"type":"VEC3"
		},
		{
			"bufferView":12,
			"componentType":5126,
			"count":24,
			"type":"VEC3"
		},
		{
			"bufferView":13,
			"componentType":5123,
			"count":36,
			"type":"SCALAR"
		}
	],
	"bufferViews":[
		{
			"buffer":0,
			"byteLength":432,
			"byteOffset":0,
			"target":34962
		},
		{
			"buffer":0,
			"byteLength":432,
			"byteOffset":432,
			"target":34962
		},
		{
			"buffer":0,
			"byteLength":108,
			"byteOffset":864,
			"target":34963
		},
		{
			"buffer":0,
			"byteLength":576,
			"byteOffset":972,
			"target":34962
		},
		{
			"buffer":0,
			"byteLength":576,
			"byteOffset":1548,
			"target":34962
		},
		{
			"buffer":0,
			"byteLength":144,
			"byteOffset":2124,
			"target":34963
		},
		{
			"buffer":0,
			"byteLength":768,
			"byteOffset":2268,
			"target":34962
		},
		{
			"buffer":0,
			"byteLength":768,
			"byteOffset":3036,
			"target":34962
		},
		{
			"buffer":0,
			"byteLength":192,
			"byteOffset":3804,
			"target":34963
		},
		{
			"buffer":0,
			"byteLength":432,
			"byteOffset":3996,
			"target":34962
		},
		{
			"buffer":0,
			"byteLength":432,
			"byteOffset":4428,
			"target":34962
		},
		{
			"buffer":0,
			"byteLength":288,
			"byteOffset":4860,
			"target":34962
		},
		{
			"buffer":0,
			"byteLength":288,
			"byteOffset":5148,
			"target":34962
		},
		{
			"buffer":0,
			"byteLength":72,
			"byteOffset":5436,
			"target":34963
		}
	],
	"buffers":[
		{
			"byteLength":5508,
			"uri":"PencereGrup6.bin"
		}
	]
}
