{
	"asset":{
		"generator":"Khronos glTF Blender I/O v4.2.60",
		"version":"2.0"
	},
	"scene":0,
	"scenes":[
		{
			"name":"Scene",
			"nodes":[
				0,
				1,
				2,
				3,
				4
			]
		}
	],
	"nodes":[
		{
			"mesh":0,
			"name":"Pencere44"
		},
		{
			"mesh":1,
			"name":"Pencere46"
		},
		{
			"mesh":2,
			"name":"Pencere2"
		},
		{
			"mesh":3,
			"name":"Pencere19"
		},
		{
			"mesh":4,
			"name":"Pencere8"
		}
	],
	"materials":[
		{
			"doubleSided":true,
			"name":"PencereSolar",
			"pbrMetallicRoughness":{
				"baseColorFactor":[
					0.9822452664375305,
					0.38132646679878235,
					0.0030353753827512264,
					1
				],
				"metallicFactor":0,
				"roughnessFactor":0.5
			}
		}
	],
	"meshes":[
		{
			"name":"Building_061_Mesh.001",
			"primitives":[
				{
					"attributes":{
						"POSITION":0,
						"NORMAL":1
					},
					"indices":2,
					"material":0
				}
			]
		},
		{
			"name":"Building_063_Mesh.001",
			"primitives":[
				{
					"attributes":{
						"POSITION":3,
						"NORMAL":4
					},
					"indices":5,
					"material":0
				}
			]
		},
		{
			"name":"Building_020_Mesh.010",
			"primitives":[
				{
					"attributes":{
						"POSITION":6,
						"NORMAL":7
					},
					"indices":8,
					"material":0
				}
			]
		},
		{
			"name":"Building_036_Mesh.001",
			"primitives":[
				{
					"attributes":{
						"POSITION":9,
						"NORMAL":10
					},
					"indices":11,
					"material":0
				}
			]
		},
		{
			"name":"Building_025_Mesh.001",
			"primitives":[
				{
					"attributes":{
						"POSITION":12,
						"NORMAL":13
					},
					"indices":11,
					"material":0
				}
			]
		}
	],
	"accessors":[
		{
			"bufferView":0,
			"componentType":5126,
			"count":76,
			"max":[
				0.1995108723640442,
				-0.31352171301841736,
				0.035054344683885574
			],
			"min":[
				0.16038042306900024,
				-0.3689565062522888,
				0.035054344683885574
			],
			"type":"VEC3"
		},
		{
			"bufferView":1,
			"componentType":5126,
			"count":76,
			"type":"VEC3"
		},
		{
			"bufferView":2,
			"componentType":5123,
			"count":114,
			"type":"SCALAR"
		},
		{
			"bufferView":3,
			"componentType":5126,
			"count":63,
			"max":[
				0.27559781074523926,
				0.15930438041687012,
				0.035054344683885574
			],
			"min":[
				0.2364673614501953,
				0.12017399072647095,
				0.035054344683885574
			],
			"type":"VEC3"
		},
		{
			"bufferView":4,
			"componentType":5126,
			"count":63,
			"type":"VEC3"
		},
		{
			"bufferView":5,
			"componentType":5123,
			"count":93,
			"type":"SCALAR"
		},
		{
			"bufferView":6,
			"componentType":5126,
			"count":64,
			"max":[
				-0.257010817527771,
				-0.3298260569572449,
				0.05679347738623619
			],
			"min":[
				-0.29614123702049255,
				-0.37113040685653687,
				0.05679347738623619
			],
			"type":"VEC3"
		},
		{
			"bufferView":7,
			"componentType":5126,
			"count":64,
			"type":"VEC3"
		},
		{
			"bufferView":8,
			"componentType":5123,
			"count":96,
			"type":"SCALAR"
		},
		{
			"bufferView":9,
			"componentType":5126,
			"count":36,
			"max":[
				-0.037445634603500366,
				0.061478257179260254,
				0.04592391476035118
			],
			"min":[
				-0.059184759855270386,
				0.022347837686538696,
				0.04592391476035118
			],
			"type":"VEC3"
		},
		{
			"bufferView":10,
			"componentType":5126,
			"count":36,
			"type":"VEC3"
		},
		{
			"bufferView":11,
			"componentType":5123,
			"count":54,
			"type":"SCALAR"
		},
		{
			"bufferView":12,
			"componentType":5126,
			"count":36,
			"max":[
				-0.1896195113658905,
				-0.2319999635219574,
				0.05679347738623619
			],
			"min":[
				-0.21135863661766052,
				-0.27113041281700134,
				0.05679347738623619
			],
			"type":"VEC3"
		},
		{
			"bufferView":13,
			"componentType":5126,
			"count":36,
			"type":"VEC3"
		}
	],
	"bufferViews":[
		{
			"buffer":0,
			"byteLength":912,
			"byteOffset":0,
			"target":34962
		},
		{
			"buffer":0,
			"byteLength":912,
			"byteOffset":912,
			"target":34962
		},
		{
			"buffer":0,
			"byteLength":228,
			"byteOffset":1824,
			"target":34963
		},
		{
			"buffer":0,
			"byteLength":756,
			"byteOffset":2052,
			"target":34962
		},
		{
			"buffer":0,
			"byteLength":756,
			"byteOffset":2808,
			"target":34962
		},
		{
			"buffer":0,
			"byteLength":186,
			"byteOffset":3564,
			"target":34963
		},
		{
			"buffer":0,
			"byteLength":768,
			"byteOffset":3752,
			"target":34962
		},
		{
			"buffer":0,
			"byteLength":768,
			"byteOffset":4520,
			"target":34962
		},
		{
			"buffer":0,
			"byteLength":192,
			"byteOffset":5288,
			"target":34963
		},
		{
			"buffer":0,
			"byteLength":432,
			"byteOffset":5480,
			"target":34962
		},
		{
			"buffer":0,
			"byteLength":432,
			"byteOffset":5912,
			"target":34962
		},
		{
			"buffer":0,
			"byteLength":108,
			"byteOffset":6344,
			"target":34963
		},
		{
			"buffer":0,
			"byteLength":432,
			"byteOffset":6452,
			"target":34962
		},
		{
			"buffer":0,
			"byteLength":432,
			"byteOffset":6884,
			"target":34962
		}
	],
	"buffers":[
		{
			"byteLength":7316,
			"uri":"PencereGrup11.bin"
		}
	]
}
