{
	"asset":{
		"generator":"Khronos glTF Blender I/O v4.2.60",
		"version":"2.0"
	},
	"scene":0,
	"scenes":[
		{
			"name":"Scene",
			"nodes":[
				0,
				1,
				2,
				3,
				4
			]
		}
	],
	"nodes":[
		{
			"mesh":0,
			"name":"Building_017.004"
		},
		{
			"mesh":1,
			"name":"Pencere10"
		},
		{
			"mesh":2,
			"name":"Pencere33"
		},
		{
			"mesh":3,
			"name":"Pencere41"
		},
		{
			"mesh":4,
			"name":"Building_009.004"
		}
	],
	"materials":[
		{
			"doubleSided":true,
			"name":"PencereSolar",
			"pbrMetallicRoughness":{
				"baseColorFactor":[
					0.9822452664375305,
					0.38132646679878235,
					0.0030353753827512264,
					1
				],
				"metallicFactor":0,
				"roughnessFactor":0.5
			}
		}
	],
	"meshes":[
		{
			"name":"Building_017_Mesh.005",
			"primitives":[
				{
					"attributes":{
						"POSITION":0,
						"NORMAL":1
					},
					"indices":2,
					"material":0
				}
			]
		},
		{
			"name":"Building_027_Mesh.001",
			"primitives":[
				{
					"attributes":{
						"POSITION":3,
						"NORMAL":4
					},
					"indices":5,
					"material":0
				}
			]
		},
		{
			"name":"Building_050_Mesh.001",
			"primitives":[
				{
					"attributes":{
						"POSITION":6,
						"NORMAL":7
					},
					"indices":8,
					"material":0
				}
			]
		},
		{
			"name":"Building_058_Mesh.001",
			"primitives":[
				{
					"attributes":{
						"POSITION":9,
						"NORMAL":10
					},
					"indices":11,
					"material":0
				}
			]
		},
		{
			"name":"Building_009_Mesh.005",
			"primitives":[
				{
					"attributes":{
						"POSITION":12,
						"NORMAL":13
					},
					"indices":5,
					"material":0
				}
			]
		}
	],
	"accessors":[
		{
			"bufferView":0,
			"componentType":5126,
			"count":64,
			"max":[
				-0.257010817527771,
				-0.13417387008666992,
				0.056793469935655594
			],
			"min":[
				-0.29614123702049255,
				-0.1754782497882843,
				0.056793469935655594
			],
			"type":"VEC3"
		},
		{
			"bufferView":1,
			"componentType":5126,
			"count":64,
			"type":"VEC3"
		},
		{
			"bufferView":2,
			"componentType":5123,
			"count":96,
			"type":"SCALAR"
		},
		{
			"bufferView":3,
			"componentType":5126,
			"count":36,
			"max":[
				-0.1896195113658905,
				-0.42765215039253235,
				0.04592391476035118
			],
			"min":[
				-0.21135863661766052,
				-0.4711304008960724,
				0.04592391476035118
			],
			"type":"VEC3"
		},
		{
			"bufferView":4,
			"componentType":5126,
			"count":36,
			"type":"VEC3"
		},
		{
			"bufferView":5,
			"componentType":5123,
			"count":54,
			"type":"SCALAR"
		},
		{
			"bufferView":6,
			"componentType":5126,
			"count":32,
			"max":[
				0.12342393398284912,
				0.04517388343811035,
				0.035054344683885574
			],
			"min":[
				0.08429354429244995,
				0.022347837686538696,
				0.035054344683885574
			],
			"type":"VEC3"
		},
		{
			"bufferView":7,
			"componentType":5126,
			"count":32,
			"type":"VEC3"
		},
		{
			"bufferView":8,
			"componentType":5123,
			"count":48,
			"type":"SCALAR"
		},
		{
			"bufferView":9,
			"componentType":5126,
			"count":16,
			"max":[
				0.190815269947052,
				-0.05265215039253235,
				0.03505434840917587
			],
			"min":[
				0.1690760850906372,
				-0.07547822594642639,
				0.03505434840917587
			],
			"type":"VEC3"
		},
		{
			"bufferView":10,
			"componentType":5126,
			"count":16,
			"type":"VEC3"
		},
		{
			"bufferView":11,
			"componentType":5123,
			"count":24,
			"type":"SCALAR"
		},
		{
			"bufferView":12,
			"componentType":5126,
			"count":36,
			"max":[
				-0.341793417930603,
				-0.036347806453704834,
				0.035054344683885574
			],
			"min":[
				-0.36353254318237305,
				-0.07982605695724487,
				0.035054344683885574
			],
			"type":"VEC3"
		},
		{
			"bufferView":13,
			"componentType":5126,
			"count":36,
			"type":"VEC3"
		}
	],
	"bufferViews":[
		{
			"buffer":0,
			"byteLength":768,
			"byteOffset":0,
			"target":34962
		},
		{
			"buffer":0,
			"byteLength":768,
			"byteOffset":768,
			"target":34962
		},
		{
			"buffer":0,
			"byteLength":192,
			"byteOffset":1536,
			"target":34963
		},
		{
			"buffer":0,
			"byteLength":432,
			"byteOffset":1728,
			"target":34962
		},
		{
			"buffer":0,
			"byteLength":432,
			"byteOffset":2160,
			"target":34962
		},
		{
			"buffer":0,
			"byteLength":108,
			"byteOffset":2592,
			"target":34963
		},
		{
			"buffer":0,
			"byteLength":384,
			"byteOffset":2700,
			"target":34962
		},
		{
			"buffer":0,
			"byteLength":384,
			"byteOffset":3084,
			"target":34962
		},
		{
			"buffer":0,
			"byteLength":96,
			"byteOffset":3468,
			"target":34963
		},
		{
			"buffer":0,
			"byteLength":192,
			"byteOffset":3564,
			"target":34962
		},
		{
			"buffer":0,
			"byteLength":192,
			"byteOffset":3756,
			"target":34962
		},
		{
			"buffer":0,
			"byteLength":48,
			"byteOffset":3948,
			"target":34963
		},
		{
			"buffer":0,
			"byteLength":432,
			"byteOffset":3996,
			"target":34962
		},
		{
			"buffer":0,
			"byteLength":432,
			"byteOffset":4428,
			"target":34962
		}
	],
	"buffers":[
		{
			"byteLength":4860,
			"uri":"PencereGrup13.bin"
		}
	]
}
