{
	"asset":{
		"generator":"Khronos glTF Blender I/O v4.2.60",
		"version":"2.0"
	},
	"scene":0,
	"scenes":[
		{
			"name":"Scene",
			"nodes":[
				1
			]
		}
	],
	"nodes":[
		{
			"mesh":0,
			"name":"Cylinder.024",
			"translation":[
				0.4659561514854431,
				-0.1908416748046875,
				-0.02489835023880005
			]
		},
		{
			"children":[
				0
			],
			"name":"Bar6",
			"scale":[
				1,
				0.0009999871253967285,
				1
			],
			"translation":[
				-0.4659561514854431,
				0.1908450722694397,
				0.02489835023880005
			]
		}
	],
	"animations":[
		{
			"channels":[
				{
					"sampler":0,
					"target":{
						"node":1,
						"path":"scale"
					}
				}
			],
			"name":"Empty.001Action.003",
			"samplers":[
				{
					"input":4,
					"interpolation":"LINEAR",
					"output":5
				}
			]
		}
	],
	"materials":[
		{
			"doubleSided":true,
			"name":"PencereSolar.001",
			"pbrMetallicRoughness":{
				"baseColorFactor":[
					0.9822452664375305,
					0.38132646679878235,
					0.0030353753827512264,
					1
				],
				"metallicFactor":0,
				"roughnessFactor":0.5
			}
		}
	],
	"meshes":[
		{
			"name":"Cylinder.006",
			"primitives":[
				{
					"attributes":{
						"POSITION":0,
						"NORMAL":1,
						"TEXCOORD_0":2
					},
					"indices":3,
					"material":0
				}
			]
		}
	],
	"accessors":[
		{
			"bufferView":0,
			"componentType":5126,
			"count":50,
			"max":[
				-0.4637822210788727,
				0.1908450722694397,
				0.02707226201891899
			],
			"min":[
				-0.46813005208969116,
				-0.49393758177757263,
				0.022724436596035957
			],
			"type":"VEC3"
		},
		{
			"bufferView":1,
			"componentType":5126,
			"count":50,
			"type":"VEC3"
		},
		{
			"bufferView":2,
			"componentType":5126,
			"count":50,
			"type":"VEC2"
		},
		{
			"bufferView":3,
			"componentType":5123,
			"count":132,
			"type":"SCALAR"
		},
		{
			"bufferView":4,
			"componentType":5126,
			"count":29,
			"max":[
				1.1666666666666667
			],
			"min":[
				0
			],
			"type":"SCALAR"
		},
		{
			"bufferView":5,
			"componentType":5126,
			"count":29,
			"type":"VEC3"
		}
	],
	"bufferViews":[
		{
			"buffer":0,
			"byteLength":600,
			"byteOffset":0,
			"target":34962
		},
		{
			"buffer":0,
			"byteLength":600,
			"byteOffset":600,
			"target":34962
		},
		{
			"buffer":0,
			"byteLength":400,
			"byteOffset":1200,
			"target":34962
		},
		{
			"buffer":0,
			"byteLength":264,
			"byteOffset":1600,
			"target":34963
		},
		{
			"buffer":0,
			"byteLength":116,
			"byteOffset":1864
		},
		{
			"buffer":0,
			"byteLength":348,
			"byteOffset":1980
		}
	],
	"buffers":[
		{
			"byteLength":2328,
			"uri":"Bar6.bin"
		}
	]
}
