{
	"asset":{
		"generator":"Khronos glTF Blender I/O v4.2.60",
		"version":"2.0"
	},
	"scene":0,
	"scenes":[
		{
			"name":"Scene",
			"nodes":[
				0,
				1,
				2,
				3,
				4,
				5,
				6
			]
		}
	],
	"nodes":[
		{
			"mesh":0,
			"name":"Text.012",
			"rotation":[
				0.7071068286895752,
				0,
				0,
				0.7071068286895752
			],
			"scale":[
				0.05252376198768616,
				0.05252376198768616,
				0.05252485349774361
			],
			"translation":[
				-0.010271701961755753,
				-0.05047819763422012,
				-0.007336955051869154
			]
		},
		{
			"mesh":1,
			"name":"Text.009",
			"rotation":[
				0.7071068286895752,
				0,
				0,
				0.7071068286895752
			],
			"scale":[
				0.05252376198768616,
				0.05252376198768616,
				0.05252485349774361
			],
			"translation":[
				-0.010271701961755753,
				-0.05047822743654251,
				-0.007336955517530441
			]
		},
		{
			"mesh":2,
			"name":"Text.008",
			"rotation":[
				0.7071068286895752,
				0,
				0,
				0.7071068286895752
			],
			"scale":[
				0.05029686540365219,
				0.05029686540365219,
				0.05029686540365219
			],
			"translation":[
				-0.010271698236465454,
				-0.0504782609641552,
				-0.002536884043365717
			]
		},
		{
			"mesh":3,
			"name":"Text",
			"rotation":[
				0.7071068286895752,
				0,
				0,
				0.7071068286895752
			],
			"scale":[
				0.05029686540365219,
				0.05029686540365219,
				0.05029686540365219
			],
			"translation":[
				-0.010271670296788216,
				-0.0504782609641552,
				-0.002536884043365717
			]
		},
		{
			"mesh":4,
			"name":"Plane.009",
			"rotation":[
				0.7071068286895752,
				0,
				0,
				0.7071068286895752
			],
			"scale":[
				2.17391300201416,
				2.17391300201416,
				0.3166351616382599
			],
			"translation":[
				-0.010271701961755753,
				-0.05047822743654251,
				-0.007336955517530441
			]
		},
		{
			"mesh":5,
			"name":"Plane.008",
			"rotation":[
				0.7071068286895752,
				0,
				0,
				0.7071068286895752
			],
			"scale":[
				2.17391300201416,
				2.17391300201416,
				0.16068053245544434
			],
			"translation":[
				-0.010271701961755753,
				-0.05047822743654251,
				-0.007336955517530441
			]
		},
		{
			"mesh":6,
			"name":"g\u00fcne\u015f",
			"scale":[
				0.7246377468109131,
				0.7246377468109131,
				0.7246377468109131
			],
			"translation":[
				-0.010271670296788216,
				-0.0504782609641552,
				-0.0073369573801755905
			]
		}
	],
	"materials":[
		{
			"doubleSided":true,
			"name":"Mat_Roof_Cap.002",
			"pbrMetallicRoughness":{
				"baseColorFactor":[
					0.9822452664375305,
					0.38132646679878235,
					0.0030353753827512264,
					1
				],
				"metallicFactor":0,
				"roughnessFactor":0.699999988079071
			}
		},
		{
			"doubleSided":true,
			"name":"Material.002",
			"pbrMetallicRoughness":{
				"baseColorFactor":[
					0,
					0,
					0,
					1
				],
				"metallicFactor":0,
				"roughnessFactor":0.5
			}
		},
		{
			"doubleSided":true,
			"name":"BinaGrid.002",
			"pbrMetallicRoughness":{
				"baseColorFactor":[
					0.0009104993660002947,
					0.04091522842645645,
					0.06662598252296448,
					1
				],
				"metallicFactor":0,
				"roughnessFactor":0.5
			}
		},
		{
			"doubleSided":true,
			"name":"BinaSolar.002",
			"pbrMetallicRoughness":{
				"baseColorFactor":[
					0.4451989233493805,
					0.006995364557951689,
					0.002428226638585329,
					1
				],
				"metallicFactor":0,
				"roughnessFactor":0.699999988079071
			}
		},
		{
			"doubleSided":true,
			"name":"Material.003",
			"pbrMetallicRoughness":{
				"baseColorFactor":[
					0.3478142321109772,
					0.3478142321109772,
					0.3478142321109772,
					1
				],
				"metallicFactor":0,
				"roughnessFactor":0.5
			}
		}
	],
	"meshes":[
		{
			"name":"Text.006",
			"primitives":[
				{
					"attributes":{
						"POSITION":0,
						"NORMAL":1,
						"TEXCOORD_0":2
					},
					"indices":3,
					"material":0
				}
			]
		},
		{
			"name":"Text.007",
			"primitives":[
				{
					"attributes":{
						"POSITION":4,
						"NORMAL":5,
						"TEXCOORD_0":6
					},
					"indices":7,
					"material":1
				}
			]
		},
		{
			"name":"Text.002",
			"primitives":[
				{
					"attributes":{
						"POSITION":8,
						"NORMAL":9,
						"TEXCOORD_0":10
					},
					"indices":11,
					"material":2
				}
			]
		},
		{
			"name":"Text.003",
			"primitives":[
				{
					"attributes":{
						"POSITION":12,
						"NORMAL":13,
						"TEXCOORD_0":14
					},
					"indices":15,
					"material":3
				}
			]
		},
		{
			"name":"Plane.010",
			"primitives":[
				{
					"attributes":{
						"POSITION":16,
						"NORMAL":17,
						"TEXCOORD_0":18
					},
					"indices":19,
					"material":4
				}
			]
		},
		{
			"name":"Plane.014",
			"primitives":[
				{
					"attributes":{
						"POSITION":20,
						"NORMAL":21,
						"TEXCOORD_0":22
					},
					"indices":19,
					"material":4
				}
			]
		},
		{
			"name":"Sphere.001",
			"primitives":[
				{
					"attributes":{
						"POSITION":23,
						"NORMAL":24,
						"TEXCOORD_0":25
					},
					"indices":26,
					"material":0
				}
			]
		}
	],
	"accessors":[
		{
			"bufferView":0,
			"componentType":5126,
			"count":10424,
			"max":[
				-2.944497585296631,
				0.1413886845111847,
				-6.838376522064209
			],
			"min":[
				-8.433034896850586,
				0.04138868302106857,
				-7.628890514373779
			],
			"type":"VEC3"
		},
		{
			"bufferView":1,
			"componentType":5126,
			"count":10424,
			"type":"VEC3"
		},
		{
			"bufferView":2,
			"componentType":5126,
			"count":10424,
			"type":"VEC2"
		},
		{
			"bufferView":3,
			"componentType":5123,
			"count":30948,
			"type":"SCALAR"
		},
		{
			"bufferView":4,
			"componentType":5126,
			"count":25863,
			"max":[
				5.967694282531738,
				0.14138904213905334,
				-11.059980392456055
			],
			"min":[
				-8.433034896850586,
				0.041389040648937225,
				-11.850494384765625
			],
			"type":"VEC3"
		},
		{
			"bufferView":5,
			"componentType":5126,
			"count":25863,
			"type":"VEC3"
		},
		{
			"bufferView":6,
			"componentType":5126,
			"count":25863,
			"type":"VEC2"
		},
		{
			"bufferView":7,
			"componentType":5123,
			"count":77040,
			"type":"SCALAR"
		},
		{
			"bufferView":8,
			"componentType":5126,
			"count":1356,
			"max":[
				-0.30424875020980835,
				0.04999999701976776,
				-5.618087291717529
			],
			"min":[
				-1.9102487564086914,
				-0.04999999701976776,
				-6.319087505340576
			],
			"type":"VEC3"
		},
		{
			"bufferView":9,
			"componentType":5126,
			"count":1356,
			"type":"VEC3"
		},
		{
			"bufferView":10,
			"componentType":5126,
			"count":1356,
			"type":"VEC2"
		},
		{
			"bufferView":11,
			"componentType":5123,
			"count":3996,
			"type":"SCALAR"
		},
		{
			"bufferView":12,
			"componentType":5126,
			"count":1170,
			"max":[
				-5.117922306060791,
				0.04999999701976776,
				-5.618087291717529
			],
			"min":[
				-6.738922595977783,
				-0.04999999701976776,
				-6.319087505340576
			],
			"type":"VEC3"
		},
		{
			"bufferView":13,
			"componentType":5126,
			"count":1170,
			"type":"VEC3"
		},
		{
			"bufferView":14,
			"componentType":5126,
			"count":1170,
			"type":"VEC2"
		},
		{
			"bufferView":15,
			"componentType":5123,
			"count":3432,
			"type":"SCALAR"
		},
		{
			"bufferView":16,
			"componentType":5126,
			"count":4,
			"max":[
				0.23000000417232513,
				0.0009999914327636361,
				-0.8238805532455444
			],
			"min":[
				-0.23000000417232513,
				0.0009999914327636361,
				-1.283880591392517
			],
			"type":"VEC3"
		},
		{
			"bufferView":17,
			"componentType":5126,
			"count":4,
			"type":"VEC3"
		},
		{
			"bufferView":18,
			"componentType":5126,
			"count":4,
			"type":"VEC2"
		},
		{
			"bufferView":19,
			"componentType":5123,
			"count":6,
			"type":"SCALAR"
		},
		{
			"bufferView":20,
			"componentType":5126,
			"count":4,
			"max":[
				0.23000000417232513,
				0.0009999999310821295,
				-3.5988235473632812
			],
			"min":[
				-0.23000000417232513,
				0.0009999999310821295,
				-4.058823585510254
			],
			"type":"VEC3"
		},
		{
			"bufferView":21,
			"componentType":5126,
			"count":4,
			"type":"VEC3"
		},
		{
			"bufferView":22,
			"componentType":5126,
			"count":4,
			"type":"VEC2"
		},
		{
			"bufferView":23,
			"componentType":5126,
			"count":151,
			"max":[
				-0.5550453662872314,
				0.4700000584125519,
				0.050302017480134964
			],
			"min":[
				-0.5950453281402588,
				0.43000003695487976,
				0.010302020236849785
			],
			"type":"VEC3"
		},
		{
			"bufferView":24,
			"componentType":5126,
			"count":151,
			"type":"VEC3"
		},
		{
			"bufferView":25,
			"componentType":5126,
			"count":151,
			"type":"VEC2"
		},
		{
			"bufferView":26,
			"componentType":5123,
			"count":672,
			"type":"SCALAR"
		}
	],
	"bufferViews":[
		{
			"buffer":0,
			"byteLength":125088,
			"byteOffset":0,
			"target":34962
		},
		{
			"buffer":0,
			"byteLength":125088,
			"byteOffset":125088,
			"target":34962
		},
		{
			"buffer":0,
			"byteLength":83392,
			"byteOffset":250176,
			"target":34962
		},
		{
			"buffer":0,
			"byteLength":61896,
			"byteOffset":333568,
			"target":34963
		},
		{
			"buffer":0,
			"byteLength":310356,
			"byteOffset":395464,
			"target":34962
		},
		{
			"buffer":0,
			"byteLength":310356,
			"byteOffset":705820,
			"target":34962
		},
		{
			"buffer":0,
			"byteLength":206904,
			"byteOffset":1016176,
			"target":34962
		},
		{
			"buffer":0,
			"byteLength":154080,
			"byteOffset":1223080,
			"target":34963
		},
		{
			"buffer":0,
			"byteLength":16272,
			"byteOffset":1377160,
			"target":34962
		},
		{
			"buffer":0,
			"byteLength":16272,
			"byteOffset":1393432,
			"target":34962
		},
		{
			"buffer":0,
			"byteLength":10848,
			"byteOffset":1409704,
			"target":34962
		},
		{
			"buffer":0,
			"byteLength":7992,
			"byteOffset":1420552,
			"target":34963
		},
		{
			"buffer":0,
			"byteLength":14040,
			"byteOffset":1428544,
			"target":34962
		},
		{
			"buffer":0,
			"byteLength":14040,
			"byteOffset":1442584,
			"target":34962
		},
		{
			"buffer":0,
			"byteLength":9360,
			"byteOffset":1456624,
			"target":34962
		},
		{
			"buffer":0,
			"byteLength":6864,
			"byteOffset":1465984,
			"target":34963
		},
		{
			"buffer":0,
			"byteLength":48,
			"byteOffset":1472848,
			"target":34962
		},
		{
			"buffer":0,
			"byteLength":48,
			"byteOffset":1472896,
			"target":34962
		},
		{
			"buffer":0,
			"byteLength":32,
			"byteOffset":1472944,
			"target":34962
		},
		{
			"buffer":0,
			"byteLength":12,
			"byteOffset":1472976,
			"target":34963
		},
		{
			"buffer":0,
			"byteLength":48,
			"byteOffset":1472988,
			"target":34962
		},
		{
			"buffer":0,
			"byteLength":48,
			"byteOffset":1473036,
			"target":34962
		},
		{
			"buffer":0,
			"byteLength":32,
			"byteOffset":1473084,
			"target":34962
		},
		{
			"buffer":0,
			"byteLength":1812,
			"byteOffset":1473116,
			"target":34962
		},
		{
			"buffer":0,
			"byteLength":1812,
			"byteOffset":1474928,
			"target":34962
		},
		{
			"buffer":0,
			"byteLength":1208,
			"byteOffset":1476740,
			"target":34962
		},
		{
			"buffer":0,
			"byteLength":1344,
			"byteOffset":1477948,
			"target":34963
		}
	],
	"buffers":[
		{
			"byteLength":1479292,
			"uri":"Question.bin"
		}
	]
}
