{
	"asset":{
		"generator":"Khronos glTF Blender I/O v4.2.60",
		"version":"2.0"
	},
	"scene":0,
	"scenes":[
		{
			"name":"Scene",
			"nodes":[
				0,
				1
			]
		}
	],
	"nodes":[
		{
			"mesh":0,
			"name":"Text.021",
			"rotation":[
				0.7071068286895752,
				0,
				0,
				0.7071068286895752
			],
			"scale":[
				0.05252376198768616,
				0.05252376198768616,
				0.05252485349774361
			]
		},
		{
			"mesh":1,
			"name":"Text.020",
			"rotation":[
				0.7071068286895752,
				0,
				0,
				0.7071068286895752
			],
			"scale":[
				0.05252376198768616,
				0.05252376198768616,
				0.05252485349774361
			]
		}
	],
	"materials":[
		{
			"doubleSided":true,
			"name":"Mat_Roof_Cap.004",
			"pbrMetallicRoughness":{
				"baseColorFactor":[
					0.9822452664375305,
					0.38132646679878235,
					0.0030353753827512264,
					1
				],
				"metallicFactor":0,
				"roughnessFactor":0.699999988079071
			}
		},
		{
			"doubleSided":true,
			"name":"Material",
			"pbrMetallicRoughness":{
				"baseColorFactor":[
					0,
					0,
					0,
					1
				],
				"metallicFactor":0,
				"roughnessFactor":0.5
			}
		}
	],
	"meshes":[
		{
			"name":"Text.004",
			"primitives":[
				{
					"attributes":{
						"POSITION":0,
						"NORMAL":1,
						"TEXCOORD_0":2
					},
					"indices":3,
					"material":0
				}
			]
		},
		{
			"name":"Text.005",
			"primitives":[
				{
					"attributes":{
						"POSITION":4,
						"NORMAL":5,
						"TEXCOORD_0":6
					},
					"indices":7,
					"material":1
				}
			]
		}
	],
	"accessors":[
		{
			"bufferView":0,
			"componentType":5126,
			"count":10418,
			"max":[
				-3.1400675773620605,
				-0.02830018848180771,
				-5.877340793609619
			],
			"min":[
				-8.628604888916016,
				-0.06830018013715744,
				-6.6678547859191895
			],
			"type":"VEC3"
		},
		{
			"bufferView":1,
			"componentType":5126,
			"count":10418,
			"type":"VEC3"
		},
		{
			"bufferView":2,
			"componentType":5126,
			"count":10418,
			"type":"VEC2"
		},
		{
			"bufferView":3,
			"componentType":5123,
			"count":30948,
			"type":"SCALAR"
		},
		{
			"bufferView":4,
			"componentType":5126,
			"count":25882,
			"max":[
				5.772131443023682,
				-0.02829984575510025,
				-10.098727226257324
			],
			"min":[
				-8.6285982131958,
				-0.06829985231161118,
				-10.889241218566895
			],
			"type":"VEC3"
		},
		{
			"bufferView":5,
			"componentType":5126,
			"count":25882,
			"type":"VEC3"
		},
		{
			"bufferView":6,
			"componentType":5126,
			"count":25882,
			"type":"VEC2"
		},
		{
			"bufferView":7,
			"componentType":5123,
			"count":77040,
			"type":"SCALAR"
		}
	],
	"bufferViews":[
		{
			"buffer":0,
			"byteLength":125016,
			"byteOffset":0,
			"target":34962
		},
		{
			"buffer":0,
			"byteLength":125016,
			"byteOffset":125016,
			"target":34962
		},
		{
			"buffer":0,
			"byteLength":83344,
			"byteOffset":250032,
			"target":34962
		},
		{
			"buffer":0,
			"byteLength":61896,
			"byteOffset":333376,
			"target":34963
		},
		{
			"buffer":0,
			"byteLength":310584,
			"byteOffset":395272,
			"target":34962
		},
		{
			"buffer":0,
			"byteLength":310584,
			"byteOffset":705856,
			"target":34962
		},
		{
			"buffer":0,
			"byteLength":207056,
			"byteOffset":1016440,
			"target":34962
		},
		{
			"buffer":0,
			"byteLength":154080,
			"byteOffset":1223496,
			"target":34963
		}
	],
	"buffers":[
		{
			"byteLength":1377576,
			"uri":"Soru.bin"
		}
	]
}
