{
	"asset":{
		"generator":"Khronos glTF Blender I/O v4.2.60",
		"version":"2.0"
	},
	"scene":0,
	"scenes":[
		{
			"name":"Scene",
			"nodes":[
				0,
				1,
				2,
				3,
				4,
				5,
				6,
				7,
				8,
				9,
				10,
				11,
				12,
				13,
				14,
				15,
				16,
				17,
				18,
				19,
				20
			]
		}
	],
	"nodes":[
		{
			"mesh":0,
			"name":"Building_031.016"
		},
		{
			"mesh":1,
			"name":"Building_031.017"
		},
		{
			"mesh":2,
			"name":"Building_031.018"
		},
		{
			"mesh":3,
			"name":"Building_051.016"
		},
		{
			"mesh":4,
			"name":"Building_051.017"
		},
		{
			"mesh":5,
			"name":"Building_051.018"
		},
		{
			"mesh":6,
			"name":"Building_042.016"
		},
		{
			"mesh":7,
			"name":"Building_042.017"
		},
		{
			"mesh":8,
			"name":"Building_042.018"
		},
		{
			"mesh":9,
			"name":"Building_082.014"
		},
		{
			"mesh":10,
			"name":"Building_082.015"
		},
		{
			"mesh":11,
			"name":"Building_082.016"
		},
		{
			"mesh":12,
			"name":"Building_053.016"
		},
		{
			"mesh":13,
			"name":"Building_053.017"
		},
		{
			"mesh":14,
			"name":"Building_053.018"
		},
		{
			"mesh":15,
			"name":"Building_040.016"
		},
		{
			"mesh":16,
			"name":"Building_040.017"
		},
		{
			"mesh":17,
			"name":"Building_040.018"
		},
		{
			"mesh":18,
			"name":"Building_067.016"
		},
		{
			"mesh":19,
			"name":"Building_067.017"
		},
		{
			"mesh":20,
			"name":"Building_067.018"
		}
	],
	"materials":[
		{
			"doubleSided":true,
			"name":"BinaGrid",
			"pbrMetallicRoughness":{
				"baseColorFactor":[
					0.0009104993660002947,
					0.04091522842645645,
					0.06662598252296448,
					1
				],
				"metallicFactor":0,
				"roughnessFactor":0.5
			}
		},
		{
			"doubleSided":true,
			"name":"PencereGrid",
			"pbrMetallicRoughness":{
				"baseColorFactor":[
					0.1328672468662262,
					0.26635584235191345,
					0.31854695081710815,
					1
				],
				"metallicFactor":0,
				"roughnessFactor":0.699999988079071
			}
		},
		{
			"doubleSided":true,
			"name":"Kap\u0131Grid",
			"pbrMetallicRoughness":{
				"baseColorFactor":[
					0,
					0.01161225512623787,
					0.016807379201054573,
					1
				],
				"metallicFactor":0,
				"roughnessFactor":0.699999988079071
			}
		}
	],
	"meshes":[
		{
			"name":"Building_031_Mesh.018",
			"primitives":[
				{
					"attributes":{
						"POSITION":0,
						"NORMAL":1
					},
					"indices":2,
					"material":0
				}
			]
		},
		{
			"name":"Building_031_Mesh.019",
			"primitives":[
				{
					"attributes":{
						"POSITION":3,
						"NORMAL":4
					},
					"indices":5,
					"material":1
				}
			]
		},
		{
			"name":"Building_031_Mesh.020",
			"primitives":[
				{
					"attributes":{
						"POSITION":6,
						"NORMAL":7
					},
					"indices":8,
					"material":2
				}
			]
		},
		{
			"name":"Building_051_Mesh.018",
			"primitives":[
				{
					"attributes":{
						"POSITION":9,
						"NORMAL":10
					},
					"indices":11,
					"material":0
				}
			]
		},
		{
			"name":"Building_051_Mesh.019",
			"primitives":[
				{
					"attributes":{
						"POSITION":12,
						"NORMAL":13
					},
					"indices":14,
					"material":1
				}
			]
		},
		{
			"name":"Building_051_Mesh.020",
			"primitives":[
				{
					"attributes":{
						"POSITION":15,
						"NORMAL":16
					},
					"indices":8,
					"material":2
				}
			]
		},
		{
			"name":"Building_042_Mesh.018",
			"primitives":[
				{
					"attributes":{
						"POSITION":17,
						"NORMAL":18
					},
					"indices":19,
					"material":0
				}
			]
		},
		{
			"name":"Building_042_Mesh.019",
			"primitives":[
				{
					"attributes":{
						"POSITION":20,
						"NORMAL":21
					},
					"indices":5,
					"material":1
				}
			]
		},
		{
			"name":"Building_042_Mesh.020",
			"primitives":[
				{
					"attributes":{
						"POSITION":22,
						"NORMAL":23
					},
					"indices":8,
					"material":2
				}
			]
		},
		{
			"name":"Building_082_Mesh.014",
			"primitives":[
				{
					"attributes":{
						"POSITION":24,
						"NORMAL":25
					},
					"indices":26,
					"material":0
				}
			]
		},
		{
			"name":"Building_082_Mesh.015",
			"primitives":[
				{
					"attributes":{
						"POSITION":27,
						"NORMAL":28
					},
					"indices":29,
					"material":1
				}
			]
		},
		{
			"name":"Building_082_Mesh.016",
			"primitives":[
				{
					"attributes":{
						"POSITION":30,
						"NORMAL":31
					},
					"indices":8,
					"material":2
				}
			]
		},
		{
			"name":"Building_053_Mesh.018",
			"primitives":[
				{
					"attributes":{
						"POSITION":32,
						"NORMAL":33
					},
					"indices":34,
					"material":0
				}
			]
		},
		{
			"name":"Building_053_Mesh.019",
			"primitives":[
				{
					"attributes":{
						"POSITION":35,
						"NORMAL":36
					},
					"indices":37,
					"material":1
				}
			]
		},
		{
			"name":"Building_053_Mesh.020",
			"primitives":[
				{
					"attributes":{
						"POSITION":38,
						"NORMAL":39
					},
					"indices":8,
					"material":2
				}
			]
		},
		{
			"name":"Building_040_Mesh.018",
			"primitives":[
				{
					"attributes":{
						"POSITION":40,
						"NORMAL":41
					},
					"indices":42,
					"material":0
				}
			]
		},
		{
			"name":"Building_040_Mesh.019",
			"primitives":[
				{
					"attributes":{
						"POSITION":43,
						"NORMAL":44
					},
					"indices":45,
					"material":1
				}
			]
		},
		{
			"name":"Building_040_Mesh.020",
			"primitives":[
				{
					"attributes":{
						"POSITION":46,
						"NORMAL":47
					},
					"indices":8,
					"material":2
				}
			]
		},
		{
			"name":"Building_067_Mesh.018",
			"primitives":[
				{
					"attributes":{
						"POSITION":48,
						"NORMAL":49
					},
					"indices":50,
					"material":0
				}
			]
		},
		{
			"name":"Building_067_Mesh.019",
			"primitives":[
				{
					"attributes":{
						"POSITION":51,
						"NORMAL":52
					},
					"indices":53,
					"material":1
				}
			]
		},
		{
			"name":"Building_067_Mesh.020",
			"primitives":[
				{
					"attributes":{
						"POSITION":54,
						"NORMAL":55
					},
					"indices":8,
					"material":2
				}
			]
		}
	],
	"accessors":[
		{
			"bufferView":0,
			"componentType":5126,
			"count":495,
			"max":[
				-0.09960973262786865,
				-0.1439564824104309,
				0.03614130616188049
			],
			"min":[
				-0.1485227644443512,
				-0.18091300129890442,
				-0.0073369513265788555
			],
			"type":"VEC3"
		},
		{
			"bufferView":1,
			"componentType":5126,
			"count":495,
			"type":"VEC3"
		},
		{
			"bufferView":2,
			"componentType":5123,
			"count":1422,
			"type":"SCALAR"
		},
		{
			"bufferView":3,
			"componentType":5126,
			"count":28,
			"max":[
				-0.10450100898742676,
				-0.15047824382781982,
				0.033967386931180954
			],
			"min":[
				-0.1436314582824707,
				-0.17765215039253235,
				0.033967386931180954
			],
			"type":"VEC3"
		},
		{
			"bufferView":4,
			"componentType":5126,
			"count":28,
			"type":"VEC3"
		},
		{
			"bufferView":5,
			"componentType":5123,
			"count":42,
			"type":"SCALAR"
		},
		{
			"bufferView":6,
			"componentType":5126,
			"count":4,
			"max":[
				-0.11537060141563416,
				-0.16678255796432495,
				0.03396739438176155
			],
			"min":[
				-0.1327618658542633,
				-0.18091300129890442,
				0.03396739438176155
			],
			"type":"VEC3"
		},
		{
			"bufferView":7,
			"componentType":5126,
			"count":4,
			"type":"VEC3"
		},
		{
			"bufferView":8,
			"componentType":5123,
			"count":6,
			"type":"SCALAR"
		},
		{
			"bufferView":9,
			"componentType":5126,
			"count":874,
			"max":[
				0.1286512017250061,
				-0.02330431342124939,
				0.0470108762383461
			],
			"min":[
				0.07973814010620117,
				-0.08308693766593933,
				-0.0073369513265788555
			],
			"type":"VEC3"
		},
		{
			"bufferView":10,
			"componentType":5126,
			"count":874,
			"type":"VEC3"
		},
		{
			"bufferView":11,
			"componentType":5123,
			"count":2829,
			"type":"SCALAR"
		},
		{
			"bufferView":12,
			"componentType":5126,
			"count":63,
			"max":[
				0.12375986576080322,
				-0.036347776651382446,
				0.04483695700764656
			],
			"min":[
				0.08462941646575928,
				-0.07547822594642639,
				0.04483695700764656
			],
			"type":"VEC3"
		},
		{
			"bufferView":13,
			"componentType":5126,
			"count":63,
			"type":"VEC3"
		},
		{
			"bufferView":14,
			"componentType":5123,
			"count":93,
			"type":"SCALAR"
		},
		{
			"bufferView":15,
			"componentType":5126,
			"count":4,
			"max":[
				0.123759925365448,
				-0.06895646452903748,
				0.04483695700764656
			],
			"min":[
				0.11723816394805908,
				-0.08308693766593933,
				0.04483695700764656
			],
			"type":"VEC3"
		},
		{
			"bufferView":16,
			"componentType":5126,
			"count":4,
			"type":"VEC3"
		},
		{
			"bufferView":17,
			"componentType":5126,
			"count":515,
			"max":[
				0.05256417393684387,
				0.16039139032363892,
				0.0470108687877655
			],
			"min":[
				0.003651171922683716,
				0.11256527900695801,
				-0.007336955517530441
			],
			"type":"VEC3"
		},
		{
			"bufferView":18,
			"componentType":5126,
			"count":515,
			"type":"VEC3"
		},
		{
			"bufferView":19,
			"componentType":5123,
			"count":1434,
			"type":"SCALAR"
		},
		{
			"bufferView":20,
			"componentType":5126,
			"count":28,
			"max":[
				0.04767286777496338,
				0.14300000667572021,
				0.04483695700764656
			],
			"min":[
				0.008542418479919434,
				0.11582612991333008,
				0.04483695700764656
			],
			"type":"VEC3"
		},
		{
			"bufferView":21,
			"componentType":5126,
			"count":28,
			"type":"VEC3"
		},
		{
			"bufferView":22,
			"componentType":5126,
			"count":4,
			"max":[
				0.03680330514907837,
				0.1266956925392151,
				0.04483695700764656
			],
			"min":[
				0.01941201090812683,
				0.11256527900695801,
				0.04483695700764656
			],
			"type":"VEC3"
		},
		{
			"bufferView":23,
			"componentType":5126,
			"count":4,
			"type":"VEC3"
		},
		{
			"bufferView":24,
			"componentType":5126,
			"count":308,
			"max":[
				0.4245108366012573,
				-0.3309130072593689,
				0.05788043513894081
			],
			"min":[
				0.3919021487236023,
				-0.37656518816947937,
				-0.007336955517530441
			],
			"type":"VEC3"
		},
		{
			"bufferView":25,
			"componentType":5126,
			"count":308,
			"type":"VEC3"
		},
		{
			"bufferView":26,
			"componentType":5123,
			"count":750,
			"type":"SCALAR"
		},
		{
			"bufferView":27,
			"componentType":5126,
			"count":16,
			"max":[
				0.419076144695282,
				-0.3461304306983948,
				0.05570651963353157
			],
			"min":[
				0.3973369598388672,
				-0.3689565062522888,
				0.05570651963353157
			],
			"type":"VEC3"
		},
		{
			"bufferView":28,
			"componentType":5126,
			"count":16,
			"type":"VEC3"
		},
		{
			"bufferView":29,
			"componentType":5123,
			"count":24,
			"type":"SCALAR"
		},
		{
			"bufferView":30,
			"componentType":5126,
			"count":4,
			"max":[
				0.4190760850906372,
				-0.3624347448348999,
				0.05570651963353157
			],
			"min":[
				0.41038036346435547,
				-0.37656518816947937,
				0.05570651963353157
			],
			"type":"VEC3"
		},
		{
			"bufferView":31,
			"componentType":5126,
			"count":4,
			"type":"VEC3"
		},
		{
			"bufferView":32,
			"componentType":5126,
			"count":826,
			"max":[
				0.12865114212036133,
				-0.21460866928100586,
				0.0470108762383461
			],
			"min":[
				0.0797380805015564,
				-0.2787390947341919,
				-0.0073369513265788555
			],
			"type":"VEC3"
		},
		{
			"bufferView":33,
			"componentType":5126,
			"count":826,
			"type":"VEC3"
		},
		{
			"bufferView":34,
			"componentType":5123,
			"count":2670,
			"type":"SCALAR"
		},
		{
			"bufferView":35,
			"componentType":5126,
			"count":52,
			"max":[
				0.12375986576080322,
				-0.2319999784231186,
				0.04483695700764656
			],
			"min":[
				0.08462941646575928,
				-0.2754782438278198,
				0.04483695700764656
			],
			"type":"VEC3"
		},
		{
			"bufferView":36,
			"componentType":5126,
			"count":52,
			"type":"VEC3"
		},
		{
			"bufferView":37,
			"componentType":5123,
			"count":78,
			"type":"SCALAR"
		},
		{
			"bufferView":38,
			"componentType":5126,
			"count":4,
			"max":[
				0.0911511778831482,
				-0.2646086513996124,
				0.04483695700764656
			],
			"min":[
				0.08462941646575928,
				-0.2787390947341919,
				0.04483695700764656
			],
			"type":"VEC3"
		},
		{
			"bufferView":39,
			"componentType":5126,
			"count":4,
			"type":"VEC3"
		},
		{
			"bufferView":40,
			"componentType":5126,
			"count":501,
			"max":[
				-0.03167495131492615,
				-0.31243476271629333,
				0.05788043513894081
			],
			"min":[
				-0.06428366899490356,
				-0.37656518816947937,
				-0.007336955517530441
			],
			"type":"VEC3"
		},
		{
			"bufferView":41,
			"componentType":5126,
			"count":501,
			"type":"VEC3"
		},
		{
			"bufferView":42,
			"componentType":5123,
			"count":1401,
			"type":"SCALAR"
		},
		{
			"bufferView":43,
			"componentType":5126,
			"count":39,
			"max":[
				-0.03710973262786865,
				-0.3298260569572449,
				0.05570651963353157
			],
			"min":[
				-0.05884885787963867,
				-0.37113040685653687,
				0.05570651963353157
			],
			"type":"VEC3"
		},
		{
			"bufferView":44,
			"componentType":5126,
			"count":39,
			"type":"VEC3"
		},
		{
			"bufferView":45,
			"componentType":5123,
			"count":63,
			"type":"SCALAR"
		},
		{
			"bufferView":46,
			"componentType":5126,
			"count":4,
			"max":[
				-0.037109702825546265,
				-0.3624347448348999,
				0.05570651963353157
			],
			"min":[
				-0.04580536484718323,
				-0.37656518816947937,
				0.05570651963353157
			],
			"type":"VEC3"
		},
		{
			"bufferView":47,
			"componentType":5126,
			"count":4,
			"type":"VEC3"
		},
		{
			"bufferView":48,
			"componentType":5126,
			"count":705,
			"max":[
				0.2726728916168213,
				-0.19830432534217834,
				0.057880427688360214
			],
			"min":[
				0.24006414413452148,
				-0.2787390947341919,
				-0.007336955517530441
			],
			"type":"VEC3"
		},
		{
			"bufferView":49,
			"componentType":5126,
			"count":705,
			"type":"VEC3"
		},
		{
			"bufferView":50,
			"componentType":5123,
			"count":2286,
			"type":"SCALAR"
		},
		{
			"bufferView":51,
			"componentType":5126,
			"count":48,
			"max":[
				0.2672380208969116,
				-0.21569561958312988,
				0.05570651963353157
			],
			"min":[
				0.2454988956451416,
				-0.2733043432235718,
				0.05570651963353157
			],
			"type":"VEC3"
		},
		{
			"bufferView":52,
			"componentType":5126,
			"count":48,
			"type":"VEC3"
		},
		{
			"bufferView":53,
			"componentType":5123,
			"count":72,
			"type":"SCALAR"
		},
		{
			"bufferView":54,
			"componentType":5126,
			"count":4,
			"max":[
				0.25419455766677856,
				-0.2646086513996124,
				0.05570651963353157
			],
			"min":[
				0.2454988956451416,
				-0.2787390947341919,
				0.05570651963353157
			],
			"type":"VEC3"
		},
		{
			"bufferView":55,
			"componentType":5126,
			"count":4,
			"type":"VEC3"
		}
	],
	"bufferViews":[
		{
			"buffer":0,
			"byteLength":5940,
			"byteOffset":0,
			"target":34962
		},
		{
			"buffer":0,
			"byteLength":5940,
			"byteOffset":5940,
			"target":34962
		},
		{
			"buffer":0,
			"byteLength":2844,
			"byteOffset":11880,
			"target":34963
		},
		{
			"buffer":0,
			"byteLength":336,
			"byteOffset":14724,
			"target":34962
		},
		{
			"buffer":0,
			"byteLength":336,
			"byteOffset":15060,
			"target":34962
		},
		{
			"buffer":0,
			"byteLength":84,
			"byteOffset":15396,
			"target":34963
		},
		{
			"buffer":0,
			"byteLength":48,
			"byteOffset":15480,
			"target":34962
		},
		{
			"buffer":0,
			"byteLength":48,
			"byteOffset":15528,
			"target":34962
		},
		{
			"buffer":0,
			"byteLength":12,
			"byteOffset":15576,
			"target":34963
		},
		{
			"buffer":0,
			"byteLength":10488,
			"byteOffset":15588,
			"target":34962
		},
		{
			"buffer":0,
			"byteLength":10488,
			"byteOffset":26076,
			"target":34962
		},
		{
			"buffer":0,
			"byteLength":5658,
			"byteOffset":36564,
			"target":34963
		},
		{
			"buffer":0,
			"byteLength":756,
			"byteOffset":42224,
			"target":34962
		},
		{
			"buffer":0,
			"byteLength":756,
			"byteOffset":42980,
			"target":34962
		},
		{
			"buffer":0,
			"byteLength":186,
			"byteOffset":43736,
			"target":34963
		},
		{
			"buffer":0,
			"byteLength":48,
			"byteOffset":43924,
			"target":34962
		},
		{
			"buffer":0,
			"byteLength":48,
			"byteOffset":43972,
			"target":34962
		},
		{
			"buffer":0,
			"byteLength":6180,
			"byteOffset":44020,
			"target":34962
		},
		{
			"buffer":0,
			"byteLength":6180,
			"byteOffset":50200,
			"target":34962
		},
		{
			"buffer":0,
			"byteLength":2868,
			"byteOffset":56380,
			"target":34963
		},
		{
			"buffer":0,
			"byteLength":336,
			"byteOffset":59248,
			"target":34962
		},
		{
			"buffer":0,
			"byteLength":336,
			"byteOffset":59584,
			"target":34962
		},
		{
			"buffer":0,
			"byteLength":48,
			"byteOffset":59920,
			"target":34962
		},
		{
			"buffer":0,
			"byteLength":48,
			"byteOffset":59968,
			"target":34962
		},
		{
			"buffer":0,
			"byteLength":3696,
			"byteOffset":60016,
			"target":34962
		},
		{
			"buffer":0,
			"byteLength":3696,
			"byteOffset":63712,
			"target":34962
		},
		{
			"buffer":0,
			"byteLength":1500,
			"byteOffset":67408,
			"target":34963
		},
		{
			"buffer":0,
			"byteLength":192,
			"byteOffset":68908,
			"target":34962
		},
		{
			"buffer":0,
			"byteLength":192,
			"byteOffset":69100,
			"target":34962
		},
		{
			"buffer":0,
			"byteLength":48,
			"byteOffset":69292,
			"target":34963
		},
		{
			"buffer":0,
			"byteLength":48,
			"byteOffset":69340,
			"target":34962
		},
		{
			"buffer":0,
			"byteLength":48,
			"byteOffset":69388,
			"target":34962
		},
		{
			"buffer":0,
			"byteLength":9912,
			"byteOffset":69436,
			"target":34962
		},
		{
			"buffer":0,
			"byteLength":9912,
			"byteOffset":79348,
			"target":34962
		},
		{
			"buffer":0,
			"byteLength":5340,
			"byteOffset":89260,
			"target":34963
		},
		{
			"buffer":0,
			"byteLength":624,
			"byteOffset":94600,
			"target":34962
		},
		{
			"buffer":0,
			"byteLength":624,
			"byteOffset":95224,
			"target":34962
		},
		{
			"buffer":0,
			"byteLength":156,
			"byteOffset":95848,
			"target":34963
		},
		{
			"buffer":0,
			"byteLength":48,
			"byteOffset":96004,
			"target":34962
		},
		{
			"buffer":0,
			"byteLength":48,
			"byteOffset":96052,
			"target":34962
		},
		{
			"buffer":0,
			"byteLength":6012,
			"byteOffset":96100,
			"target":34962
		},
		{
			"buffer":0,
			"byteLength":6012,
			"byteOffset":102112,
			"target":34962
		},
		{
			"buffer":0,
			"byteLength":2802,
			"byteOffset":108124,
			"target":34963
		},
		{
			"buffer":0,
			"byteLength":468,
			"byteOffset":110928,
			"target":34962
		},
		{
			"buffer":0,
			"byteLength":468,
			"byteOffset":111396,
			"target":34962
		},
		{
			"buffer":0,
			"byteLength":126,
			"byteOffset":111864,
			"target":34963
		},
		{
			"buffer":0,
			"byteLength":48,
			"byteOffset":111992,
			"target":34962
		},
		{
			"buffer":0,
			"byteLength":48,
			"byteOffset":112040,
			"target":34962
		},
		{
			"buffer":0,
			"byteLength":8460,
			"byteOffset":112088,
			"target":34962
		},
		{
			"buffer":0,
			"byteLength":8460,
			"byteOffset":120548,
			"target":34962
		},
		{
			"buffer":0,
			"byteLength":4572,
			"byteOffset":129008,
			"target":34963
		},
		{
			"buffer":0,
			"byteLength":576,
			"byteOffset":133580,
			"target":34962
		},
		{
			"buffer":0,
			"byteLength":576,
			"byteOffset":134156,
			"target":34962
		},
		{
			"buffer":0,
			"byteLength":144,
			"byteOffset":134732,
			"target":34963
		},
		{
			"buffer":0,
			"byteLength":48,
			"byteOffset":134876,
			"target":34962
		},
		{
			"buffer":0,
			"byteLength":48,
			"byteOffset":134924,
			"target":34962
		}
	],
	"buffers":[
		{
			"byteLength":134972,
			"uri":"BinaGrup3.bin"
		}
	]
}
