{
	"asset":{
		"generator":"Khronos glTF Blender I/O v4.2.60",
		"version":"2.0"
	},
	"scene":0,
	"scenes":[
		{
			"name":"Scene",
			"nodes":[
				0,
				1,
				2,
				3,
				4,
				5,
				6,
				7,
				8,
				9,
				10,
				11,
				12,
				13,
				14,
				15,
				16,
				17,
				18,
				19,
				20
			]
		}
	],
	"nodes":[
		{
			"mesh":0,
			"name":"Building_066.016"
		},
		{
			"mesh":1,
			"name":"Building_066.017"
		},
		{
			"mesh":2,
			"name":"Building_066.018"
		},
		{
			"mesh":3,
			"name":"Building_041.016"
		},
		{
			"mesh":4,
			"name":"Building_041.017"
		},
		{
			"mesh":5,
			"name":"Building_041.018"
		},
		{
			"mesh":6,
			"name":"Building_028.016"
		},
		{
			"mesh":7,
			"name":"Building_028.017"
		},
		{
			"mesh":8,
			"name":"Building_028.018"
		},
		{
			"mesh":9,
			"name":"Building_077.014"
		},
		{
			"mesh":10,
			"name":"Building_077.015"
		},
		{
			"mesh":11,
			"name":"Building_077.016"
		},
		{
			"mesh":12,
			"name":"Building_078.014"
		},
		{
			"mesh":13,
			"name":"Building_078.015"
		},
		{
			"mesh":14,
			"name":"Building_078.016"
		},
		{
			"mesh":15,
			"name":"Building_020.015"
		},
		{
			"mesh":16,
			"name":"Building_020.016"
		},
		{
			"mesh":17,
			"name":"Building_020.017"
		},
		{
			"mesh":18,
			"name":"Building_074.014"
		},
		{
			"mesh":19,
			"name":"Building_074.015"
		},
		{
			"mesh":20,
			"name":"Building_074.016"
		}
	],
	"materials":[
		{
			"doubleSided":true,
			"name":"BinaGrid",
			"pbrMetallicRoughness":{
				"baseColorFactor":[
					0.0009104993660002947,
					0.04091522842645645,
					0.06662598252296448,
					1
				],
				"metallicFactor":0,
				"roughnessFactor":0.5
			}
		},
		{
			"doubleSided":true,
			"name":"PencereGrid",
			"pbrMetallicRoughness":{
				"baseColorFactor":[
					0.1328672468662262,
					0.26635584235191345,
					0.31854695081710815,
					1
				],
				"metallicFactor":0,
				"roughnessFactor":0.699999988079071
			}
		},
		{
			"doubleSided":true,
			"name":"Kap\u0131Grid",
			"pbrMetallicRoughness":{
				"baseColorFactor":[
					0,
					0.01161225512623787,
					0.016807379201054573,
					1
				],
				"metallicFactor":0,
				"roughnessFactor":0.699999988079071
			}
		}
	],
	"meshes":[
		{
			"name":"Building_066_Mesh.018",
			"primitives":[
				{
					"attributes":{
						"POSITION":0,
						"NORMAL":1
					},
					"indices":2,
					"material":0
				}
			]
		},
		{
			"name":"Building_066_Mesh.019",
			"primitives":[
				{
					"attributes":{
						"POSITION":3,
						"NORMAL":4
					},
					"indices":5,
					"material":1
				}
			]
		},
		{
			"name":"Building_066_Mesh.020",
			"primitives":[
				{
					"attributes":{
						"POSITION":6,
						"NORMAL":7
					},
					"indices":8,
					"material":2
				}
			]
		},
		{
			"name":"Building_041_Mesh.018",
			"primitives":[
				{
					"attributes":{
						"POSITION":9,
						"NORMAL":10
					},
					"indices":11,
					"material":0
				}
			]
		},
		{
			"name":"Building_041_Mesh.019",
			"primitives":[
				{
					"attributes":{
						"POSITION":12,
						"NORMAL":13
					},
					"indices":5,
					"material":1
				}
			]
		},
		{
			"name":"Building_041_Mesh.020",
			"primitives":[
				{
					"attributes":{
						"POSITION":14,
						"NORMAL":15
					},
					"indices":8,
					"material":2
				}
			]
		},
		{
			"name":"Building_028_Mesh.018",
			"primitives":[
				{
					"attributes":{
						"POSITION":16,
						"NORMAL":17
					},
					"indices":18,
					"material":0
				}
			]
		},
		{
			"name":"Building_028_Mesh.019",
			"primitives":[
				{
					"attributes":{
						"POSITION":19,
						"NORMAL":20
					},
					"indices":21,
					"material":1
				}
			]
		},
		{
			"name":"Building_028_Mesh.020",
			"primitives":[
				{
					"attributes":{
						"POSITION":22,
						"NORMAL":23
					},
					"indices":8,
					"material":2
				}
			]
		},
		{
			"name":"Building_077_Mesh.014",
			"primitives":[
				{
					"attributes":{
						"POSITION":24,
						"NORMAL":25
					},
					"indices":26,
					"material":0
				}
			]
		},
		{
			"name":"Building_077_Mesh.015",
			"primitives":[
				{
					"attributes":{
						"POSITION":27,
						"NORMAL":28
					},
					"indices":29,
					"material":1
				}
			]
		},
		{
			"name":"Building_077_Mesh.016",
			"primitives":[
				{
					"attributes":{
						"POSITION":30,
						"NORMAL":31
					},
					"indices":8,
					"material":2
				}
			]
		},
		{
			"name":"Building_078_Mesh.014",
			"primitives":[
				{
					"attributes":{
						"POSITION":32,
						"NORMAL":33
					},
					"indices":34,
					"material":0
				}
			]
		},
		{
			"name":"Building_078_Mesh.015",
			"primitives":[
				{
					"attributes":{
						"POSITION":35,
						"NORMAL":36
					},
					"indices":37,
					"material":1
				}
			]
		},
		{
			"name":"Building_078_Mesh.016",
			"primitives":[
				{
					"attributes":{
						"POSITION":38,
						"NORMAL":39
					},
					"indices":8,
					"material":2
				}
			]
		},
		{
			"name":"Building_020_Mesh.011",
			"primitives":[
				{
					"attributes":{
						"POSITION":40,
						"NORMAL":41
					},
					"indices":42,
					"material":0
				}
			]
		},
		{
			"name":"Building_020_Mesh.019",
			"primitives":[
				{
					"attributes":{
						"POSITION":43,
						"NORMAL":44
					},
					"indices":8,
					"material":2
				}
			]
		},
		{
			"name":"Building_020_Mesh.020",
			"primitives":[
				{
					"attributes":{
						"POSITION":45,
						"NORMAL":46
					},
					"indices":47,
					"material":1
				}
			]
		},
		{
			"name":"Building_074_Mesh.014",
			"primitives":[
				{
					"attributes":{
						"POSITION":48,
						"NORMAL":49
					},
					"indices":50,
					"material":0
				}
			]
		},
		{
			"name":"Building_074_Mesh.015",
			"primitives":[
				{
					"attributes":{
						"POSITION":51,
						"NORMAL":52
					},
					"indices":53,
					"material":1
				}
			]
		},
		{
			"name":"Building_074_Mesh.016",
			"primitives":[
				{
					"attributes":{
						"POSITION":54,
						"NORMAL":55
					},
					"indices":8,
					"material":2
				}
			]
		}
	],
	"accessors":[
		{
			"bufferView":0,
			"componentType":5126,
			"count":477,
			"max":[
				0.27267277240753174,
				-0.127652108669281,
				0.0470108687877655
			],
			"min":[
				0.24006414413452148,
				-0.18091300129890442,
				-0.007336955517530441
			],
			"type":"VEC3"
		},
		{
			"bufferView":1,
			"componentType":5126,
			"count":477,
			"type":"VEC3"
		},
		{
			"bufferView":2,
			"componentType":5123,
			"count":1386,
			"type":"SCALAR"
		},
		{
			"bufferView":3,
			"componentType":5126,
			"count":36,
			"max":[
				0.2672380805015564,
				-0.1341738998889923,
				0.04483695700764656
			],
			"min":[
				0.2454988956451416,
				-0.17330431938171387,
				0.04483695700764656
			],
			"type":"VEC3"
		},
		{
			"bufferView":4,
			"componentType":5126,
			"count":36,
			"type":"VEC3"
		},
		{
			"bufferView":5,
			"componentType":5123,
			"count":54,
			"type":"SCALAR"
		},
		{
			"bufferView":6,
			"componentType":5126,
			"count":4,
			"max":[
				0.25419455766677856,
				-0.16678255796432495,
				0.04483695700764656
			],
			"min":[
				0.2454988956451416,
				-0.18091300129890442,
				0.04483695700764656
			],
			"type":"VEC3"
		},
		{
			"bufferView":7,
			"componentType":5126,
			"count":4,
			"type":"VEC3"
		},
		{
			"bufferView":8,
			"componentType":5123,
			"count":6,
			"type":"SCALAR"
		},
		{
			"bufferView":9,
			"componentType":5126,
			"count":497,
			"max":[
				-0.03167492151260376,
				-0.41243475675582886,
				0.036141302436590195
			],
			"min":[
				-0.06428360939025879,
				-0.47439128160476685,
				-0.007336955517530441
			],
			"type":"VEC3"
		},
		{
			"bufferView":10,
			"componentType":5126,
			"count":497,
			"type":"VEC3"
		},
		{
			"bufferView":11,
			"componentType":5123,
			"count":1398,
			"type":"SCALAR"
		},
		{
			"bufferView":12,
			"componentType":5126,
			"count":36,
			"max":[
				-0.03710973262786865,
				-0.42765215039253235,
				0.033967386931180954
			],
			"min":[
				-0.05884888768196106,
				-0.4711304008960724,
				0.033967386931180954
			],
			"type":"VEC3"
		},
		{
			"bufferView":13,
			"componentType":5126,
			"count":36,
			"type":"VEC3"
		},
		{
			"bufferView":14,
			"componentType":5126,
			"count":4,
			"max":[
				-0.05015319585800171,
				-0.4602608382701874,
				0.03396739438176155
			],
			"min":[
				-0.05884888768196106,
				-0.47439128160476685,
				0.03396739438176155
			],
			"type":"VEC3"
		},
		{
			"bufferView":15,
			"componentType":5126,
			"count":4,
			"type":"VEC3"
		},
		{
			"bufferView":16,
			"componentType":5126,
			"count":501,
			"max":[
				-0.1077619194984436,
				0.17452174425125122,
				0.036141302436590195
			],
			"min":[
				-0.14037060737609863,
				0.11256527900695801,
				-0.007336955517530441
			],
			"type":"VEC3"
		},
		{
			"bufferView":17,
			"componentType":5126,
			"count":501,
			"type":"VEC3"
		},
		{
			"bufferView":18,
			"componentType":5123,
			"count":1404,
			"type":"SCALAR"
		},
		{
			"bufferView":19,
			"componentType":5126,
			"count":38,
			"max":[
				-0.11319667100906372,
				0.15930438041687012,
				0.033967386931180954
			],
			"min":[
				-0.13493579626083374,
				0.12017399072647095,
				0.033967386931180954
			],
			"type":"VEC3"
		},
		{
			"bufferView":20,
			"componentType":5126,
			"count":38,
			"type":"VEC3"
		},
		{
			"bufferView":21,
			"componentType":5123,
			"count":60,
			"type":"SCALAR"
		},
		{
			"bufferView":22,
			"componentType":5126,
			"count":4,
			"max":[
				-0.11319664120674133,
				0.1266956925392151,
				0.03396739438176155
			],
			"min":[
				-0.12189233303070068,
				0.11256527900695801,
				0.03396739438176155
			],
			"type":"VEC3"
		},
		{
			"bufferView":23,
			"componentType":5126,
			"count":4,
			"type":"VEC3"
		},
		{
			"bufferView":24,
			"componentType":5126,
			"count":525,
			"max":[
				0.43266308307647705,
				0.1582174301147461,
				0.057880427688360214
			],
			"min":[
				0.3837500214576721,
				0.11256527900695801,
				-0.007336959708482027
			],
			"type":"VEC3"
		},
		{
			"bufferView":25,
			"componentType":5126,
			"count":525,
			"type":"VEC3"
		},
		{
			"bufferView":26,
			"componentType":5123,
			"count":1488,
			"type":"SCALAR"
		},
		{
			"bufferView":27,
			"componentType":5126,
			"count":32,
			"max":[
				0.42777174711227417,
				0.14300000667572021,
				0.05570651963353157
			],
			"min":[
				0.3886412978172302,
				0.11582612991333008,
				0.05570651963353157
			],
			"type":"VEC3"
		},
		{
			"bufferView":28,
			"componentType":5126,
			"count":32,
			"type":"VEC3"
		},
		{
			"bufferView":29,
			"componentType":5123,
			"count":48,
			"type":"SCALAR"
		},
		{
			"bufferView":30,
			"componentType":5126,
			"count":4,
			"max":[
				0.42777174711227417,
				0.1266956925392151,
				0.05570651963353157
			],
			"min":[
				0.4212499260902405,
				0.11256527900695801,
				0.05570651963353157
			],
			"type":"VEC3"
		},
		{
			"bufferView":31,
			"componentType":5126,
			"count":4,
			"type":"VEC3"
		},
		{
			"bufferView":32,
			"componentType":5126,
			"count":511,
			"max":[
				0.43266308307647705,
				0.06256520748138428,
				0.0470108762383461
			],
			"min":[
				0.3837500214576721,
				0.014739125967025757,
				-0.007336955517530441
			],
			"type":"VEC3"
		},
		{
			"bufferView":33,
			"componentType":5126,
			"count":511,
			"type":"VEC3"
		},
		{
			"bufferView":34,
			"componentType":5123,
			"count":1416,
			"type":"SCALAR"
		},
		{
			"bufferView":35,
			"componentType":5126,
			"count":24,
			"max":[
				0.4277716875076294,
				0.04517388343811035,
				0.04483695700764656
			],
			"min":[
				0.3886412978172302,
				0.018000036478042603,
				0.04483695700764656
			],
			"type":"VEC3"
		},
		{
			"bufferView":36,
			"componentType":5126,
			"count":24,
			"type":"VEC3"
		},
		{
			"bufferView":37,
			"componentType":5123,
			"count":36,
			"type":"SCALAR"
		},
		{
			"bufferView":38,
			"componentType":5126,
			"count":4,
			"max":[
				0.39516305923461914,
				0.028869569301605225,
				0.04483695700764656
			],
			"min":[
				0.3886412978172302,
				0.014739125967025757,
				0.04483695700764656
			],
			"type":"VEC3"
		},
		{
			"bufferView":39,
			"componentType":5126,
			"count":4,
			"type":"VEC3"
		},
		{
			"bufferView":40,
			"componentType":5126,
			"count":847,
			"max":[
				-0.2517836093902588,
				-0.32330432534217834,
				0.05788043513894081
			],
			"min":[
				-0.3006966710090637,
				-0.37656518816947937,
				-0.007336955517530441
			],
			"type":"VEC3"
		},
		{
			"bufferView":41,
			"componentType":5126,
			"count":847,
			"type":"VEC3"
		},
		{
			"bufferView":42,
			"componentType":5123,
			"count":2814,
			"type":"SCALAR"
		},
		{
			"bufferView":43,
			"componentType":5126,
			"count":4,
			"max":[
				-0.2566749155521393,
				-0.3624347448348999,
				0.05570651963353157
			],
			"min":[
				-0.2631966471672058,
				-0.37656518816947937,
				0.05570651963353157
			],
			"type":"VEC3"
		},
		{
			"bufferView":44,
			"componentType":5126,
			"count":4,
			"type":"VEC3"
		},
		{
			"bufferView":45,
			"componentType":5126,
			"count":64,
			"max":[
				-0.2566749155521393,
				-0.3298260569572449,
				0.05570651963353157
			],
			"min":[
				-0.29580533504486084,
				-0.37113040685653687,
				0.05570651963353157
			],
			"type":"VEC3"
		},
		{
			"bufferView":46,
			"componentType":5126,
			"count":64,
			"type":"VEC3"
		},
		{
			"bufferView":47,
			"componentType":5123,
			"count":96,
			"type":"SCALAR"
		},
		{
			"bufferView":48,
			"componentType":5126,
			"count":826,
			"max":[
				0.356576144695282,
				-0.21895650029182434,
				0.036141302436590195
			],
			"min":[
				0.30766308307647705,
				-0.2787390947341919,
				-0.007336955517530441
			],
			"type":"VEC3"
		},
		{
			"bufferView":49,
			"componentType":5126,
			"count":826,
			"type":"VEC3"
		},
		{
			"bufferView":50,
			"componentType":5123,
			"count":2670,
			"type":"SCALAR"
		},
		{
			"bufferView":51,
			"componentType":5126,
			"count":52,
			"max":[
				0.3516847491264343,
				-0.2319999784231186,
				0.033967386931180954
			],
			"min":[
				0.31255435943603516,
				-0.2754782438278198,
				0.033967386931180954
			],
			"type":"VEC3"
		},
		{
			"bufferView":52,
			"componentType":5126,
			"count":52,
			"type":"VEC3"
		},
		{
			"bufferView":53,
			"componentType":5123,
			"count":78,
			"type":"SCALAR"
		},
		{
			"bufferView":54,
			"componentType":5126,
			"count":4,
			"max":[
				0.3190761208534241,
				-0.2646086513996124,
				0.03396739065647125
			],
			"min":[
				0.31255435943603516,
				-0.2787390947341919,
				0.03396739065647125
			],
			"type":"VEC3"
		},
		{
			"bufferView":55,
			"componentType":5126,
			"count":4,
			"type":"VEC3"
		}
	],
	"bufferViews":[
		{
			"buffer":0,
			"byteLength":5724,
			"byteOffset":0,
			"target":34962
		},
		{
			"buffer":0,
			"byteLength":5724,
			"byteOffset":5724,
			"target":34962
		},
		{
			"buffer":0,
			"byteLength":2772,
			"byteOffset":11448,
			"target":34963
		},
		{
			"buffer":0,
			"byteLength":432,
			"byteOffset":14220,
			"target":34962
		},
		{
			"buffer":0,
			"byteLength":432,
			"byteOffset":14652,
			"target":34962
		},
		{
			"buffer":0,
			"byteLength":108,
			"byteOffset":15084,
			"target":34963
		},
		{
			"buffer":0,
			"byteLength":48,
			"byteOffset":15192,
			"target":34962
		},
		{
			"buffer":0,
			"byteLength":48,
			"byteOffset":15240,
			"target":34962
		},
		{
			"buffer":0,
			"byteLength":12,
			"byteOffset":15288,
			"target":34963
		},
		{
			"buffer":0,
			"byteLength":5964,
			"byteOffset":15300,
			"target":34962
		},
		{
			"buffer":0,
			"byteLength":5964,
			"byteOffset":21264,
			"target":34962
		},
		{
			"buffer":0,
			"byteLength":2796,
			"byteOffset":27228,
			"target":34963
		},
		{
			"buffer":0,
			"byteLength":432,
			"byteOffset":30024,
			"target":34962
		},
		{
			"buffer":0,
			"byteLength":432,
			"byteOffset":30456,
			"target":34962
		},
		{
			"buffer":0,
			"byteLength":48,
			"byteOffset":30888,
			"target":34962
		},
		{
			"buffer":0,
			"byteLength":48,
			"byteOffset":30936,
			"target":34962
		},
		{
			"buffer":0,
			"byteLength":6012,
			"byteOffset":30984,
			"target":34962
		},
		{
			"buffer":0,
			"byteLength":6012,
			"byteOffset":36996,
			"target":34962
		},
		{
			"buffer":0,
			"byteLength":2808,
			"byteOffset":43008,
			"target":34963
		},
		{
			"buffer":0,
			"byteLength":456,
			"byteOffset":45816,
			"target":34962
		},
		{
			"buffer":0,
			"byteLength":456,
			"byteOffset":46272,
			"target":34962
		},
		{
			"buffer":0,
			"byteLength":120,
			"byteOffset":46728,
			"target":34963
		},
		{
			"buffer":0,
			"byteLength":48,
			"byteOffset":46848,
			"target":34962
		},
		{
			"buffer":0,
			"byteLength":48,
			"byteOffset":46896,
			"target":34962
		},
		{
			"buffer":0,
			"byteLength":6300,
			"byteOffset":46944,
			"target":34962
		},
		{
			"buffer":0,
			"byteLength":6300,
			"byteOffset":53244,
			"target":34962
		},
		{
			"buffer":0,
			"byteLength":2976,
			"byteOffset":59544,
			"target":34963
		},
		{
			"buffer":0,
			"byteLength":384,
			"byteOffset":62520,
			"target":34962
		},
		{
			"buffer":0,
			"byteLength":384,
			"byteOffset":62904,
			"target":34962
		},
		{
			"buffer":0,
			"byteLength":96,
			"byteOffset":63288,
			"target":34963
		},
		{
			"buffer":0,
			"byteLength":48,
			"byteOffset":63384,
			"target":34962
		},
		{
			"buffer":0,
			"byteLength":48,
			"byteOffset":63432,
			"target":34962
		},
		{
			"buffer":0,
			"byteLength":6132,
			"byteOffset":63480,
			"target":34962
		},
		{
			"buffer":0,
			"byteLength":6132,
			"byteOffset":69612,
			"target":34962
		},
		{
			"buffer":0,
			"byteLength":2832,
			"byteOffset":75744,
			"target":34963
		},
		{
			"buffer":0,
			"byteLength":288,
			"byteOffset":78576,
			"target":34962
		},
		{
			"buffer":0,
			"byteLength":288,
			"byteOffset":78864,
			"target":34962
		},
		{
			"buffer":0,
			"byteLength":72,
			"byteOffset":79152,
			"target":34963
		},
		{
			"buffer":0,
			"byteLength":48,
			"byteOffset":79224,
			"target":34962
		},
		{
			"buffer":0,
			"byteLength":48,
			"byteOffset":79272,
			"target":34962
		},
		{
			"buffer":0,
			"byteLength":10164,
			"byteOffset":79320,
			"target":34962
		},
		{
			"buffer":0,
			"byteLength":10164,
			"byteOffset":89484,
			"target":34962
		},
		{
			"buffer":0,
			"byteLength":5628,
			"byteOffset":99648,
			"target":34963
		},
		{
			"buffer":0,
			"byteLength":48,
			"byteOffset":105276,
			"target":34962
		},
		{
			"buffer":0,
			"byteLength":48,
			"byteOffset":105324,
			"target":34962
		},
		{
			"buffer":0,
			"byteLength":768,
			"byteOffset":105372,
			"target":34962
		},
		{
			"buffer":0,
			"byteLength":768,
			"byteOffset":106140,
			"target":34962
		},
		{
			"buffer":0,
			"byteLength":192,
			"byteOffset":106908,
			"target":34963
		},
		{
			"buffer":0,
			"byteLength":9912,
			"byteOffset":107100,
			"target":34962
		},
		{
			"buffer":0,
			"byteLength":9912,
			"byteOffset":117012,
			"target":34962
		},
		{
			"buffer":0,
			"byteLength":5340,
			"byteOffset":126924,
			"target":34963
		},
		{
			"buffer":0,
			"byteLength":624,
			"byteOffset":132264,
			"target":34962
		},
		{
			"buffer":0,
			"byteLength":624,
			"byteOffset":132888,
			"target":34962
		},
		{
			"buffer":0,
			"byteLength":156,
			"byteOffset":133512,
			"target":34963
		},
		{
			"buffer":0,
			"byteLength":48,
			"byteOffset":133668,
			"target":34962
		},
		{
			"buffer":0,
			"byteLength":48,
			"byteOffset":133716,
			"target":34962
		}
	],
	"buffers":[
		{
			"byteLength":133764,
			"uri":"BinaGrup6.bin"
		}
	]
}
