{
	"asset":{
		"generator":"Khronos glTF Blender I/O v4.2.60",
		"version":"2.0"
	},
	"scene":0,
	"scenes":[
		{
			"name":"Scene",
			"nodes":[
				0,
				1,
				2,
				3,
				4,
				5,
				6,
				7,
				8,
				9,
				10,
				11,
				12,
				13,
				14,
				15,
				16,
				17,
				18,
				19,
				20
			]
		}
	],
	"nodes":[
		{
			"mesh":0,
			"name":"Building_063.016"
		},
		{
			"mesh":1,
			"name":"Building_063.017"
		},
		{
			"mesh":2,
			"name":"Building_063.018"
		},
		{
			"mesh":3,
			"name":"Building_060.016"
		},
		{
			"mesh":4,
			"name":"Building_060.017"
		},
		{
			"mesh":5,
			"name":"Building_060.018"
		},
		{
			"mesh":6,
			"name":"Building_022.016"
		},
		{
			"mesh":7,
			"name":"Building_022.017"
		},
		{
			"mesh":8,
			"name":"Building_022.018"
		},
		{
			"mesh":9,
			"name":"Building_073.014"
		},
		{
			"mesh":10,
			"name":"Building_073.015"
		},
		{
			"mesh":11,
			"name":"Building_073.016"
		},
		{
			"mesh":12,
			"name":"Building_075.014"
		},
		{
			"mesh":13,
			"name":"Building_075.015"
		},
		{
			"mesh":14,
			"name":"Building_075.016"
		},
		{
			"mesh":15,
			"name":"Building_030.016"
		},
		{
			"mesh":16,
			"name":"Building_030.017"
		},
		{
			"mesh":17,
			"name":"Building_030.018"
		},
		{
			"mesh":18,
			"name":"Building_044.016"
		},
		{
			"mesh":19,
			"name":"Building_044.017"
		},
		{
			"mesh":20,
			"name":"Building_044.018"
		}
	],
	"materials":[
		{
			"doubleSided":true,
			"name":"BinaGrid",
			"pbrMetallicRoughness":{
				"baseColorFactor":[
					0.0009104993660002947,
					0.04091522842645645,
					0.06662598252296448,
					1
				],
				"metallicFactor":0,
				"roughnessFactor":0.5
			}
		},
		{
			"doubleSided":true,
			"name":"PencereGrid",
			"pbrMetallicRoughness":{
				"baseColorFactor":[
					0.1328672468662262,
					0.26635584235191345,
					0.31854695081710815,
					1
				],
				"metallicFactor":0,
				"roughnessFactor":0.699999988079071
			}
		},
		{
			"doubleSided":true,
			"name":"Kap\u0131Grid",
			"pbrMetallicRoughness":{
				"baseColorFactor":[
					0,
					0.01161225512623787,
					0.016807379201054573,
					1
				],
				"metallicFactor":0,
				"roughnessFactor":0.699999988079071
			}
		}
	],
	"meshes":[
		{
			"name":"Building_063_Mesh.018",
			"primitives":[
				{
					"attributes":{
						"POSITION":0,
						"NORMAL":1
					},
					"indices":2,
					"material":0
				}
			]
		},
		{
			"name":"Building_063_Mesh.019",
			"primitives":[
				{
					"attributes":{
						"POSITION":3,
						"NORMAL":4
					},
					"indices":5,
					"material":1
				}
			]
		},
		{
			"name":"Building_063_Mesh.020",
			"primitives":[
				{
					"attributes":{
						"POSITION":6,
						"NORMAL":7
					},
					"indices":8,
					"material":2
				}
			]
		},
		{
			"name":"Building_060_Mesh.018",
			"primitives":[
				{
					"attributes":{
						"POSITION":9,
						"NORMAL":10
					},
					"indices":11,
					"material":0
				}
			]
		},
		{
			"name":"Building_060_Mesh.019",
			"primitives":[
				{
					"attributes":{
						"POSITION":12,
						"NORMAL":13
					},
					"indices":14,
					"material":1
				}
			]
		},
		{
			"name":"Building_060_Mesh.020",
			"primitives":[
				{
					"attributes":{
						"POSITION":15,
						"NORMAL":16
					},
					"indices":8,
					"material":2
				}
			]
		},
		{
			"name":"Building_022_Mesh.018",
			"primitives":[
				{
					"attributes":{
						"POSITION":17,
						"NORMAL":18
					},
					"indices":19,
					"material":0
				}
			]
		},
		{
			"name":"Building_022_Mesh.019",
			"primitives":[
				{
					"attributes":{
						"POSITION":20,
						"NORMAL":21
					},
					"indices":22,
					"material":1
				}
			]
		},
		{
			"name":"Building_022_Mesh.020",
			"primitives":[
				{
					"attributes":{
						"POSITION":23,
						"NORMAL":24
					},
					"indices":8,
					"material":2
				}
			]
		},
		{
			"name":"Building_073_Mesh.014",
			"primitives":[
				{
					"attributes":{
						"POSITION":25,
						"NORMAL":26
					},
					"indices":27,
					"material":0
				}
			]
		},
		{
			"name":"Building_073_Mesh.015",
			"primitives":[
				{
					"attributes":{
						"POSITION":28,
						"NORMAL":29
					},
					"indices":30,
					"material":1
				}
			]
		},
		{
			"name":"Building_073_Mesh.016",
			"primitives":[
				{
					"attributes":{
						"POSITION":31,
						"NORMAL":32
					},
					"indices":8,
					"material":2
				}
			]
		},
		{
			"name":"Building_075_Mesh.014",
			"primitives":[
				{
					"attributes":{
						"POSITION":33,
						"NORMAL":34
					},
					"indices":35,
					"material":0
				}
			]
		},
		{
			"name":"Building_075_Mesh.015",
			"primitives":[
				{
					"attributes":{
						"POSITION":36,
						"NORMAL":37
					},
					"indices":38,
					"material":1
				}
			]
		},
		{
			"name":"Building_075_Mesh.016",
			"primitives":[
				{
					"attributes":{
						"POSITION":39,
						"NORMAL":40
					},
					"indices":8,
					"material":2
				}
			]
		},
		{
			"name":"Building_030_Mesh.018",
			"primitives":[
				{
					"attributes":{
						"POSITION":41,
						"NORMAL":42
					},
					"indices":43,
					"material":0
				}
			]
		},
		{
			"name":"Building_030_Mesh.019",
			"primitives":[
				{
					"attributes":{
						"POSITION":44,
						"NORMAL":45
					},
					"indices":46,
					"material":1
				}
			]
		},
		{
			"name":"Building_030_Mesh.020",
			"primitives":[
				{
					"attributes":{
						"POSITION":47,
						"NORMAL":48
					},
					"indices":8,
					"material":2
				}
			]
		},
		{
			"name":"Building_044_Mesh.018",
			"primitives":[
				{
					"attributes":{
						"POSITION":49,
						"NORMAL":50
					},
					"indices":51,
					"material":0
				}
			]
		},
		{
			"name":"Building_044_Mesh.019",
			"primitives":[
				{
					"attributes":{
						"POSITION":52,
						"NORMAL":53
					},
					"indices":54,
					"material":1
				}
			]
		},
		{
			"name":"Building_044_Mesh.020",
			"primitives":[
				{
					"attributes":{
						"POSITION":55,
						"NORMAL":56
					},
					"indices":8,
					"material":2
				}
			]
		}
	],
	"accessors":[
		{
			"bufferView":0,
			"componentType":5126,
			"count":884,
			"max":[
				0.2808249592781067,
				0.174521803855896,
				0.036141302436590195
			],
			"min":[
				0.23191189765930176,
				0.11256533861160278,
				-0.007336955517530441
			],
			"type":"VEC3"
		},
		{
			"bufferView":1,
			"componentType":5126,
			"count":884,
			"type":"VEC3"
		},
		{
			"bufferView":2,
			"componentType":5123,
			"count":2829,
			"type":"SCALAR"
		},
		{
			"bufferView":3,
			"componentType":5126,
			"count":63,
			"max":[
				0.27593374252319336,
				0.15930438041687012,
				0.03396739438176155
			],
			"min":[
				0.23680329322814941,
				0.12017399072647095,
				0.03396739438176155
			],
			"type":"VEC3"
		},
		{
			"bufferView":4,
			"componentType":5126,
			"count":63,
			"type":"VEC3"
		},
		{
			"bufferView":5,
			"componentType":5123,
			"count":93,
			"type":"SCALAR"
		},
		{
			"bufferView":6,
			"componentType":5126,
			"count":4,
			"max":[
				0.27593374252319336,
				0.1266956925392151,
				0.03396739438176155
			],
			"min":[
				0.26941198110580444,
				0.11256527900695801,
				0.03396739438176155
			],
			"type":"VEC3"
		},
		{
			"bufferView":7,
			"componentType":5126,
			"count":4,
			"type":"VEC3"
		},
		{
			"bufferView":8,
			"componentType":5123,
			"count":6,
			"type":"SCALAR"
		},
		{
			"bufferView":9,
			"componentType":5126,
			"count":800,
			"max":[
				0.2047380805015564,
				-0.22547824680805206,
				0.03614130616188049
			],
			"min":[
				0.15582501888275146,
				-0.2787390947341919,
				-0.0073369513265788555
			],
			"type":"VEC3"
		},
		{
			"bufferView":10,
			"componentType":5126,
			"count":800,
			"type":"VEC3"
		},
		{
			"bufferView":11,
			"componentType":5123,
			"count":2664,
			"type":"SCALAR"
		},
		{
			"bufferView":12,
			"componentType":5126,
			"count":48,
			"max":[
				0.19984674453735352,
				-0.2319999784231186,
				0.03396739438176155
			],
			"min":[
				0.16071629524230957,
				-0.27113041281700134,
				0.03396739438176155
			],
			"type":"VEC3"
		},
		{
			"bufferView":13,
			"componentType":5126,
			"count":48,
			"type":"VEC3"
		},
		{
			"bufferView":14,
			"componentType":5123,
			"count":72,
			"type":"SCALAR"
		},
		{
			"bufferView":15,
			"componentType":5126,
			"count":4,
			"max":[
				0.1672380566596985,
				-0.2646086513996124,
				0.03396739438176155
			],
			"min":[
				0.16071629524230957,
				-0.2787390947341919,
				0.03396739438176155
			],
			"type":"VEC3"
		},
		{
			"bufferView":16,
			"componentType":5126,
			"count":4,
			"type":"VEC3"
		},
		{
			"bufferView":17,
			"componentType":5126,
			"count":857,
			"max":[
				-0.17569667100906372,
				0.07669562101364136,
				0.057880427688360214
			],
			"min":[
				-0.22460971772670746,
				0.014739125967025757,
				-0.007336955517530441
			],
			"type":"VEC3"
		},
		{
			"bufferView":18,
			"componentType":5126,
			"count":857,
			"type":"VEC3"
		},
		{
			"bufferView":19,
			"componentType":5123,
			"count":2730,
			"type":"SCALAR"
		},
		{
			"bufferView":20,
			"componentType":5126,
			"count":60,
			"max":[
				-0.18058796226978302,
				0.061478257179260254,
				0.05570651963353157
			],
			"min":[
				-0.21971839666366577,
				0.017999976873397827,
				0.05570651963353157
			],
			"type":"VEC3"
		},
		{
			"bufferView":21,
			"componentType":5126,
			"count":60,
			"type":"VEC3"
		},
		{
			"bufferView":22,
			"componentType":5123,
			"count":90,
			"type":"SCALAR"
		},
		{
			"bufferView":23,
			"componentType":5126,
			"count":4,
			"max":[
				-0.19145752489566803,
				0.028869569301605225,
				0.05570651963353157
			],
			"min":[
				-0.20884883403778076,
				0.014739125967025757,
				0.05570651963353157
			],
			"type":"VEC3"
		},
		{
			"bufferView":24,
			"componentType":5126,
			"count":4,
			"type":"VEC3"
		},
		{
			"bufferView":25,
			"componentType":5126,
			"count":308,
			"max":[
				0.34842389822006226,
				-0.13743475079536438,
				0.0470108687877655
			],
			"min":[
				0.3158152103424072,
				-0.18091300129890442,
				-0.007336955517530441
			],
			"type":"VEC3"
		},
		{
			"bufferView":26,
			"componentType":5126,
			"count":308,
			"type":"VEC3"
		},
		{
			"bufferView":27,
			"componentType":5123,
			"count":750,
			"type":"SCALAR"
		},
		{
			"bufferView":28,
			"componentType":5126,
			"count":16,
			"max":[
				0.34298914670944214,
				-0.15047824382781982,
				0.04483695700764656
			],
			"min":[
				0.3212500214576721,
				-0.17330431938171387,
				0.04483695700764656
			],
			"type":"VEC3"
		},
		{
			"bufferView":29,
			"componentType":5126,
			"count":16,
			"type":"VEC3"
		},
		{
			"bufferView":30,
			"componentType":5123,
			"count":24,
			"type":"SCALAR"
		},
		{
			"bufferView":31,
			"componentType":5126,
			"count":4,
			"max":[
				0.34298908710479736,
				-0.16678255796432495,
				0.04483695700764656
			],
			"min":[
				0.3342934250831604,
				-0.18091300129890442,
				0.04483695700764656
			],
			"type":"VEC3"
		},
		{
			"bufferView":32,
			"componentType":5126,
			"count":4,
			"type":"VEC3"
		},
		{
			"bufferView":33,
			"componentType":5126,
			"count":514,
			"max":[
				0.35657602548599243,
				-0.32873910665512085,
				0.0470108762383461
			],
			"min":[
				0.3076629638671875,
				-0.37656518816947937,
				-0.007336955517530441
			],
			"type":"VEC3"
		},
		{
			"bufferView":34,
			"componentType":5126,
			"count":514,
			"type":"VEC3"
		},
		{
			"bufferView":35,
			"componentType":5123,
			"count":1434,
			"type":"SCALAR"
		},
		{
			"bufferView":36,
			"componentType":5126,
			"count":32,
			"max":[
				0.3516847491264343,
				-0.3461304306983948,
				0.04483695700764656
			],
			"min":[
				0.31255435943603516,
				-0.3689565062522888,
				0.04483695700764656
			],
			"type":"VEC3"
		},
		{
			"bufferView":37,
			"componentType":5126,
			"count":32,
			"type":"VEC3"
		},
		{
			"bufferView":38,
			"componentType":5123,
			"count":48,
			"type":"SCALAR"
		},
		{
			"bufferView":39,
			"componentType":5126,
			"count":4,
			"max":[
				0.3408152461051941,
				-0.3624347448348999,
				0.04483695700764656
			],
			"min":[
				0.3234238624572754,
				-0.37656518816947937,
				0.04483695700764656
			],
			"type":"VEC3"
		},
		{
			"bufferView":40,
			"componentType":5126,
			"count":4,
			"type":"VEC3"
		},
		{
			"bufferView":41,
			"componentType":5126,
			"count":501,
			"max":[
				-0.1077619194984436,
				-0.021130412817001343,
				0.036141302436590195
			],
			"min":[
				-0.14037060737609863,
				-0.08308693766593933,
				-0.007336955517530441
			],
			"type":"VEC3"
		},
		{
			"bufferView":42,
			"componentType":5126,
			"count":501,
			"type":"VEC3"
		},
		{
			"bufferView":43,
			"componentType":5123,
			"count":1401,
			"type":"SCALAR"
		},
		{
			"bufferView":44,
			"componentType":5126,
			"count":37,
			"max":[
				-0.11319667100906372,
				-0.036347806453704834,
				0.033967386931180954
			],
			"min":[
				-0.13493579626083374,
				-0.07765215635299683,
				0.033967386931180954
			],
			"type":"VEC3"
		},
		{
			"bufferView":45,
			"componentType":5126,
			"count":37,
			"type":"VEC3"
		},
		{
			"bufferView":46,
			"componentType":5123,
			"count":63,
			"type":"SCALAR"
		},
		{
			"bufferView":47,
			"componentType":5126,
			"count":4,
			"max":[
				-0.11319664120674133,
				-0.06895646452903748,
				0.03396739438176155
			],
			"min":[
				-0.12189233303070068,
				-0.08308693766593933,
				0.03396739438176155
			],
			"type":"VEC3"
		},
		{
			"bufferView":48,
			"componentType":5126,
			"count":4,
			"type":"VEC3"
		},
		{
			"bufferView":49,
			"componentType":5126,
			"count":515,
			"max":[
				0.05256417393684387,
				-0.03743475675582886,
				0.036141302436590195
			],
			"min":[
				0.003651171922683716,
				-0.08308693766593933,
				-0.007336955517530441
			],
			"type":"VEC3"
		},
		{
			"bufferView":50,
			"componentType":5126,
			"count":515,
			"type":"VEC3"
		},
		{
			"bufferView":51,
			"componentType":5123,
			"count":1434,
			"type":"SCALAR"
		},
		{
			"bufferView":52,
			"componentType":5126,
			"count":28,
			"max":[
				0.04767286777496338,
				-0.05265215039253235,
				0.033967386931180954
			],
			"min":[
				0.008542418479919434,
				-0.07982602715492249,
				0.033967386931180954
			],
			"type":"VEC3"
		},
		{
			"bufferView":53,
			"componentType":5126,
			"count":28,
			"type":"VEC3"
		},
		{
			"bufferView":54,
			"componentType":5123,
			"count":42,
			"type":"SCALAR"
		},
		{
			"bufferView":55,
			"componentType":5126,
			"count":4,
			"max":[
				0.03680330514907837,
				-0.06895646452903748,
				0.03396739438176155
			],
			"min":[
				0.01941201090812683,
				-0.08308693766593933,
				0.03396739438176155
			],
			"type":"VEC3"
		},
		{
			"bufferView":56,
			"componentType":5126,
			"count":4,
			"type":"VEC3"
		}
	],
	"bufferViews":[
		{
			"buffer":0,
			"byteLength":10608,
			"byteOffset":0,
			"target":34962
		},
		{
			"buffer":0,
			"byteLength":10608,
			"byteOffset":10608,
			"target":34962
		},
		{
			"buffer":0,
			"byteLength":5658,
			"byteOffset":21216,
			"target":34963
		},
		{
			"buffer":0,
			"byteLength":756,
			"byteOffset":26876,
			"target":34962
		},
		{
			"buffer":0,
			"byteLength":756,
			"byteOffset":27632,
			"target":34962
		},
		{
			"buffer":0,
			"byteLength":186,
			"byteOffset":28388,
			"target":34963
		},
		{
			"buffer":0,
			"byteLength":48,
			"byteOffset":28576,
			"target":34962
		},
		{
			"buffer":0,
			"byteLength":48,
			"byteOffset":28624,
			"target":34962
		},
		{
			"buffer":0,
			"byteLength":12,
			"byteOffset":28672,
			"target":34963
		},
		{
			"buffer":0,
			"byteLength":9600,
			"byteOffset":28684,
			"target":34962
		},
		{
			"buffer":0,
			"byteLength":9600,
			"byteOffset":38284,
			"target":34962
		},
		{
			"buffer":0,
			"byteLength":5328,
			"byteOffset":47884,
			"target":34963
		},
		{
			"buffer":0,
			"byteLength":576,
			"byteOffset":53212,
			"target":34962
		},
		{
			"buffer":0,
			"byteLength":576,
			"byteOffset":53788,
			"target":34962
		},
		{
			"buffer":0,
			"byteLength":144,
			"byteOffset":54364,
			"target":34963
		},
		{
			"buffer":0,
			"byteLength":48,
			"byteOffset":54508,
			"target":34962
		},
		{
			"buffer":0,
			"byteLength":48,
			"byteOffset":54556,
			"target":34962
		},
		{
			"buffer":0,
			"byteLength":10284,
			"byteOffset":54604,
			"target":34962
		},
		{
			"buffer":0,
			"byteLength":10284,
			"byteOffset":64888,
			"target":34962
		},
		{
			"buffer":0,
			"byteLength":5460,
			"byteOffset":75172,
			"target":34963
		},
		{
			"buffer":0,
			"byteLength":720,
			"byteOffset":80632,
			"target":34962
		},
		{
			"buffer":0,
			"byteLength":720,
			"byteOffset":81352,
			"target":34962
		},
		{
			"buffer":0,
			"byteLength":180,
			"byteOffset":82072,
			"target":34963
		},
		{
			"buffer":0,
			"byteLength":48,
			"byteOffset":82252,
			"target":34962
		},
		{
			"buffer":0,
			"byteLength":48,
			"byteOffset":82300,
			"target":34962
		},
		{
			"buffer":0,
			"byteLength":3696,
			"byteOffset":82348,
			"target":34962
		},
		{
			"buffer":0,
			"byteLength":3696,
			"byteOffset":86044,
			"target":34962
		},
		{
			"buffer":0,
			"byteLength":1500,
			"byteOffset":89740,
			"target":34963
		},
		{
			"buffer":0,
			"byteLength":192,
			"byteOffset":91240,
			"target":34962
		},
		{
			"buffer":0,
			"byteLength":192,
			"byteOffset":91432,
			"target":34962
		},
		{
			"buffer":0,
			"byteLength":48,
			"byteOffset":91624,
			"target":34963
		},
		{
			"buffer":0,
			"byteLength":48,
			"byteOffset":91672,
			"target":34962
		},
		{
			"buffer":0,
			"byteLength":48,
			"byteOffset":91720,
			"target":34962
		},
		{
			"buffer":0,
			"byteLength":6168,
			"byteOffset":91768,
			"target":34962
		},
		{
			"buffer":0,
			"byteLength":6168,
			"byteOffset":97936,
			"target":34962
		},
		{
			"buffer":0,
			"byteLength":2868,
			"byteOffset":104104,
			"target":34963
		},
		{
			"buffer":0,
			"byteLength":384,
			"byteOffset":106972,
			"target":34962
		},
		{
			"buffer":0,
			"byteLength":384,
			"byteOffset":107356,
			"target":34962
		},
		{
			"buffer":0,
			"byteLength":96,
			"byteOffset":107740,
			"target":34963
		},
		{
			"buffer":0,
			"byteLength":48,
			"byteOffset":107836,
			"target":34962
		},
		{
			"buffer":0,
			"byteLength":48,
			"byteOffset":107884,
			"target":34962
		},
		{
			"buffer":0,
			"byteLength":6012,
			"byteOffset":107932,
			"target":34962
		},
		{
			"buffer":0,
			"byteLength":6012,
			"byteOffset":113944,
			"target":34962
		},
		{
			"buffer":0,
			"byteLength":2802,
			"byteOffset":119956,
			"target":34963
		},
		{
			"buffer":0,
			"byteLength":444,
			"byteOffset":122760,
			"target":34962
		},
		{
			"buffer":0,
			"byteLength":444,
			"byteOffset":123204,
			"target":34962
		},
		{
			"buffer":0,
			"byteLength":126,
			"byteOffset":123648,
			"target":34963
		},
		{
			"buffer":0,
			"byteLength":48,
			"byteOffset":123776,
			"target":34962
		},
		{
			"buffer":0,
			"byteLength":48,
			"byteOffset":123824,
			"target":34962
		},
		{
			"buffer":0,
			"byteLength":6180,
			"byteOffset":123872,
			"target":34962
		},
		{
			"buffer":0,
			"byteLength":6180,
			"byteOffset":130052,
			"target":34962
		},
		{
			"buffer":0,
			"byteLength":2868,
			"byteOffset":136232,
			"target":34963
		},
		{
			"buffer":0,
			"byteLength":336,
			"byteOffset":139100,
			"target":34962
		},
		{
			"buffer":0,
			"byteLength":336,
			"byteOffset":139436,
			"target":34962
		},
		{
			"buffer":0,
			"byteLength":84,
			"byteOffset":139772,
			"target":34963
		},
		{
			"buffer":0,
			"byteLength":48,
			"byteOffset":139856,
			"target":34962
		},
		{
			"buffer":0,
			"byteLength":48,
			"byteOffset":139904,
			"target":34962
		}
	],
	"buffers":[
		{
			"byteLength":139952,
			"uri":"BinaGrup4.bin"
		}
	]
}
