{
	"asset":{
		"generator":"Khronos glTF Blender I/O v4.2.60",
		"version":"2.0"
	},
	"scene":0,
	"scenes":[
		{
			"name":"Scene",
			"nodes":[
				0,
				1,
				2,
				3,
				4,
				5,
				6,
				7,
				8,
				9,
				10,
				11,
				12,
				13,
				14,
				15,
				16,
				17
			]
		}
	],
	"nodes":[
		{
			"mesh":0,
			"name":"Building_023.016"
		},
		{
			"mesh":1,
			"name":"Building_023.017"
		},
		{
			"mesh":2,
			"name":"Building_023.018"
		},
		{
			"mesh":3,
			"name":"Building_052.016"
		},
		{
			"mesh":4,
			"name":"Building_052.017"
		},
		{
			"mesh":5,
			"name":"Building_052.018"
		},
		{
			"mesh":6,
			"name":"Building_061.016"
		},
		{
			"mesh":7,
			"name":"Building_061.017"
		},
		{
			"mesh":8,
			"name":"Building_061.018"
		},
		{
			"mesh":9,
			"name":"Building_072.014"
		},
		{
			"mesh":10,
			"name":"Building_072.015"
		},
		{
			"mesh":11,
			"name":"Building_072.016"
		},
		{
			"mesh":12,
			"name":"Building_065.016"
		},
		{
			"mesh":13,
			"name":"Building_065.017"
		},
		{
			"mesh":14,
			"name":"Building_065.018"
		},
		{
			"mesh":15,
			"name":"Building_081.014"
		},
		{
			"mesh":16,
			"name":"Building_081.015"
		},
		{
			"mesh":17,
			"name":"Building_081.016"
		}
	],
	"materials":[
		{
			"doubleSided":true,
			"name":"BinaGrid",
			"pbrMetallicRoughness":{
				"baseColorFactor":[
					0.0009104993660002947,
					0.04091522842645645,
					0.06662598252296448,
					1
				],
				"metallicFactor":0,
				"roughnessFactor":0.5
			}
		},
		{
			"doubleSided":true,
			"name":"PencereGrid",
			"pbrMetallicRoughness":{
				"baseColorFactor":[
					0.1328672468662262,
					0.26635584235191345,
					0.31854695081710815,
					1
				],
				"metallicFactor":0,
				"roughnessFactor":0.699999988079071
			}
		},
		{
			"doubleSided":true,
			"name":"Kap\u0131Grid",
			"pbrMetallicRoughness":{
				"baseColorFactor":[
					0,
					0.01161225512623787,
					0.016807379201054573,
					1
				],
				"metallicFactor":0,
				"roughnessFactor":0.699999988079071
			}
		}
	],
	"meshes":[
		{
			"name":"Building_023_Mesh.018",
			"primitives":[
				{
					"attributes":{
						"POSITION":0,
						"NORMAL":1
					},
					"indices":2,
					"material":0
				}
			]
		},
		{
			"name":"Building_023_Mesh.019",
			"primitives":[
				{
					"attributes":{
						"POSITION":3,
						"NORMAL":4
					},
					"indices":5,
					"material":1
				}
			]
		},
		{
			"name":"Building_023_Mesh.020",
			"primitives":[
				{
					"attributes":{
						"POSITION":6,
						"NORMAL":7
					},
					"indices":8,
					"material":2
				}
			]
		},
		{
			"name":"Building_052_Mesh.018",
			"primitives":[
				{
					"attributes":{
						"POSITION":9,
						"NORMAL":10
					},
					"indices":11,
					"material":0
				}
			]
		},
		{
			"name":"Building_052_Mesh.019",
			"primitives":[
				{
					"attributes":{
						"POSITION":12,
						"NORMAL":13
					},
					"indices":14,
					"material":1
				}
			]
		},
		{
			"name":"Building_052_Mesh.020",
			"primitives":[
				{
					"attributes":{
						"POSITION":15,
						"NORMAL":16
					},
					"indices":8,
					"material":2
				}
			]
		},
		{
			"name":"Building_061_Mesh.018",
			"primitives":[
				{
					"attributes":{
						"POSITION":17,
						"NORMAL":18
					},
					"indices":19,
					"material":0
				}
			]
		},
		{
			"name":"Building_061_Mesh.019",
			"primitives":[
				{
					"attributes":{
						"POSITION":20,
						"NORMAL":21
					},
					"indices":22,
					"material":1
				}
			]
		},
		{
			"name":"Building_061_Mesh.020",
			"primitives":[
				{
					"attributes":{
						"POSITION":23,
						"NORMAL":24
					},
					"indices":8,
					"material":2
				}
			]
		},
		{
			"name":"Building_072_Mesh.014",
			"primitives":[
				{
					"attributes":{
						"POSITION":25,
						"NORMAL":26
					},
					"indices":27,
					"material":0
				}
			]
		},
		{
			"name":"Building_072_Mesh.015",
			"primitives":[
				{
					"attributes":{
						"POSITION":28,
						"NORMAL":29
					},
					"indices":30,
					"material":1
				}
			]
		},
		{
			"name":"Building_072_Mesh.016",
			"primitives":[
				{
					"attributes":{
						"POSITION":31,
						"NORMAL":32
					},
					"indices":8,
					"material":2
				}
			]
		},
		{
			"name":"Building_065_Mesh.018",
			"primitives":[
				{
					"attributes":{
						"POSITION":33,
						"NORMAL":34
					},
					"indices":35,
					"material":0
				}
			]
		},
		{
			"name":"Building_065_Mesh.019",
			"primitives":[
				{
					"attributes":{
						"POSITION":36,
						"NORMAL":37
					},
					"indices":38,
					"material":1
				}
			]
		},
		{
			"name":"Building_065_Mesh.020",
			"primitives":[
				{
					"attributes":{
						"POSITION":39,
						"NORMAL":40
					},
					"indices":8,
					"material":2
				}
			]
		},
		{
			"name":"Building_081_Mesh.014",
			"primitives":[
				{
					"attributes":{
						"POSITION":41,
						"NORMAL":42
					},
					"indices":43,
					"material":0
				}
			]
		},
		{
			"name":"Building_081_Mesh.015",
			"primitives":[
				{
					"attributes":{
						"POSITION":44,
						"NORMAL":45
					},
					"indices":46,
					"material":1
				}
			]
		},
		{
			"name":"Building_081_Mesh.016",
			"primitives":[
				{
					"attributes":{
						"POSITION":47,
						"NORMAL":48
					},
					"indices":8,
					"material":2
				}
			]
		}
	],
	"accessors":[
		{
			"bufferView":0,
			"componentType":5126,
			"count":857,
			"max":[
				-0.17569667100906372,
				-0.021130383014678955,
				0.03614130616188049
			],
			"min":[
				-0.22460971772670746,
				-0.08308693766593933,
				-0.0073369513265788555
			],
			"type":"VEC3"
		},
		{
			"bufferView":1,
			"componentType":5126,
			"count":857,
			"type":"VEC3"
		},
		{
			"bufferView":2,
			"componentType":5123,
			"count":2730,
			"type":"SCALAR"
		},
		{
			"bufferView":3,
			"componentType":5126,
			"count":60,
			"max":[
				-0.18058796226978302,
				-0.036347806453704834,
				0.033967386931180954
			],
			"min":[
				-0.21971839666366577,
				-0.07982605695724487,
				0.033967386931180954
			],
			"type":"VEC3"
		},
		{
			"bufferView":4,
			"componentType":5126,
			"count":60,
			"type":"VEC3"
		},
		{
			"bufferView":5,
			"componentType":5123,
			"count":90,
			"type":"SCALAR"
		},
		{
			"bufferView":6,
			"componentType":5126,
			"count":4,
			"max":[
				-0.19145752489566803,
				-0.06895646452903748,
				0.03396739438176155
			],
			"min":[
				-0.20884883403778076,
				-0.08308693766593933,
				0.03396739438176155
			],
			"type":"VEC3"
		},
		{
			"bufferView":7,
			"componentType":5126,
			"count":4,
			"type":"VEC3"
		},
		{
			"bufferView":8,
			"componentType":5123,
			"count":6,
			"type":"SCALAR"
		},
		{
			"bufferView":9,
			"componentType":5126,
			"count":491,
			"max":[
				0.1286512017250061,
				-0.1439565122127533,
				0.036141302436590195
			],
			"min":[
				0.07973814010620117,
				-0.18091300129890442,
				-0.007336955517530441
			],
			"type":"VEC3"
		},
		{
			"bufferView":10,
			"componentType":5126,
			"count":491,
			"type":"VEC3"
		},
		{
			"bufferView":11,
			"componentType":5123,
			"count":1404,
			"type":"SCALAR"
		},
		{
			"bufferView":12,
			"componentType":5126,
			"count":24,
			"max":[
				0.12375986576080322,
				-0.15047824382781982,
				0.033967386931180954
			],
			"min":[
				0.08462941646575928,
				-0.17765215039253235,
				0.033967386931180954
			],
			"type":"VEC3"
		},
		{
			"bufferView":13,
			"componentType":5126,
			"count":24,
			"type":"VEC3"
		},
		{
			"bufferView":14,
			"componentType":5123,
			"count":36,
			"type":"SCALAR"
		},
		{
			"bufferView":15,
			"componentType":5126,
			"count":4,
			"max":[
				0.0911511778831482,
				-0.16678255796432495,
				0.03396739438176155
			],
			"min":[
				0.08462941646575928,
				-0.18091300129890442,
				0.03396739438176155
			],
			"type":"VEC3"
		},
		{
			"bufferView":16,
			"componentType":5126,
			"count":4,
			"type":"VEC3"
		},
		{
			"bufferView":17,
			"componentType":5126,
			"count":1288,
			"max":[
				0.20473802089691162,
				-0.3004782199859619,
				0.03614130616188049
			],
			"min":[
				0.1558249592781067,
				-0.37656518816947937,
				-0.0073369513265788555
			],
			"type":"VEC3"
		},
		{
			"bufferView":18,
			"componentType":5126,
			"count":1288,
			"type":"VEC3"
		},
		{
			"bufferView":19,
			"componentType":5123,
			"count":4650,
			"type":"SCALAR"
		},
		{
			"bufferView":20,
			"componentType":5126,
			"count":76,
			"max":[
				0.19984674453735352,
				-0.31352171301841736,
				0.033967386931180954
			],
			"min":[
				0.16071629524230957,
				-0.3689565062522888,
				0.033967386931180954
			],
			"type":"VEC3"
		},
		{
			"bufferView":21,
			"componentType":5126,
			"count":76,
			"type":"VEC3"
		},
		{
			"bufferView":22,
			"componentType":5123,
			"count":114,
			"type":"SCALAR"
		},
		{
			"bufferView":23,
			"componentType":5126,
			"count":4,
			"max":[
				0.19984674453735352,
				-0.3624347448348999,
				0.03396739438176155
			],
			"min":[
				0.1933249831199646,
				-0.37656518816947937,
				0.03396739438176155
			],
			"type":"VEC3"
		},
		{
			"bufferView":24,
			"componentType":5126,
			"count":4,
			"type":"VEC3"
		},
		{
			"bufferView":25,
			"componentType":5126,
			"count":1295,
			"max":[
				0.35657602548599243,
				-0.006999969482421875,
				0.0470108762383461
			],
			"min":[
				0.3076629638671875,
				-0.08308693766593933,
				-0.007336955517530441
			],
			"type":"VEC3"
		},
		{
			"bufferView":26,
			"componentType":5126,
			"count":1295,
			"type":"VEC3"
		},
		{
			"bufferView":27,
			"componentType":5123,
			"count":4626,
			"type":"SCALAR"
		},
		{
			"bufferView":28,
			"componentType":5126,
			"count":80,
			"max":[
				0.3516847491264343,
				-0.02004346251487732,
				0.04483695700764656
			],
			"min":[
				0.31255435943603516,
				-0.07982605695724487,
				0.04483695700764656
			],
			"type":"VEC3"
		},
		{
			"bufferView":29,
			"componentType":5126,
			"count":80,
			"type":"VEC3"
		},
		{
			"bufferView":30,
			"componentType":5123,
			"count":120,
			"type":"SCALAR"
		},
		{
			"bufferView":31,
			"componentType":5126,
			"count":4,
			"max":[
				0.3516847491264343,
				-0.06895646452903748,
				0.04483695700764656
			],
			"min":[
				0.3451629877090454,
				-0.08308693766593933,
				0.04483695700764656
			],
			"type":"VEC3"
		},
		{
			"bufferView":32,
			"componentType":5126,
			"count":4,
			"type":"VEC3"
		},
		{
			"bufferView":33,
			"componentType":5126,
			"count":820,
			"max":[
				0.2808249592781067,
				-0.029826074838638306,
				0.057880427688360214
			],
			"min":[
				0.23191189765930176,
				-0.08308693766593933,
				-0.007336955517530441
			],
			"type":"VEC3"
		},
		{
			"bufferView":34,
			"componentType":5126,
			"count":820,
			"type":"VEC3"
		},
		{
			"bufferView":35,
			"componentType":5123,
			"count":2664,
			"type":"SCALAR"
		},
		{
			"bufferView":36,
			"componentType":5126,
			"count":48,
			"max":[
				0.27593374252319336,
				-0.036347776651382446,
				0.05570651963353157
			],
			"min":[
				0.23680329322814941,
				-0.07765215635299683,
				0.05570651963353157
			],
			"type":"VEC3"
		},
		{
			"bufferView":37,
			"componentType":5126,
			"count":48,
			"type":"VEC3"
		},
		{
			"bufferView":38,
			"componentType":5123,
			"count":72,
			"type":"SCALAR"
		},
		{
			"bufferView":39,
			"componentType":5126,
			"count":4,
			"max":[
				0.2433251142501831,
				-0.06895646452903748,
				0.05570651963353157
			],
			"min":[
				0.23680329322814941,
				-0.08308693766593933,
				0.05570651963353157
			],
			"type":"VEC3"
		},
		{
			"bufferView":40,
			"componentType":5126,
			"count":4,
			"type":"VEC3"
		},
		{
			"bufferView":41,
			"componentType":5126,
			"count":487,
			"max":[
				0.4245108366012573,
				-0.21895650029182434,
				0.036141302436590195
			],
			"min":[
				0.3919021487236023,
				-0.2787390947341919,
				-0.007336955517530441
			],
			"type":"VEC3"
		},
		{
			"bufferView":42,
			"componentType":5126,
			"count":487,
			"type":"VEC3"
		},
		{
			"bufferView":43,
			"componentType":5123,
			"count":1404,
			"type":"SCALAR"
		},
		{
			"bufferView":44,
			"componentType":5126,
			"count":38,
			"max":[
				0.4190760850906372,
				-0.2319999784231186,
				0.033967386931180954
			],
			"min":[
				0.3973369598388672,
				-0.27113041281700134,
				0.033967386931180954
			],
			"type":"VEC3"
		},
		{
			"bufferView":45,
			"componentType":5126,
			"count":38,
			"type":"VEC3"
		},
		{
			"bufferView":46,
			"componentType":5123,
			"count":60,
			"type":"SCALAR"
		},
		{
			"bufferView":47,
			"componentType":5126,
			"count":4,
			"max":[
				0.4190760850906372,
				-0.2646086513996124,
				0.03396739065647125
			],
			"min":[
				0.41038036346435547,
				-0.2787390947341919,
				0.03396739065647125
			],
			"type":"VEC3"
		},
		{
			"bufferView":48,
			"componentType":5126,
			"count":4,
			"type":"VEC3"
		}
	],
	"bufferViews":[
		{
			"buffer":0,
			"byteLength":10284,
			"byteOffset":0,
			"target":34962
		},
		{
			"buffer":0,
			"byteLength":10284,
			"byteOffset":10284,
			"target":34962
		},
		{
			"buffer":0,
			"byteLength":5460,
			"byteOffset":20568,
			"target":34963
		},
		{
			"buffer":0,
			"byteLength":720,
			"byteOffset":26028,
			"target":34962
		},
		{
			"buffer":0,
			"byteLength":720,
			"byteOffset":26748,
			"target":34962
		},
		{
			"buffer":0,
			"byteLength":180,
			"byteOffset":27468,
			"target":34963
		},
		{
			"buffer":0,
			"byteLength":48,
			"byteOffset":27648,
			"target":34962
		},
		{
			"buffer":0,
			"byteLength":48,
			"byteOffset":27696,
			"target":34962
		},
		{
			"buffer":0,
			"byteLength":12,
			"byteOffset":27744,
			"target":34963
		},
		{
			"buffer":0,
			"byteLength":5892,
			"byteOffset":27756,
			"target":34962
		},
		{
			"buffer":0,
			"byteLength":5892,
			"byteOffset":33648,
			"target":34962
		},
		{
			"buffer":0,
			"byteLength":2808,
			"byteOffset":39540,
			"target":34963
		},
		{
			"buffer":0,
			"byteLength":288,
			"byteOffset":42348,
			"target":34962
		},
		{
			"buffer":0,
			"byteLength":288,
			"byteOffset":42636,
			"target":34962
		},
		{
			"buffer":0,
			"byteLength":72,
			"byteOffset":42924,
			"target":34963
		},
		{
			"buffer":0,
			"byteLength":48,
			"byteOffset":42996,
			"target":34962
		},
		{
			"buffer":0,
			"byteLength":48,
			"byteOffset":43044,
			"target":34962
		},
		{
			"buffer":0,
			"byteLength":15456,
			"byteOffset":43092,
			"target":34962
		},
		{
			"buffer":0,
			"byteLength":15456,
			"byteOffset":58548,
			"target":34962
		},
		{
			"buffer":0,
			"byteLength":9300,
			"byteOffset":74004,
			"target":34963
		},
		{
			"buffer":0,
			"byteLength":912,
			"byteOffset":83304,
			"target":34962
		},
		{
			"buffer":0,
			"byteLength":912,
			"byteOffset":84216,
			"target":34962
		},
		{
			"buffer":0,
			"byteLength":228,
			"byteOffset":85128,
			"target":34963
		},
		{
			"buffer":0,
			"byteLength":48,
			"byteOffset":85356,
			"target":34962
		},
		{
			"buffer":0,
			"byteLength":48,
			"byteOffset":85404,
			"target":34962
		},
		{
			"buffer":0,
			"byteLength":15540,
			"byteOffset":85452,
			"target":34962
		},
		{
			"buffer":0,
			"byteLength":15540,
			"byteOffset":100992,
			"target":34962
		},
		{
			"buffer":0,
			"byteLength":9252,
			"byteOffset":116532,
			"target":34963
		},
		{
			"buffer":0,
			"byteLength":960,
			"byteOffset":125784,
			"target":34962
		},
		{
			"buffer":0,
			"byteLength":960,
			"byteOffset":126744,
			"target":34962
		},
		{
			"buffer":0,
			"byteLength":240,
			"byteOffset":127704,
			"target":34963
		},
		{
			"buffer":0,
			"byteLength":48,
			"byteOffset":127944,
			"target":34962
		},
		{
			"buffer":0,
			"byteLength":48,
			"byteOffset":127992,
			"target":34962
		},
		{
			"buffer":0,
			"byteLength":9840,
			"byteOffset":128040,
			"target":34962
		},
		{
			"buffer":0,
			"byteLength":9840,
			"byteOffset":137880,
			"target":34962
		},
		{
			"buffer":0,
			"byteLength":5328,
			"byteOffset":147720,
			"target":34963
		},
		{
			"buffer":0,
			"byteLength":576,
			"byteOffset":153048,
			"target":34962
		},
		{
			"buffer":0,
			"byteLength":576,
			"byteOffset":153624,
			"target":34962
		},
		{
			"buffer":0,
			"byteLength":144,
			"byteOffset":154200,
			"target":34963
		},
		{
			"buffer":0,
			"byteLength":48,
			"byteOffset":154344,
			"target":34962
		},
		{
			"buffer":0,
			"byteLength":48,
			"byteOffset":154392,
			"target":34962
		},
		{
			"buffer":0,
			"byteLength":5844,
			"byteOffset":154440,
			"target":34962
		},
		{
			"buffer":0,
			"byteLength":5844,
			"byteOffset":160284,
			"target":34962
		},
		{
			"buffer":0,
			"byteLength":2808,
			"byteOffset":166128,
			"target":34963
		},
		{
			"buffer":0,
			"byteLength":456,
			"byteOffset":168936,
			"target":34962
		},
		{
			"buffer":0,
			"byteLength":456,
			"byteOffset":169392,
			"target":34962
		},
		{
			"buffer":0,
			"byteLength":120,
			"byteOffset":169848,
			"target":34963
		},
		{
			"buffer":0,
			"byteLength":48,
			"byteOffset":169968,
			"target":34962
		},
		{
			"buffer":0,
			"byteLength":48,
			"byteOffset":170016,
			"target":34962
		}
	],
	"buffers":[
		{
			"byteLength":170064,
			"uri":"BinaGrup10.bin"
		}
	]
}
