{
	"asset":{
		"generator":"Khronos glTF Blender I/O v4.2.60",
		"version":"2.0"
	},
	"scene":0,
	"scenes":[
		{
			"name":"Scene",
			"nodes":[
				0,
				1,
				2,
				3,
				4,
				5,
				6,
				7,
				8,
				9,
				10,
				11,
				12,
				13,
				14,
				15,
				16,
				17,
				18,
				19,
				20
			]
		}
	],
	"nodes":[
		{
			"mesh":0,
			"name":"Building_064.016"
		},
		{
			"mesh":1,
			"name":"Building_064.017"
		},
		{
			"mesh":2,
			"name":"Building_064.018"
		},
		{
			"mesh":3,
			"name":"Building_027.016"
		},
		{
			"mesh":4,
			"name":"Building_027.017"
		},
		{
			"mesh":5,
			"name":"Building_027.018"
		},
		{
			"mesh":6,
			"name":"Building_046.016"
		},
		{
			"mesh":7,
			"name":"Building_046.017"
		},
		{
			"mesh":8,
			"name":"Building_046.018"
		},
		{
			"mesh":9,
			"name":"Building_076.014"
		},
		{
			"mesh":10,
			"name":"Building_076.015"
		},
		{
			"mesh":11,
			"name":"Building_076.016"
		},
		{
			"mesh":12,
			"name":"Building_054.016"
		},
		{
			"mesh":13,
			"name":"Building_054.017"
		},
		{
			"mesh":14,
			"name":"Building_054.018"
		},
		{
			"mesh":15,
			"name":"Building_048.016"
		},
		{
			"mesh":16,
			"name":"Building_048.017"
		},
		{
			"mesh":17,
			"name":"Building_048.018"
		},
		{
			"mesh":18,
			"name":"Building_049.016"
		},
		{
			"mesh":19,
			"name":"Building_049.017"
		},
		{
			"mesh":20,
			"name":"Building_049.018"
		}
	],
	"materials":[
		{
			"doubleSided":true,
			"name":"BinaGrid",
			"pbrMetallicRoughness":{
				"baseColorFactor":[
					0.0009104993660002947,
					0.04091522842645645,
					0.06662598252296448,
					1
				],
				"metallicFactor":0,
				"roughnessFactor":0.5
			}
		},
		{
			"doubleSided":true,
			"name":"PencereGrid",
			"pbrMetallicRoughness":{
				"baseColorFactor":[
					0.1328672468662262,
					0.26635584235191345,
					0.31854695081710815,
					1
				],
				"metallicFactor":0,
				"roughnessFactor":0.699999988079071
			}
		},
		{
			"doubleSided":true,
			"name":"Kap\u0131Grid",
			"pbrMetallicRoughness":{
				"baseColorFactor":[
					0,
					0.01161225512623787,
					0.016807379201054573,
					1
				],
				"metallicFactor":0,
				"roughnessFactor":0.699999988079071
			}
		}
	],
	"meshes":[
		{
			"name":"Building_064_Mesh.018",
			"primitives":[
				{
					"attributes":{
						"POSITION":0,
						"NORMAL":1
					},
					"indices":2,
					"material":0
				}
			]
		},
		{
			"name":"Building_064_Mesh.019",
			"primitives":[
				{
					"attributes":{
						"POSITION":3,
						"NORMAL":4
					},
					"indices":5,
					"material":1
				}
			]
		},
		{
			"name":"Building_064_Mesh.020",
			"primitives":[
				{
					"attributes":{
						"POSITION":6,
						"NORMAL":7
					},
					"indices":8,
					"material":2
				}
			]
		},
		{
			"name":"Building_027_Mesh.018",
			"primitives":[
				{
					"attributes":{
						"POSITION":9,
						"NORMAL":10
					},
					"indices":11,
					"material":0
				}
			]
		},
		{
			"name":"Building_027_Mesh.019",
			"primitives":[
				{
					"attributes":{
						"POSITION":12,
						"NORMAL":13
					},
					"indices":14,
					"material":1
				}
			]
		},
		{
			"name":"Building_027_Mesh.020",
			"primitives":[
				{
					"attributes":{
						"POSITION":15,
						"NORMAL":16
					},
					"indices":8,
					"material":2
				}
			]
		},
		{
			"name":"Building_046_Mesh.018",
			"primitives":[
				{
					"attributes":{
						"POSITION":17,
						"NORMAL":18
					},
					"indices":19,
					"material":0
				}
			]
		},
		{
			"name":"Building_046_Mesh.019",
			"primitives":[
				{
					"attributes":{
						"POSITION":20,
						"NORMAL":21
					},
					"indices":22,
					"material":1
				}
			]
		},
		{
			"name":"Building_046_Mesh.020",
			"primitives":[
				{
					"attributes":{
						"POSITION":23,
						"NORMAL":24
					},
					"indices":8,
					"material":2
				}
			]
		},
		{
			"name":"Building_076_Mesh.014",
			"primitives":[
				{
					"attributes":{
						"POSITION":25,
						"NORMAL":26
					},
					"indices":27,
					"material":0
				}
			]
		},
		{
			"name":"Building_076_Mesh.015",
			"primitives":[
				{
					"attributes":{
						"POSITION":28,
						"NORMAL":29
					},
					"indices":30,
					"material":1
				}
			]
		},
		{
			"name":"Building_076_Mesh.016",
			"primitives":[
				{
					"attributes":{
						"POSITION":31,
						"NORMAL":32
					},
					"indices":8,
					"material":2
				}
			]
		},
		{
			"name":"Building_054_Mesh.018",
			"primitives":[
				{
					"attributes":{
						"POSITION":33,
						"NORMAL":34
					},
					"indices":35,
					"material":0
				}
			]
		},
		{
			"name":"Building_054_Mesh.019",
			"primitives":[
				{
					"attributes":{
						"POSITION":36,
						"NORMAL":37
					},
					"indices":14,
					"material":1
				}
			]
		},
		{
			"name":"Building_054_Mesh.020",
			"primitives":[
				{
					"attributes":{
						"POSITION":38,
						"NORMAL":39
					},
					"indices":8,
					"material":2
				}
			]
		},
		{
			"name":"Building_048_Mesh.018",
			"primitives":[
				{
					"attributes":{
						"POSITION":40,
						"NORMAL":41
					},
					"indices":42,
					"material":0
				}
			]
		},
		{
			"name":"Building_048_Mesh.019",
			"primitives":[
				{
					"attributes":{
						"POSITION":43,
						"NORMAL":44
					},
					"indices":45,
					"material":1
				}
			]
		},
		{
			"name":"Building_048_Mesh.020",
			"primitives":[
				{
					"attributes":{
						"POSITION":46,
						"NORMAL":47
					},
					"indices":8,
					"material":2
				}
			]
		},
		{
			"name":"Building_049_Mesh.018",
			"primitives":[
				{
					"attributes":{
						"POSITION":48,
						"NORMAL":49
					},
					"indices":50,
					"material":0
				}
			]
		},
		{
			"name":"Building_049_Mesh.019",
			"primitives":[
				{
					"attributes":{
						"POSITION":51,
						"NORMAL":52
					},
					"indices":53,
					"material":1
				}
			]
		},
		{
			"name":"Building_049_Mesh.020",
			"primitives":[
				{
					"attributes":{
						"POSITION":54,
						"NORMAL":55
					},
					"indices":8,
					"material":2
				}
			]
		}
	],
	"accessors":[
		{
			"bufferView":0,
			"componentType":5126,
			"count":1257,
			"max":[
				0.28082507848739624,
				0.09082609415054321,
				0.03614130616188049
			],
			"min":[
				0.2319120168685913,
				0.014739125967025757,
				-0.0073369513265788555
			],
			"type":"VEC3"
		},
		{
			"bufferView":1,
			"componentType":5126,
			"count":1257,
			"type":"VEC3"
		},
		{
			"bufferView":2,
			"componentType":5123,
			"count":4446,
			"type":"SCALAR"
		},
		{
			"bufferView":3,
			"componentType":5126,
			"count":56,
			"max":[
				0.27593374252319336,
				0.07778263092041016,
				0.033967386931180954
			],
			"min":[
				0.23680329322814941,
				0.02017390727996826,
				0.033967386931180954
			],
			"type":"VEC3"
		},
		{
			"bufferView":4,
			"componentType":5126,
			"count":56,
			"type":"VEC3"
		},
		{
			"bufferView":5,
			"componentType":5123,
			"count":84,
			"type":"SCALAR"
		},
		{
			"bufferView":6,
			"componentType":5126,
			"count":4,
			"max":[
				0.2433251142501831,
				0.028869569301605225,
				0.03396739438176155
			],
			"min":[
				0.23680329322814941,
				0.014739125967025757,
				0.03396739438176155
			],
			"type":"VEC3"
		},
		{
			"bufferView":7,
			"componentType":5126,
			"count":4,
			"type":"VEC3"
		},
		{
			"bufferView":8,
			"componentType":5123,
			"count":6,
			"type":"SCALAR"
		},
		{
			"bufferView":9,
			"componentType":5126,
			"count":497,
			"max":[
				-0.18384884297847748,
				-0.4102608561515808,
				0.0470108687877655
			],
			"min":[
				-0.2164575308561325,
				-0.47439128160476685,
				-0.007336955517530441
			],
			"type":"VEC3"
		},
		{
			"bufferView":10,
			"componentType":5126,
			"count":497,
			"type":"VEC3"
		},
		{
			"bufferView":11,
			"componentType":5123,
			"count":1398,
			"type":"SCALAR"
		},
		{
			"bufferView":12,
			"componentType":5126,
			"count":36,
			"max":[
				-0.1892836093902588,
				-0.42765215039253235,
				0.04483695700764656
			],
			"min":[
				-0.2110227346420288,
				-0.4711304008960724,
				0.04483695700764656
			],
			"type":"VEC3"
		},
		{
			"bufferView":13,
			"componentType":5126,
			"count":36,
			"type":"VEC3"
		},
		{
			"bufferView":14,
			"componentType":5123,
			"count":54,
			"type":"SCALAR"
		},
		{
			"bufferView":15,
			"componentType":5126,
			"count":4,
			"max":[
				-0.20232710242271423,
				-0.4602608382701874,
				0.04483695700764656
			],
			"min":[
				-0.2110227346420288,
				-0.47439128160476685,
				0.04483695700764656
			],
			"type":"VEC3"
		},
		{
			"bufferView":16,
			"componentType":5126,
			"count":4,
			"type":"VEC3"
		},
		{
			"bufferView":17,
			"componentType":5126,
			"count":281,
			"max":[
				0.04441198706626892,
				-0.24178257584571838,
				0.0470108687877655
			],
			"min":[
				0.011803299188613892,
				-0.2787390947341919,
				-0.007336955517530441
			],
			"type":"VEC3"
		},
		{
			"bufferView":18,
			"componentType":5126,
			"count":281,
			"type":"VEC3"
		},
		{
			"bufferView":19,
			"componentType":5123,
			"count":732,
			"type":"SCALAR"
		},
		{
			"bufferView":20,
			"componentType":5126,
			"count":20,
			"max":[
				0.038977205753326416,
				-0.2483043223619461,
				0.04483695700764656
			],
			"min":[
				0.017238080501556396,
				-0.2733043432235718,
				0.04483695700764656
			],
			"type":"VEC3"
		},
		{
			"bufferView":21,
			"componentType":5126,
			"count":20,
			"type":"VEC3"
		},
		{
			"bufferView":22,
			"componentType":5123,
			"count":30,
			"type":"SCALAR"
		},
		{
			"bufferView":23,
			"componentType":5126,
			"count":4,
			"max":[
				0.038977235555648804,
				-0.2646086513996124,
				0.04483695700764656
			],
			"min":[
				0.03028157353401184,
				-0.2787390947341919,
				0.04483695700764656
			],
			"type":"VEC3"
		},
		{
			"bufferView":24,
			"componentType":5126,
			"count":4,
			"type":"VEC3"
		},
		{
			"bufferView":25,
			"componentType":5126,
			"count":889,
			"max":[
				0.35657602548599243,
				-0.4146086871623993,
				0.05788043513894081
			],
			"min":[
				0.30766308307647705,
				-0.47439128160476685,
				-0.007336955517530441
			],
			"type":"VEC3"
		},
		{
			"bufferView":26,
			"componentType":5126,
			"count":889,
			"type":"VEC3"
		},
		{
			"bufferView":27,
			"componentType":5123,
			"count":2820,
			"type":"SCALAR"
		},
		{
			"bufferView":28,
			"componentType":5126,
			"count":68,
			"max":[
				0.3516847491264343,
				-0.42765215039253235,
				0.05570651963353157
			],
			"min":[
				0.31255435943603516,
				-0.4711304008960724,
				0.05570651963353157
			],
			"type":"VEC3"
		},
		{
			"bufferView":29,
			"componentType":5126,
			"count":68,
			"type":"VEC3"
		},
		{
			"bufferView":30,
			"componentType":5123,
			"count":102,
			"type":"SCALAR"
		},
		{
			"bufferView":31,
			"componentType":5126,
			"count":4,
			"max":[
				0.3516847491264343,
				-0.4602608382701874,
				0.05570651963353157
			],
			"min":[
				0.3451629877090454,
				-0.47439128160476685,
				0.05570651963353157
			],
			"type":"VEC3"
		},
		{
			"bufferView":32,
			"componentType":5126,
			"count":4,
			"type":"VEC3"
		},
		{
			"bufferView":33,
			"componentType":5126,
			"count":477,
			"max":[
				0.12049895524978638,
				-0.32330432534217834,
				0.0470108687877655
			],
			"min":[
				0.08789026737213135,
				-0.37656518816947937,
				-0.007336955517530441
			],
			"type":"VEC3"
		},
		{
			"bufferView":34,
			"componentType":5126,
			"count":477,
			"type":"VEC3"
		},
		{
			"bufferView":35,
			"componentType":5123,
			"count":1386,
			"type":"SCALAR"
		},
		{
			"bufferView":36,
			"componentType":5126,
			"count":36,
			"max":[
				0.11506420373916626,
				-0.3298260569572449,
				0.04483695700764656
			],
			"min":[
				0.09332507848739624,
				-0.3689565062522888,
				0.04483695700764656
			],
			"type":"VEC3"
		},
		{
			"bufferView":37,
			"componentType":5126,
			"count":36,
			"type":"VEC3"
		},
		{
			"bufferView":38,
			"componentType":5126,
			"count":4,
			"max":[
				0.1020207405090332,
				-0.3624347448348999,
				0.04483695700764656
			],
			"min":[
				0.09332507848739624,
				-0.37656518816947937,
				0.04483695700764656
			],
			"type":"VEC3"
		},
		{
			"bufferView":39,
			"componentType":5126,
			"count":4,
			"type":"VEC3"
		},
		{
			"bufferView":40,
			"componentType":5126,
			"count":820,
			"max":[
				0.05256417393684387,
				-0.4211304187774658,
				0.0470108762383461
			],
			"min":[
				0.003651171922683716,
				-0.47439128160476685,
				-0.0073369513265788555
			],
			"type":"VEC3"
		},
		{
			"bufferView":41,
			"componentType":5126,
			"count":820,
			"type":"VEC3"
		},
		{
			"bufferView":42,
			"componentType":5123,
			"count":2664,
			"type":"SCALAR"
		},
		{
			"bufferView":43,
			"componentType":5126,
			"count":48,
			"max":[
				0.04767283797264099,
				-0.42765215039253235,
				0.04483695700764656
			],
			"min":[
				0.008542418479919434,
				-0.46895650029182434,
				0.04483695700764656
			],
			"type":"VEC3"
		},
		{
			"bufferView":44,
			"componentType":5126,
			"count":48,
			"type":"VEC3"
		},
		{
			"bufferView":45,
			"componentType":5123,
			"count":72,
			"type":"SCALAR"
		},
		{
			"bufferView":46,
			"componentType":5126,
			"count":4,
			"max":[
				0.01506417989730835,
				-0.4602608382701874,
				0.04483695700764656
			],
			"min":[
				0.008542478084564209,
				-0.47439128160476685,
				0.04483695700764656
			],
			"type":"VEC3"
		},
		{
			"bufferView":47,
			"componentType":5126,
			"count":4,
			"type":"VEC3"
		},
		{
			"bufferView":48,
			"componentType":5126,
			"count":1267,
			"max":[
				0.12865114212036133,
				0.1908261775970459,
				0.057880427688360214
			],
			"min":[
				0.0797380805015564,
				0.11256527900695801,
				-0.007336955517530441
			],
			"type":"VEC3"
		},
		{
			"bufferView":49,
			"componentType":5126,
			"count":1267,
			"type":"VEC3"
		},
		{
			"bufferView":50,
			"componentType":5123,
			"count":4512,
			"type":"SCALAR"
		},
		{
			"bufferView":51,
			"componentType":5126,
			"count":72,
			"max":[
				0.12375980615615845,
				0.17560869455337524,
				0.05570651963353157
			],
			"min":[
				0.0846293568611145,
				0.12017393112182617,
				0.05570651963353157
			],
			"type":"VEC3"
		},
		{
			"bufferView":52,
			"componentType":5126,
			"count":72,
			"type":"VEC3"
		},
		{
			"bufferView":53,
			"componentType":5123,
			"count":108,
			"type":"SCALAR"
		},
		{
			"bufferView":54,
			"componentType":5126,
			"count":4,
			"max":[
				0.11289024353027344,
				0.1266956925392151,
				0.05570651963353157
			],
			"min":[
				0.09549897909164429,
				0.11256527900695801,
				0.05570651963353157
			],
			"type":"VEC3"
		},
		{
			"bufferView":55,
			"componentType":5126,
			"count":4,
			"type":"VEC3"
		}
	],
	"bufferViews":[
		{
			"buffer":0,
			"byteLength":15084,
			"byteOffset":0,
			"target":34962
		},
		{
			"buffer":0,
			"byteLength":15084,
			"byteOffset":15084,
			"target":34962
		},
		{
			"buffer":0,
			"byteLength":8892,
			"byteOffset":30168,
			"target":34963
		},
		{
			"buffer":0,
			"byteLength":672,
			"byteOffset":39060,
			"target":34962
		},
		{
			"buffer":0,
			"byteLength":672,
			"byteOffset":39732,
			"target":34962
		},
		{
			"buffer":0,
			"byteLength":168,
			"byteOffset":40404,
			"target":34963
		},
		{
			"buffer":0,
			"byteLength":48,
			"byteOffset":40572,
			"target":34962
		},
		{
			"buffer":0,
			"byteLength":48,
			"byteOffset":40620,
			"target":34962
		},
		{
			"buffer":0,
			"byteLength":12,
			"byteOffset":40668,
			"target":34963
		},
		{
			"buffer":0,
			"byteLength":5964,
			"byteOffset":40680,
			"target":34962
		},
		{
			"buffer":0,
			"byteLength":5964,
			"byteOffset":46644,
			"target":34962
		},
		{
			"buffer":0,
			"byteLength":2796,
			"byteOffset":52608,
			"target":34963
		},
		{
			"buffer":0,
			"byteLength":432,
			"byteOffset":55404,
			"target":34962
		},
		{
			"buffer":0,
			"byteLength":432,
			"byteOffset":55836,
			"target":34962
		},
		{
			"buffer":0,
			"byteLength":108,
			"byteOffset":56268,
			"target":34963
		},
		{
			"buffer":0,
			"byteLength":48,
			"byteOffset":56376,
			"target":34962
		},
		{
			"buffer":0,
			"byteLength":48,
			"byteOffset":56424,
			"target":34962
		},
		{
			"buffer":0,
			"byteLength":3372,
			"byteOffset":56472,
			"target":34962
		},
		{
			"buffer":0,
			"byteLength":3372,
			"byteOffset":59844,
			"target":34962
		},
		{
			"buffer":0,
			"byteLength":1464,
			"byteOffset":63216,
			"target":34963
		},
		{
			"buffer":0,
			"byteLength":240,
			"byteOffset":64680,
			"target":34962
		},
		{
			"buffer":0,
			"byteLength":240,
			"byteOffset":64920,
			"target":34962
		},
		{
			"buffer":0,
			"byteLength":60,
			"byteOffset":65160,
			"target":34963
		},
		{
			"buffer":0,
			"byteLength":48,
			"byteOffset":65220,
			"target":34962
		},
		{
			"buffer":0,
			"byteLength":48,
			"byteOffset":65268,
			"target":34962
		},
		{
			"buffer":0,
			"byteLength":10668,
			"byteOffset":65316,
			"target":34962
		},
		{
			"buffer":0,
			"byteLength":10668,
			"byteOffset":75984,
			"target":34962
		},
		{
			"buffer":0,
			"byteLength":5640,
			"byteOffset":86652,
			"target":34963
		},
		{
			"buffer":0,
			"byteLength":816,
			"byteOffset":92292,
			"target":34962
		},
		{
			"buffer":0,
			"byteLength":816,
			"byteOffset":93108,
			"target":34962
		},
		{
			"buffer":0,
			"byteLength":204,
			"byteOffset":93924,
			"target":34963
		},
		{
			"buffer":0,
			"byteLength":48,
			"byteOffset":94128,
			"target":34962
		},
		{
			"buffer":0,
			"byteLength":48,
			"byteOffset":94176,
			"target":34962
		},
		{
			"buffer":0,
			"byteLength":5724,
			"byteOffset":94224,
			"target":34962
		},
		{
			"buffer":0,
			"byteLength":5724,
			"byteOffset":99948,
			"target":34962
		},
		{
			"buffer":0,
			"byteLength":2772,
			"byteOffset":105672,
			"target":34963
		},
		{
			"buffer":0,
			"byteLength":432,
			"byteOffset":108444,
			"target":34962
		},
		{
			"buffer":0,
			"byteLength":432,
			"byteOffset":108876,
			"target":34962
		},
		{
			"buffer":0,
			"byteLength":48,
			"byteOffset":109308,
			"target":34962
		},
		{
			"buffer":0,
			"byteLength":48,
			"byteOffset":109356,
			"target":34962
		},
		{
			"buffer":0,
			"byteLength":9840,
			"byteOffset":109404,
			"target":34962
		},
		{
			"buffer":0,
			"byteLength":9840,
			"byteOffset":119244,
			"target":34962
		},
		{
			"buffer":0,
			"byteLength":5328,
			"byteOffset":129084,
			"target":34963
		},
		{
			"buffer":0,
			"byteLength":576,
			"byteOffset":134412,
			"target":34962
		},
		{
			"buffer":0,
			"byteLength":576,
			"byteOffset":134988,
			"target":34962
		},
		{
			"buffer":0,
			"byteLength":144,
			"byteOffset":135564,
			"target":34963
		},
		{
			"buffer":0,
			"byteLength":48,
			"byteOffset":135708,
			"target":34962
		},
		{
			"buffer":0,
			"byteLength":48,
			"byteOffset":135756,
			"target":34962
		},
		{
			"buffer":0,
			"byteLength":15204,
			"byteOffset":135804,
			"target":34962
		},
		{
			"buffer":0,
			"byteLength":15204,
			"byteOffset":151008,
			"target":34962
		},
		{
			"buffer":0,
			"byteLength":9024,
			"byteOffset":166212,
			"target":34963
		},
		{
			"buffer":0,
			"byteLength":864,
			"byteOffset":175236,
			"target":34962
		},
		{
			"buffer":0,
			"byteLength":864,
			"byteOffset":176100,
			"target":34962
		},
		{
			"buffer":0,
			"byteLength":216,
			"byteOffset":176964,
			"target":34963
		},
		{
			"buffer":0,
			"byteLength":48,
			"byteOffset":177180,
			"target":34962
		},
		{
			"buffer":0,
			"byteLength":48,
			"byteOffset":177228,
			"target":34962
		}
	],
	"buffers":[
		{
			"byteLength":177276,
			"uri":"BinaGrup5.bin"
		}
	]
}
