{
	"asset":{
		"generator":"Khronos glTF Blender I/O v4.2.60",
		"version":"2.0"
	},
	"scene":0,
	"scenes":[
		{
			"name":"Scene",
			"nodes":[
				0,
				1,
				2,
				3,
				4,
				5,
				6,
				7,
				8,
				9,
				10,
				11,
				12,
				13,
				14,
				15,
				16,
				17,
				18,
				19,
				20
			]
		}
	],
	"nodes":[
		{
			"mesh":0,
			"name":"Building_024.016"
		},
		{
			"mesh":1,
			"name":"Building_024.017"
		},
		{
			"mesh":2,
			"name":"Building_024.018"
		},
		{
			"mesh":3,
			"name":"Building_033.016"
		},
		{
			"mesh":4,
			"name":"Building_033.017"
		},
		{
			"mesh":5,
			"name":"Building_033.018"
		},
		{
			"mesh":6,
			"name":"Building_057.016"
		},
		{
			"mesh":7,
			"name":"Building_057.017"
		},
		{
			"mesh":8,
			"name":"Building_057.018"
		},
		{
			"mesh":9,
			"name":"Building_071.014"
		},
		{
			"mesh":10,
			"name":"Building_071.015"
		},
		{
			"mesh":11,
			"name":"Building_071.016"
		},
		{
			"mesh":12,
			"name":"Building_034.016"
		},
		{
			"mesh":13,
			"name":"Building_034.017"
		},
		{
			"mesh":14,
			"name":"Building_034.018"
		},
		{
			"mesh":15,
			"name":"Building_026.016"
		},
		{
			"mesh":16,
			"name":"Building_026.017"
		},
		{
			"mesh":17,
			"name":"Building_026.018"
		},
		{
			"mesh":18,
			"name":"Building_059.016"
		},
		{
			"mesh":19,
			"name":"Building_059.017"
		},
		{
			"mesh":20,
			"name":"Building_059.018"
		}
	],
	"materials":[
		{
			"doubleSided":true,
			"name":"BinaGrid",
			"pbrMetallicRoughness":{
				"baseColorFactor":[
					0.0009104993660002947,
					0.04091522842645645,
					0.06662598252296448,
					1
				],
				"metallicFactor":0,
				"roughnessFactor":0.5
			}
		},
		{
			"doubleSided":true,
			"name":"PencereGrid",
			"pbrMetallicRoughness":{
				"baseColorFactor":[
					0.1328672468662262,
					0.26635584235191345,
					0.31854695081710815,
					1
				],
				"metallicFactor":0,
				"roughnessFactor":0.699999988079071
			}
		},
		{
			"doubleSided":true,
			"name":"Kap\u0131Grid",
			"pbrMetallicRoughness":{
				"baseColorFactor":[
					0,
					0.01161225512623787,
					0.016807379201054573,
					1
				],
				"metallicFactor":0,
				"roughnessFactor":0.699999988079071
			}
		}
	],
	"meshes":[
		{
			"name":"Building_024_Mesh.018",
			"primitives":[
				{
					"attributes":{
						"POSITION":0,
						"NORMAL":1
					},
					"indices":2,
					"material":0
				}
			]
		},
		{
			"name":"Building_024_Mesh.019",
			"primitives":[
				{
					"attributes":{
						"POSITION":3,
						"NORMAL":4
					},
					"indices":5,
					"material":1
				}
			]
		},
		{
			"name":"Building_024_Mesh.020",
			"primitives":[
				{
					"attributes":{
						"POSITION":6,
						"NORMAL":7
					},
					"indices":8,
					"material":2
				}
			]
		},
		{
			"name":"Building_033_Mesh.018",
			"primitives":[
				{
					"attributes":{
						"POSITION":9,
						"NORMAL":10
					},
					"indices":11,
					"material":0
				}
			]
		},
		{
			"name":"Building_033_Mesh.019",
			"primitives":[
				{
					"attributes":{
						"POSITION":12,
						"NORMAL":13
					},
					"indices":14,
					"material":1
				}
			]
		},
		{
			"name":"Building_033_Mesh.020",
			"primitives":[
				{
					"attributes":{
						"POSITION":15,
						"NORMAL":16
					},
					"indices":8,
					"material":2
				}
			]
		},
		{
			"name":"Building_057_Mesh.018",
			"primitives":[
				{
					"attributes":{
						"POSITION":17,
						"NORMAL":18
					},
					"indices":19,
					"material":0
				}
			]
		},
		{
			"name":"Building_057_Mesh.019",
			"primitives":[
				{
					"attributes":{
						"POSITION":20,
						"NORMAL":21
					},
					"indices":22,
					"material":1
				}
			]
		},
		{
			"name":"Building_057_Mesh.020",
			"primitives":[
				{
					"attributes":{
						"POSITION":23,
						"NORMAL":24
					},
					"indices":8,
					"material":2
				}
			]
		},
		{
			"name":"Building_071_Mesh.014",
			"primitives":[
				{
					"attributes":{
						"POSITION":25,
						"NORMAL":26
					},
					"indices":27,
					"material":0
				}
			]
		},
		{
			"name":"Building_071_Mesh.015",
			"primitives":[
				{
					"attributes":{
						"POSITION":28,
						"NORMAL":29
					},
					"indices":30,
					"material":1
				}
			]
		},
		{
			"name":"Building_071_Mesh.016",
			"primitives":[
				{
					"attributes":{
						"POSITION":31,
						"NORMAL":32
					},
					"indices":8,
					"material":2
				}
			]
		},
		{
			"name":"Building_034_Mesh.019",
			"primitives":[
				{
					"attributes":{
						"POSITION":33,
						"NORMAL":34
					},
					"indices":35,
					"material":0
				}
			]
		},
		{
			"name":"Building_034_Mesh.020",
			"primitives":[
				{
					"attributes":{
						"POSITION":36,
						"NORMAL":37
					},
					"indices":38,
					"material":1
				}
			]
		},
		{
			"name":"Building_034_Mesh.021",
			"primitives":[
				{
					"attributes":{
						"POSITION":39,
						"NORMAL":40
					},
					"indices":8,
					"material":2
				}
			]
		},
		{
			"name":"Building_026_Mesh.018",
			"primitives":[
				{
					"attributes":{
						"POSITION":41,
						"NORMAL":42
					},
					"indices":43,
					"material":0
				}
			]
		},
		{
			"name":"Building_026_Mesh.019",
			"primitives":[
				{
					"attributes":{
						"POSITION":44,
						"NORMAL":45
					},
					"indices":46,
					"material":1
				}
			]
		},
		{
			"name":"Building_026_Mesh.020",
			"primitives":[
				{
					"attributes":{
						"POSITION":47,
						"NORMAL":48
					},
					"indices":8,
					"material":2
				}
			]
		},
		{
			"name":"Building_059_Mesh.018",
			"primitives":[
				{
					"attributes":{
						"POSITION":49,
						"NORMAL":50
					},
					"indices":51,
					"material":0
				}
			]
		},
		{
			"name":"Building_059_Mesh.019",
			"primitives":[
				{
					"attributes":{
						"POSITION":52,
						"NORMAL":53
					},
					"indices":54,
					"material":1
				}
			]
		},
		{
			"name":"Building_059_Mesh.020",
			"primitives":[
				{
					"attributes":{
						"POSITION":55,
						"NORMAL":56
					},
					"indices":8,
					"material":2
				}
			]
		}
	],
	"accessors":[
		{
			"bufferView":0,
			"componentType":5126,
			"count":831,
			"max":[
				-0.17569667100906372,
				-0.1276521384716034,
				0.036141302436590195
			],
			"min":[
				-0.22460971772670746,
				-0.18091300129890442,
				-0.007336955517530441
			],
			"type":"VEC3"
		},
		{
			"bufferView":1,
			"componentType":5126,
			"count":831,
			"type":"VEC3"
		},
		{
			"bufferView":2,
			"componentType":5123,
			"count":2724,
			"type":"SCALAR"
		},
		{
			"bufferView":3,
			"componentType":5126,
			"count":56,
			"max":[
				-0.1805879771709442,
				-0.13417387008666992,
				0.03396739438176155
			],
			"min":[
				-0.21971841156482697,
				-0.17547819018363953,
				0.03396739438176155
			],
			"type":"VEC3"
		},
		{
			"bufferView":4,
			"componentType":5126,
			"count":56,
			"type":"VEC3"
		},
		{
			"bufferView":5,
			"componentType":5123,
			"count":84,
			"type":"SCALAR"
		},
		{
			"bufferView":6,
			"componentType":5126,
			"count":4,
			"max":[
				-0.19145752489566803,
				-0.16678255796432495,
				0.03396739438176155
			],
			"min":[
				-0.20884883403778076,
				-0.18091300129890442,
				0.03396739438176155
			],
			"type":"VEC3"
		},
		{
			"bufferView":7,
			"componentType":5126,
			"count":4,
			"type":"VEC3"
		},
		{
			"bufferView":8,
			"componentType":5123,
			"count":6,
			"type":"SCALAR"
		},
		{
			"bufferView":9,
			"componentType":5126,
			"count":481,
			"max":[
				-0.10776185989379883,
				-0.32330432534217834,
				0.036141302436590195
			],
			"min":[
				-0.14037057757377625,
				-0.37656518816947937,
				-0.007336955517530441
			],
			"type":"VEC3"
		},
		{
			"bufferView":10,
			"componentType":5126,
			"count":481,
			"type":"VEC3"
		},
		{
			"bufferView":11,
			"componentType":5123,
			"count":1392,
			"type":"SCALAR"
		},
		{
			"bufferView":12,
			"componentType":5126,
			"count":38,
			"max":[
				-0.11319667100906372,
				-0.3298260569572449,
				0.033967386931180954
			],
			"min":[
				-0.13493579626083374,
				-0.3689565062522888,
				0.033967386931180954
			],
			"type":"VEC3"
		},
		{
			"bufferView":13,
			"componentType":5126,
			"count":38,
			"type":"VEC3"
		},
		{
			"bufferView":14,
			"componentType":5123,
			"count":60,
			"type":"SCALAR"
		},
		{
			"bufferView":15,
			"componentType":5126,
			"count":4,
			"max":[
				-0.11319664120674133,
				-0.3624347448348999,
				0.03396739438176155
			],
			"min":[
				-0.12189233303070068,
				-0.37656518816947937,
				0.03396739438176155
			],
			"type":"VEC3"
		},
		{
			"bufferView":16,
			"componentType":5126,
			"count":4,
			"type":"VEC3"
		},
		{
			"bufferView":17,
			"componentType":5126,
			"count":477,
			"max":[
				0.19658589363098145,
				0.06800001859664917,
				0.05788043513894081
			],
			"min":[
				0.1639772653579712,
				0.014739125967025757,
				-0.007336955517530441
			],
			"type":"VEC3"
		},
		{
			"bufferView":18,
			"componentType":5126,
			"count":477,
			"type":"VEC3"
		},
		{
			"bufferView":19,
			"componentType":5123,
			"count":1386,
			"type":"SCALAR"
		},
		{
			"bufferView":20,
			"componentType":5126,
			"count":36,
			"max":[
				0.1911512017250061,
				0.061478257179260254,
				0.05570651963353157
			],
			"min":[
				0.1694120168685913,
				0.02017390727996826,
				0.05570651963353157
			],
			"type":"VEC3"
		},
		{
			"bufferView":21,
			"componentType":5126,
			"count":36,
			"type":"VEC3"
		},
		{
			"bufferView":22,
			"componentType":5123,
			"count":54,
			"type":"SCALAR"
		},
		{
			"bufferView":23,
			"componentType":5126,
			"count":4,
			"max":[
				0.17810767889022827,
				0.028869569301605225,
				0.05570651963353157
			],
			"min":[
				0.1694120168685913,
				0.014739125967025757,
				0.05570651963353157
			],
			"type":"VEC3"
		},
		{
			"bufferView":24,
			"componentType":5126,
			"count":4,
			"type":"VEC3"
		},
		{
			"bufferView":25,
			"componentType":5126,
			"count":1288,
			"max":[
				0.35657602548599243,
				0.09300005435943604,
				0.047010865062475204
			],
			"min":[
				0.3076629638671875,
				0.014739125967025757,
				-0.007336959708482027
			],
			"type":"VEC3"
		},
		{
			"bufferView":26,
			"componentType":5126,
			"count":1288,
			"type":"VEC3"
		},
		{
			"bufferView":27,
			"componentType":5123,
			"count":4650,
			"type":"SCALAR"
		},
		{
			"bufferView":28,
			"componentType":5126,
			"count":76,
			"max":[
				0.3516847491264343,
				0.07778263092041016,
				0.04483695700764656
			],
			"min":[
				0.31255435943603516,
				0.022347837686538696,
				0.04483695700764656
			],
			"type":"VEC3"
		},
		{
			"bufferView":29,
			"componentType":5126,
			"count":76,
			"type":"VEC3"
		},
		{
			"bufferView":30,
			"componentType":5123,
			"count":114,
			"type":"SCALAR"
		},
		{
			"bufferView":31,
			"componentType":5126,
			"count":4,
			"max":[
				0.3516847491264343,
				0.028869569301605225,
				0.04483695700764656
			],
			"min":[
				0.3451629877090454,
				0.014739125967025757,
				0.04483695700764656
			],
			"type":"VEC3"
		},
		{
			"bufferView":32,
			"componentType":5126,
			"count":4,
			"type":"VEC3"
		},
		{
			"bufferView":33,
			"componentType":5126,
			"count":722,
			"max":[
				-0.10776185989379883,
				-0.39613041281700134,
				0.0470108687877655
			],
			"min":[
				-0.14037057757377625,
				-0.47439128160476685,
				-0.007336955517530441
			],
			"type":"VEC3"
		},
		{
			"bufferView":34,
			"componentType":5126,
			"count":722,
			"type":"VEC3"
		},
		{
			"bufferView":35,
			"componentType":5123,
			"count":2286,
			"type":"SCALAR"
		},
		{
			"bufferView":36,
			"componentType":5126,
			"count":48,
			"max":[
				-0.11319667100906372,
				-0.41134780645370483,
				0.04483695700764656
			],
			"min":[
				-0.13493582606315613,
				-0.4711304008960724,
				0.04483695700764656
			],
			"type":"VEC3"
		},
		{
			"bufferView":37,
			"componentType":5126,
			"count":48,
			"type":"VEC3"
		},
		{
			"bufferView":38,
			"componentType":5123,
			"count":72,
			"type":"SCALAR"
		},
		{
			"bufferView":39,
			"componentType":5126,
			"count":4,
			"max":[
				-0.12624016404151917,
				-0.4602608382701874,
				0.04483695700764656
			],
			"min":[
				-0.13493582606315613,
				-0.47439128160476685,
				0.04483695700764656
			],
			"type":"VEC3"
		},
		{
			"bufferView":40,
			"componentType":5126,
			"count":4,
			"type":"VEC3"
		},
		{
			"bufferView":41,
			"componentType":5126,
			"count":308,
			"max":[
				-0.18384884297847748,
				-0.3309130072593689,
				0.047010865062475204
			],
			"min":[
				-0.2164575308561325,
				-0.37656518816947937,
				-0.007336959708482027
			],
			"type":"VEC3"
		},
		{
			"bufferView":42,
			"componentType":5126,
			"count":308,
			"type":"VEC3"
		},
		{
			"bufferView":43,
			"componentType":5123,
			"count":750,
			"type":"SCALAR"
		},
		{
			"bufferView":44,
			"componentType":5126,
			"count":20,
			"max":[
				-0.18928362429141998,
				-0.3461304306983948,
				0.04483695700764656
			],
			"min":[
				-0.21102274954319,
				-0.37113040685653687,
				0.04483695700764656
			],
			"type":"VEC3"
		},
		{
			"bufferView":45,
			"componentType":5126,
			"count":20,
			"type":"VEC3"
		},
		{
			"bufferView":46,
			"componentType":5123,
			"count":30,
			"type":"SCALAR"
		},
		{
			"bufferView":47,
			"componentType":5126,
			"count":4,
			"max":[
				-0.20232710242271423,
				-0.3624347448348999,
				0.04483695700764656
			],
			"min":[
				-0.2110227346420288,
				-0.37656518816947937,
				0.04483695700764656
			],
			"type":"VEC3"
		},
		{
			"bufferView":48,
			"componentType":5126,
			"count":4,
			"type":"VEC3"
		},
		{
			"bufferView":49,
			"componentType":5126,
			"count":873,
			"max":[
				0.2047380805015564,
				-0.11895650625228882,
				0.0470108762383461
			],
			"min":[
				0.15582507848739624,
				-0.18091300129890442,
				-0.0073369513265788555
			],
			"type":"VEC3"
		},
		{
			"bufferView":50,
			"componentType":5126,
			"count":873,
			"type":"VEC3"
		},
		{
			"bufferView":51,
			"componentType":5123,
			"count":2826,
			"type":"SCALAR"
		},
		{
			"bufferView":52,
			"componentType":5126,
			"count":64,
			"max":[
				0.1998468041419983,
				-0.13417387008666992,
				0.04483695700764656
			],
			"min":[
				0.16071635484695435,
				-0.1754782497882843,
				0.04483695700764656
			],
			"type":"VEC3"
		},
		{
			"bufferView":53,
			"componentType":5126,
			"count":64,
			"type":"VEC3"
		},
		{
			"bufferView":54,
			"componentType":5123,
			"count":96,
			"type":"SCALAR"
		},
		{
			"bufferView":55,
			"componentType":5126,
			"count":4,
			"max":[
				0.19984674453735352,
				-0.16678255796432495,
				0.04483695700764656
			],
			"min":[
				0.1933249831199646,
				-0.18091300129890442,
				0.04483695700764656
			],
			"type":"VEC3"
		},
		{
			"bufferView":56,
			"componentType":5126,
			"count":4,
			"type":"VEC3"
		}
	],
	"bufferViews":[
		{
			"buffer":0,
			"byteLength":9972,
			"byteOffset":0,
			"target":34962
		},
		{
			"buffer":0,
			"byteLength":9972,
			"byteOffset":9972,
			"target":34962
		},
		{
			"buffer":0,
			"byteLength":5448,
			"byteOffset":19944,
			"target":34963
		},
		{
			"buffer":0,
			"byteLength":672,
			"byteOffset":25392,
			"target":34962
		},
		{
			"buffer":0,
			"byteLength":672,
			"byteOffset":26064,
			"target":34962
		},
		{
			"buffer":0,
			"byteLength":168,
			"byteOffset":26736,
			"target":34963
		},
		{
			"buffer":0,
			"byteLength":48,
			"byteOffset":26904,
			"target":34962
		},
		{
			"buffer":0,
			"byteLength":48,
			"byteOffset":26952,
			"target":34962
		},
		{
			"buffer":0,
			"byteLength":12,
			"byteOffset":27000,
			"target":34963
		},
		{
			"buffer":0,
			"byteLength":5772,
			"byteOffset":27012,
			"target":34962
		},
		{
			"buffer":0,
			"byteLength":5772,
			"byteOffset":32784,
			"target":34962
		},
		{
			"buffer":0,
			"byteLength":2784,
			"byteOffset":38556,
			"target":34963
		},
		{
			"buffer":0,
			"byteLength":456,
			"byteOffset":41340,
			"target":34962
		},
		{
			"buffer":0,
			"byteLength":456,
			"byteOffset":41796,
			"target":34962
		},
		{
			"buffer":0,
			"byteLength":120,
			"byteOffset":42252,
			"target":34963
		},
		{
			"buffer":0,
			"byteLength":48,
			"byteOffset":42372,
			"target":34962
		},
		{
			"buffer":0,
			"byteLength":48,
			"byteOffset":42420,
			"target":34962
		},
		{
			"buffer":0,
			"byteLength":5724,
			"byteOffset":42468,
			"target":34962
		},
		{
			"buffer":0,
			"byteLength":5724,
			"byteOffset":48192,
			"target":34962
		},
		{
			"buffer":0,
			"byteLength":2772,
			"byteOffset":53916,
			"target":34963
		},
		{
			"buffer":0,
			"byteLength":432,
			"byteOffset":56688,
			"target":34962
		},
		{
			"buffer":0,
			"byteLength":432,
			"byteOffset":57120,
			"target":34962
		},
		{
			"buffer":0,
			"byteLength":108,
			"byteOffset":57552,
			"target":34963
		},
		{
			"buffer":0,
			"byteLength":48,
			"byteOffset":57660,
			"target":34962
		},
		{
			"buffer":0,
			"byteLength":48,
			"byteOffset":57708,
			"target":34962
		},
		{
			"buffer":0,
			"byteLength":15456,
			"byteOffset":57756,
			"target":34962
		},
		{
			"buffer":0,
			"byteLength":15456,
			"byteOffset":73212,
			"target":34962
		},
		{
			"buffer":0,
			"byteLength":9300,
			"byteOffset":88668,
			"target":34963
		},
		{
			"buffer":0,
			"byteLength":912,
			"byteOffset":97968,
			"target":34962
		},
		{
			"buffer":0,
			"byteLength":912,
			"byteOffset":98880,
			"target":34962
		},
		{
			"buffer":0,
			"byteLength":228,
			"byteOffset":99792,
			"target":34963
		},
		{
			"buffer":0,
			"byteLength":48,
			"byteOffset":100020,
			"target":34962
		},
		{
			"buffer":0,
			"byteLength":48,
			"byteOffset":100068,
			"target":34962
		},
		{
			"buffer":0,
			"byteLength":8664,
			"byteOffset":100116,
			"target":34962
		},
		{
			"buffer":0,
			"byteLength":8664,
			"byteOffset":108780,
			"target":34962
		},
		{
			"buffer":0,
			"byteLength":4572,
			"byteOffset":117444,
			"target":34963
		},
		{
			"buffer":0,
			"byteLength":576,
			"byteOffset":122016,
			"target":34962
		},
		{
			"buffer":0,
			"byteLength":576,
			"byteOffset":122592,
			"target":34962
		},
		{
			"buffer":0,
			"byteLength":144,
			"byteOffset":123168,
			"target":34963
		},
		{
			"buffer":0,
			"byteLength":48,
			"byteOffset":123312,
			"target":34962
		},
		{
			"buffer":0,
			"byteLength":48,
			"byteOffset":123360,
			"target":34962
		},
		{
			"buffer":0,
			"byteLength":3696,
			"byteOffset":123408,
			"target":34962
		},
		{
			"buffer":0,
			"byteLength":3696,
			"byteOffset":127104,
			"target":34962
		},
		{
			"buffer":0,
			"byteLength":1500,
			"byteOffset":130800,
			"target":34963
		},
		{
			"buffer":0,
			"byteLength":240,
			"byteOffset":132300,
			"target":34962
		},
		{
			"buffer":0,
			"byteLength":240,
			"byteOffset":132540,
			"target":34962
		},
		{
			"buffer":0,
			"byteLength":60,
			"byteOffset":132780,
			"target":34963
		},
		{
			"buffer":0,
			"byteLength":48,
			"byteOffset":132840,
			"target":34962
		},
		{
			"buffer":0,
			"byteLength":48,
			"byteOffset":132888,
			"target":34962
		},
		{
			"buffer":0,
			"byteLength":10476,
			"byteOffset":132936,
			"target":34962
		},
		{
			"buffer":0,
			"byteLength":10476,
			"byteOffset":143412,
			"target":34962
		},
		{
			"buffer":0,
			"byteLength":5652,
			"byteOffset":153888,
			"target":34963
		},
		{
			"buffer":0,
			"byteLength":768,
			"byteOffset":159540,
			"target":34962
		},
		{
			"buffer":0,
			"byteLength":768,
			"byteOffset":160308,
			"target":34962
		},
		{
			"buffer":0,
			"byteLength":192,
			"byteOffset":161076,
			"target":34963
		},
		{
			"buffer":0,
			"byteLength":48,
			"byteOffset":161268,
			"target":34962
		},
		{
			"buffer":0,
			"byteLength":48,
			"byteOffset":161316,
			"target":34962
		}
	],
	"buffers":[
		{
			"byteLength":161364,
			"uri":"BinaGrup2.bin"
		}
	]
}
