{
	"asset":{
		"generator":"Khronos glTF Blender I/O v4.2.60",
		"version":"2.0"
	},
	"scene":0,
	"scenes":[
		{
			"name":"Scene",
			"nodes":[
				0,
				1,
				2,
				3,
				4,
				5,
				6,
				7,
				8,
				9,
				10,
				11,
				12,
				13,
				14,
				15,
				16,
				17,
				18,
				19,
				20
			]
		}
	],
	"nodes":[
		{
			"mesh":0,
			"name":"Building_018.016"
		},
		{
			"mesh":1,
			"name":"Building_018.017"
		},
		{
			"mesh":2,
			"name":"Building_018.018"
		},
		{
			"mesh":3,
			"name":"Building_037.016"
		},
		{
			"mesh":4,
			"name":"Building_037.017"
		},
		{
			"mesh":5,
			"name":"Building_037.018"
		},
		{
			"mesh":6,
			"name":"Building_055.016"
		},
		{
			"mesh":7,
			"name":"Building_055.017"
		},
		{
			"mesh":8,
			"name":"Building_055.018"
		},
		{
			"mesh":9,
			"name":"Building_069.014"
		},
		{
			"mesh":10,
			"name":"Building_069.015"
		},
		{
			"mesh":11,
			"name":"Building_069.016"
		},
		{
			"mesh":12,
			"name":"Building_032.016"
		},
		{
			"mesh":13,
			"name":"Building_032.017"
		},
		{
			"mesh":14,
			"name":"Building_032.018"
		},
		{
			"mesh":15,
			"name":"Building_038.016"
		},
		{
			"mesh":16,
			"name":"Building_038.017"
		},
		{
			"mesh":17,
			"name":"Building_038.018"
		},
		{
			"mesh":18,
			"name":"Building_047.016"
		},
		{
			"mesh":19,
			"name":"Building_047.017"
		},
		{
			"mesh":20,
			"name":"Building_047.018"
		}
	],
	"materials":[
		{
			"doubleSided":true,
			"name":"BinaGrid",
			"pbrMetallicRoughness":{
				"baseColorFactor":[
					0.0009104993660002947,
					0.04091522842645645,
					0.06662598252296448,
					1
				],
				"metallicFactor":0,
				"roughnessFactor":0.5
			}
		},
		{
			"doubleSided":true,
			"name":"Kap\u0131Grid",
			"pbrMetallicRoughness":{
				"baseColorFactor":[
					0,
					0.01161225512623787,
					0.016807379201054573,
					1
				],
				"metallicFactor":0,
				"roughnessFactor":0.699999988079071
			}
		},
		{
			"doubleSided":true,
			"name":"PencereGrid",
			"pbrMetallicRoughness":{
				"baseColorFactor":[
					0.1328672468662262,
					0.26635584235191345,
					0.31854695081710815,
					1
				],
				"metallicFactor":0,
				"roughnessFactor":0.699999988079071
			}
		}
	],
	"meshes":[
		{
			"name":"Building_018_Mesh.004",
			"primitives":[
				{
					"attributes":{
						"POSITION":0,
						"NORMAL":1
					},
					"indices":2,
					"material":0
				}
			]
		},
		{
			"name":"Building_018_Mesh.005",
			"primitives":[
				{
					"attributes":{
						"POSITION":3,
						"NORMAL":4
					},
					"indices":5,
					"material":1
				}
			]
		},
		{
			"name":"Building_018_Mesh.006",
			"primitives":[
				{
					"attributes":{
						"POSITION":6,
						"NORMAL":7
					},
					"indices":8,
					"material":2
				}
			]
		},
		{
			"name":"Building_037_Mesh.018",
			"primitives":[
				{
					"attributes":{
						"POSITION":9,
						"NORMAL":10
					},
					"indices":11,
					"material":0
				}
			]
		},
		{
			"name":"Building_037_Mesh.019",
			"primitives":[
				{
					"attributes":{
						"POSITION":12,
						"NORMAL":13
					},
					"indices":14,
					"material":2
				}
			]
		},
		{
			"name":"Building_037_Mesh.020",
			"primitives":[
				{
					"attributes":{
						"POSITION":15,
						"NORMAL":16
					},
					"indices":5,
					"material":1
				}
			]
		},
		{
			"name":"Building_055_Mesh.018",
			"primitives":[
				{
					"attributes":{
						"POSITION":17,
						"NORMAL":18
					},
					"indices":19,
					"material":0
				}
			]
		},
		{
			"name":"Building_055_Mesh.019",
			"primitives":[
				{
					"attributes":{
						"POSITION":20,
						"NORMAL":21
					},
					"indices":22,
					"material":2
				}
			]
		},
		{
			"name":"Building_055_Mesh.020",
			"primitives":[
				{
					"attributes":{
						"POSITION":23,
						"NORMAL":24
					},
					"indices":5,
					"material":1
				}
			]
		},
		{
			"name":"Building_069_Mesh.014",
			"primitives":[
				{
					"attributes":{
						"POSITION":25,
						"NORMAL":26
					},
					"indices":27,
					"material":0
				}
			]
		},
		{
			"name":"Building_069_Mesh.015",
			"primitives":[
				{
					"attributes":{
						"POSITION":28,
						"NORMAL":29
					},
					"indices":30,
					"material":2
				}
			]
		},
		{
			"name":"Building_069_Mesh.016",
			"primitives":[
				{
					"attributes":{
						"POSITION":31,
						"NORMAL":32
					},
					"indices":5,
					"material":1
				}
			]
		},
		{
			"name":"Building_032_Mesh.018",
			"primitives":[
				{
					"attributes":{
						"POSITION":33,
						"NORMAL":34
					},
					"indices":35,
					"material":0
				}
			]
		},
		{
			"name":"Building_032_Mesh.019",
			"primitives":[
				{
					"attributes":{
						"POSITION":36,
						"NORMAL":37
					},
					"indices":38,
					"material":2
				}
			]
		},
		{
			"name":"Building_032_Mesh.020",
			"primitives":[
				{
					"attributes":{
						"POSITION":39,
						"NORMAL":40
					},
					"indices":5,
					"material":1
				}
			]
		},
		{
			"name":"Building_038_Mesh.018",
			"primitives":[
				{
					"attributes":{
						"POSITION":41,
						"NORMAL":42
					},
					"indices":43,
					"material":0
				}
			]
		},
		{
			"name":"Building_038_Mesh.019",
			"primitives":[
				{
					"attributes":{
						"POSITION":44,
						"NORMAL":45
					},
					"indices":46,
					"material":2
				}
			]
		},
		{
			"name":"Building_038_Mesh.020",
			"primitives":[
				{
					"attributes":{
						"POSITION":47,
						"NORMAL":48
					},
					"indices":5,
					"material":1
				}
			]
		},
		{
			"name":"Building_047_Mesh.018",
			"primitives":[
				{
					"attributes":{
						"POSITION":49,
						"NORMAL":50
					},
					"indices":51,
					"material":0
				}
			]
		},
		{
			"name":"Building_047_Mesh.019",
			"primitives":[
				{
					"attributes":{
						"POSITION":52,
						"NORMAL":53
					},
					"indices":54,
					"material":2
				}
			]
		},
		{
			"name":"Building_047_Mesh.020",
			"primitives":[
				{
					"attributes":{
						"POSITION":55,
						"NORMAL":56
					},
					"indices":5,
					"material":1
				}
			]
		}
	],
	"accessors":[
		{
			"bufferView":0,
			"componentType":5126,
			"count":505,
			"max":[
				-0.2517836093902588,
				-0.24178257584571838,
				0.047010865062475204
			],
			"min":[
				-0.30069664120674133,
				-0.2787390947341919,
				-0.007336959708482027
			],
			"type":"VEC3"
		},
		{
			"bufferView":1,
			"componentType":5126,
			"count":505,
			"type":"VEC3"
		},
		{
			"bufferView":2,
			"componentType":5123,
			"count":1476,
			"type":"SCALAR"
		},
		{
			"bufferView":3,
			"componentType":5126,
			"count":4,
			"max":[
				-0.2566749155521393,
				-0.2646086513996124,
				0.04483695700764656
			],
			"min":[
				-0.2631966471672058,
				-0.2787390947341919,
				0.04483695700764656
			],
			"type":"VEC3"
		},
		{
			"bufferView":4,
			"componentType":5126,
			"count":4,
			"type":"VEC3"
		},
		{
			"bufferView":5,
			"componentType":5123,
			"count":6,
			"type":"SCALAR"
		},
		{
			"bufferView":6,
			"componentType":5126,
			"count":32,
			"max":[
				-0.25667494535446167,
				-0.2483043223619461,
				0.04483695700764656
			],
			"min":[
				-0.29580533504486084,
				-0.2754782438278198,
				0.04483695700764656
			],
			"type":"VEC3"
		},
		{
			"bufferView":7,
			"componentType":5126,
			"count":32,
			"type":"VEC3"
		},
		{
			"bufferView":8,
			"componentType":5123,
			"count":48,
			"type":"SCALAR"
		},
		{
			"bufferView":9,
			"componentType":5126,
			"count":1258,
			"max":[
				-0.023522764444351196,
				-0.004826068878173828,
				0.047010865062475204
			],
			"min":[
				-0.07243582606315613,
				-0.08308693766593933,
				-0.007336959708482027
			],
			"type":"VEC3"
		},
		{
			"bufferView":10,
			"componentType":5126,
			"count":1258,
			"type":"VEC3"
		},
		{
			"bufferView":11,
			"componentType":5123,
			"count":4458,
			"type":"SCALAR"
		},
		{
			"bufferView":12,
			"componentType":5126,
			"count":60,
			"max":[
				-0.02841407060623169,
				-0.02004346251487732,
				0.04483695700764656
			],
			"min":[
				-0.06754451990127563,
				-0.07547822594642639,
				0.04483695700764656
			],
			"type":"VEC3"
		},
		{
			"bufferView":13,
			"componentType":5126,
			"count":60,
			"type":"VEC3"
		},
		{
			"bufferView":14,
			"componentType":5123,
			"count":90,
			"type":"SCALAR"
		},
		{
			"bufferView":15,
			"componentType":5126,
			"count":4,
			"max":[
				-0.06102275848388672,
				-0.06895646452903748,
				0.04483695700764656
			],
			"min":[
				-0.06754449009895325,
				-0.08308693766593933,
				0.04483695700764656
			],
			"type":"VEC3"
		},
		{
			"bufferView":16,
			"componentType":5126,
			"count":4,
			"type":"VEC3"
		},
		{
			"bufferView":17,
			"componentType":5126,
			"count":492,
			"max":[
				0.1286512017250061,
				-0.43743476271629333,
				0.0470108687877655
			],
			"min":[
				0.07973814010620117,
				-0.47439128160476685,
				-0.007336955517530441
			],
			"type":"VEC3"
		},
		{
			"bufferView":18,
			"componentType":5126,
			"count":492,
			"type":"VEC3"
		},
		{
			"bufferView":19,
			"componentType":5123,
			"count":1422,
			"type":"SCALAR"
		},
		{
			"bufferView":20,
			"componentType":5126,
			"count":30,
			"max":[
				0.12375986576080322,
				-0.44395649433135986,
				0.04483695700764656
			],
			"min":[
				0.08462941646575928,
				-0.4667825996875763,
				0.04483695700764656
			],
			"type":"VEC3"
		},
		{
			"bufferView":21,
			"componentType":5126,
			"count":30,
			"type":"VEC3"
		},
		{
			"bufferView":22,
			"componentType":5123,
			"count":48,
			"type":"SCALAR"
		},
		{
			"bufferView":23,
			"componentType":5126,
			"count":4,
			"max":[
				0.11289024353027344,
				-0.4602608382701874,
				0.04483695700764656
			],
			"min":[
				0.09549897909164429,
				-0.47439128160476685,
				0.04483695700764656
			],
			"type":"VEC3"
		},
		{
			"bufferView":24,
			"componentType":5126,
			"count":4,
			"type":"VEC3"
		},
		{
			"bufferView":25,
			"componentType":5126,
			"count":497,
			"max":[
				0.2723369598388672,
				-0.4102608561515808,
				0.036141302436590195
			],
			"min":[
				0.23972821235656738,
				-0.47439128160476685,
				-0.007336955517530441
			],
			"type":"VEC3"
		},
		{
			"bufferView":26,
			"componentType":5126,
			"count":497,
			"type":"VEC3"
		},
		{
			"bufferView":27,
			"componentType":5123,
			"count":1398,
			"type":"SCALAR"
		},
		{
			"bufferView":28,
			"componentType":5126,
			"count":36,
			"max":[
				0.26690220832824707,
				-0.42765215039253235,
				0.033967386931180954
			],
			"min":[
				0.24516302347183228,
				-0.4711304008960724,
				0.033967386931180954
			],
			"type":"VEC3"
		},
		{
			"bufferView":29,
			"componentType":5126,
			"count":36,
			"type":"VEC3"
		},
		{
			"bufferView":30,
			"componentType":5123,
			"count":54,
			"type":"SCALAR"
		},
		{
			"bufferView":31,
			"componentType":5126,
			"count":4,
			"max":[
				0.253858745098114,
				-0.4602608382701874,
				0.03396739065647125
			],
			"min":[
				0.24516302347183228,
				-0.47439128160476685,
				0.03396739065647125
			],
			"type":"VEC3"
		},
		{
			"bufferView":32,
			"componentType":5126,
			"count":4,
			"type":"VEC3"
		},
		{
			"bufferView":33,
			"componentType":5126,
			"count":496,
			"max":[
				-0.09960973262786865,
				-0.23308691382408142,
				0.03614130616188049
			],
			"min":[
				-0.1485227644443512,
				-0.2787390947341919,
				-0.0073369513265788555
			],
			"type":"VEC3"
		},
		{
			"bufferView":34,
			"componentType":5126,
			"count":496,
			"type":"VEC3"
		},
		{
			"bufferView":35,
			"componentType":5123,
			"count":1416,
			"type":"SCALAR"
		},
		{
			"bufferView":36,
			"componentType":5126,
			"count":24,
			"max":[
				-0.10450100898742676,
				-0.2483043074607849,
				0.033967386931180954
			],
			"min":[
				-0.1436314582824707,
				-0.2754782438278198,
				0.033967386931180954
			],
			"type":"VEC3"
		},
		{
			"bufferView":37,
			"componentType":5126,
			"count":24,
			"type":"VEC3"
		},
		{
			"bufferView":38,
			"componentType":5123,
			"count":36,
			"type":"SCALAR"
		},
		{
			"bufferView":39,
			"componentType":5126,
			"count":4,
			"max":[
				-0.13710975646972656,
				-0.2646086513996124,
				0.03396739438176155
			],
			"min":[
				-0.1436314582824707,
				-0.2787390947341919,
				0.03396739438176155
			],
			"type":"VEC3"
		},
		{
			"bufferView":40,
			"componentType":5126,
			"count":4,
			"type":"VEC3"
		},
		{
			"bufferView":41,
			"componentType":5126,
			"count":292,
			"max":[
				-0.03167495131492615,
				-0.1439565122127533,
				0.036141302436590195
			],
			"min":[
				-0.06428366899490356,
				-0.18091300129890442,
				-0.007336955517530441
			],
			"type":"VEC3"
		},
		{
			"bufferView":42,
			"componentType":5126,
			"count":292,
			"type":"VEC3"
		},
		{
			"bufferView":43,
			"componentType":5123,
			"count":732,
			"type":"SCALAR"
		},
		{
			"bufferView":44,
			"componentType":5126,
			"count":20,
			"max":[
				-0.03710973262786865,
				-0.15047824382781982,
				0.03396739065647125
			],
			"min":[
				-0.05884888768196106,
				-0.17765215039253235,
				0.03396739065647125
			],
			"type":"VEC3"
		},
		{
			"bufferView":45,
			"componentType":5126,
			"count":20,
			"type":"VEC3"
		},
		{
			"bufferView":46,
			"componentType":5123,
			"count":30,
			"type":"SCALAR"
		},
		{
			"bufferView":47,
			"componentType":5126,
			"count":4,
			"max":[
				-0.037109702825546265,
				-0.16678255796432495,
				0.03396739438176155
			],
			"min":[
				-0.04580536484718323,
				-0.18091300129890442,
				0.03396739438176155
			],
			"type":"VEC3"
		},
		{
			"bufferView":48,
			"componentType":5126,
			"count":4,
			"type":"VEC3"
		},
		{
			"bufferView":49,
			"componentType":5126,
			"count":831,
			"max":[
				0.05256417393684387,
				-0.32330432534217834,
				0.0470108687877655
			],
			"min":[
				0.0036511123180389404,
				-0.37656518816947937,
				-0.007336955517530441
			],
			"type":"VEC3"
		},
		{
			"bufferView":50,
			"componentType":5126,
			"count":831,
			"type":"VEC3"
		},
		{
			"bufferView":51,
			"componentType":5123,
			"count":2718,
			"type":"SCALAR"
		},
		{
			"bufferView":52,
			"componentType":5126,
			"count":60,
			"max":[
				0.04767286777496338,
				-0.3298260569572449,
				0.04483695700764656
			],
			"min":[
				0.008542418479919434,
				-0.3733043074607849,
				0.04483695700764656
			],
			"type":"VEC3"
		},
		{
			"bufferView":53,
			"componentType":5126,
			"count":60,
			"type":"VEC3"
		},
		{
			"bufferView":54,
			"componentType":5123,
			"count":90,
			"type":"SCALAR"
		},
		{
			"bufferView":55,
			"componentType":5126,
			"count":4,
			"max":[
				0.03680330514907837,
				-0.3624347448348999,
				0.04483695700764656
			],
			"min":[
				0.01941201090812683,
				-0.37656518816947937,
				0.04483695700764656
			],
			"type":"VEC3"
		},
		{
			"bufferView":56,
			"componentType":5126,
			"count":4,
			"type":"VEC3"
		}
	],
	"bufferViews":[
		{
			"buffer":0,
			"byteLength":6060,
			"byteOffset":0,
			"target":34962
		},
		{
			"buffer":0,
			"byteLength":6060,
			"byteOffset":6060,
			"target":34962
		},
		{
			"buffer":0,
			"byteLength":2952,
			"byteOffset":12120,
			"target":34963
		},
		{
			"buffer":0,
			"byteLength":48,
			"byteOffset":15072,
			"target":34962
		},
		{
			"buffer":0,
			"byteLength":48,
			"byteOffset":15120,
			"target":34962
		},
		{
			"buffer":0,
			"byteLength":12,
			"byteOffset":15168,
			"target":34963
		},
		{
			"buffer":0,
			"byteLength":384,
			"byteOffset":15180,
			"target":34962
		},
		{
			"buffer":0,
			"byteLength":384,
			"byteOffset":15564,
			"target":34962
		},
		{
			"buffer":0,
			"byteLength":96,
			"byteOffset":15948,
			"target":34963
		},
		{
			"buffer":0,
			"byteLength":15096,
			"byteOffset":16044,
			"target":34962
		},
		{
			"buffer":0,
			"byteLength":15096,
			"byteOffset":31140,
			"target":34962
		},
		{
			"buffer":0,
			"byteLength":8916,
			"byteOffset":46236,
			"target":34963
		},
		{
			"buffer":0,
			"byteLength":720,
			"byteOffset":55152,
			"target":34962
		},
		{
			"buffer":0,
			"byteLength":720,
			"byteOffset":55872,
			"target":34962
		},
		{
			"buffer":0,
			"byteLength":180,
			"byteOffset":56592,
			"target":34963
		},
		{
			"buffer":0,
			"byteLength":48,
			"byteOffset":56772,
			"target":34962
		},
		{
			"buffer":0,
			"byteLength":48,
			"byteOffset":56820,
			"target":34962
		},
		{
			"buffer":0,
			"byteLength":5904,
			"byteOffset":56868,
			"target":34962
		},
		{
			"buffer":0,
			"byteLength":5904,
			"byteOffset":62772,
			"target":34962
		},
		{
			"buffer":0,
			"byteLength":2844,
			"byteOffset":68676,
			"target":34963
		},
		{
			"buffer":0,
			"byteLength":360,
			"byteOffset":71520,
			"target":34962
		},
		{
			"buffer":0,
			"byteLength":360,
			"byteOffset":71880,
			"target":34962
		},
		{
			"buffer":0,
			"byteLength":96,
			"byteOffset":72240,
			"target":34963
		},
		{
			"buffer":0,
			"byteLength":48,
			"byteOffset":72336,
			"target":34962
		},
		{
			"buffer":0,
			"byteLength":48,
			"byteOffset":72384,
			"target":34962
		},
		{
			"buffer":0,
			"byteLength":5964,
			"byteOffset":72432,
			"target":34962
		},
		{
			"buffer":0,
			"byteLength":5964,
			"byteOffset":78396,
			"target":34962
		},
		{
			"buffer":0,
			"byteLength":2796,
			"byteOffset":84360,
			"target":34963
		},
		{
			"buffer":0,
			"byteLength":432,
			"byteOffset":87156,
			"target":34962
		},
		{
			"buffer":0,
			"byteLength":432,
			"byteOffset":87588,
			"target":34962
		},
		{
			"buffer":0,
			"byteLength":108,
			"byteOffset":88020,
			"target":34963
		},
		{
			"buffer":0,
			"byteLength":48,
			"byteOffset":88128,
			"target":34962
		},
		{
			"buffer":0,
			"byteLength":48,
			"byteOffset":88176,
			"target":34962
		},
		{
			"buffer":0,
			"byteLength":5952,
			"byteOffset":88224,
			"target":34962
		},
		{
			"buffer":0,
			"byteLength":5952,
			"byteOffset":94176,
			"target":34962
		},
		{
			"buffer":0,
			"byteLength":2832,
			"byteOffset":100128,
			"target":34963
		},
		{
			"buffer":0,
			"byteLength":288,
			"byteOffset":102960,
			"target":34962
		},
		{
			"buffer":0,
			"byteLength":288,
			"byteOffset":103248,
			"target":34962
		},
		{
			"buffer":0,
			"byteLength":72,
			"byteOffset":103536,
			"target":34963
		},
		{
			"buffer":0,
			"byteLength":48,
			"byteOffset":103608,
			"target":34962
		},
		{
			"buffer":0,
			"byteLength":48,
			"byteOffset":103656,
			"target":34962
		},
		{
			"buffer":0,
			"byteLength":3504,
			"byteOffset":103704,
			"target":34962
		},
		{
			"buffer":0,
			"byteLength":3504,
			"byteOffset":107208,
			"target":34962
		},
		{
			"buffer":0,
			"byteLength":1464,
			"byteOffset":110712,
			"target":34963
		},
		{
			"buffer":0,
			"byteLength":240,
			"byteOffset":112176,
			"target":34962
		},
		{
			"buffer":0,
			"byteLength":240,
			"byteOffset":112416,
			"target":34962
		},
		{
			"buffer":0,
			"byteLength":60,
			"byteOffset":112656,
			"target":34963
		},
		{
			"buffer":0,
			"byteLength":48,
			"byteOffset":112716,
			"target":34962
		},
		{
			"buffer":0,
			"byteLength":48,
			"byteOffset":112764,
			"target":34962
		},
		{
			"buffer":0,
			"byteLength":9972,
			"byteOffset":112812,
			"target":34962
		},
		{
			"buffer":0,
			"byteLength":9972,
			"byteOffset":122784,
			"target":34962
		},
		{
			"buffer":0,
			"byteLength":5436,
			"byteOffset":132756,
			"target":34963
		},
		{
			"buffer":0,
			"byteLength":720,
			"byteOffset":138192,
			"target":34962
		},
		{
			"buffer":0,
			"byteLength":720,
			"byteOffset":138912,
			"target":34962
		},
		{
			"buffer":0,
			"byteLength":180,
			"byteOffset":139632,
			"target":34963
		},
		{
			"buffer":0,
			"byteLength":48,
			"byteOffset":139812,
			"target":34962
		},
		{
			"buffer":0,
			"byteLength":48,
			"byteOffset":139860,
			"target":34962
		}
	],
	"buffers":[
		{
			"byteLength":139908,
			"uri":"BinaGrup1.bin"
		}
	]
}
