{
	"asset":{
		"generator":"Khronos glTF Blender I/O v4.2.60",
		"version":"2.0"
	},
	"scene":0,
	"scenes":[
		{
			"name":"Scene",
			"nodes":[
				0,
				1,
				2,
				3,
				4,
				5,
				6,
				7,
				8,
				9,
				10,
				11,
				12,
				13,
				14,
				15,
				16,
				17
			]
		}
	],
	"nodes":[
		{
			"mesh":0,
			"name":"Building_035.016"
		},
		{
			"mesh":1,
			"name":"Building_035.017"
		},
		{
			"mesh":2,
			"name":"Building_035.018"
		},
		{
			"mesh":3,
			"name":"Building_068.016"
		},
		{
			"mesh":4,
			"name":"Building_068.017"
		},
		{
			"mesh":5,
			"name":"Building_068.018"
		},
		{
			"mesh":6,
			"name":"Building_043.016"
		},
		{
			"mesh":7,
			"name":"Building_043.017"
		},
		{
			"mesh":8,
			"name":"Building_043.018"
		},
		{
			"mesh":9,
			"name":"Building_083.014"
		},
		{
			"mesh":10,
			"name":"Building_083.015"
		},
		{
			"mesh":11,
			"name":"Building_083.016"
		},
		{
			"mesh":12,
			"name":"Building_045.016"
		},
		{
			"mesh":13,
			"name":"Building_045.017"
		},
		{
			"mesh":14,
			"name":"Building_045.018"
		},
		{
			"mesh":15,
			"name":"Building_050.016"
		},
		{
			"mesh":16,
			"name":"Building_050.017"
		},
		{
			"mesh":17,
			"name":"Building_050.018"
		}
	],
	"materials":[
		{
			"doubleSided":true,
			"name":"BinaGrid",
			"pbrMetallicRoughness":{
				"baseColorFactor":[
					0.0009104993660002947,
					0.04091522842645645,
					0.06662598252296448,
					1
				],
				"metallicFactor":0,
				"roughnessFactor":0.5
			}
		},
		{
			"doubleSided":true,
			"name":"PencereGrid",
			"pbrMetallicRoughness":{
				"baseColorFactor":[
					0.1328672468662262,
					0.26635584235191345,
					0.31854695081710815,
					1
				],
				"metallicFactor":0,
				"roughnessFactor":0.699999988079071
			}
		},
		{
			"doubleSided":true,
			"name":"Kap\u0131Grid",
			"pbrMetallicRoughness":{
				"baseColorFactor":[
					0,
					0.01161225512623787,
					0.016807379201054573,
					1
				],
				"metallicFactor":0,
				"roughnessFactor":0.699999988079071
			}
		}
	],
	"meshes":[
		{
			"name":"Building_035_Mesh.018",
			"primitives":[
				{
					"attributes":{
						"POSITION":0,
						"NORMAL":1
					},
					"indices":2,
					"material":0
				}
			]
		},
		{
			"name":"Building_035_Mesh.019",
			"primitives":[
				{
					"attributes":{
						"POSITION":3,
						"NORMAL":4
					},
					"indices":5,
					"material":1
				}
			]
		},
		{
			"name":"Building_035_Mesh.020",
			"primitives":[
				{
					"attributes":{
						"POSITION":6,
						"NORMAL":7
					},
					"indices":8,
					"material":2
				}
			]
		},
		{
			"name":"Building_068_Mesh.018",
			"primitives":[
				{
					"attributes":{
						"POSITION":9,
						"NORMAL":10
					},
					"indices":11,
					"material":0
				}
			]
		},
		{
			"name":"Building_068_Mesh.019",
			"primitives":[
				{
					"attributes":{
						"POSITION":12,
						"NORMAL":13
					},
					"indices":14,
					"material":1
				}
			]
		},
		{
			"name":"Building_068_Mesh.020",
			"primitives":[
				{
					"attributes":{
						"POSITION":15,
						"NORMAL":16
					},
					"indices":8,
					"material":2
				}
			]
		},
		{
			"name":"Building_043_Mesh.018",
			"primitives":[
				{
					"attributes":{
						"POSITION":17,
						"NORMAL":18
					},
					"indices":19,
					"material":0
				}
			]
		},
		{
			"name":"Building_043_Mesh.019",
			"primitives":[
				{
					"attributes":{
						"POSITION":20,
						"NORMAL":21
					},
					"indices":22,
					"material":1
				}
			]
		},
		{
			"name":"Building_043_Mesh.020",
			"primitives":[
				{
					"attributes":{
						"POSITION":23,
						"NORMAL":24
					},
					"indices":8,
					"material":2
				}
			]
		},
		{
			"name":"Building_083_Mesh.014",
			"primitives":[
				{
					"attributes":{
						"POSITION":25,
						"NORMAL":26
					},
					"indices":27,
					"material":0
				}
			]
		},
		{
			"name":"Building_083_Mesh.015",
			"primitives":[
				{
					"attributes":{
						"POSITION":28,
						"NORMAL":29
					},
					"indices":30,
					"material":1
				}
			]
		},
		{
			"name":"Building_083_Mesh.016",
			"primitives":[
				{
					"attributes":{
						"POSITION":31,
						"NORMAL":32
					},
					"indices":8,
					"material":2
				}
			]
		},
		{
			"name":"Building_045_Mesh.018",
			"primitives":[
				{
					"attributes":{
						"POSITION":33,
						"NORMAL":34
					},
					"indices":35,
					"material":0
				}
			]
		},
		{
			"name":"Building_045_Mesh.019",
			"primitives":[
				{
					"attributes":{
						"POSITION":36,
						"NORMAL":37
					},
					"indices":5,
					"material":1
				}
			]
		},
		{
			"name":"Building_045_Mesh.020",
			"primitives":[
				{
					"attributes":{
						"POSITION":38,
						"NORMAL":39
					},
					"indices":8,
					"material":2
				}
			]
		},
		{
			"name":"Building_050_Mesh.018",
			"primitives":[
				{
					"attributes":{
						"POSITION":40,
						"NORMAL":41
					},
					"indices":42,
					"material":0
				}
			]
		},
		{
			"name":"Building_050_Mesh.019",
			"primitives":[
				{
					"attributes":{
						"POSITION":43,
						"NORMAL":44
					},
					"indices":45,
					"material":1
				}
			]
		},
		{
			"name":"Building_050_Mesh.020",
			"primitives":[
				{
					"attributes":{
						"POSITION":46,
						"NORMAL":47
					},
					"indices":8,
					"material":2
				}
			]
		}
	],
	"accessors":[
		{
			"bufferView":0,
			"componentType":5126,
			"count":308,
			"max":[
				-0.03167495131492615,
				0.1582174301147461,
				0.047010865062475204
			],
			"min":[
				-0.06428366899490356,
				0.11256527900695801,
				-0.007336959708482027
			],
			"type":"VEC3"
		},
		{
			"bufferView":1,
			"componentType":5126,
			"count":308,
			"type":"VEC3"
		},
		{
			"bufferView":2,
			"componentType":5123,
			"count":750,
			"type":"SCALAR"
		},
		{
			"bufferView":3,
			"componentType":5126,
			"count":20,
			"max":[
				-0.037109702825546265,
				0.14300000667572021,
				0.04483695700764656
			],
			"min":[
				-0.05884885787963867,
				0.1158260703086853,
				0.04483695700764656
			],
			"type":"VEC3"
		},
		{
			"bufferView":4,
			"componentType":5126,
			"count":20,
			"type":"VEC3"
		},
		{
			"bufferView":5,
			"componentType":5123,
			"count":30,
			"type":"SCALAR"
		},
		{
			"bufferView":6,
			"componentType":5126,
			"count":4,
			"max":[
				-0.05015319585800171,
				0.1266956925392151,
				0.04483695700764656
			],
			"min":[
				-0.05884888768196106,
				0.11256527900695801,
				0.04483695700764656
			],
			"type":"VEC3"
		},
		{
			"bufferView":7,
			"componentType":5126,
			"count":4,
			"type":"VEC3"
		},
		{
			"bufferView":8,
			"componentType":5123,
			"count":6,
			"type":"SCALAR"
		},
		{
			"bufferView":9,
			"componentType":5126,
			"count":873,
			"max":[
				0.2808249592781067,
				-0.3167825937271118,
				0.05788043513894081
			],
			"min":[
				0.23191195726394653,
				-0.37656518816947937,
				-0.007336955517530441
			],
			"type":"VEC3"
		},
		{
			"bufferView":10,
			"componentType":5126,
			"count":873,
			"type":"VEC3"
		},
		{
			"bufferView":11,
			"componentType":5123,
			"count":2826,
			"type":"SCALAR"
		},
		{
			"bufferView":12,
			"componentType":5126,
			"count":64,
			"max":[
				0.2759336829185486,
				-0.3298260569572449,
				0.05570651963353157
			],
			"min":[
				0.23680323362350464,
				-0.37113040685653687,
				0.05570651963353157
			],
			"type":"VEC3"
		},
		{
			"bufferView":13,
			"componentType":5126,
			"count":64,
			"type":"VEC3"
		},
		{
			"bufferView":14,
			"componentType":5123,
			"count":96,
			"type":"SCALAR"
		},
		{
			"bufferView":15,
			"componentType":5126,
			"count":4,
			"max":[
				0.27593374252319336,
				-0.3624347448348999,
				0.05570651963353157
			],
			"min":[
				0.26941198110580444,
				-0.37656518816947937,
				0.05570651963353157
			],
			"type":"VEC3"
		},
		{
			"bufferView":16,
			"componentType":5126,
			"count":4,
			"type":"VEC3"
		},
		{
			"bufferView":17,
			"componentType":5126,
			"count":481,
			"max":[
				0.04441201686859131,
				0.06800001859664917,
				0.05788043513894081
			],
			"min":[
				0.01180332899093628,
				0.014739125967025757,
				-0.007336955517530441
			],
			"type":"VEC3"
		},
		{
			"bufferView":18,
			"componentType":5126,
			"count":481,
			"type":"VEC3"
		},
		{
			"bufferView":19,
			"componentType":5123,
			"count":1389,
			"type":"SCALAR"
		},
		{
			"bufferView":20,
			"componentType":5126,
			"count":39,
			"max":[
				0.038977205753326416,
				0.061478257179260254,
				0.05570651963353157
			],
			"min":[
				0.017238110303878784,
				0.02017390727996826,
				0.05570651963353157
			],
			"type":"VEC3"
		},
		{
			"bufferView":21,
			"componentType":5126,
			"count":39,
			"type":"VEC3"
		},
		{
			"bufferView":22,
			"componentType":5123,
			"count":63,
			"type":"SCALAR"
		},
		{
			"bufferView":23,
			"componentType":5126,
			"count":4,
			"max":[
				0.038977235555648804,
				0.028869569301605225,
				0.05570651963353157
			],
			"min":[
				0.03028157353401184,
				0.014739125967025757,
				0.05570651963353157
			],
			"type":"VEC3"
		},
		{
			"bufferView":24,
			"componentType":5126,
			"count":4,
			"type":"VEC3"
		},
		{
			"bufferView":25,
			"componentType":5126,
			"count":524,
			"max":[
				0.4326630234718323,
				-0.4309130311012268,
				0.047010865062475204
			],
			"min":[
				0.3837500214576721,
				-0.47439128160476685,
				-0.007336955517530441
			],
			"type":"VEC3"
		},
		{
			"bufferView":26,
			"componentType":5126,
			"count":524,
			"type":"VEC3"
		},
		{
			"bufferView":27,
			"componentType":5123,
			"count":1488,
			"type":"SCALAR"
		},
		{
			"bufferView":28,
			"componentType":5126,
			"count":28,
			"max":[
				0.42777174711227417,
				-0.44395649433135986,
				0.04483695700764656
			],
			"min":[
				0.3886412978172302,
				-0.46895650029182434,
				0.04483695700764656
			],
			"type":"VEC3"
		},
		{
			"bufferView":29,
			"componentType":5126,
			"count":28,
			"type":"VEC3"
		},
		{
			"bufferView":30,
			"componentType":5123,
			"count":42,
			"type":"SCALAR"
		},
		{
			"bufferView":31,
			"componentType":5126,
			"count":4,
			"max":[
				0.42777174711227417,
				-0.4602608382701874,
				0.04483695700764656
			],
			"min":[
				0.4212499260902405,
				-0.47439128160476685,
				0.04483695700764656
			],
			"type":"VEC3"
		},
		{
			"bufferView":32,
			"componentType":5126,
			"count":4,
			"type":"VEC3"
		},
		{
			"bufferView":33,
			"componentType":5126,
			"count":292,
			"max":[
				0.04441198706626892,
				-0.1439564824104309,
				0.05788043513894081
			],
			"min":[
				0.011803299188613892,
				-0.18091300129890442,
				-0.007336955517530441
			],
			"type":"VEC3"
		},
		{
			"bufferView":34,
			"componentType":5126,
			"count":292,
			"type":"VEC3"
		},
		{
			"bufferView":35,
			"componentType":5123,
			"count":738,
			"type":"SCALAR"
		},
		{
			"bufferView":36,
			"componentType":5126,
			"count":20,
			"max":[
				0.038977235555648804,
				-0.15047824382781982,
				0.05570651963353157
			],
			"min":[
				0.017238110303878784,
				-0.17765215039253235,
				0.05570651963353157
			],
			"type":"VEC3"
		},
		{
			"bufferView":37,
			"componentType":5126,
			"count":20,
			"type":"VEC3"
		},
		{
			"bufferView":38,
			"componentType":5126,
			"count":4,
			"max":[
				0.02593374252319336,
				-0.16678255796432495,
				0.05570651963353157
			],
			"min":[
				0.017238080501556396,
				-0.18091300129890442,
				0.05570651963353157
			],
			"type":"VEC3"
		},
		{
			"bufferView":39,
			"componentType":5126,
			"count":4,
			"type":"VEC3"
		},
		{
			"bufferView":40,
			"componentType":5126,
			"count":503,
			"max":[
				0.12865114212036133,
				0.05169564485549927,
				0.03614130616188049
			],
			"min":[
				0.0797380805015564,
				0.014739125967025757,
				-0.0073369513265788555
			],
			"type":"VEC3"
		},
		{
			"bufferView":41,
			"componentType":5126,
			"count":503,
			"type":"VEC3"
		},
		{
			"bufferView":42,
			"componentType":5123,
			"count":1476,
			"type":"SCALAR"
		},
		{
			"bufferView":43,
			"componentType":5126,
			"count":32,
			"max":[
				0.12375986576080322,
				0.04517388343811035,
				0.033967386931180954
			],
			"min":[
				0.08462941646575928,
				0.022347837686538696,
				0.033967386931180954
			],
			"type":"VEC3"
		},
		{
			"bufferView":44,
			"componentType":5126,
			"count":32,
			"type":"VEC3"
		},
		{
			"bufferView":45,
			"componentType":5123,
			"count":48,
			"type":"SCALAR"
		},
		{
			"bufferView":46,
			"componentType":5126,
			"count":4,
			"max":[
				0.123759925365448,
				0.028869569301605225,
				0.03396739438176155
			],
			"min":[
				0.11723816394805908,
				0.014739125967025757,
				0.03396739438176155
			],
			"type":"VEC3"
		},
		{
			"bufferView":47,
			"componentType":5126,
			"count":4,
			"type":"VEC3"
		}
	],
	"bufferViews":[
		{
			"buffer":0,
			"byteLength":3696,
			"byteOffset":0,
			"target":34962
		},
		{
			"buffer":0,
			"byteLength":3696,
			"byteOffset":3696,
			"target":34962
		},
		{
			"buffer":0,
			"byteLength":1500,
			"byteOffset":7392,
			"target":34963
		},
		{
			"buffer":0,
			"byteLength":240,
			"byteOffset":8892,
			"target":34962
		},
		{
			"buffer":0,
			"byteLength":240,
			"byteOffset":9132,
			"target":34962
		},
		{
			"buffer":0,
			"byteLength":60,
			"byteOffset":9372,
			"target":34963
		},
		{
			"buffer":0,
			"byteLength":48,
			"byteOffset":9432,
			"target":34962
		},
		{
			"buffer":0,
			"byteLength":48,
			"byteOffset":9480,
			"target":34962
		},
		{
			"buffer":0,
			"byteLength":12,
			"byteOffset":9528,
			"target":34963
		},
		{
			"buffer":0,
			"byteLength":10476,
			"byteOffset":9540,
			"target":34962
		},
		{
			"buffer":0,
			"byteLength":10476,
			"byteOffset":20016,
			"target":34962
		},
		{
			"buffer":0,
			"byteLength":5652,
			"byteOffset":30492,
			"target":34963
		},
		{
			"buffer":0,
			"byteLength":768,
			"byteOffset":36144,
			"target":34962
		},
		{
			"buffer":0,
			"byteLength":768,
			"byteOffset":36912,
			"target":34962
		},
		{
			"buffer":0,
			"byteLength":192,
			"byteOffset":37680,
			"target":34963
		},
		{
			"buffer":0,
			"byteLength":48,
			"byteOffset":37872,
			"target":34962
		},
		{
			"buffer":0,
			"byteLength":48,
			"byteOffset":37920,
			"target":34962
		},
		{
			"buffer":0,
			"byteLength":5772,
			"byteOffset":37968,
			"target":34962
		},
		{
			"buffer":0,
			"byteLength":5772,
			"byteOffset":43740,
			"target":34962
		},
		{
			"buffer":0,
			"byteLength":2778,
			"byteOffset":49512,
			"target":34963
		},
		{
			"buffer":0,
			"byteLength":468,
			"byteOffset":52292,
			"target":34962
		},
		{
			"buffer":0,
			"byteLength":468,
			"byteOffset":52760,
			"target":34962
		},
		{
			"buffer":0,
			"byteLength":126,
			"byteOffset":53228,
			"target":34963
		},
		{
			"buffer":0,
			"byteLength":48,
			"byteOffset":53356,
			"target":34962
		},
		{
			"buffer":0,
			"byteLength":48,
			"byteOffset":53404,
			"target":34962
		},
		{
			"buffer":0,
			"byteLength":6288,
			"byteOffset":53452,
			"target":34962
		},
		{
			"buffer":0,
			"byteLength":6288,
			"byteOffset":59740,
			"target":34962
		},
		{
			"buffer":0,
			"byteLength":2976,
			"byteOffset":66028,
			"target":34963
		},
		{
			"buffer":0,
			"byteLength":336,
			"byteOffset":69004,
			"target":34962
		},
		{
			"buffer":0,
			"byteLength":336,
			"byteOffset":69340,
			"target":34962
		},
		{
			"buffer":0,
			"byteLength":84,
			"byteOffset":69676,
			"target":34963
		},
		{
			"buffer":0,
			"byteLength":48,
			"byteOffset":69760,
			"target":34962
		},
		{
			"buffer":0,
			"byteLength":48,
			"byteOffset":69808,
			"target":34962
		},
		{
			"buffer":0,
			"byteLength":3504,
			"byteOffset":69856,
			"target":34962
		},
		{
			"buffer":0,
			"byteLength":3504,
			"byteOffset":73360,
			"target":34962
		},
		{
			"buffer":0,
			"byteLength":1476,
			"byteOffset":76864,
			"target":34963
		},
		{
			"buffer":0,
			"byteLength":240,
			"byteOffset":78340,
			"target":34962
		},
		{
			"buffer":0,
			"byteLength":240,
			"byteOffset":78580,
			"target":34962
		},
		{
			"buffer":0,
			"byteLength":48,
			"byteOffset":78820,
			"target":34962
		},
		{
			"buffer":0,
			"byteLength":48,
			"byteOffset":78868,
			"target":34962
		},
		{
			"buffer":0,
			"byteLength":6036,
			"byteOffset":78916,
			"target":34962
		},
		{
			"buffer":0,
			"byteLength":6036,
			"byteOffset":84952,
			"target":34962
		},
		{
			"buffer":0,
			"byteLength":2952,
			"byteOffset":90988,
			"target":34963
		},
		{
			"buffer":0,
			"byteLength":384,
			"byteOffset":93940,
			"target":34962
		},
		{
			"buffer":0,
			"byteLength":384,
			"byteOffset":94324,
			"target":34962
		},
		{
			"buffer":0,
			"byteLength":96,
			"byteOffset":94708,
			"target":34963
		},
		{
			"buffer":0,
			"byteLength":48,
			"byteOffset":94804,
			"target":34962
		},
		{
			"buffer":0,
			"byteLength":48,
			"byteOffset":94852,
			"target":34962
		}
	],
	"buffers":[
		{
			"byteLength":94900,
			"uri":"BinaGrup9.bin"
		}
	]
}
