{
	"asset":{
		"generator":"Khronos glTF Blender I/O v4.2.60",
		"version":"2.0"
	},
	"scene":0,
	"scenes":[
		{
			"name":"Scene",
			"nodes":[
				0,
				1,
				2
			]
		}
	],
	"nodes":[
		{
			"mesh":0,
			"name":"Text.015",
			"rotation":[
				0.7071068286895752,
				0,
				0,
				0.7071068286895752
			],
			"scale":[
				0.05252376198768616,
				0.05252376198768616,
				0.05252485349774361
			]
		},
		{
			"mesh":1,
			"name":"Text.013",
			"rotation":[
				0.7071068286895752,
				0,
				0,
				0.7071068286895752
			],
			"scale":[
				0.05252376198768616,
				0.05252376198768616,
				0.05252485349774361
			]
		},
		{
			"mesh":2,
			"name":"Text.012",
			"rotation":[
				0.7071068286895752,
				0,
				0,
				0.7071068286895752
			],
			"scale":[
				0.05252374708652496,
				0.05252374708652496,
				0.05252484977245331
			]
		}
	],
	"materials":[
		{
			"doubleSided":true,
			"name":"Material.005",
			"pbrMetallicRoughness":{
				"baseColorFactor":[
					0,
					0,
					0,
					1
				],
				"metallicFactor":0,
				"roughnessFactor":0.5
			}
		},
		{
			"doubleSided":true,
			"name":"Mat_Roof_Cap.004",
			"pbrMetallicRoughness":{
				"baseColorFactor":[
					0.9822452664375305,
					0.38132646679878235,
					0.0030353753827512264,
					1
				],
				"metallicFactor":0,
				"roughnessFactor":0.699999988079071
			}
		}
	],
	"meshes":[
		{
			"name":"Text.006",
			"primitives":[
				{
					"attributes":{
						"POSITION":0,
						"NORMAL":1,
						"TEXCOORD_0":2
					},
					"indices":3,
					"material":0
				}
			]
		},
		{
			"name":"Text.017",
			"primitives":[
				{
					"attributes":{
						"POSITION":4,
						"NORMAL":5,
						"TEXCOORD_0":6
					},
					"indices":7,
					"material":0
				}
			]
		},
		{
			"name":"Text.016",
			"primitives":[
				{
					"attributes":{
						"POSITION":8,
						"NORMAL":9,
						"TEXCOORD_0":10
					},
					"indices":11,
					"material":1
				}
			]
		}
	],
	"accessors":[
		{
			"bufferView":0,
			"componentType":5126,
			"count":12946,
			"max":[
				-0.8448023200035095,
				-0.028311416506767273,
				-10.08973217010498
			],
			"min":[
				-8.628597259521484,
				-0.068311408162117,
				-10.88024616241455
			],
			"type":"VEC3"
		},
		{
			"bufferView":1,
			"componentType":5126,
			"count":12946,
			"type":"VEC3"
		},
		{
			"bufferView":2,
			"componentType":5126,
			"count":12946,
			"type":"VEC2"
		},
		{
			"bufferView":3,
			"componentType":5123,
			"count":38472,
			"type":"SCALAR"
		},
		{
			"bufferView":4,
			"componentType":5126,
			"count":6729,
			"max":[
				-5.753164768218994,
				-0.03968874365091324,
				-5.891272068023682
			],
			"min":[
				-8.628597259521484,
				-0.13968873023986816,
				-6.681786060333252
			],
			"type":"VEC3"
		},
		{
			"bufferView":5,
			"componentType":5126,
			"count":6729,
			"type":"VEC3"
		},
		{
			"bufferView":6,
			"componentType":5126,
			"count":6729,
			"type":"VEC2"
		},
		{
			"bufferView":7,
			"componentType":5123,
			"count":20040,
			"type":"SCALAR"
		},
		{
			"bufferView":8,
			"componentType":5126,
			"count":11013,
			"max":[
				-0.8021149635314941,
				-0.039688773453235626,
				-5.880829811096191
			],
			"min":[
				-5.519505500793457,
				-0.13968876004219055,
				-6.671343803405762
			],
			"type":"VEC3"
		},
		{
			"bufferView":9,
			"componentType":5126,
			"count":11013,
			"type":"VEC3"
		},
		{
			"bufferView":10,
			"componentType":5126,
			"count":11013,
			"type":"VEC2"
		},
		{
			"bufferView":11,
			"componentType":5123,
			"count":32784,
			"type":"SCALAR"
		}
	],
	"bufferViews":[
		{
			"buffer":0,
			"byteLength":155352,
			"byteOffset":0,
			"target":34962
		},
		{
			"buffer":0,
			"byteLength":155352,
			"byteOffset":155352,
			"target":34962
		},
		{
			"buffer":0,
			"byteLength":103568,
			"byteOffset":310704,
			"target":34962
		},
		{
			"buffer":0,
			"byteLength":76944,
			"byteOffset":414272,
			"target":34963
		},
		{
			"buffer":0,
			"byteLength":80748,
			"byteOffset":491216,
			"target":34962
		},
		{
			"buffer":0,
			"byteLength":80748,
			"byteOffset":571964,
			"target":34962
		},
		{
			"buffer":0,
			"byteLength":53832,
			"byteOffset":652712,
			"target":34962
		},
		{
			"buffer":0,
			"byteLength":40080,
			"byteOffset":706544,
			"target":34963
		},
		{
			"buffer":0,
			"byteLength":132156,
			"byteOffset":746624,
			"target":34962
		},
		{
			"buffer":0,
			"byteLength":132156,
			"byteOffset":878780,
			"target":34962
		},
		{
			"buffer":0,
			"byteLength":88104,
			"byteOffset":1010936,
			"target":34962
		},
		{
			"buffer":0,
			"byteLength":65568,
			"byteOffset":1099040,
			"target":34963
		}
	],
	"buffers":[
		{
			"byteLength":1164608,
			"uri":"Soru.bin"
		}
	]
}
