{
	"asset":{
		"generator":"Khronos glTF Blender I/O v4.2.60",
		"version":"2.0"
	},
	"scene":0,
	"scenes":[
		{
			"name":"Scene",
			"nodes":[
				0,
				1,
				2,
				3,
				4,
				5,
				6,
				7,
				8
			]
		}
	],
	"nodes":[
		{
			"mesh":0,
			"name":"Building_045.011"
		},
		{
			"mesh":1,
			"name":"Building_045.012"
		},
		{
			"mesh":2,
			"name":"Building_045.013"
		},
		{
			"mesh":3,
			"name":"Building_065.011"
		},
		{
			"mesh":4,
			"name":"Building_065.012"
		},
		{
			"mesh":5,
			"name":"Building_065.013"
		},
		{
			"mesh":6,
			"name":"Building_050.011"
		},
		{
			"mesh":7,
			"name":"Building_050.012"
		},
		{
			"mesh":8,
			"name":"Building_050.013"
		}
	],
	"materials":[
		{
			"doubleSided":true,
			"name":"BinaGrid",
			"pbrMetallicRoughness":{
				"baseColorFactor":[
					0.0009104993660002947,
					0.04091522842645645,
					0.06662598252296448,
					1
				],
				"metallicFactor":0,
				"roughnessFactor":0.5
			}
		},
		{
			"doubleSided":true,
			"name":"PencereGrid",
			"pbrMetallicRoughness":{
				"baseColorFactor":[
					0.1328672468662262,
					0.26635584235191345,
					0.31854695081710815,
					1
				],
				"metallicFactor":0,
				"roughnessFactor":0.699999988079071
			}
		},
		{
			"doubleSided":true,
			"name":"Kap\u0131Grid",
			"pbrMetallicRoughness":{
				"baseColorFactor":[
					0,
					0.01161225512623787,
					0.016807379201054573,
					1
				],
				"metallicFactor":0,
				"roughnessFactor":0.699999988079071
			}
		}
	],
	"meshes":[
		{
			"name":"Building_045_Mesh.002",
			"primitives":[
				{
					"attributes":{
						"POSITION":0,
						"NORMAL":1
					},
					"indices":2,
					"material":0
				}
			]
		},
		{
			"name":"Building_045_Mesh.012",
			"primitives":[
				{
					"attributes":{
						"POSITION":3,
						"NORMAL":4
					},
					"indices":5,
					"material":1
				}
			]
		},
		{
			"name":"Building_045_Mesh.013",
			"primitives":[
				{
					"attributes":{
						"POSITION":6,
						"NORMAL":7
					},
					"indices":8,
					"material":2
				}
			]
		},
		{
			"name":"Building_065_Mesh.002",
			"primitives":[
				{
					"attributes":{
						"POSITION":9,
						"NORMAL":10
					},
					"indices":11,
					"material":0
				}
			]
		},
		{
			"name":"Building_065_Mesh.012",
			"primitives":[
				{
					"attributes":{
						"POSITION":12,
						"NORMAL":13
					},
					"indices":14,
					"material":1
				}
			]
		},
		{
			"name":"Building_065_Mesh.013",
			"primitives":[
				{
					"attributes":{
						"POSITION":15,
						"NORMAL":16
					},
					"indices":8,
					"material":2
				}
			]
		},
		{
			"name":"Building_050_Mesh.002",
			"primitives":[
				{
					"attributes":{
						"POSITION":17,
						"NORMAL":18
					},
					"indices":19,
					"material":0
				}
			]
		},
		{
			"name":"Building_050_Mesh.012",
			"primitives":[
				{
					"attributes":{
						"POSITION":20,
						"NORMAL":21
					},
					"indices":22,
					"material":1
				}
			]
		},
		{
			"name":"Building_050_Mesh.013",
			"primitives":[
				{
					"attributes":{
						"POSITION":23,
						"NORMAL":24
					},
					"indices":8,
					"material":2
				}
			]
		}
	],
	"accessors":[
		{
			"bufferView":0,
			"componentType":5126,
			"count":292,
			"max":[
				0.04441198706626892,
				-0.1439564824104309,
				0.05788043513894081
			],
			"min":[
				0.011803299188613892,
				-0.18091300129890442,
				-0.007336955517530441
			],
			"type":"VEC3"
		},
		{
			"bufferView":1,
			"componentType":5126,
			"count":292,
			"type":"VEC3"
		},
		{
			"bufferView":2,
			"componentType":5123,
			"count":738,
			"type":"SCALAR"
		},
		{
			"bufferView":3,
			"componentType":5126,
			"count":20,
			"max":[
				0.038977235555648804,
				-0.15047824382781982,
				0.05570651963353157
			],
			"min":[
				0.017238110303878784,
				-0.17765215039253235,
				0.05570651963353157
			],
			"type":"VEC3"
		},
		{
			"bufferView":4,
			"componentType":5126,
			"count":20,
			"type":"VEC3"
		},
		{
			"bufferView":5,
			"componentType":5123,
			"count":30,
			"type":"SCALAR"
		},
		{
			"bufferView":6,
			"componentType":5126,
			"count":4,
			"max":[
				0.02593374252319336,
				-0.16678255796432495,
				0.05570651963353157
			],
			"min":[
				0.017238080501556396,
				-0.18091300129890442,
				0.05570651963353157
			],
			"type":"VEC3"
		},
		{
			"bufferView":7,
			"componentType":5126,
			"count":4,
			"type":"VEC3"
		},
		{
			"bufferView":8,
			"componentType":5123,
			"count":6,
			"type":"SCALAR"
		},
		{
			"bufferView":9,
			"componentType":5126,
			"count":820,
			"max":[
				0.2808249592781067,
				-0.029826074838638306,
				0.057880427688360214
			],
			"min":[
				0.23191189765930176,
				-0.08308693766593933,
				-0.007336955517530441
			],
			"type":"VEC3"
		},
		{
			"bufferView":10,
			"componentType":5126,
			"count":820,
			"type":"VEC3"
		},
		{
			"bufferView":11,
			"componentType":5123,
			"count":2664,
			"type":"SCALAR"
		},
		{
			"bufferView":12,
			"componentType":5126,
			"count":48,
			"max":[
				0.27593374252319336,
				-0.036347776651382446,
				0.05570651963353157
			],
			"min":[
				0.23680329322814941,
				-0.07765215635299683,
				0.05570651963353157
			],
			"type":"VEC3"
		},
		{
			"bufferView":13,
			"componentType":5126,
			"count":48,
			"type":"VEC3"
		},
		{
			"bufferView":14,
			"componentType":5123,
			"count":72,
			"type":"SCALAR"
		},
		{
			"bufferView":15,
			"componentType":5126,
			"count":4,
			"max":[
				0.2433251142501831,
				-0.06895646452903748,
				0.05570651963353157
			],
			"min":[
				0.23680329322814941,
				-0.08308693766593933,
				0.05570651963353157
			],
			"type":"VEC3"
		},
		{
			"bufferView":16,
			"componentType":5126,
			"count":4,
			"type":"VEC3"
		},
		{
			"bufferView":17,
			"componentType":5126,
			"count":503,
			"max":[
				0.12865114212036133,
				0.05169564485549927,
				0.03614130616188049
			],
			"min":[
				0.0797380805015564,
				0.014739125967025757,
				-0.0073369513265788555
			],
			"type":"VEC3"
		},
		{
			"bufferView":18,
			"componentType":5126,
			"count":503,
			"type":"VEC3"
		},
		{
			"bufferView":19,
			"componentType":5123,
			"count":1476,
			"type":"SCALAR"
		},
		{
			"bufferView":20,
			"componentType":5126,
			"count":32,
			"max":[
				0.12375986576080322,
				0.04517388343811035,
				0.033967386931180954
			],
			"min":[
				0.08462941646575928,
				0.022347837686538696,
				0.033967386931180954
			],
			"type":"VEC3"
		},
		{
			"bufferView":21,
			"componentType":5126,
			"count":32,
			"type":"VEC3"
		},
		{
			"bufferView":22,
			"componentType":5123,
			"count":48,
			"type":"SCALAR"
		},
		{
			"bufferView":23,
			"componentType":5126,
			"count":4,
			"max":[
				0.123759925365448,
				0.028869569301605225,
				0.03396739438176155
			],
			"min":[
				0.11723816394805908,
				0.014739125967025757,
				0.03396739438176155
			],
			"type":"VEC3"
		},
		{
			"bufferView":24,
			"componentType":5126,
			"count":4,
			"type":"VEC3"
		}
	],
	"bufferViews":[
		{
			"buffer":0,
			"byteLength":3504,
			"byteOffset":0,
			"target":34962
		},
		{
			"buffer":0,
			"byteLength":3504,
			"byteOffset":3504,
			"target":34962
		},
		{
			"buffer":0,
			"byteLength":1476,
			"byteOffset":7008,
			"target":34963
		},
		{
			"buffer":0,
			"byteLength":240,
			"byteOffset":8484,
			"target":34962
		},
		{
			"buffer":0,
			"byteLength":240,
			"byteOffset":8724,
			"target":34962
		},
		{
			"buffer":0,
			"byteLength":60,
			"byteOffset":8964,
			"target":34963
		},
		{
			"buffer":0,
			"byteLength":48,
			"byteOffset":9024,
			"target":34962
		},
		{
			"buffer":0,
			"byteLength":48,
			"byteOffset":9072,
			"target":34962
		},
		{
			"buffer":0,
			"byteLength":12,
			"byteOffset":9120,
			"target":34963
		},
		{
			"buffer":0,
			"byteLength":9840,
			"byteOffset":9132,
			"target":34962
		},
		{
			"buffer":0,
			"byteLength":9840,
			"byteOffset":18972,
			"target":34962
		},
		{
			"buffer":0,
			"byteLength":5328,
			"byteOffset":28812,
			"target":34963
		},
		{
			"buffer":0,
			"byteLength":576,
			"byteOffset":34140,
			"target":34962
		},
		{
			"buffer":0,
			"byteLength":576,
			"byteOffset":34716,
			"target":34962
		},
		{
			"buffer":0,
			"byteLength":144,
			"byteOffset":35292,
			"target":34963
		},
		{
			"buffer":0,
			"byteLength":48,
			"byteOffset":35436,
			"target":34962
		},
		{
			"buffer":0,
			"byteLength":48,
			"byteOffset":35484,
			"target":34962
		},
		{
			"buffer":0,
			"byteLength":6036,
			"byteOffset":35532,
			"target":34962
		},
		{
			"buffer":0,
			"byteLength":6036,
			"byteOffset":41568,
			"target":34962
		},
		{
			"buffer":0,
			"byteLength":2952,
			"byteOffset":47604,
			"target":34963
		},
		{
			"buffer":0,
			"byteLength":384,
			"byteOffset":50556,
			"target":34962
		},
		{
			"buffer":0,
			"byteLength":384,
			"byteOffset":50940,
			"target":34962
		},
		{
			"buffer":0,
			"byteLength":96,
			"byteOffset":51324,
			"target":34963
		},
		{
			"buffer":0,
			"byteLength":48,
			"byteOffset":51420,
			"target":34962
		},
		{
			"buffer":0,
			"byteLength":48,
			"byteOffset":51468,
			"target":34962
		}
	],
	"buffers":[
		{
			"byteLength":51516,
			"uri":"BinaGrup12.bin"
		}
	]
}
