{
	"asset":{
		"generator":"Khronos glTF Blender I/O v4.2.60",
		"version":"2.0"
	},
	"scene":0,
	"scenes":[
		{
			"name":"Scene",
			"nodes":[
				0,
				1,
				2,
				3,
				4,
				5,
				6,
				7,
				8
			]
		}
	],
	"nodes":[
		{
			"mesh":0,
			"name":"Building_063.011"
		},
		{
			"mesh":1,
			"name":"Building_063.012"
		},
		{
			"mesh":2,
			"name":"Building_063.013"
		},
		{
			"mesh":3,
			"name":"Building_060.011"
		},
		{
			"mesh":4,
			"name":"Building_060.012"
		},
		{
			"mesh":5,
			"name":"Building_060.013"
		},
		{
			"mesh":6,
			"name":"Building_022.011"
		},
		{
			"mesh":7,
			"name":"Building_022.012"
		},
		{
			"mesh":8,
			"name":"Building_022.013"
		}
	],
	"materials":[
		{
			"doubleSided":true,
			"name":"BinaGrid",
			"pbrMetallicRoughness":{
				"baseColorFactor":[
					0.0009104993660002947,
					0.04091522842645645,
					0.06662598252296448,
					1
				],
				"metallicFactor":0,
				"roughnessFactor":0.5
			}
		},
		{
			"doubleSided":true,
			"name":"PencereGrid",
			"pbrMetallicRoughness":{
				"baseColorFactor":[
					0.1328672468662262,
					0.26635584235191345,
					0.31854695081710815,
					1
				],
				"metallicFactor":0,
				"roughnessFactor":0.699999988079071
			}
		},
		{
			"doubleSided":true,
			"name":"Kap\u0131Grid",
			"pbrMetallicRoughness":{
				"baseColorFactor":[
					0,
					0.01161225512623787,
					0.016807379201054573,
					1
				],
				"metallicFactor":0,
				"roughnessFactor":0.699999988079071
			}
		}
	],
	"meshes":[
		{
			"name":"Building_063_Mesh.002",
			"primitives":[
				{
					"attributes":{
						"POSITION":0,
						"NORMAL":1
					},
					"indices":2,
					"material":0
				}
			]
		},
		{
			"name":"Building_063_Mesh.012",
			"primitives":[
				{
					"attributes":{
						"POSITION":3,
						"NORMAL":4
					},
					"indices":5,
					"material":1
				}
			]
		},
		{
			"name":"Building_063_Mesh.013",
			"primitives":[
				{
					"attributes":{
						"POSITION":6,
						"NORMAL":7
					},
					"indices":8,
					"material":2
				}
			]
		},
		{
			"name":"Building_060_Mesh.002",
			"primitives":[
				{
					"attributes":{
						"POSITION":9,
						"NORMAL":10
					},
					"indices":11,
					"material":0
				}
			]
		},
		{
			"name":"Building_060_Mesh.012",
			"primitives":[
				{
					"attributes":{
						"POSITION":12,
						"NORMAL":13
					},
					"indices":14,
					"material":1
				}
			]
		},
		{
			"name":"Building_060_Mesh.013",
			"primitives":[
				{
					"attributes":{
						"POSITION":15,
						"NORMAL":16
					},
					"indices":8,
					"material":2
				}
			]
		},
		{
			"name":"Building_022_Mesh.002",
			"primitives":[
				{
					"attributes":{
						"POSITION":17,
						"NORMAL":18
					},
					"indices":19,
					"material":0
				}
			]
		},
		{
			"name":"Building_022_Mesh.012",
			"primitives":[
				{
					"attributes":{
						"POSITION":20,
						"NORMAL":21
					},
					"indices":22,
					"material":1
				}
			]
		},
		{
			"name":"Building_022_Mesh.013",
			"primitives":[
				{
					"attributes":{
						"POSITION":23,
						"NORMAL":24
					},
					"indices":8,
					"material":2
				}
			]
		}
	],
	"accessors":[
		{
			"bufferView":0,
			"componentType":5126,
			"count":884,
			"max":[
				0.2808249592781067,
				0.174521803855896,
				0.036141302436590195
			],
			"min":[
				0.23191189765930176,
				0.11256533861160278,
				-0.007336955517530441
			],
			"type":"VEC3"
		},
		{
			"bufferView":1,
			"componentType":5126,
			"count":884,
			"type":"VEC3"
		},
		{
			"bufferView":2,
			"componentType":5123,
			"count":2829,
			"type":"SCALAR"
		},
		{
			"bufferView":3,
			"componentType":5126,
			"count":63,
			"max":[
				0.27593374252319336,
				0.15930438041687012,
				0.03396739438176155
			],
			"min":[
				0.23680329322814941,
				0.12017399072647095,
				0.03396739438176155
			],
			"type":"VEC3"
		},
		{
			"bufferView":4,
			"componentType":5126,
			"count":63,
			"type":"VEC3"
		},
		{
			"bufferView":5,
			"componentType":5123,
			"count":93,
			"type":"SCALAR"
		},
		{
			"bufferView":6,
			"componentType":5126,
			"count":4,
			"max":[
				0.27593374252319336,
				0.1266956925392151,
				0.03396739438176155
			],
			"min":[
				0.26941198110580444,
				0.11256527900695801,
				0.03396739438176155
			],
			"type":"VEC3"
		},
		{
			"bufferView":7,
			"componentType":5126,
			"count":4,
			"type":"VEC3"
		},
		{
			"bufferView":8,
			"componentType":5123,
			"count":6,
			"type":"SCALAR"
		},
		{
			"bufferView":9,
			"componentType":5126,
			"count":800,
			"max":[
				0.2047380805015564,
				-0.22547824680805206,
				0.03614130616188049
			],
			"min":[
				0.15582501888275146,
				-0.2787390947341919,
				-0.0073369513265788555
			],
			"type":"VEC3"
		},
		{
			"bufferView":10,
			"componentType":5126,
			"count":800,
			"type":"VEC3"
		},
		{
			"bufferView":11,
			"componentType":5123,
			"count":2664,
			"type":"SCALAR"
		},
		{
			"bufferView":12,
			"componentType":5126,
			"count":48,
			"max":[
				0.19984674453735352,
				-0.2319999784231186,
				0.03396739438176155
			],
			"min":[
				0.16071629524230957,
				-0.27113041281700134,
				0.03396739438176155
			],
			"type":"VEC3"
		},
		{
			"bufferView":13,
			"componentType":5126,
			"count":48,
			"type":"VEC3"
		},
		{
			"bufferView":14,
			"componentType":5123,
			"count":72,
			"type":"SCALAR"
		},
		{
			"bufferView":15,
			"componentType":5126,
			"count":4,
			"max":[
				0.1672380566596985,
				-0.2646086513996124,
				0.03396739438176155
			],
			"min":[
				0.16071629524230957,
				-0.2787390947341919,
				0.03396739438176155
			],
			"type":"VEC3"
		},
		{
			"bufferView":16,
			"componentType":5126,
			"count":4,
			"type":"VEC3"
		},
		{
			"bufferView":17,
			"componentType":5126,
			"count":857,
			"max":[
				-0.17569667100906372,
				0.07669562101364136,
				0.057880427688360214
			],
			"min":[
				-0.22460971772670746,
				0.014739125967025757,
				-0.007336955517530441
			],
			"type":"VEC3"
		},
		{
			"bufferView":18,
			"componentType":5126,
			"count":857,
			"type":"VEC3"
		},
		{
			"bufferView":19,
			"componentType":5123,
			"count":2730,
			"type":"SCALAR"
		},
		{
			"bufferView":20,
			"componentType":5126,
			"count":60,
			"max":[
				-0.18058796226978302,
				0.061478257179260254,
				0.05570651963353157
			],
			"min":[
				-0.21971839666366577,
				0.017999976873397827,
				0.05570651963353157
			],
			"type":"VEC3"
		},
		{
			"bufferView":21,
			"componentType":5126,
			"count":60,
			"type":"VEC3"
		},
		{
			"bufferView":22,
			"componentType":5123,
			"count":90,
			"type":"SCALAR"
		},
		{
			"bufferView":23,
			"componentType":5126,
			"count":4,
			"max":[
				-0.19145752489566803,
				0.028869569301605225,
				0.05570651963353157
			],
			"min":[
				-0.20884883403778076,
				0.014739125967025757,
				0.05570651963353157
			],
			"type":"VEC3"
		},
		{
			"bufferView":24,
			"componentType":5126,
			"count":4,
			"type":"VEC3"
		}
	],
	"bufferViews":[
		{
			"buffer":0,
			"byteLength":10608,
			"byteOffset":0,
			"target":34962
		},
		{
			"buffer":0,
			"byteLength":10608,
			"byteOffset":10608,
			"target":34962
		},
		{
			"buffer":0,
			"byteLength":5658,
			"byteOffset":21216,
			"target":34963
		},
		{
			"buffer":0,
			"byteLength":756,
			"byteOffset":26876,
			"target":34962
		},
		{
			"buffer":0,
			"byteLength":756,
			"byteOffset":27632,
			"target":34962
		},
		{
			"buffer":0,
			"byteLength":186,
			"byteOffset":28388,
			"target":34963
		},
		{
			"buffer":0,
			"byteLength":48,
			"byteOffset":28576,
			"target":34962
		},
		{
			"buffer":0,
			"byteLength":48,
			"byteOffset":28624,
			"target":34962
		},
		{
			"buffer":0,
			"byteLength":12,
			"byteOffset":28672,
			"target":34963
		},
		{
			"buffer":0,
			"byteLength":9600,
			"byteOffset":28684,
			"target":34962
		},
		{
			"buffer":0,
			"byteLength":9600,
			"byteOffset":38284,
			"target":34962
		},
		{
			"buffer":0,
			"byteLength":5328,
			"byteOffset":47884,
			"target":34963
		},
		{
			"buffer":0,
			"byteLength":576,
			"byteOffset":53212,
			"target":34962
		},
		{
			"buffer":0,
			"byteLength":576,
			"byteOffset":53788,
			"target":34962
		},
		{
			"buffer":0,
			"byteLength":144,
			"byteOffset":54364,
			"target":34963
		},
		{
			"buffer":0,
			"byteLength":48,
			"byteOffset":54508,
			"target":34962
		},
		{
			"buffer":0,
			"byteLength":48,
			"byteOffset":54556,
			"target":34962
		},
		{
			"buffer":0,
			"byteLength":10284,
			"byteOffset":54604,
			"target":34962
		},
		{
			"buffer":0,
			"byteLength":10284,
			"byteOffset":64888,
			"target":34962
		},
		{
			"buffer":0,
			"byteLength":5460,
			"byteOffset":75172,
			"target":34963
		},
		{
			"buffer":0,
			"byteLength":720,
			"byteOffset":80632,
			"target":34962
		},
		{
			"buffer":0,
			"byteLength":720,
			"byteOffset":81352,
			"target":34962
		},
		{
			"buffer":0,
			"byteLength":180,
			"byteOffset":82072,
			"target":34963
		},
		{
			"buffer":0,
			"byteLength":48,
			"byteOffset":82252,
			"target":34962
		},
		{
			"buffer":0,
			"byteLength":48,
			"byteOffset":82300,
			"target":34962
		}
	],
	"buffers":[
		{
			"byteLength":82348,
			"uri":"BinaGrup4.bin"
		}
	]
}
