{
	"asset":{
		"generator":"Khronos glTF Blender I/O v4.2.60",
		"version":"2.0"
	},
	"scene":0,
	"scenes":[
		{
			"name":"Scene",
			"nodes":[
				0,
				1,
				2,
				3,
				4,
				5,
				6,
				7,
				8
			]
		}
	],
	"nodes":[
		{
			"mesh":0,
			"name":"Building_024.011"
		},
		{
			"mesh":1,
			"name":"Building_024.012"
		},
		{
			"mesh":2,
			"name":"Building_024.013"
		},
		{
			"mesh":3,
			"name":"Building_033.011"
		},
		{
			"mesh":4,
			"name":"Building_033.012"
		},
		{
			"mesh":5,
			"name":"Building_033.013"
		},
		{
			"mesh":6,
			"name":"Building_057.011"
		},
		{
			"mesh":7,
			"name":"Building_057.012"
		},
		{
			"mesh":8,
			"name":"Building_057.013"
		}
	],
	"materials":[
		{
			"doubleSided":true,
			"name":"BinaGrid",
			"pbrMetallicRoughness":{
				"baseColorFactor":[
					0.0009104993660002947,
					0.04091522842645645,
					0.06662598252296448,
					1
				],
				"metallicFactor":0,
				"roughnessFactor":0.5
			}
		},
		{
			"doubleSided":true,
			"name":"PencereGrid",
			"pbrMetallicRoughness":{
				"baseColorFactor":[
					0.1328672468662262,
					0.26635584235191345,
					0.31854695081710815,
					1
				],
				"metallicFactor":0,
				"roughnessFactor":0.699999988079071
			}
		},
		{
			"doubleSided":true,
			"name":"Kap\u0131Grid",
			"pbrMetallicRoughness":{
				"baseColorFactor":[
					0,
					0.01161225512623787,
					0.016807379201054573,
					1
				],
				"metallicFactor":0,
				"roughnessFactor":0.699999988079071
			}
		}
	],
	"meshes":[
		{
			"name":"Building_024_Mesh.002",
			"primitives":[
				{
					"attributes":{
						"POSITION":0,
						"NORMAL":1
					},
					"indices":2,
					"material":0
				}
			]
		},
		{
			"name":"Building_024_Mesh.012",
			"primitives":[
				{
					"attributes":{
						"POSITION":3,
						"NORMAL":4
					},
					"indices":5,
					"material":1
				}
			]
		},
		{
			"name":"Building_024_Mesh.013",
			"primitives":[
				{
					"attributes":{
						"POSITION":6,
						"NORMAL":7
					},
					"indices":8,
					"material":2
				}
			]
		},
		{
			"name":"Building_033_Mesh.002",
			"primitives":[
				{
					"attributes":{
						"POSITION":9,
						"NORMAL":10
					},
					"indices":11,
					"material":0
				}
			]
		},
		{
			"name":"Building_033_Mesh.012",
			"primitives":[
				{
					"attributes":{
						"POSITION":12,
						"NORMAL":13
					},
					"indices":14,
					"material":1
				}
			]
		},
		{
			"name":"Building_033_Mesh.013",
			"primitives":[
				{
					"attributes":{
						"POSITION":15,
						"NORMAL":16
					},
					"indices":8,
					"material":2
				}
			]
		},
		{
			"name":"Building_057_Mesh.002",
			"primitives":[
				{
					"attributes":{
						"POSITION":17,
						"NORMAL":18
					},
					"indices":19,
					"material":0
				}
			]
		},
		{
			"name":"Building_057_Mesh.012",
			"primitives":[
				{
					"attributes":{
						"POSITION":20,
						"NORMAL":21
					},
					"indices":22,
					"material":1
				}
			]
		},
		{
			"name":"Building_057_Mesh.013",
			"primitives":[
				{
					"attributes":{
						"POSITION":23,
						"NORMAL":24
					},
					"indices":8,
					"material":2
				}
			]
		}
	],
	"accessors":[
		{
			"bufferView":0,
			"componentType":5126,
			"count":831,
			"max":[
				-0.17569667100906372,
				-0.1276521384716034,
				0.036141302436590195
			],
			"min":[
				-0.22460971772670746,
				-0.18091300129890442,
				-0.007336955517530441
			],
			"type":"VEC3"
		},
		{
			"bufferView":1,
			"componentType":5126,
			"count":831,
			"type":"VEC3"
		},
		{
			"bufferView":2,
			"componentType":5123,
			"count":2724,
			"type":"SCALAR"
		},
		{
			"bufferView":3,
			"componentType":5126,
			"count":56,
			"max":[
				-0.1805879771709442,
				-0.13417387008666992,
				0.03396739438176155
			],
			"min":[
				-0.21971841156482697,
				-0.17547819018363953,
				0.03396739438176155
			],
			"type":"VEC3"
		},
		{
			"bufferView":4,
			"componentType":5126,
			"count":56,
			"type":"VEC3"
		},
		{
			"bufferView":5,
			"componentType":5123,
			"count":84,
			"type":"SCALAR"
		},
		{
			"bufferView":6,
			"componentType":5126,
			"count":4,
			"max":[
				-0.19145752489566803,
				-0.16678255796432495,
				0.03396739438176155
			],
			"min":[
				-0.20884883403778076,
				-0.18091300129890442,
				0.03396739438176155
			],
			"type":"VEC3"
		},
		{
			"bufferView":7,
			"componentType":5126,
			"count":4,
			"type":"VEC3"
		},
		{
			"bufferView":8,
			"componentType":5123,
			"count":6,
			"type":"SCALAR"
		},
		{
			"bufferView":9,
			"componentType":5126,
			"count":481,
			"max":[
				-0.10776185989379883,
				-0.32330432534217834,
				0.036141302436590195
			],
			"min":[
				-0.14037057757377625,
				-0.37656518816947937,
				-0.007336955517530441
			],
			"type":"VEC3"
		},
		{
			"bufferView":10,
			"componentType":5126,
			"count":481,
			"type":"VEC3"
		},
		{
			"bufferView":11,
			"componentType":5123,
			"count":1392,
			"type":"SCALAR"
		},
		{
			"bufferView":12,
			"componentType":5126,
			"count":38,
			"max":[
				-0.11319667100906372,
				-0.3298260569572449,
				0.033967386931180954
			],
			"min":[
				-0.13493579626083374,
				-0.3689565062522888,
				0.033967386931180954
			],
			"type":"VEC3"
		},
		{
			"bufferView":13,
			"componentType":5126,
			"count":38,
			"type":"VEC3"
		},
		{
			"bufferView":14,
			"componentType":5123,
			"count":60,
			"type":"SCALAR"
		},
		{
			"bufferView":15,
			"componentType":5126,
			"count":4,
			"max":[
				-0.11319664120674133,
				-0.3624347448348999,
				0.03396739438176155
			],
			"min":[
				-0.12189233303070068,
				-0.37656518816947937,
				0.03396739438176155
			],
			"type":"VEC3"
		},
		{
			"bufferView":16,
			"componentType":5126,
			"count":4,
			"type":"VEC3"
		},
		{
			"bufferView":17,
			"componentType":5126,
			"count":477,
			"max":[
				0.19658589363098145,
				0.06800001859664917,
				0.05788043513894081
			],
			"min":[
				0.1639772653579712,
				0.014739125967025757,
				-0.007336955517530441
			],
			"type":"VEC3"
		},
		{
			"bufferView":18,
			"componentType":5126,
			"count":477,
			"type":"VEC3"
		},
		{
			"bufferView":19,
			"componentType":5123,
			"count":1386,
			"type":"SCALAR"
		},
		{
			"bufferView":20,
			"componentType":5126,
			"count":36,
			"max":[
				0.1911512017250061,
				0.061478257179260254,
				0.05570651963353157
			],
			"min":[
				0.1694120168685913,
				0.02017390727996826,
				0.05570651963353157
			],
			"type":"VEC3"
		},
		{
			"bufferView":21,
			"componentType":5126,
			"count":36,
			"type":"VEC3"
		},
		{
			"bufferView":22,
			"componentType":5123,
			"count":54,
			"type":"SCALAR"
		},
		{
			"bufferView":23,
			"componentType":5126,
			"count":4,
			"max":[
				0.17810767889022827,
				0.028869569301605225,
				0.05570651963353157
			],
			"min":[
				0.1694120168685913,
				0.014739125967025757,
				0.05570651963353157
			],
			"type":"VEC3"
		},
		{
			"bufferView":24,
			"componentType":5126,
			"count":4,
			"type":"VEC3"
		}
	],
	"bufferViews":[
		{
			"buffer":0,
			"byteLength":9972,
			"byteOffset":0,
			"target":34962
		},
		{
			"buffer":0,
			"byteLength":9972,
			"byteOffset":9972,
			"target":34962
		},
		{
			"buffer":0,
			"byteLength":5448,
			"byteOffset":19944,
			"target":34963
		},
		{
			"buffer":0,
			"byteLength":672,
			"byteOffset":25392,
			"target":34962
		},
		{
			"buffer":0,
			"byteLength":672,
			"byteOffset":26064,
			"target":34962
		},
		{
			"buffer":0,
			"byteLength":168,
			"byteOffset":26736,
			"target":34963
		},
		{
			"buffer":0,
			"byteLength":48,
			"byteOffset":26904,
			"target":34962
		},
		{
			"buffer":0,
			"byteLength":48,
			"byteOffset":26952,
			"target":34962
		},
		{
			"buffer":0,
			"byteLength":12,
			"byteOffset":27000,
			"target":34963
		},
		{
			"buffer":0,
			"byteLength":5772,
			"byteOffset":27012,
			"target":34962
		},
		{
			"buffer":0,
			"byteLength":5772,
			"byteOffset":32784,
			"target":34962
		},
		{
			"buffer":0,
			"byteLength":2784,
			"byteOffset":38556,
			"target":34963
		},
		{
			"buffer":0,
			"byteLength":456,
			"byteOffset":41340,
			"target":34962
		},
		{
			"buffer":0,
			"byteLength":456,
			"byteOffset":41796,
			"target":34962
		},
		{
			"buffer":0,
			"byteLength":120,
			"byteOffset":42252,
			"target":34963
		},
		{
			"buffer":0,
			"byteLength":48,
			"byteOffset":42372,
			"target":34962
		},
		{
			"buffer":0,
			"byteLength":48,
			"byteOffset":42420,
			"target":34962
		},
		{
			"buffer":0,
			"byteLength":5724,
			"byteOffset":42468,
			"target":34962
		},
		{
			"buffer":0,
			"byteLength":5724,
			"byteOffset":48192,
			"target":34962
		},
		{
			"buffer":0,
			"byteLength":2772,
			"byteOffset":53916,
			"target":34963
		},
		{
			"buffer":0,
			"byteLength":432,
			"byteOffset":56688,
			"target":34962
		},
		{
			"buffer":0,
			"byteLength":432,
			"byteOffset":57120,
			"target":34962
		},
		{
			"buffer":0,
			"byteLength":108,
			"byteOffset":57552,
			"target":34963
		},
		{
			"buffer":0,
			"byteLength":48,
			"byteOffset":57660,
			"target":34962
		},
		{
			"buffer":0,
			"byteLength":48,
			"byteOffset":57708,
			"target":34962
		}
	],
	"buffers":[
		{
			"byteLength":57756,
			"uri":"BinaGrup2.bin"
		}
	]
}
