{
	"asset":{
		"generator":"Khronos glTF Blender I/O v4.2.60",
		"version":"2.0"
	},
	"scene":0,
	"scenes":[
		{
			"name":"Scene",
			"nodes":[
				0,
				1,
				2,
				3,
				4,
				5,
				6,
				7,
				8
			]
		}
	],
	"nodes":[
		{
			"mesh":0,
			"name":"Building_032.011"
		},
		{
			"mesh":1,
			"name":"Building_032.012"
		},
		{
			"mesh":2,
			"name":"Building_032.013"
		},
		{
			"mesh":3,
			"name":"Building_038.011"
		},
		{
			"mesh":4,
			"name":"Building_038.012"
		},
		{
			"mesh":5,
			"name":"Building_038.013"
		},
		{
			"mesh":6,
			"name":"Building_047.011"
		},
		{
			"mesh":7,
			"name":"Building_047.012"
		},
		{
			"mesh":8,
			"name":"Building_047.013"
		}
	],
	"materials":[
		{
			"doubleSided":true,
			"name":"BinaGrid",
			"pbrMetallicRoughness":{
				"baseColorFactor":[
					0.0009104993660002947,
					0.04091522842645645,
					0.06662598252296448,
					1
				],
				"metallicFactor":0,
				"roughnessFactor":0.5
			}
		},
		{
			"doubleSided":true,
			"name":"PencereGrid",
			"pbrMetallicRoughness":{
				"baseColorFactor":[
					0.1328672468662262,
					0.26635584235191345,
					0.31854695081710815,
					1
				],
				"metallicFactor":0,
				"roughnessFactor":0.699999988079071
			}
		},
		{
			"doubleSided":true,
			"name":"Kap\u0131Grid",
			"pbrMetallicRoughness":{
				"baseColorFactor":[
					0,
					0.01161225512623787,
					0.016807379201054573,
					1
				],
				"metallicFactor":0,
				"roughnessFactor":0.699999988079071
			}
		}
	],
	"meshes":[
		{
			"name":"Building_032_Mesh.002",
			"primitives":[
				{
					"attributes":{
						"POSITION":0,
						"NORMAL":1
					},
					"indices":2,
					"material":0
				}
			]
		},
		{
			"name":"Building_032_Mesh.012",
			"primitives":[
				{
					"attributes":{
						"POSITION":3,
						"NORMAL":4
					},
					"indices":5,
					"material":1
				}
			]
		},
		{
			"name":"Building_032_Mesh.013",
			"primitives":[
				{
					"attributes":{
						"POSITION":6,
						"NORMAL":7
					},
					"indices":8,
					"material":2
				}
			]
		},
		{
			"name":"Building_038_Mesh.002",
			"primitives":[
				{
					"attributes":{
						"POSITION":9,
						"NORMAL":10
					},
					"indices":11,
					"material":0
				}
			]
		},
		{
			"name":"Building_038_Mesh.012",
			"primitives":[
				{
					"attributes":{
						"POSITION":12,
						"NORMAL":13
					},
					"indices":14,
					"material":1
				}
			]
		},
		{
			"name":"Building_038_Mesh.013",
			"primitives":[
				{
					"attributes":{
						"POSITION":15,
						"NORMAL":16
					},
					"indices":8,
					"material":2
				}
			]
		},
		{
			"name":"Building_047_Mesh.002",
			"primitives":[
				{
					"attributes":{
						"POSITION":17,
						"NORMAL":18
					},
					"indices":19,
					"material":0
				}
			]
		},
		{
			"name":"Building_047_Mesh.012",
			"primitives":[
				{
					"attributes":{
						"POSITION":20,
						"NORMAL":21
					},
					"indices":22,
					"material":1
				}
			]
		},
		{
			"name":"Building_047_Mesh.013",
			"primitives":[
				{
					"attributes":{
						"POSITION":23,
						"NORMAL":24
					},
					"indices":8,
					"material":2
				}
			]
		}
	],
	"accessors":[
		{
			"bufferView":0,
			"componentType":5126,
			"count":496,
			"max":[
				-0.09960973262786865,
				-0.23308691382408142,
				0.03614130616188049
			],
			"min":[
				-0.1485227644443512,
				-0.2787390947341919,
				-0.0073369513265788555
			],
			"type":"VEC3"
		},
		{
			"bufferView":1,
			"componentType":5126,
			"count":496,
			"type":"VEC3"
		},
		{
			"bufferView":2,
			"componentType":5123,
			"count":1416,
			"type":"SCALAR"
		},
		{
			"bufferView":3,
			"componentType":5126,
			"count":24,
			"max":[
				-0.10450100898742676,
				-0.2483043074607849,
				0.033967386931180954
			],
			"min":[
				-0.1436314582824707,
				-0.2754782438278198,
				0.033967386931180954
			],
			"type":"VEC3"
		},
		{
			"bufferView":4,
			"componentType":5126,
			"count":24,
			"type":"VEC3"
		},
		{
			"bufferView":5,
			"componentType":5123,
			"count":36,
			"type":"SCALAR"
		},
		{
			"bufferView":6,
			"componentType":5126,
			"count":4,
			"max":[
				-0.13710975646972656,
				-0.2646086513996124,
				0.03396739438176155
			],
			"min":[
				-0.1436314582824707,
				-0.2787390947341919,
				0.03396739438176155
			],
			"type":"VEC3"
		},
		{
			"bufferView":7,
			"componentType":5126,
			"count":4,
			"type":"VEC3"
		},
		{
			"bufferView":8,
			"componentType":5123,
			"count":6,
			"type":"SCALAR"
		},
		{
			"bufferView":9,
			"componentType":5126,
			"count":292,
			"max":[
				-0.03167495131492615,
				-0.1439565122127533,
				0.036141302436590195
			],
			"min":[
				-0.06428366899490356,
				-0.18091300129890442,
				-0.007336955517530441
			],
			"type":"VEC3"
		},
		{
			"bufferView":10,
			"componentType":5126,
			"count":292,
			"type":"VEC3"
		},
		{
			"bufferView":11,
			"componentType":5123,
			"count":732,
			"type":"SCALAR"
		},
		{
			"bufferView":12,
			"componentType":5126,
			"count":20,
			"max":[
				-0.03710973262786865,
				-0.15047824382781982,
				0.03396739065647125
			],
			"min":[
				-0.05884888768196106,
				-0.17765215039253235,
				0.03396739065647125
			],
			"type":"VEC3"
		},
		{
			"bufferView":13,
			"componentType":5126,
			"count":20,
			"type":"VEC3"
		},
		{
			"bufferView":14,
			"componentType":5123,
			"count":30,
			"type":"SCALAR"
		},
		{
			"bufferView":15,
			"componentType":5126,
			"count":4,
			"max":[
				-0.037109702825546265,
				-0.16678255796432495,
				0.03396739438176155
			],
			"min":[
				-0.04580536484718323,
				-0.18091300129890442,
				0.03396739438176155
			],
			"type":"VEC3"
		},
		{
			"bufferView":16,
			"componentType":5126,
			"count":4,
			"type":"VEC3"
		},
		{
			"bufferView":17,
			"componentType":5126,
			"count":831,
			"max":[
				0.05256417393684387,
				-0.32330432534217834,
				0.0470108687877655
			],
			"min":[
				0.0036511123180389404,
				-0.37656518816947937,
				-0.007336955517530441
			],
			"type":"VEC3"
		},
		{
			"bufferView":18,
			"componentType":5126,
			"count":831,
			"type":"VEC3"
		},
		{
			"bufferView":19,
			"componentType":5123,
			"count":2718,
			"type":"SCALAR"
		},
		{
			"bufferView":20,
			"componentType":5126,
			"count":60,
			"max":[
				0.04767286777496338,
				-0.3298260569572449,
				0.04483695700764656
			],
			"min":[
				0.008542418479919434,
				-0.3733043074607849,
				0.04483695700764656
			],
			"type":"VEC3"
		},
		{
			"bufferView":21,
			"componentType":5126,
			"count":60,
			"type":"VEC3"
		},
		{
			"bufferView":22,
			"componentType":5123,
			"count":90,
			"type":"SCALAR"
		},
		{
			"bufferView":23,
			"componentType":5126,
			"count":4,
			"max":[
				0.03680330514907837,
				-0.3624347448348999,
				0.04483695700764656
			],
			"min":[
				0.01941201090812683,
				-0.37656518816947937,
				0.04483695700764656
			],
			"type":"VEC3"
		},
		{
			"bufferView":24,
			"componentType":5126,
			"count":4,
			"type":"VEC3"
		}
	],
	"bufferViews":[
		{
			"buffer":0,
			"byteLength":5952,
			"byteOffset":0,
			"target":34962
		},
		{
			"buffer":0,
			"byteLength":5952,
			"byteOffset":5952,
			"target":34962
		},
		{
			"buffer":0,
			"byteLength":2832,
			"byteOffset":11904,
			"target":34963
		},
		{
			"buffer":0,
			"byteLength":288,
			"byteOffset":14736,
			"target":34962
		},
		{
			"buffer":0,
			"byteLength":288,
			"byteOffset":15024,
			"target":34962
		},
		{
			"buffer":0,
			"byteLength":72,
			"byteOffset":15312,
			"target":34963
		},
		{
			"buffer":0,
			"byteLength":48,
			"byteOffset":15384,
			"target":34962
		},
		{
			"buffer":0,
			"byteLength":48,
			"byteOffset":15432,
			"target":34962
		},
		{
			"buffer":0,
			"byteLength":12,
			"byteOffset":15480,
			"target":34963
		},
		{
			"buffer":0,
			"byteLength":3504,
			"byteOffset":15492,
			"target":34962
		},
		{
			"buffer":0,
			"byteLength":3504,
			"byteOffset":18996,
			"target":34962
		},
		{
			"buffer":0,
			"byteLength":1464,
			"byteOffset":22500,
			"target":34963
		},
		{
			"buffer":0,
			"byteLength":240,
			"byteOffset":23964,
			"target":34962
		},
		{
			"buffer":0,
			"byteLength":240,
			"byteOffset":24204,
			"target":34962
		},
		{
			"buffer":0,
			"byteLength":60,
			"byteOffset":24444,
			"target":34963
		},
		{
			"buffer":0,
			"byteLength":48,
			"byteOffset":24504,
			"target":34962
		},
		{
			"buffer":0,
			"byteLength":48,
			"byteOffset":24552,
			"target":34962
		},
		{
			"buffer":0,
			"byteLength":9972,
			"byteOffset":24600,
			"target":34962
		},
		{
			"buffer":0,
			"byteLength":9972,
			"byteOffset":34572,
			"target":34962
		},
		{
			"buffer":0,
			"byteLength":5436,
			"byteOffset":44544,
			"target":34963
		},
		{
			"buffer":0,
			"byteLength":720,
			"byteOffset":49980,
			"target":34962
		},
		{
			"buffer":0,
			"byteLength":720,
			"byteOffset":50700,
			"target":34962
		},
		{
			"buffer":0,
			"byteLength":180,
			"byteOffset":51420,
			"target":34963
		},
		{
			"buffer":0,
			"byteLength":48,
			"byteOffset":51600,
			"target":34962
		},
		{
			"buffer":0,
			"byteLength":48,
			"byteOffset":51648,
			"target":34962
		}
	],
	"buffers":[
		{
			"byteLength":51696,
			"uri":"BinaGrup17.bin"
		}
	]
}
