{
	"asset":{
		"generator":"Khronos glTF Blender I/O v4.2.60",
		"version":"2.0"
	},
	"scene":0,
	"scenes":[
		{
			"name":"Scene",
			"nodes":[
				0,
				1,
				2,
				3,
				4,
				5,
				6,
				7,
				8
			]
		}
	],
	"nodes":[
		{
			"mesh":0,
			"name":"Building_064.011"
		},
		{
			"mesh":1,
			"name":"Building_064.012"
		},
		{
			"mesh":2,
			"name":"Building_064.013"
		},
		{
			"mesh":3,
			"name":"Building_027.011"
		},
		{
			"mesh":4,
			"name":"Building_027.012"
		},
		{
			"mesh":5,
			"name":"Building_027.013"
		},
		{
			"mesh":6,
			"name":"Building_046.011"
		},
		{
			"mesh":7,
			"name":"Building_046.012"
		},
		{
			"mesh":8,
			"name":"Building_046.013"
		}
	],
	"materials":[
		{
			"doubleSided":true,
			"name":"BinaGrid",
			"pbrMetallicRoughness":{
				"baseColorFactor":[
					0.0009104993660002947,
					0.04091522842645645,
					0.06662598252296448,
					1
				],
				"metallicFactor":0,
				"roughnessFactor":0.5
			}
		},
		{
			"doubleSided":true,
			"name":"PencereGrid",
			"pbrMetallicRoughness":{
				"baseColorFactor":[
					0.1328672468662262,
					0.26635584235191345,
					0.31854695081710815,
					1
				],
				"metallicFactor":0,
				"roughnessFactor":0.699999988079071
			}
		},
		{
			"doubleSided":true,
			"name":"Kap\u0131Grid",
			"pbrMetallicRoughness":{
				"baseColorFactor":[
					0,
					0.01161225512623787,
					0.016807379201054573,
					1
				],
				"metallicFactor":0,
				"roughnessFactor":0.699999988079071
			}
		}
	],
	"meshes":[
		{
			"name":"Building_064_Mesh.002",
			"primitives":[
				{
					"attributes":{
						"POSITION":0,
						"NORMAL":1
					},
					"indices":2,
					"material":0
				}
			]
		},
		{
			"name":"Building_064_Mesh.012",
			"primitives":[
				{
					"attributes":{
						"POSITION":3,
						"NORMAL":4
					},
					"indices":5,
					"material":1
				}
			]
		},
		{
			"name":"Building_064_Mesh.013",
			"primitives":[
				{
					"attributes":{
						"POSITION":6,
						"NORMAL":7
					},
					"indices":8,
					"material":2
				}
			]
		},
		{
			"name":"Building_027_Mesh.002",
			"primitives":[
				{
					"attributes":{
						"POSITION":9,
						"NORMAL":10
					},
					"indices":11,
					"material":0
				}
			]
		},
		{
			"name":"Building_027_Mesh.012",
			"primitives":[
				{
					"attributes":{
						"POSITION":12,
						"NORMAL":13
					},
					"indices":14,
					"material":1
				}
			]
		},
		{
			"name":"Building_027_Mesh.013",
			"primitives":[
				{
					"attributes":{
						"POSITION":15,
						"NORMAL":16
					},
					"indices":8,
					"material":2
				}
			]
		},
		{
			"name":"Building_046_Mesh.002",
			"primitives":[
				{
					"attributes":{
						"POSITION":17,
						"NORMAL":18
					},
					"indices":19,
					"material":0
				}
			]
		},
		{
			"name":"Building_046_Mesh.012",
			"primitives":[
				{
					"attributes":{
						"POSITION":20,
						"NORMAL":21
					},
					"indices":22,
					"material":1
				}
			]
		},
		{
			"name":"Building_046_Mesh.013",
			"primitives":[
				{
					"attributes":{
						"POSITION":23,
						"NORMAL":24
					},
					"indices":8,
					"material":2
				}
			]
		}
	],
	"accessors":[
		{
			"bufferView":0,
			"componentType":5126,
			"count":1257,
			"max":[
				0.28082507848739624,
				0.09082609415054321,
				0.03614130616188049
			],
			"min":[
				0.2319120168685913,
				0.014739125967025757,
				-0.0073369513265788555
			],
			"type":"VEC3"
		},
		{
			"bufferView":1,
			"componentType":5126,
			"count":1257,
			"type":"VEC3"
		},
		{
			"bufferView":2,
			"componentType":5123,
			"count":4446,
			"type":"SCALAR"
		},
		{
			"bufferView":3,
			"componentType":5126,
			"count":56,
			"max":[
				0.27593374252319336,
				0.07778263092041016,
				0.033967386931180954
			],
			"min":[
				0.23680329322814941,
				0.02017390727996826,
				0.033967386931180954
			],
			"type":"VEC3"
		},
		{
			"bufferView":4,
			"componentType":5126,
			"count":56,
			"type":"VEC3"
		},
		{
			"bufferView":5,
			"componentType":5123,
			"count":84,
			"type":"SCALAR"
		},
		{
			"bufferView":6,
			"componentType":5126,
			"count":4,
			"max":[
				0.2433251142501831,
				0.028869569301605225,
				0.03396739438176155
			],
			"min":[
				0.23680329322814941,
				0.014739125967025757,
				0.03396739438176155
			],
			"type":"VEC3"
		},
		{
			"bufferView":7,
			"componentType":5126,
			"count":4,
			"type":"VEC3"
		},
		{
			"bufferView":8,
			"componentType":5123,
			"count":6,
			"type":"SCALAR"
		},
		{
			"bufferView":9,
			"componentType":5126,
			"count":497,
			"max":[
				-0.18384884297847748,
				-0.4102608561515808,
				0.0470108687877655
			],
			"min":[
				-0.2164575308561325,
				-0.47439128160476685,
				-0.007336955517530441
			],
			"type":"VEC3"
		},
		{
			"bufferView":10,
			"componentType":5126,
			"count":497,
			"type":"VEC3"
		},
		{
			"bufferView":11,
			"componentType":5123,
			"count":1398,
			"type":"SCALAR"
		},
		{
			"bufferView":12,
			"componentType":5126,
			"count":36,
			"max":[
				-0.1892836093902588,
				-0.42765215039253235,
				0.04483695700764656
			],
			"min":[
				-0.2110227346420288,
				-0.4711304008960724,
				0.04483695700764656
			],
			"type":"VEC3"
		},
		{
			"bufferView":13,
			"componentType":5126,
			"count":36,
			"type":"VEC3"
		},
		{
			"bufferView":14,
			"componentType":5123,
			"count":54,
			"type":"SCALAR"
		},
		{
			"bufferView":15,
			"componentType":5126,
			"count":4,
			"max":[
				-0.20232710242271423,
				-0.4602608382701874,
				0.04483695700764656
			],
			"min":[
				-0.2110227346420288,
				-0.47439128160476685,
				0.04483695700764656
			],
			"type":"VEC3"
		},
		{
			"bufferView":16,
			"componentType":5126,
			"count":4,
			"type":"VEC3"
		},
		{
			"bufferView":17,
			"componentType":5126,
			"count":281,
			"max":[
				0.04441198706626892,
				-0.24178257584571838,
				0.0470108687877655
			],
			"min":[
				0.011803299188613892,
				-0.2787390947341919,
				-0.007336955517530441
			],
			"type":"VEC3"
		},
		{
			"bufferView":18,
			"componentType":5126,
			"count":281,
			"type":"VEC3"
		},
		{
			"bufferView":19,
			"componentType":5123,
			"count":732,
			"type":"SCALAR"
		},
		{
			"bufferView":20,
			"componentType":5126,
			"count":20,
			"max":[
				0.038977205753326416,
				-0.2483043223619461,
				0.04483695700764656
			],
			"min":[
				0.017238080501556396,
				-0.2733043432235718,
				0.04483695700764656
			],
			"type":"VEC3"
		},
		{
			"bufferView":21,
			"componentType":5126,
			"count":20,
			"type":"VEC3"
		},
		{
			"bufferView":22,
			"componentType":5123,
			"count":30,
			"type":"SCALAR"
		},
		{
			"bufferView":23,
			"componentType":5126,
			"count":4,
			"max":[
				0.038977235555648804,
				-0.2646086513996124,
				0.04483695700764656
			],
			"min":[
				0.03028157353401184,
				-0.2787390947341919,
				0.04483695700764656
			],
			"type":"VEC3"
		},
		{
			"bufferView":24,
			"componentType":5126,
			"count":4,
			"type":"VEC3"
		}
	],
	"bufferViews":[
		{
			"buffer":0,
			"byteLength":15084,
			"byteOffset":0,
			"target":34962
		},
		{
			"buffer":0,
			"byteLength":15084,
			"byteOffset":15084,
			"target":34962
		},
		{
			"buffer":0,
			"byteLength":8892,
			"byteOffset":30168,
			"target":34963
		},
		{
			"buffer":0,
			"byteLength":672,
			"byteOffset":39060,
			"target":34962
		},
		{
			"buffer":0,
			"byteLength":672,
			"byteOffset":39732,
			"target":34962
		},
		{
			"buffer":0,
			"byteLength":168,
			"byteOffset":40404,
			"target":34963
		},
		{
			"buffer":0,
			"byteLength":48,
			"byteOffset":40572,
			"target":34962
		},
		{
			"buffer":0,
			"byteLength":48,
			"byteOffset":40620,
			"target":34962
		},
		{
			"buffer":0,
			"byteLength":12,
			"byteOffset":40668,
			"target":34963
		},
		{
			"buffer":0,
			"byteLength":5964,
			"byteOffset":40680,
			"target":34962
		},
		{
			"buffer":0,
			"byteLength":5964,
			"byteOffset":46644,
			"target":34962
		},
		{
			"buffer":0,
			"byteLength":2796,
			"byteOffset":52608,
			"target":34963
		},
		{
			"buffer":0,
			"byteLength":432,
			"byteOffset":55404,
			"target":34962
		},
		{
			"buffer":0,
			"byteLength":432,
			"byteOffset":55836,
			"target":34962
		},
		{
			"buffer":0,
			"byteLength":108,
			"byteOffset":56268,
			"target":34963
		},
		{
			"buffer":0,
			"byteLength":48,
			"byteOffset":56376,
			"target":34962
		},
		{
			"buffer":0,
			"byteLength":48,
			"byteOffset":56424,
			"target":34962
		},
		{
			"buffer":0,
			"byteLength":3372,
			"byteOffset":56472,
			"target":34962
		},
		{
			"buffer":0,
			"byteLength":3372,
			"byteOffset":59844,
			"target":34962
		},
		{
			"buffer":0,
			"byteLength":1464,
			"byteOffset":63216,
			"target":34963
		},
		{
			"buffer":0,
			"byteLength":240,
			"byteOffset":64680,
			"target":34962
		},
		{
			"buffer":0,
			"byteLength":240,
			"byteOffset":64920,
			"target":34962
		},
		{
			"buffer":0,
			"byteLength":60,
			"byteOffset":65160,
			"target":34963
		},
		{
			"buffer":0,
			"byteLength":48,
			"byteOffset":65220,
			"target":34962
		},
		{
			"buffer":0,
			"byteLength":48,
			"byteOffset":65268,
			"target":34962
		}
	],
	"buffers":[
		{
			"byteLength":65316,
			"uri":"BinaGrup5.bin"
		}
	]
}
