{
	"asset":{
		"generator":"Khronos glTF Blender I/O v4.2.60",
		"version":"2.0"
	},
	"scene":0,
	"scenes":[
		{
			"name":"Scene",
			"nodes":[
				0,
				1,
				2,
				3,
				4,
				5,
				6,
				7,
				8
			]
		}
	],
	"nodes":[
		{
			"mesh":0,
			"name":"Building_039.011"
		},
		{
			"mesh":1,
			"name":"Building_039.012"
		},
		{
			"mesh":2,
			"name":"Building_039.013"
		},
		{
			"mesh":3,
			"name":"Building_021.011"
		},
		{
			"mesh":4,
			"name":"Building_021.012"
		},
		{
			"mesh":5,
			"name":"Building_021.013"
		},
		{
			"mesh":6,
			"name":"Building_062.011"
		},
		{
			"mesh":7,
			"name":"Building_062.012"
		},
		{
			"mesh":8,
			"name":"Building_062.013"
		}
	],
	"materials":[
		{
			"doubleSided":true,
			"name":"BinaGrid",
			"pbrMetallicRoughness":{
				"baseColorFactor":[
					0.0009104993660002947,
					0.04091522842645645,
					0.06662598252296448,
					1
				],
				"metallicFactor":0,
				"roughnessFactor":0.5
			}
		},
		{
			"doubleSided":true,
			"name":"PencereGrid",
			"pbrMetallicRoughness":{
				"baseColorFactor":[
					0.1328672468662262,
					0.26635584235191345,
					0.31854695081710815,
					1
				],
				"metallicFactor":0,
				"roughnessFactor":0.699999988079071
			}
		},
		{
			"doubleSided":true,
			"name":"Kap\u0131Grid",
			"pbrMetallicRoughness":{
				"baseColorFactor":[
					0,
					0.01161225512623787,
					0.016807379201054573,
					1
				],
				"metallicFactor":0,
				"roughnessFactor":0.699999988079071
			}
		}
	],
	"meshes":[
		{
			"name":"Building_039_Mesh.002",
			"primitives":[
				{
					"attributes":{
						"POSITION":0,
						"NORMAL":1
					},
					"indices":2,
					"material":0
				}
			]
		},
		{
			"name":"Building_039_Mesh.012",
			"primitives":[
				{
					"attributes":{
						"POSITION":3,
						"NORMAL":4
					},
					"indices":5,
					"material":1
				}
			]
		},
		{
			"name":"Building_039_Mesh.013",
			"primitives":[
				{
					"attributes":{
						"POSITION":6,
						"NORMAL":7
					},
					"indices":8,
					"material":2
				}
			]
		},
		{
			"name":"Building_021_Mesh.002",
			"primitives":[
				{
					"attributes":{
						"POSITION":9,
						"NORMAL":10
					},
					"indices":11,
					"material":0
				}
			]
		},
		{
			"name":"Building_021_Mesh.012",
			"primitives":[
				{
					"attributes":{
						"POSITION":12,
						"NORMAL":13
					},
					"indices":14,
					"material":1
				}
			]
		},
		{
			"name":"Building_021_Mesh.013",
			"primitives":[
				{
					"attributes":{
						"POSITION":15,
						"NORMAL":16
					},
					"indices":8,
					"material":2
				}
			]
		},
		{
			"name":"Building_062_Mesh.002",
			"primitives":[
				{
					"attributes":{
						"POSITION":17,
						"NORMAL":18
					},
					"indices":19,
					"material":0
				}
			]
		},
		{
			"name":"Building_062_Mesh.012",
			"primitives":[
				{
					"attributes":{
						"POSITION":20,
						"NORMAL":21
					},
					"indices":22,
					"material":1
				}
			]
		},
		{
			"name":"Building_062_Mesh.013",
			"primitives":[
				{
					"attributes":{
						"POSITION":23,
						"NORMAL":24
					},
					"indices":8,
					"material":2
				}
			]
		}
	],
	"accessors":[
		{
			"bufferView":0,
			"componentType":5126,
			"count":507,
			"max":[
				-0.023522764444351196,
				-0.23091301321983337,
				0.0470108687877655
			],
			"min":[
				-0.07243579626083374,
				-0.2787390947341919,
				-0.007336955517530441
			],
			"type":"VEC3"
		},
		{
			"bufferView":1,
			"componentType":5126,
			"count":507,
			"type":"VEC3"
		},
		{
			"bufferView":2,
			"componentType":5123,
			"count":1488,
			"type":"SCALAR"
		},
		{
			"bufferView":3,
			"componentType":5126,
			"count":32,
			"max":[
				-0.02841407060623169,
				-0.2483043223619461,
				0.04483695700764656
			],
			"min":[
				-0.06754451990127563,
				-0.27113041281700134,
				0.04483695700764656
			],
			"type":"VEC3"
		},
		{
			"bufferView":4,
			"componentType":5126,
			"count":32,
			"type":"VEC3"
		},
		{
			"bufferView":5,
			"componentType":5123,
			"count":48,
			"type":"SCALAR"
		},
		{
			"bufferView":6,
			"componentType":5126,
			"count":4,
			"max":[
				-0.028414100408554077,
				-0.2646086513996124,
				0.04483695700764656
			],
			"min":[
				-0.034935832023620605,
				-0.2787390947341919,
				0.04483695700764656
			],
			"type":"VEC3"
		},
		{
			"bufferView":7,
			"componentType":5126,
			"count":4,
			"type":"VEC3"
		},
		{
			"bufferView":8,
			"componentType":5123,
			"count":6,
			"type":"SCALAR"
		},
		{
			"bufferView":9,
			"componentType":5126,
			"count":497,
			"max":[
				-0.18384884297847748,
				0.17669570446014404,
				0.036141302436590195
			],
			"min":[
				-0.2164575308561325,
				0.11256527900695801,
				-0.007336955517530441
			],
			"type":"VEC3"
		},
		{
			"bufferView":10,
			"componentType":5126,
			"count":497,
			"type":"VEC3"
		},
		{
			"bufferView":11,
			"componentType":5123,
			"count":1398,
			"type":"SCALAR"
		},
		{
			"bufferView":12,
			"componentType":5126,
			"count":36,
			"max":[
				-0.1892836093902588,
				0.15930438041687012,
				0.033967386931180954
			],
			"min":[
				-0.2110227346420288,
				0.1158260703086853,
				0.033967386931180954
			],
			"type":"VEC3"
		},
		{
			"bufferView":13,
			"componentType":5126,
			"count":36,
			"type":"VEC3"
		},
		{
			"bufferView":14,
			"componentType":5123,
			"count":54,
			"type":"SCALAR"
		},
		{
			"bufferView":15,
			"componentType":5126,
			"count":4,
			"max":[
				-0.20232710242271423,
				0.1266956925392151,
				0.03396739438176155
			],
			"min":[
				-0.2110227346420288,
				0.11256527900695801,
				0.03396739438176155
			],
			"type":"VEC3"
		},
		{
			"bufferView":16,
			"componentType":5126,
			"count":4,
			"type":"VEC3"
		},
		{
			"bufferView":17,
			"componentType":5126,
			"count":481,
			"max":[
				0.19658589363098145,
				-0.4211304187774658,
				0.05788043513894081
			],
			"min":[
				0.1639772653579712,
				-0.47439128160476685,
				-0.007336955517530441
			],
			"type":"VEC3"
		},
		{
			"bufferView":18,
			"componentType":5126,
			"count":481,
			"type":"VEC3"
		},
		{
			"bufferView":19,
			"componentType":5123,
			"count":1389,
			"type":"SCALAR"
		},
		{
			"bufferView":20,
			"componentType":5126,
			"count":39,
			"max":[
				0.19115108251571655,
				-0.42765215039253235,
				0.05570651963353157
			],
			"min":[
				0.16941195726394653,
				-0.46895650029182434,
				0.05570651963353157
			],
			"type":"VEC3"
		},
		{
			"bufferView":21,
			"componentType":5126,
			"count":39,
			"type":"VEC3"
		},
		{
			"bufferView":22,
			"componentType":5123,
			"count":63,
			"type":"SCALAR"
		},
		{
			"bufferView":23,
			"componentType":5126,
			"count":4,
			"max":[
				0.19115114212036133,
				-0.4602608382701874,
				0.05570651963353157
			],
			"min":[
				0.18245548009872437,
				-0.47439128160476685,
				0.05570651963353157
			],
			"type":"VEC3"
		},
		{
			"bufferView":24,
			"componentType":5126,
			"count":4,
			"type":"VEC3"
		}
	],
	"bufferViews":[
		{
			"buffer":0,
			"byteLength":6084,
			"byteOffset":0,
			"target":34962
		},
		{
			"buffer":0,
			"byteLength":6084,
			"byteOffset":6084,
			"target":34962
		},
		{
			"buffer":0,
			"byteLength":2976,
			"byteOffset":12168,
			"target":34963
		},
		{
			"buffer":0,
			"byteLength":384,
			"byteOffset":15144,
			"target":34962
		},
		{
			"buffer":0,
			"byteLength":384,
			"byteOffset":15528,
			"target":34962
		},
		{
			"buffer":0,
			"byteLength":96,
			"byteOffset":15912,
			"target":34963
		},
		{
			"buffer":0,
			"byteLength":48,
			"byteOffset":16008,
			"target":34962
		},
		{
			"buffer":0,
			"byteLength":48,
			"byteOffset":16056,
			"target":34962
		},
		{
			"buffer":0,
			"byteLength":12,
			"byteOffset":16104,
			"target":34963
		},
		{
			"buffer":0,
			"byteLength":5964,
			"byteOffset":16116,
			"target":34962
		},
		{
			"buffer":0,
			"byteLength":5964,
			"byteOffset":22080,
			"target":34962
		},
		{
			"buffer":0,
			"byteLength":2796,
			"byteOffset":28044,
			"target":34963
		},
		{
			"buffer":0,
			"byteLength":432,
			"byteOffset":30840,
			"target":34962
		},
		{
			"buffer":0,
			"byteLength":432,
			"byteOffset":31272,
			"target":34962
		},
		{
			"buffer":0,
			"byteLength":108,
			"byteOffset":31704,
			"target":34963
		},
		{
			"buffer":0,
			"byteLength":48,
			"byteOffset":31812,
			"target":34962
		},
		{
			"buffer":0,
			"byteLength":48,
			"byteOffset":31860,
			"target":34962
		},
		{
			"buffer":0,
			"byteLength":5772,
			"byteOffset":31908,
			"target":34962
		},
		{
			"buffer":0,
			"byteLength":5772,
			"byteOffset":37680,
			"target":34962
		},
		{
			"buffer":0,
			"byteLength":2778,
			"byteOffset":43452,
			"target":34963
		},
		{
			"buffer":0,
			"byteLength":468,
			"byteOffset":46232,
			"target":34962
		},
		{
			"buffer":0,
			"byteLength":468,
			"byteOffset":46700,
			"target":34962
		},
		{
			"buffer":0,
			"byteLength":126,
			"byteOffset":47168,
			"target":34963
		},
		{
			"buffer":0,
			"byteLength":48,
			"byteOffset":47296,
			"target":34962
		},
		{
			"buffer":0,
			"byteLength":48,
			"byteOffset":47344,
			"target":34962
		}
	],
	"buffers":[
		{
			"byteLength":47392,
			"uri":"BinaGrup8.bin"
		}
	]
}
