{
	"asset":{
		"generator":"Khronos glTF Blender I/O v4.2.60",
		"version":"2.0"
	},
	"scene":0,
	"scenes":[
		{
			"name":"Scene",
			"nodes":[
				0,
				1,
				2,
				3,
				4,
				5,
				6,
				7,
				8
			]
		}
	],
	"nodes":[
		{
			"mesh":0,
			"name":"Building_066.011"
		},
		{
			"mesh":1,
			"name":"Building_066.012"
		},
		{
			"mesh":2,
			"name":"Building_066.013"
		},
		{
			"mesh":3,
			"name":"Building_041.011"
		},
		{
			"mesh":4,
			"name":"Building_041.012"
		},
		{
			"mesh":5,
			"name":"Building_041.013"
		},
		{
			"mesh":6,
			"name":"Building_028.011"
		},
		{
			"mesh":7,
			"name":"Building_028.012"
		},
		{
			"mesh":8,
			"name":"Building_028.013"
		}
	],
	"materials":[
		{
			"doubleSided":true,
			"name":"BinaGrid",
			"pbrMetallicRoughness":{
				"baseColorFactor":[
					0.0009104993660002947,
					0.04091522842645645,
					0.06662598252296448,
					1
				],
				"metallicFactor":0,
				"roughnessFactor":0.5
			}
		},
		{
			"doubleSided":true,
			"name":"PencereGrid",
			"pbrMetallicRoughness":{
				"baseColorFactor":[
					0.1328672468662262,
					0.26635584235191345,
					0.31854695081710815,
					1
				],
				"metallicFactor":0,
				"roughnessFactor":0.699999988079071
			}
		},
		{
			"doubleSided":true,
			"name":"Kap\u0131Grid",
			"pbrMetallicRoughness":{
				"baseColorFactor":[
					0,
					0.01161225512623787,
					0.016807379201054573,
					1
				],
				"metallicFactor":0,
				"roughnessFactor":0.699999988079071
			}
		}
	],
	"meshes":[
		{
			"name":"Building_066_Mesh.002",
			"primitives":[
				{
					"attributes":{
						"POSITION":0,
						"NORMAL":1
					},
					"indices":2,
					"material":0
				}
			]
		},
		{
			"name":"Building_066_Mesh.012",
			"primitives":[
				{
					"attributes":{
						"POSITION":3,
						"NORMAL":4
					},
					"indices":5,
					"material":1
				}
			]
		},
		{
			"name":"Building_066_Mesh.013",
			"primitives":[
				{
					"attributes":{
						"POSITION":6,
						"NORMAL":7
					},
					"indices":8,
					"material":2
				}
			]
		},
		{
			"name":"Building_041_Mesh.002",
			"primitives":[
				{
					"attributes":{
						"POSITION":9,
						"NORMAL":10
					},
					"indices":11,
					"material":0
				}
			]
		},
		{
			"name":"Building_041_Mesh.012",
			"primitives":[
				{
					"attributes":{
						"POSITION":12,
						"NORMAL":13
					},
					"indices":5,
					"material":1
				}
			]
		},
		{
			"name":"Building_041_Mesh.013",
			"primitives":[
				{
					"attributes":{
						"POSITION":14,
						"NORMAL":15
					},
					"indices":8,
					"material":2
				}
			]
		},
		{
			"name":"Building_028_Mesh.002",
			"primitives":[
				{
					"attributes":{
						"POSITION":16,
						"NORMAL":17
					},
					"indices":18,
					"material":0
				}
			]
		},
		{
			"name":"Building_028_Mesh.012",
			"primitives":[
				{
					"attributes":{
						"POSITION":19,
						"NORMAL":20
					},
					"indices":21,
					"material":1
				}
			]
		},
		{
			"name":"Building_028_Mesh.013",
			"primitives":[
				{
					"attributes":{
						"POSITION":22,
						"NORMAL":23
					},
					"indices":8,
					"material":2
				}
			]
		}
	],
	"accessors":[
		{
			"bufferView":0,
			"componentType":5126,
			"count":477,
			"max":[
				0.27267277240753174,
				-0.127652108669281,
				0.0470108687877655
			],
			"min":[
				0.24006414413452148,
				-0.18091300129890442,
				-0.007336955517530441
			],
			"type":"VEC3"
		},
		{
			"bufferView":1,
			"componentType":5126,
			"count":477,
			"type":"VEC3"
		},
		{
			"bufferView":2,
			"componentType":5123,
			"count":1386,
			"type":"SCALAR"
		},
		{
			"bufferView":3,
			"componentType":5126,
			"count":36,
			"max":[
				0.2672380805015564,
				-0.1341738998889923,
				0.04483695700764656
			],
			"min":[
				0.2454988956451416,
				-0.17330431938171387,
				0.04483695700764656
			],
			"type":"VEC3"
		},
		{
			"bufferView":4,
			"componentType":5126,
			"count":36,
			"type":"VEC3"
		},
		{
			"bufferView":5,
			"componentType":5123,
			"count":54,
			"type":"SCALAR"
		},
		{
			"bufferView":6,
			"componentType":5126,
			"count":4,
			"max":[
				0.25419455766677856,
				-0.16678255796432495,
				0.04483695700764656
			],
			"min":[
				0.2454988956451416,
				-0.18091300129890442,
				0.04483695700764656
			],
			"type":"VEC3"
		},
		{
			"bufferView":7,
			"componentType":5126,
			"count":4,
			"type":"VEC3"
		},
		{
			"bufferView":8,
			"componentType":5123,
			"count":6,
			"type":"SCALAR"
		},
		{
			"bufferView":9,
			"componentType":5126,
			"count":497,
			"max":[
				-0.03167492151260376,
				-0.41243475675582886,
				0.036141302436590195
			],
			"min":[
				-0.06428360939025879,
				-0.47439128160476685,
				-0.007336955517530441
			],
			"type":"VEC3"
		},
		{
			"bufferView":10,
			"componentType":5126,
			"count":497,
			"type":"VEC3"
		},
		{
			"bufferView":11,
			"componentType":5123,
			"count":1398,
			"type":"SCALAR"
		},
		{
			"bufferView":12,
			"componentType":5126,
			"count":36,
			"max":[
				-0.03710973262786865,
				-0.42765215039253235,
				0.033967386931180954
			],
			"min":[
				-0.05884888768196106,
				-0.4711304008960724,
				0.033967386931180954
			],
			"type":"VEC3"
		},
		{
			"bufferView":13,
			"componentType":5126,
			"count":36,
			"type":"VEC3"
		},
		{
			"bufferView":14,
			"componentType":5126,
			"count":4,
			"max":[
				-0.05015319585800171,
				-0.4602608382701874,
				0.03396739438176155
			],
			"min":[
				-0.05884888768196106,
				-0.47439128160476685,
				0.03396739438176155
			],
			"type":"VEC3"
		},
		{
			"bufferView":15,
			"componentType":5126,
			"count":4,
			"type":"VEC3"
		},
		{
			"bufferView":16,
			"componentType":5126,
			"count":501,
			"max":[
				-0.1077619194984436,
				0.17452174425125122,
				0.036141302436590195
			],
			"min":[
				-0.14037060737609863,
				0.11256527900695801,
				-0.007336955517530441
			],
			"type":"VEC3"
		},
		{
			"bufferView":17,
			"componentType":5126,
			"count":501,
			"type":"VEC3"
		},
		{
			"bufferView":18,
			"componentType":5123,
			"count":1404,
			"type":"SCALAR"
		},
		{
			"bufferView":19,
			"componentType":5126,
			"count":38,
			"max":[
				-0.11319667100906372,
				0.15930438041687012,
				0.033967386931180954
			],
			"min":[
				-0.13493579626083374,
				0.12017399072647095,
				0.033967386931180954
			],
			"type":"VEC3"
		},
		{
			"bufferView":20,
			"componentType":5126,
			"count":38,
			"type":"VEC3"
		},
		{
			"bufferView":21,
			"componentType":5123,
			"count":60,
			"type":"SCALAR"
		},
		{
			"bufferView":22,
			"componentType":5126,
			"count":4,
			"max":[
				-0.11319664120674133,
				0.1266956925392151,
				0.03396739438176155
			],
			"min":[
				-0.12189233303070068,
				0.11256527900695801,
				0.03396739438176155
			],
			"type":"VEC3"
		},
		{
			"bufferView":23,
			"componentType":5126,
			"count":4,
			"type":"VEC3"
		}
	],
	"bufferViews":[
		{
			"buffer":0,
			"byteLength":5724,
			"byteOffset":0,
			"target":34962
		},
		{
			"buffer":0,
			"byteLength":5724,
			"byteOffset":5724,
			"target":34962
		},
		{
			"buffer":0,
			"byteLength":2772,
			"byteOffset":11448,
			"target":34963
		},
		{
			"buffer":0,
			"byteLength":432,
			"byteOffset":14220,
			"target":34962
		},
		{
			"buffer":0,
			"byteLength":432,
			"byteOffset":14652,
			"target":34962
		},
		{
			"buffer":0,
			"byteLength":108,
			"byteOffset":15084,
			"target":34963
		},
		{
			"buffer":0,
			"byteLength":48,
			"byteOffset":15192,
			"target":34962
		},
		{
			"buffer":0,
			"byteLength":48,
			"byteOffset":15240,
			"target":34962
		},
		{
			"buffer":0,
			"byteLength":12,
			"byteOffset":15288,
			"target":34963
		},
		{
			"buffer":0,
			"byteLength":5964,
			"byteOffset":15300,
			"target":34962
		},
		{
			"buffer":0,
			"byteLength":5964,
			"byteOffset":21264,
			"target":34962
		},
		{
			"buffer":0,
			"byteLength":2796,
			"byteOffset":27228,
			"target":34963
		},
		{
			"buffer":0,
			"byteLength":432,
			"byteOffset":30024,
			"target":34962
		},
		{
			"buffer":0,
			"byteLength":432,
			"byteOffset":30456,
			"target":34962
		},
		{
			"buffer":0,
			"byteLength":48,
			"byteOffset":30888,
			"target":34962
		},
		{
			"buffer":0,
			"byteLength":48,
			"byteOffset":30936,
			"target":34962
		},
		{
			"buffer":0,
			"byteLength":6012,
			"byteOffset":30984,
			"target":34962
		},
		{
			"buffer":0,
			"byteLength":6012,
			"byteOffset":36996,
			"target":34962
		},
		{
			"buffer":0,
			"byteLength":2808,
			"byteOffset":43008,
			"target":34963
		},
		{
			"buffer":0,
			"byteLength":456,
			"byteOffset":45816,
			"target":34962
		},
		{
			"buffer":0,
			"byteLength":456,
			"byteOffset":46272,
			"target":34962
		},
		{
			"buffer":0,
			"byteLength":120,
			"byteOffset":46728,
			"target":34963
		},
		{
			"buffer":0,
			"byteLength":48,
			"byteOffset":46848,
			"target":34962
		},
		{
			"buffer":0,
			"byteLength":48,
			"byteOffset":46896,
			"target":34962
		}
	],
	"buffers":[
		{
			"byteLength":46944,
			"uri":"BinaGrup6.bin"
		}
	]
}
