{
	"asset":{
		"generator":"Khronos glTF Blender I/O v4.2.60",
		"version":"2.0"
	},
	"scene":0,
	"scenes":[
		{
			"name":"Scene",
			"nodes":[
				0,
				1,
				2,
				3,
				4,
				5,
				6,
				7,
				8
			]
		}
	],
	"nodes":[
		{
			"mesh":0,
			"name":"Building_025.011"
		},
		{
			"mesh":1,
			"name":"Building_025.012"
		},
		{
			"mesh":2,
			"name":"Building_025.013"
		},
		{
			"mesh":3,
			"name":"Building_058.011"
		},
		{
			"mesh":4,
			"name":"Building_058.012"
		},
		{
			"mesh":5,
			"name":"Building_058.013"
		},
		{
			"mesh":6,
			"name":"Building_020.010"
		},
		{
			"mesh":7,
			"name":"Building_020.011"
		},
		{
			"mesh":8,
			"name":"Building_020.012"
		}
	],
	"materials":[
		{
			"doubleSided":true,
			"name":"BinaGrid",
			"pbrMetallicRoughness":{
				"baseColorFactor":[
					0.0009104993660002947,
					0.04091522842645645,
					0.06662598252296448,
					1
				],
				"metallicFactor":0,
				"roughnessFactor":0.5
			}
		},
		{
			"doubleSided":true,
			"name":"PencereGrid",
			"pbrMetallicRoughness":{
				"baseColorFactor":[
					0.1328672468662262,
					0.26635584235191345,
					0.31854695081710815,
					1
				],
				"metallicFactor":0,
				"roughnessFactor":0.699999988079071
			}
		},
		{
			"doubleSided":true,
			"name":"Kap\u0131Grid",
			"pbrMetallicRoughness":{
				"baseColorFactor":[
					0,
					0.01161225512623787,
					0.016807379201054573,
					1
				],
				"metallicFactor":0,
				"roughnessFactor":0.699999988079071
			}
		}
	],
	"meshes":[
		{
			"name":"Building_025_Mesh.002",
			"primitives":[
				{
					"attributes":{
						"POSITION":0,
						"NORMAL":1
					},
					"indices":2,
					"material":0
				}
			]
		},
		{
			"name":"Building_025_Mesh.012",
			"primitives":[
				{
					"attributes":{
						"POSITION":3,
						"NORMAL":4
					},
					"indices":5,
					"material":1
				}
			]
		},
		{
			"name":"Building_025_Mesh.013",
			"primitives":[
				{
					"attributes":{
						"POSITION":6,
						"NORMAL":7
					},
					"indices":8,
					"material":2
				}
			]
		},
		{
			"name":"Building_058_Mesh.002",
			"primitives":[
				{
					"attributes":{
						"POSITION":9,
						"NORMAL":10
					},
					"indices":11,
					"material":0
				}
			]
		},
		{
			"name":"Building_058_Mesh.012",
			"primitives":[
				{
					"attributes":{
						"POSITION":12,
						"NORMAL":13
					},
					"indices":14,
					"material":1
				}
			]
		},
		{
			"name":"Building_058_Mesh.013",
			"primitives":[
				{
					"attributes":{
						"POSITION":15,
						"NORMAL":16
					},
					"indices":8,
					"material":2
				}
			]
		},
		{
			"name":"Building_020_Mesh.012",
			"primitives":[
				{
					"attributes":{
						"POSITION":17,
						"NORMAL":18
					},
					"indices":19,
					"material":0
				}
			]
		},
		{
			"name":"Building_020_Mesh.013",
			"primitives":[
				{
					"attributes":{
						"POSITION":20,
						"NORMAL":21
					},
					"indices":8,
					"material":2
				}
			]
		},
		{
			"name":"Building_020_Mesh.014",
			"primitives":[
				{
					"attributes":{
						"POSITION":22,
						"NORMAL":23
					},
					"indices":24,
					"material":1
				}
			]
		}
	],
	"accessors":[
		{
			"bufferView":0,
			"componentType":5126,
			"count":483,
			"max":[
				-0.18384884297847748,
				-0.2167825996875763,
				0.05788043513894081
			],
			"min":[
				-0.2164575308561325,
				-0.2787390947341919,
				-0.007336955517530441
			],
			"type":"VEC3"
		},
		{
			"bufferView":1,
			"componentType":5126,
			"count":483,
			"type":"VEC3"
		},
		{
			"bufferView":2,
			"componentType":5123,
			"count":1392,
			"type":"SCALAR"
		},
		{
			"bufferView":3,
			"componentType":5126,
			"count":36,
			"max":[
				-0.1892836093902588,
				-0.2319999635219574,
				0.05570651963353157
			],
			"min":[
				-0.2110227346420288,
				-0.27113041281700134,
				0.05570651963353157
			],
			"type":"VEC3"
		},
		{
			"bufferView":4,
			"componentType":5126,
			"count":36,
			"type":"VEC3"
		},
		{
			"bufferView":5,
			"componentType":5123,
			"count":54,
			"type":"SCALAR"
		},
		{
			"bufferView":6,
			"componentType":5126,
			"count":4,
			"max":[
				-0.20232710242271423,
				-0.2646086513996124,
				0.05570651963353157
			],
			"min":[
				-0.2110227346420288,
				-0.2787390947341919,
				0.05570651963353157
			],
			"type":"VEC3"
		},
		{
			"bufferView":7,
			"componentType":5126,
			"count":4,
			"type":"VEC3"
		},
		{
			"bufferView":8,
			"componentType":5123,
			"count":6,
			"type":"SCALAR"
		},
		{
			"bufferView":9,
			"componentType":5126,
			"count":308,
			"max":[
				0.19658583402633667,
				-0.03526082634925842,
				0.03614130616188049
			],
			"min":[
				0.16397720575332642,
				-0.08308693766593933,
				-0.0073369513265788555
			],
			"type":"VEC3"
		},
		{
			"bufferView":10,
			"componentType":5126,
			"count":308,
			"type":"VEC3"
		},
		{
			"bufferView":11,
			"componentType":5123,
			"count":750,
			"type":"SCALAR"
		},
		{
			"bufferView":12,
			"componentType":5126,
			"count":16,
			"max":[
				0.1911512017250061,
				-0.05265215039253235,
				0.03396739065647125
			],
			"min":[
				0.1694120168685913,
				-0.07547822594642639,
				0.03396739065647125
			],
			"type":"VEC3"
		},
		{
			"bufferView":13,
			"componentType":5126,
			"count":16,
			"type":"VEC3"
		},
		{
			"bufferView":14,
			"componentType":5123,
			"count":24,
			"type":"SCALAR"
		},
		{
			"bufferView":15,
			"componentType":5126,
			"count":4,
			"max":[
				0.19115114212036133,
				-0.06895646452903748,
				0.03396739438176155
			],
			"min":[
				0.18245548009872437,
				-0.08308693766593933,
				0.03396739438176155
			],
			"type":"VEC3"
		},
		{
			"bufferView":16,
			"componentType":5126,
			"count":4,
			"type":"VEC3"
		},
		{
			"bufferView":17,
			"componentType":5126,
			"count":847,
			"max":[
				-0.2517836093902588,
				-0.32330432534217834,
				0.05788043513894081
			],
			"min":[
				-0.3006966710090637,
				-0.37656518816947937,
				-0.007336955517530441
			],
			"type":"VEC3"
		},
		{
			"bufferView":18,
			"componentType":5126,
			"count":847,
			"type":"VEC3"
		},
		{
			"bufferView":19,
			"componentType":5123,
			"count":2814,
			"type":"SCALAR"
		},
		{
			"bufferView":20,
			"componentType":5126,
			"count":4,
			"max":[
				-0.2566749155521393,
				-0.3624347448348999,
				0.05570651963353157
			],
			"min":[
				-0.2631966471672058,
				-0.37656518816947937,
				0.05570651963353157
			],
			"type":"VEC3"
		},
		{
			"bufferView":21,
			"componentType":5126,
			"count":4,
			"type":"VEC3"
		},
		{
			"bufferView":22,
			"componentType":5126,
			"count":64,
			"max":[
				-0.2566749155521393,
				-0.3298260569572449,
				0.05570651963353157
			],
			"min":[
				-0.29580533504486084,
				-0.37113040685653687,
				0.05570651963353157
			],
			"type":"VEC3"
		},
		{
			"bufferView":23,
			"componentType":5126,
			"count":64,
			"type":"VEC3"
		},
		{
			"bufferView":24,
			"componentType":5123,
			"count":96,
			"type":"SCALAR"
		}
	],
	"bufferViews":[
		{
			"buffer":0,
			"byteLength":5796,
			"byteOffset":0,
			"target":34962
		},
		{
			"buffer":0,
			"byteLength":5796,
			"byteOffset":5796,
			"target":34962
		},
		{
			"buffer":0,
			"byteLength":2784,
			"byteOffset":11592,
			"target":34963
		},
		{
			"buffer":0,
			"byteLength":432,
			"byteOffset":14376,
			"target":34962
		},
		{
			"buffer":0,
			"byteLength":432,
			"byteOffset":14808,
			"target":34962
		},
		{
			"buffer":0,
			"byteLength":108,
			"byteOffset":15240,
			"target":34963
		},
		{
			"buffer":0,
			"byteLength":48,
			"byteOffset":15348,
			"target":34962
		},
		{
			"buffer":0,
			"byteLength":48,
			"byteOffset":15396,
			"target":34962
		},
		{
			"buffer":0,
			"byteLength":12,
			"byteOffset":15444,
			"target":34963
		},
		{
			"buffer":0,
			"byteLength":3696,
			"byteOffset":15456,
			"target":34962
		},
		{
			"buffer":0,
			"byteLength":3696,
			"byteOffset":19152,
			"target":34962
		},
		{
			"buffer":0,
			"byteLength":1500,
			"byteOffset":22848,
			"target":34963
		},
		{
			"buffer":0,
			"byteLength":192,
			"byteOffset":24348,
			"target":34962
		},
		{
			"buffer":0,
			"byteLength":192,
			"byteOffset":24540,
			"target":34962
		},
		{
			"buffer":0,
			"byteLength":48,
			"byteOffset":24732,
			"target":34963
		},
		{
			"buffer":0,
			"byteLength":48,
			"byteOffset":24780,
			"target":34962
		},
		{
			"buffer":0,
			"byteLength":48,
			"byteOffset":24828,
			"target":34962
		},
		{
			"buffer":0,
			"byteLength":10164,
			"byteOffset":24876,
			"target":34962
		},
		{
			"buffer":0,
			"byteLength":10164,
			"byteOffset":35040,
			"target":34962
		},
		{
			"buffer":0,
			"byteLength":5628,
			"byteOffset":45204,
			"target":34963
		},
		{
			"buffer":0,
			"byteLength":48,
			"byteOffset":50832,
			"target":34962
		},
		{
			"buffer":0,
			"byteLength":48,
			"byteOffset":50880,
			"target":34962
		},
		{
			"buffer":0,
			"byteLength":768,
			"byteOffset":50928,
			"target":34962
		},
		{
			"buffer":0,
			"byteLength":768,
			"byteOffset":51696,
			"target":34962
		},
		{
			"buffer":0,
			"byteLength":192,
			"byteOffset":52464,
			"target":34963
		}
	],
	"buffers":[
		{
			"byteLength":52656,
			"uri":"BinaGrup13.bin"
		}
	]
}
