{
	"asset":{
		"generator":"Khronos glTF Blender I/O v4.2.60",
		"version":"2.0"
	},
	"scene":0,
	"scenes":[
		{
			"name":"Scene",
			"nodes":[
				0,
				1,
				2,
				3,
				4,
				5,
				6,
				7,
				8
			]
		}
	],
	"nodes":[
		{
			"mesh":0,
			"name":"Building_019.011"
		},
		{
			"mesh":1,
			"name":"Building_019.012"
		},
		{
			"mesh":2,
			"name":"Building_019.013"
		},
		{
			"mesh":3,
			"name":"Building_056.011"
		},
		{
			"mesh":4,
			"name":"Building_056.012"
		},
		{
			"mesh":5,
			"name":"Building_056.013"
		},
		{
			"mesh":6,
			"name":"Building_029.011"
		},
		{
			"mesh":7,
			"name":"Building_029.012"
		},
		{
			"mesh":8,
			"name":"Building_029.013"
		}
	],
	"materials":[
		{
			"doubleSided":true,
			"name":"BinaGrid",
			"pbrMetallicRoughness":{
				"baseColorFactor":[
					0.0009104993660002947,
					0.04091522842645645,
					0.06662598252296448,
					1
				],
				"metallicFactor":0,
				"roughnessFactor":0.5
			}
		},
		{
			"doubleSided":true,
			"name":"PencereGrid",
			"pbrMetallicRoughness":{
				"baseColorFactor":[
					0.1328672468662262,
					0.26635584235191345,
					0.31854695081710815,
					1
				],
				"metallicFactor":0,
				"roughnessFactor":0.699999988079071
			}
		},
		{
			"doubleSided":true,
			"name":"Kap\u0131Grid",
			"pbrMetallicRoughness":{
				"baseColorFactor":[
					0,
					0.01161225512623787,
					0.016807379201054573,
					1
				],
				"metallicFactor":0,
				"roughnessFactor":0.699999988079071
			}
		}
	],
	"meshes":[
		{
			"name":"Building_019_Mesh.002",
			"primitives":[
				{
					"attributes":{
						"POSITION":0,
						"NORMAL":1
					},
					"indices":2,
					"material":0
				}
			]
		},
		{
			"name":"Building_019_Mesh.012",
			"primitives":[
				{
					"attributes":{
						"POSITION":3,
						"NORMAL":4
					},
					"indices":5,
					"material":1
				}
			]
		},
		{
			"name":"Building_019_Mesh.013",
			"primitives":[
				{
					"attributes":{
						"POSITION":6,
						"NORMAL":7
					},
					"indices":8,
					"material":2
				}
			]
		},
		{
			"name":"Building_056_Mesh.002",
			"primitives":[
				{
					"attributes":{
						"POSITION":9,
						"NORMAL":10
					},
					"indices":11,
					"material":0
				}
			]
		},
		{
			"name":"Building_056_Mesh.012",
			"primitives":[
				{
					"attributes":{
						"POSITION":12,
						"NORMAL":13
					},
					"indices":14,
					"material":1
				}
			]
		},
		{
			"name":"Building_056_Mesh.013",
			"primitives":[
				{
					"attributes":{
						"POSITION":15,
						"NORMAL":16
					},
					"indices":8,
					"material":2
				}
			]
		},
		{
			"name":"Building_029_Mesh.002",
			"primitives":[
				{
					"attributes":{
						"POSITION":17,
						"NORMAL":18
					},
					"indices":19,
					"material":0
				}
			]
		},
		{
			"name":"Building_029_Mesh.012",
			"primitives":[
				{
					"attributes":{
						"POSITION":20,
						"NORMAL":21
					},
					"indices":22,
					"material":1
				}
			]
		},
		{
			"name":"Building_029_Mesh.013",
			"primitives":[
				{
					"attributes":{
						"POSITION":23,
						"NORMAL":24
					},
					"indices":8,
					"material":2
				}
			]
		}
	],
	"accessors":[
		{
			"bufferView":0,
			"componentType":5126,
			"count":512,
			"max":[
				-0.2517836093902588,
				-0.42873910069465637,
				0.036141302436590195
			],
			"min":[
				-0.30069664120674133,
				-0.47439128160476685,
				-0.007336955517530441
			],
			"type":"VEC3"
		},
		{
			"bufferView":1,
			"componentType":5126,
			"count":512,
			"type":"VEC3"
		},
		{
			"bufferView":2,
			"componentType":5123,
			"count":1434,
			"type":"SCALAR"
		},
		{
			"bufferView":3,
			"componentType":5126,
			"count":30,
			"max":[
				-0.25667494535446167,
				-0.44395649433135986,
				0.033967386931180954
			],
			"min":[
				-0.29580533504486084,
				-0.4667825996875763,
				0.033967386931180954
			],
			"type":"VEC3"
		},
		{
			"bufferView":4,
			"componentType":5126,
			"count":30,
			"type":"VEC3"
		},
		{
			"bufferView":5,
			"componentType":5123,
			"count":48,
			"type":"SCALAR"
		},
		{
			"bufferView":6,
			"componentType":5126,
			"count":4,
			"max":[
				-0.2675444781780243,
				-0.4602608382701874,
				0.03396739438176155
			],
			"min":[
				-0.28493577241897583,
				-0.47439128160476685,
				0.03396739438176155
			],
			"type":"VEC3"
		},
		{
			"bufferView":7,
			"componentType":5126,
			"count":4,
			"type":"VEC3"
		},
		{
			"bufferView":8,
			"componentType":5123,
			"count":6,
			"type":"SCALAR"
		},
		{
			"bufferView":9,
			"componentType":5126,
			"count":857,
			"max":[
				0.20473802089691162,
				0.17669564485549927,
				0.03614130616188049
			],
			"min":[
				0.15582501888275146,
				0.11256527900695801,
				-0.0073369513265788555
			],
			"type":"VEC3"
		},
		{
			"bufferView":10,
			"componentType":5126,
			"count":857,
			"type":"VEC3"
		},
		{
			"bufferView":11,
			"componentType":5123,
			"count":2736,
			"type":"SCALAR"
		},
		{
			"bufferView":12,
			"componentType":5126,
			"count":56,
			"max":[
				0.1998468041419983,
				0.15930438041687012,
				0.03396739438176155
			],
			"min":[
				0.16071635484695435,
				0.12017393112182617,
				0.03396739438176155
			],
			"type":"VEC3"
		},
		{
			"bufferView":13,
			"componentType":5126,
			"count":56,
			"type":"VEC3"
		},
		{
			"bufferView":14,
			"componentType":5123,
			"count":84,
			"type":"SCALAR"
		},
		{
			"bufferView":15,
			"componentType":5126,
			"count":4,
			"max":[
				0.1889771819114685,
				0.1266956925392151,
				0.03396739438176155
			],
			"min":[
				0.17158585786819458,
				0.11256527900695801,
				0.03396739438176155
			],
			"type":"VEC3"
		},
		{
			"bufferView":16,
			"componentType":5126,
			"count":4,
			"type":"VEC3"
		},
		{
			"bufferView":17,
			"componentType":5126,
			"count":497,
			"max":[
				-0.10776185989379883,
				0.07886958122253418,
				0.036141302436590195
			],
			"min":[
				-0.14037057757377625,
				0.014739125967025757,
				-0.007336955517530441
			],
			"type":"VEC3"
		},
		{
			"bufferView":18,
			"componentType":5126,
			"count":497,
			"type":"VEC3"
		},
		{
			"bufferView":19,
			"componentType":5123,
			"count":1398,
			"type":"SCALAR"
		},
		{
			"bufferView":20,
			"componentType":5126,
			"count":36,
			"max":[
				-0.11319667100906372,
				0.061478257179260254,
				0.033967386931180954
			],
			"min":[
				-0.13493582606315613,
				0.022347837686538696,
				0.033967386931180954
			],
			"type":"VEC3"
		},
		{
			"bufferView":21,
			"componentType":5126,
			"count":36,
			"type":"VEC3"
		},
		{
			"bufferView":22,
			"componentType":5123,
			"count":54,
			"type":"SCALAR"
		},
		{
			"bufferView":23,
			"componentType":5126,
			"count":4,
			"max":[
				-0.12624016404151917,
				0.028869569301605225,
				0.03396739438176155
			],
			"min":[
				-0.13493582606315613,
				0.014739125967025757,
				0.03396739438176155
			],
			"type":"VEC3"
		},
		{
			"bufferView":24,
			"componentType":5126,
			"count":4,
			"type":"VEC3"
		}
	],
	"bufferViews":[
		{
			"buffer":0,
			"byteLength":6144,
			"byteOffset":0,
			"target":34962
		},
		{
			"buffer":0,
			"byteLength":6144,
			"byteOffset":6144,
			"target":34962
		},
		{
			"buffer":0,
			"byteLength":2868,
			"byteOffset":12288,
			"target":34963
		},
		{
			"buffer":0,
			"byteLength":360,
			"byteOffset":15156,
			"target":34962
		},
		{
			"buffer":0,
			"byteLength":360,
			"byteOffset":15516,
			"target":34962
		},
		{
			"buffer":0,
			"byteLength":96,
			"byteOffset":15876,
			"target":34963
		},
		{
			"buffer":0,
			"byteLength":48,
			"byteOffset":15972,
			"target":34962
		},
		{
			"buffer":0,
			"byteLength":48,
			"byteOffset":16020,
			"target":34962
		},
		{
			"buffer":0,
			"byteLength":12,
			"byteOffset":16068,
			"target":34963
		},
		{
			"buffer":0,
			"byteLength":10284,
			"byteOffset":16080,
			"target":34962
		},
		{
			"buffer":0,
			"byteLength":10284,
			"byteOffset":26364,
			"target":34962
		},
		{
			"buffer":0,
			"byteLength":5472,
			"byteOffset":36648,
			"target":34963
		},
		{
			"buffer":0,
			"byteLength":672,
			"byteOffset":42120,
			"target":34962
		},
		{
			"buffer":0,
			"byteLength":672,
			"byteOffset":42792,
			"target":34962
		},
		{
			"buffer":0,
			"byteLength":168,
			"byteOffset":43464,
			"target":34963
		},
		{
			"buffer":0,
			"byteLength":48,
			"byteOffset":43632,
			"target":34962
		},
		{
			"buffer":0,
			"byteLength":48,
			"byteOffset":43680,
			"target":34962
		},
		{
			"buffer":0,
			"byteLength":5964,
			"byteOffset":43728,
			"target":34962
		},
		{
			"buffer":0,
			"byteLength":5964,
			"byteOffset":49692,
			"target":34962
		},
		{
			"buffer":0,
			"byteLength":2796,
			"byteOffset":55656,
			"target":34963
		},
		{
			"buffer":0,
			"byteLength":432,
			"byteOffset":58452,
			"target":34962
		},
		{
			"buffer":0,
			"byteLength":432,
			"byteOffset":58884,
			"target":34962
		},
		{
			"buffer":0,
			"byteLength":108,
			"byteOffset":59316,
			"target":34963
		},
		{
			"buffer":0,
			"byteLength":48,
			"byteOffset":59424,
			"target":34962
		},
		{
			"buffer":0,
			"byteLength":48,
			"byteOffset":59472,
			"target":34962
		}
	],
	"buffers":[
		{
			"byteLength":59520,
			"uri":"BinaGrup7.bin"
		}
	]
}
