{
	"asset":{
		"generator":"Khronos glTF Blender I/O v4.2.60",
		"version":"2.0"
	},
	"scene":0,
	"scenes":[
		{
			"name":"Scene",
			"nodes":[
				0,
				1,
				2,
				3,
				4,
				5,
				6,
				7,
				8
			]
		}
	],
	"nodes":[
		{
			"mesh":0,
			"name":"Building_053.011"
		},
		{
			"mesh":1,
			"name":"Building_053.012"
		},
		{
			"mesh":2,
			"name":"Building_053.013"
		},
		{
			"mesh":3,
			"name":"Building_040.011"
		},
		{
			"mesh":4,
			"name":"Building_040.012"
		},
		{
			"mesh":5,
			"name":"Building_040.013"
		},
		{
			"mesh":6,
			"name":"Building_067.011"
		},
		{
			"mesh":7,
			"name":"Building_067.012"
		},
		{
			"mesh":8,
			"name":"Building_067.013"
		}
	],
	"materials":[
		{
			"doubleSided":true,
			"name":"BinaGrid",
			"pbrMetallicRoughness":{
				"baseColorFactor":[
					0.0009104993660002947,
					0.04091522842645645,
					0.06662598252296448,
					1
				],
				"metallicFactor":0,
				"roughnessFactor":0.5
			}
		},
		{
			"doubleSided":true,
			"name":"PencereGrid",
			"pbrMetallicRoughness":{
				"baseColorFactor":[
					0.1328672468662262,
					0.26635584235191345,
					0.31854695081710815,
					1
				],
				"metallicFactor":0,
				"roughnessFactor":0.699999988079071
			}
		},
		{
			"doubleSided":true,
			"name":"Kap\u0131Grid",
			"pbrMetallicRoughness":{
				"baseColorFactor":[
					0,
					0.01161225512623787,
					0.016807379201054573,
					1
				],
				"metallicFactor":0,
				"roughnessFactor":0.699999988079071
			}
		}
	],
	"meshes":[
		{
			"name":"Building_053_Mesh.002",
			"primitives":[
				{
					"attributes":{
						"POSITION":0,
						"NORMAL":1
					},
					"indices":2,
					"material":0
				}
			]
		},
		{
			"name":"Building_053_Mesh.012",
			"primitives":[
				{
					"attributes":{
						"POSITION":3,
						"NORMAL":4
					},
					"indices":5,
					"material":1
				}
			]
		},
		{
			"name":"Building_053_Mesh.013",
			"primitives":[
				{
					"attributes":{
						"POSITION":6,
						"NORMAL":7
					},
					"indices":8,
					"material":2
				}
			]
		},
		{
			"name":"Building_040_Mesh.002",
			"primitives":[
				{
					"attributes":{
						"POSITION":9,
						"NORMAL":10
					},
					"indices":11,
					"material":0
				}
			]
		},
		{
			"name":"Building_040_Mesh.012",
			"primitives":[
				{
					"attributes":{
						"POSITION":12,
						"NORMAL":13
					},
					"indices":14,
					"material":1
				}
			]
		},
		{
			"name":"Building_040_Mesh.013",
			"primitives":[
				{
					"attributes":{
						"POSITION":15,
						"NORMAL":16
					},
					"indices":8,
					"material":2
				}
			]
		},
		{
			"name":"Building_067_Mesh.002",
			"primitives":[
				{
					"attributes":{
						"POSITION":17,
						"NORMAL":18
					},
					"indices":19,
					"material":0
				}
			]
		},
		{
			"name":"Building_067_Mesh.012",
			"primitives":[
				{
					"attributes":{
						"POSITION":20,
						"NORMAL":21
					},
					"indices":22,
					"material":1
				}
			]
		},
		{
			"name":"Building_067_Mesh.013",
			"primitives":[
				{
					"attributes":{
						"POSITION":23,
						"NORMAL":24
					},
					"indices":8,
					"material":2
				}
			]
		}
	],
	"accessors":[
		{
			"bufferView":0,
			"componentType":5126,
			"count":826,
			"max":[
				0.12865114212036133,
				-0.21460866928100586,
				0.0470108762383461
			],
			"min":[
				0.0797380805015564,
				-0.2787390947341919,
				-0.0073369513265788555
			],
			"type":"VEC3"
		},
		{
			"bufferView":1,
			"componentType":5126,
			"count":826,
			"type":"VEC3"
		},
		{
			"bufferView":2,
			"componentType":5123,
			"count":2670,
			"type":"SCALAR"
		},
		{
			"bufferView":3,
			"componentType":5126,
			"count":52,
			"max":[
				0.12375986576080322,
				-0.2319999784231186,
				0.04483695700764656
			],
			"min":[
				0.08462941646575928,
				-0.2754782438278198,
				0.04483695700764656
			],
			"type":"VEC3"
		},
		{
			"bufferView":4,
			"componentType":5126,
			"count":52,
			"type":"VEC3"
		},
		{
			"bufferView":5,
			"componentType":5123,
			"count":78,
			"type":"SCALAR"
		},
		{
			"bufferView":6,
			"componentType":5126,
			"count":4,
			"max":[
				0.0911511778831482,
				-0.2646086513996124,
				0.04483695700764656
			],
			"min":[
				0.08462941646575928,
				-0.2787390947341919,
				0.04483695700764656
			],
			"type":"VEC3"
		},
		{
			"bufferView":7,
			"componentType":5126,
			"count":4,
			"type":"VEC3"
		},
		{
			"bufferView":8,
			"componentType":5123,
			"count":6,
			"type":"SCALAR"
		},
		{
			"bufferView":9,
			"componentType":5126,
			"count":501,
			"max":[
				-0.03167495131492615,
				-0.31243476271629333,
				0.05788043513894081
			],
			"min":[
				-0.06428366899490356,
				-0.37656518816947937,
				-0.007336955517530441
			],
			"type":"VEC3"
		},
		{
			"bufferView":10,
			"componentType":5126,
			"count":501,
			"type":"VEC3"
		},
		{
			"bufferView":11,
			"componentType":5123,
			"count":1401,
			"type":"SCALAR"
		},
		{
			"bufferView":12,
			"componentType":5126,
			"count":39,
			"max":[
				-0.03710973262786865,
				-0.3298260569572449,
				0.05570651963353157
			],
			"min":[
				-0.05884885787963867,
				-0.37113040685653687,
				0.05570651963353157
			],
			"type":"VEC3"
		},
		{
			"bufferView":13,
			"componentType":5126,
			"count":39,
			"type":"VEC3"
		},
		{
			"bufferView":14,
			"componentType":5123,
			"count":63,
			"type":"SCALAR"
		},
		{
			"bufferView":15,
			"componentType":5126,
			"count":4,
			"max":[
				-0.037109702825546265,
				-0.3624347448348999,
				0.05570651963353157
			],
			"min":[
				-0.04580536484718323,
				-0.37656518816947937,
				0.05570651963353157
			],
			"type":"VEC3"
		},
		{
			"bufferView":16,
			"componentType":5126,
			"count":4,
			"type":"VEC3"
		},
		{
			"bufferView":17,
			"componentType":5126,
			"count":705,
			"max":[
				0.2726728916168213,
				-0.19830432534217834,
				0.057880427688360214
			],
			"min":[
				0.24006414413452148,
				-0.2787390947341919,
				-0.007336955517530441
			],
			"type":"VEC3"
		},
		{
			"bufferView":18,
			"componentType":5126,
			"count":705,
			"type":"VEC3"
		},
		{
			"bufferView":19,
			"componentType":5123,
			"count":2286,
			"type":"SCALAR"
		},
		{
			"bufferView":20,
			"componentType":5126,
			"count":48,
			"max":[
				0.2672380208969116,
				-0.21569561958312988,
				0.05570651963353157
			],
			"min":[
				0.2454988956451416,
				-0.2733043432235718,
				0.05570651963353157
			],
			"type":"VEC3"
		},
		{
			"bufferView":21,
			"componentType":5126,
			"count":48,
			"type":"VEC3"
		},
		{
			"bufferView":22,
			"componentType":5123,
			"count":72,
			"type":"SCALAR"
		},
		{
			"bufferView":23,
			"componentType":5126,
			"count":4,
			"max":[
				0.25419455766677856,
				-0.2646086513996124,
				0.05570651963353157
			],
			"min":[
				0.2454988956451416,
				-0.2787390947341919,
				0.05570651963353157
			],
			"type":"VEC3"
		},
		{
			"bufferView":24,
			"componentType":5126,
			"count":4,
			"type":"VEC3"
		}
	],
	"bufferViews":[
		{
			"buffer":0,
			"byteLength":9912,
			"byteOffset":0,
			"target":34962
		},
		{
			"buffer":0,
			"byteLength":9912,
			"byteOffset":9912,
			"target":34962
		},
		{
			"buffer":0,
			"byteLength":5340,
			"byteOffset":19824,
			"target":34963
		},
		{
			"buffer":0,
			"byteLength":624,
			"byteOffset":25164,
			"target":34962
		},
		{
			"buffer":0,
			"byteLength":624,
			"byteOffset":25788,
			"target":34962
		},
		{
			"buffer":0,
			"byteLength":156,
			"byteOffset":26412,
			"target":34963
		},
		{
			"buffer":0,
			"byteLength":48,
			"byteOffset":26568,
			"target":34962
		},
		{
			"buffer":0,
			"byteLength":48,
			"byteOffset":26616,
			"target":34962
		},
		{
			"buffer":0,
			"byteLength":12,
			"byteOffset":26664,
			"target":34963
		},
		{
			"buffer":0,
			"byteLength":6012,
			"byteOffset":26676,
			"target":34962
		},
		{
			"buffer":0,
			"byteLength":6012,
			"byteOffset":32688,
			"target":34962
		},
		{
			"buffer":0,
			"byteLength":2802,
			"byteOffset":38700,
			"target":34963
		},
		{
			"buffer":0,
			"byteLength":468,
			"byteOffset":41504,
			"target":34962
		},
		{
			"buffer":0,
			"byteLength":468,
			"byteOffset":41972,
			"target":34962
		},
		{
			"buffer":0,
			"byteLength":126,
			"byteOffset":42440,
			"target":34963
		},
		{
			"buffer":0,
			"byteLength":48,
			"byteOffset":42568,
			"target":34962
		},
		{
			"buffer":0,
			"byteLength":48,
			"byteOffset":42616,
			"target":34962
		},
		{
			"buffer":0,
			"byteLength":8460,
			"byteOffset":42664,
			"target":34962
		},
		{
			"buffer":0,
			"byteLength":8460,
			"byteOffset":51124,
			"target":34962
		},
		{
			"buffer":0,
			"byteLength":4572,
			"byteOffset":59584,
			"target":34963
		},
		{
			"buffer":0,
			"byteLength":576,
			"byteOffset":64156,
			"target":34962
		},
		{
			"buffer":0,
			"byteLength":576,
			"byteOffset":64732,
			"target":34962
		},
		{
			"buffer":0,
			"byteLength":144,
			"byteOffset":65308,
			"target":34963
		},
		{
			"buffer":0,
			"byteLength":48,
			"byteOffset":65452,
			"target":34962
		},
		{
			"buffer":0,
			"byteLength":48,
			"byteOffset":65500,
			"target":34962
		}
	],
	"buffers":[
		{
			"byteLength":65548,
			"uri":"BinaGrup15.bin"
		}
	]
}
