{
	"asset":{
		"generator":"Khronos glTF Blender I/O v4.2.60",
		"version":"2.0"
	},
	"scene":0,
	"scenes":[
		{
			"name":"Scene",
			"nodes":[
				0,
				1,
				2,
				3,
				4,
				5,
				6,
				7,
				8
			]
		}
	],
	"nodes":[
		{
			"mesh":0,
			"name":"Building_035.011"
		},
		{
			"mesh":1,
			"name":"Building_035.012"
		},
		{
			"mesh":2,
			"name":"Building_035.013"
		},
		{
			"mesh":3,
			"name":"Building_068.011"
		},
		{
			"mesh":4,
			"name":"Building_068.012"
		},
		{
			"mesh":5,
			"name":"Building_068.013"
		},
		{
			"mesh":6,
			"name":"Building_043.011"
		},
		{
			"mesh":7,
			"name":"Building_043.012"
		},
		{
			"mesh":8,
			"name":"Building_043.013"
		}
	],
	"materials":[
		{
			"doubleSided":true,
			"name":"BinaGrid",
			"pbrMetallicRoughness":{
				"baseColorFactor":[
					0.0009104993660002947,
					0.04091522842645645,
					0.06662598252296448,
					1
				],
				"metallicFactor":0,
				"roughnessFactor":0.5
			}
		},
		{
			"doubleSided":true,
			"name":"PencereGrid",
			"pbrMetallicRoughness":{
				"baseColorFactor":[
					0.1328672468662262,
					0.26635584235191345,
					0.31854695081710815,
					1
				],
				"metallicFactor":0,
				"roughnessFactor":0.699999988079071
			}
		},
		{
			"doubleSided":true,
			"name":"Kap\u0131Grid",
			"pbrMetallicRoughness":{
				"baseColorFactor":[
					0,
					0.01161225512623787,
					0.016807379201054573,
					1
				],
				"metallicFactor":0,
				"roughnessFactor":0.699999988079071
			}
		}
	],
	"meshes":[
		{
			"name":"Building_035_Mesh.002",
			"primitives":[
				{
					"attributes":{
						"POSITION":0,
						"NORMAL":1
					},
					"indices":2,
					"material":0
				}
			]
		},
		{
			"name":"Building_035_Mesh.012",
			"primitives":[
				{
					"attributes":{
						"POSITION":3,
						"NORMAL":4
					},
					"indices":5,
					"material":1
				}
			]
		},
		{
			"name":"Building_035_Mesh.013",
			"primitives":[
				{
					"attributes":{
						"POSITION":6,
						"NORMAL":7
					},
					"indices":8,
					"material":2
				}
			]
		},
		{
			"name":"Building_068_Mesh.002",
			"primitives":[
				{
					"attributes":{
						"POSITION":9,
						"NORMAL":10
					},
					"indices":11,
					"material":0
				}
			]
		},
		{
			"name":"Building_068_Mesh.012",
			"primitives":[
				{
					"attributes":{
						"POSITION":12,
						"NORMAL":13
					},
					"indices":14,
					"material":1
				}
			]
		},
		{
			"name":"Building_068_Mesh.013",
			"primitives":[
				{
					"attributes":{
						"POSITION":15,
						"NORMAL":16
					},
					"indices":8,
					"material":2
				}
			]
		},
		{
			"name":"Building_043_Mesh.002",
			"primitives":[
				{
					"attributes":{
						"POSITION":17,
						"NORMAL":18
					},
					"indices":19,
					"material":0
				}
			]
		},
		{
			"name":"Building_043_Mesh.012",
			"primitives":[
				{
					"attributes":{
						"POSITION":20,
						"NORMAL":21
					},
					"indices":22,
					"material":1
				}
			]
		},
		{
			"name":"Building_043_Mesh.013",
			"primitives":[
				{
					"attributes":{
						"POSITION":23,
						"NORMAL":24
					},
					"indices":8,
					"material":2
				}
			]
		}
	],
	"accessors":[
		{
			"bufferView":0,
			"componentType":5126,
			"count":308,
			"max":[
				-0.03167495131492615,
				0.1582174301147461,
				0.047010865062475204
			],
			"min":[
				-0.06428366899490356,
				0.11256527900695801,
				-0.007336959708482027
			],
			"type":"VEC3"
		},
		{
			"bufferView":1,
			"componentType":5126,
			"count":308,
			"type":"VEC3"
		},
		{
			"bufferView":2,
			"componentType":5123,
			"count":750,
			"type":"SCALAR"
		},
		{
			"bufferView":3,
			"componentType":5126,
			"count":20,
			"max":[
				-0.037109702825546265,
				0.14300000667572021,
				0.04483695700764656
			],
			"min":[
				-0.05884885787963867,
				0.1158260703086853,
				0.04483695700764656
			],
			"type":"VEC3"
		},
		{
			"bufferView":4,
			"componentType":5126,
			"count":20,
			"type":"VEC3"
		},
		{
			"bufferView":5,
			"componentType":5123,
			"count":30,
			"type":"SCALAR"
		},
		{
			"bufferView":6,
			"componentType":5126,
			"count":4,
			"max":[
				-0.05015319585800171,
				0.1266956925392151,
				0.04483695700764656
			],
			"min":[
				-0.05884888768196106,
				0.11256527900695801,
				0.04483695700764656
			],
			"type":"VEC3"
		},
		{
			"bufferView":7,
			"componentType":5126,
			"count":4,
			"type":"VEC3"
		},
		{
			"bufferView":8,
			"componentType":5123,
			"count":6,
			"type":"SCALAR"
		},
		{
			"bufferView":9,
			"componentType":5126,
			"count":873,
			"max":[
				0.2808249592781067,
				-0.3167825937271118,
				0.05788043513894081
			],
			"min":[
				0.23191195726394653,
				-0.37656518816947937,
				-0.007336955517530441
			],
			"type":"VEC3"
		},
		{
			"bufferView":10,
			"componentType":5126,
			"count":873,
			"type":"VEC3"
		},
		{
			"bufferView":11,
			"componentType":5123,
			"count":2826,
			"type":"SCALAR"
		},
		{
			"bufferView":12,
			"componentType":5126,
			"count":64,
			"max":[
				0.2759336829185486,
				-0.3298260569572449,
				0.05570651963353157
			],
			"min":[
				0.23680323362350464,
				-0.37113040685653687,
				0.05570651963353157
			],
			"type":"VEC3"
		},
		{
			"bufferView":13,
			"componentType":5126,
			"count":64,
			"type":"VEC3"
		},
		{
			"bufferView":14,
			"componentType":5123,
			"count":96,
			"type":"SCALAR"
		},
		{
			"bufferView":15,
			"componentType":5126,
			"count":4,
			"max":[
				0.27593374252319336,
				-0.3624347448348999,
				0.05570651963353157
			],
			"min":[
				0.26941198110580444,
				-0.37656518816947937,
				0.05570651963353157
			],
			"type":"VEC3"
		},
		{
			"bufferView":16,
			"componentType":5126,
			"count":4,
			"type":"VEC3"
		},
		{
			"bufferView":17,
			"componentType":5126,
			"count":481,
			"max":[
				0.04441201686859131,
				0.06800001859664917,
				0.05788043513894081
			],
			"min":[
				0.01180332899093628,
				0.014739125967025757,
				-0.007336955517530441
			],
			"type":"VEC3"
		},
		{
			"bufferView":18,
			"componentType":5126,
			"count":481,
			"type":"VEC3"
		},
		{
			"bufferView":19,
			"componentType":5123,
			"count":1389,
			"type":"SCALAR"
		},
		{
			"bufferView":20,
			"componentType":5126,
			"count":39,
			"max":[
				0.038977205753326416,
				0.061478257179260254,
				0.05570651963353157
			],
			"min":[
				0.017238110303878784,
				0.02017390727996826,
				0.05570651963353157
			],
			"type":"VEC3"
		},
		{
			"bufferView":21,
			"componentType":5126,
			"count":39,
			"type":"VEC3"
		},
		{
			"bufferView":22,
			"componentType":5123,
			"count":63,
			"type":"SCALAR"
		},
		{
			"bufferView":23,
			"componentType":5126,
			"count":4,
			"max":[
				0.038977235555648804,
				0.028869569301605225,
				0.05570651963353157
			],
			"min":[
				0.03028157353401184,
				0.014739125967025757,
				0.05570651963353157
			],
			"type":"VEC3"
		},
		{
			"bufferView":24,
			"componentType":5126,
			"count":4,
			"type":"VEC3"
		}
	],
	"bufferViews":[
		{
			"buffer":0,
			"byteLength":3696,
			"byteOffset":0,
			"target":34962
		},
		{
			"buffer":0,
			"byteLength":3696,
			"byteOffset":3696,
			"target":34962
		},
		{
			"buffer":0,
			"byteLength":1500,
			"byteOffset":7392,
			"target":34963
		},
		{
			"buffer":0,
			"byteLength":240,
			"byteOffset":8892,
			"target":34962
		},
		{
			"buffer":0,
			"byteLength":240,
			"byteOffset":9132,
			"target":34962
		},
		{
			"buffer":0,
			"byteLength":60,
			"byteOffset":9372,
			"target":34963
		},
		{
			"buffer":0,
			"byteLength":48,
			"byteOffset":9432,
			"target":34962
		},
		{
			"buffer":0,
			"byteLength":48,
			"byteOffset":9480,
			"target":34962
		},
		{
			"buffer":0,
			"byteLength":12,
			"byteOffset":9528,
			"target":34963
		},
		{
			"buffer":0,
			"byteLength":10476,
			"byteOffset":9540,
			"target":34962
		},
		{
			"buffer":0,
			"byteLength":10476,
			"byteOffset":20016,
			"target":34962
		},
		{
			"buffer":0,
			"byteLength":5652,
			"byteOffset":30492,
			"target":34963
		},
		{
			"buffer":0,
			"byteLength":768,
			"byteOffset":36144,
			"target":34962
		},
		{
			"buffer":0,
			"byteLength":768,
			"byteOffset":36912,
			"target":34962
		},
		{
			"buffer":0,
			"byteLength":192,
			"byteOffset":37680,
			"target":34963
		},
		{
			"buffer":0,
			"byteLength":48,
			"byteOffset":37872,
			"target":34962
		},
		{
			"buffer":0,
			"byteLength":48,
			"byteOffset":37920,
			"target":34962
		},
		{
			"buffer":0,
			"byteLength":5772,
			"byteOffset":37968,
			"target":34962
		},
		{
			"buffer":0,
			"byteLength":5772,
			"byteOffset":43740,
			"target":34962
		},
		{
			"buffer":0,
			"byteLength":2778,
			"byteOffset":49512,
			"target":34963
		},
		{
			"buffer":0,
			"byteLength":468,
			"byteOffset":52292,
			"target":34962
		},
		{
			"buffer":0,
			"byteLength":468,
			"byteOffset":52760,
			"target":34962
		},
		{
			"buffer":0,
			"byteLength":126,
			"byteOffset":53228,
			"target":34963
		},
		{
			"buffer":0,
			"byteLength":48,
			"byteOffset":53356,
			"target":34962
		},
		{
			"buffer":0,
			"byteLength":48,
			"byteOffset":53404,
			"target":34962
		}
	],
	"buffers":[
		{
			"byteLength":53452,
			"uri":"BinaGrup9.bin"
		}
	]
}
