{
	"asset":{
		"generator":"Khronos glTF Blender I/O v4.2.60",
		"version":"2.0"
	},
	"scene":0,
	"scenes":[
		{
			"name":"Scene",
			"nodes":[
				0,
				1,
				2,
				3,
				4,
				5,
				6,
				7,
				8
			]
		}
	],
	"nodes":[
		{
			"mesh":0,
			"name":"Building_031.011"
		},
		{
			"mesh":1,
			"name":"Building_031.012"
		},
		{
			"mesh":2,
			"name":"Building_031.013"
		},
		{
			"mesh":3,
			"name":"Building_051.011"
		},
		{
			"mesh":4,
			"name":"Building_051.012"
		},
		{
			"mesh":5,
			"name":"Building_051.013"
		},
		{
			"mesh":6,
			"name":"Building_042.011"
		},
		{
			"mesh":7,
			"name":"Building_042.012"
		},
		{
			"mesh":8,
			"name":"Building_042.013"
		}
	],
	"materials":[
		{
			"doubleSided":true,
			"name":"BinaGrid",
			"pbrMetallicRoughness":{
				"baseColorFactor":[
					0.0009104993660002947,
					0.04091522842645645,
					0.06662598252296448,
					1
				],
				"metallicFactor":0,
				"roughnessFactor":0.5
			}
		},
		{
			"doubleSided":true,
			"name":"PencereGrid",
			"pbrMetallicRoughness":{
				"baseColorFactor":[
					0.1328672468662262,
					0.26635584235191345,
					0.31854695081710815,
					1
				],
				"metallicFactor":0,
				"roughnessFactor":0.699999988079071
			}
		},
		{
			"doubleSided":true,
			"name":"Kap\u0131Grid",
			"pbrMetallicRoughness":{
				"baseColorFactor":[
					0,
					0.01161225512623787,
					0.016807379201054573,
					1
				],
				"metallicFactor":0,
				"roughnessFactor":0.699999988079071
			}
		}
	],
	"meshes":[
		{
			"name":"Building_031_Mesh.002",
			"primitives":[
				{
					"attributes":{
						"POSITION":0,
						"NORMAL":1
					},
					"indices":2,
					"material":0
				}
			]
		},
		{
			"name":"Building_031_Mesh.012",
			"primitives":[
				{
					"attributes":{
						"POSITION":3,
						"NORMAL":4
					},
					"indices":5,
					"material":1
				}
			]
		},
		{
			"name":"Building_031_Mesh.013",
			"primitives":[
				{
					"attributes":{
						"POSITION":6,
						"NORMAL":7
					},
					"indices":8,
					"material":2
				}
			]
		},
		{
			"name":"Building_051_Mesh.002",
			"primitives":[
				{
					"attributes":{
						"POSITION":9,
						"NORMAL":10
					},
					"indices":11,
					"material":0
				}
			]
		},
		{
			"name":"Building_051_Mesh.012",
			"primitives":[
				{
					"attributes":{
						"POSITION":12,
						"NORMAL":13
					},
					"indices":14,
					"material":1
				}
			]
		},
		{
			"name":"Building_051_Mesh.013",
			"primitives":[
				{
					"attributes":{
						"POSITION":15,
						"NORMAL":16
					},
					"indices":8,
					"material":2
				}
			]
		},
		{
			"name":"Building_042_Mesh.002",
			"primitives":[
				{
					"attributes":{
						"POSITION":17,
						"NORMAL":18
					},
					"indices":19,
					"material":0
				}
			]
		},
		{
			"name":"Building_042_Mesh.012",
			"primitives":[
				{
					"attributes":{
						"POSITION":20,
						"NORMAL":21
					},
					"indices":5,
					"material":1
				}
			]
		},
		{
			"name":"Building_042_Mesh.013",
			"primitives":[
				{
					"attributes":{
						"POSITION":22,
						"NORMAL":23
					},
					"indices":8,
					"material":2
				}
			]
		}
	],
	"accessors":[
		{
			"bufferView":0,
			"componentType":5126,
			"count":495,
			"max":[
				-0.09960973262786865,
				-0.1439564824104309,
				0.03614130616188049
			],
			"min":[
				-0.1485227644443512,
				-0.18091300129890442,
				-0.0073369513265788555
			],
			"type":"VEC3"
		},
		{
			"bufferView":1,
			"componentType":5126,
			"count":495,
			"type":"VEC3"
		},
		{
			"bufferView":2,
			"componentType":5123,
			"count":1422,
			"type":"SCALAR"
		},
		{
			"bufferView":3,
			"componentType":5126,
			"count":28,
			"max":[
				-0.10450100898742676,
				-0.15047824382781982,
				0.033967386931180954
			],
			"min":[
				-0.1436314582824707,
				-0.17765215039253235,
				0.033967386931180954
			],
			"type":"VEC3"
		},
		{
			"bufferView":4,
			"componentType":5126,
			"count":28,
			"type":"VEC3"
		},
		{
			"bufferView":5,
			"componentType":5123,
			"count":42,
			"type":"SCALAR"
		},
		{
			"bufferView":6,
			"componentType":5126,
			"count":4,
			"max":[
				-0.11537060141563416,
				-0.16678255796432495,
				0.03396739438176155
			],
			"min":[
				-0.1327618658542633,
				-0.18091300129890442,
				0.03396739438176155
			],
			"type":"VEC3"
		},
		{
			"bufferView":7,
			"componentType":5126,
			"count":4,
			"type":"VEC3"
		},
		{
			"bufferView":8,
			"componentType":5123,
			"count":6,
			"type":"SCALAR"
		},
		{
			"bufferView":9,
			"componentType":5126,
			"count":874,
			"max":[
				0.1286512017250061,
				-0.02330431342124939,
				0.0470108762383461
			],
			"min":[
				0.07973814010620117,
				-0.08308693766593933,
				-0.0073369513265788555
			],
			"type":"VEC3"
		},
		{
			"bufferView":10,
			"componentType":5126,
			"count":874,
			"type":"VEC3"
		},
		{
			"bufferView":11,
			"componentType":5123,
			"count":2829,
			"type":"SCALAR"
		},
		{
			"bufferView":12,
			"componentType":5126,
			"count":63,
			"max":[
				0.12375986576080322,
				-0.036347776651382446,
				0.04483695700764656
			],
			"min":[
				0.08462941646575928,
				-0.07547822594642639,
				0.04483695700764656
			],
			"type":"VEC3"
		},
		{
			"bufferView":13,
			"componentType":5126,
			"count":63,
			"type":"VEC3"
		},
		{
			"bufferView":14,
			"componentType":5123,
			"count":93,
			"type":"SCALAR"
		},
		{
			"bufferView":15,
			"componentType":5126,
			"count":4,
			"max":[
				0.123759925365448,
				-0.06895646452903748,
				0.04483695700764656
			],
			"min":[
				0.11723816394805908,
				-0.08308693766593933,
				0.04483695700764656
			],
			"type":"VEC3"
		},
		{
			"bufferView":16,
			"componentType":5126,
			"count":4,
			"type":"VEC3"
		},
		{
			"bufferView":17,
			"componentType":5126,
			"count":515,
			"max":[
				0.05256417393684387,
				0.16039139032363892,
				0.0470108687877655
			],
			"min":[
				0.003651171922683716,
				0.11256527900695801,
				-0.007336955517530441
			],
			"type":"VEC3"
		},
		{
			"bufferView":18,
			"componentType":5126,
			"count":515,
			"type":"VEC3"
		},
		{
			"bufferView":19,
			"componentType":5123,
			"count":1434,
			"type":"SCALAR"
		},
		{
			"bufferView":20,
			"componentType":5126,
			"count":28,
			"max":[
				0.04767286777496338,
				0.14300000667572021,
				0.04483695700764656
			],
			"min":[
				0.008542418479919434,
				0.11582612991333008,
				0.04483695700764656
			],
			"type":"VEC3"
		},
		{
			"bufferView":21,
			"componentType":5126,
			"count":28,
			"type":"VEC3"
		},
		{
			"bufferView":22,
			"componentType":5126,
			"count":4,
			"max":[
				0.03680330514907837,
				0.1266956925392151,
				0.04483695700764656
			],
			"min":[
				0.01941201090812683,
				0.11256527900695801,
				0.04483695700764656
			],
			"type":"VEC3"
		},
		{
			"bufferView":23,
			"componentType":5126,
			"count":4,
			"type":"VEC3"
		}
	],
	"bufferViews":[
		{
			"buffer":0,
			"byteLength":5940,
			"byteOffset":0,
			"target":34962
		},
		{
			"buffer":0,
			"byteLength":5940,
			"byteOffset":5940,
			"target":34962
		},
		{
			"buffer":0,
			"byteLength":2844,
			"byteOffset":11880,
			"target":34963
		},
		{
			"buffer":0,
			"byteLength":336,
			"byteOffset":14724,
			"target":34962
		},
		{
			"buffer":0,
			"byteLength":336,
			"byteOffset":15060,
			"target":34962
		},
		{
			"buffer":0,
			"byteLength":84,
			"byteOffset":15396,
			"target":34963
		},
		{
			"buffer":0,
			"byteLength":48,
			"byteOffset":15480,
			"target":34962
		},
		{
			"buffer":0,
			"byteLength":48,
			"byteOffset":15528,
			"target":34962
		},
		{
			"buffer":0,
			"byteLength":12,
			"byteOffset":15576,
			"target":34963
		},
		{
			"buffer":0,
			"byteLength":10488,
			"byteOffset":15588,
			"target":34962
		},
		{
			"buffer":0,
			"byteLength":10488,
			"byteOffset":26076,
			"target":34962
		},
		{
			"buffer":0,
			"byteLength":5658,
			"byteOffset":36564,
			"target":34963
		},
		{
			"buffer":0,
			"byteLength":756,
			"byteOffset":42224,
			"target":34962
		},
		{
			"buffer":0,
			"byteLength":756,
			"byteOffset":42980,
			"target":34962
		},
		{
			"buffer":0,
			"byteLength":186,
			"byteOffset":43736,
			"target":34963
		},
		{
			"buffer":0,
			"byteLength":48,
			"byteOffset":43924,
			"target":34962
		},
		{
			"buffer":0,
			"byteLength":48,
			"byteOffset":43972,
			"target":34962
		},
		{
			"buffer":0,
			"byteLength":6180,
			"byteOffset":44020,
			"target":34962
		},
		{
			"buffer":0,
			"byteLength":6180,
			"byteOffset":50200,
			"target":34962
		},
		{
			"buffer":0,
			"byteLength":2868,
			"byteOffset":56380,
			"target":34963
		},
		{
			"buffer":0,
			"byteLength":336,
			"byteOffset":59248,
			"target":34962
		},
		{
			"buffer":0,
			"byteLength":336,
			"byteOffset":59584,
			"target":34962
		},
		{
			"buffer":0,
			"byteLength":48,
			"byteOffset":59920,
			"target":34962
		},
		{
			"buffer":0,
			"byteLength":48,
			"byteOffset":59968,
			"target":34962
		}
	],
	"buffers":[
		{
			"byteLength":60016,
			"uri":"BinaGrup3.bin"
		}
	]
}
