{
	"asset":{
		"generator":"Khronos glTF Blender I/O v4.2.60",
		"version":"2.0"
	},
	"scene":0,
	"scenes":[
		{
			"name":"Scene",
			"nodes":[
				0,
				1,
				2,
				3,
				4,
				5,
				6,
				7,
				8
			]
		}
	],
	"nodes":[
		{
			"mesh":0,
			"name":"Building_018.010"
		},
		{
			"mesh":1,
			"name":"Building_018.011"
		},
		{
			"mesh":2,
			"name":"Building_018.012"
		},
		{
			"mesh":3,
			"name":"Building_037.011"
		},
		{
			"mesh":4,
			"name":"Building_037.012"
		},
		{
			"mesh":5,
			"name":"Building_037.013"
		},
		{
			"mesh":6,
			"name":"Building_055.011"
		},
		{
			"mesh":7,
			"name":"Building_055.012"
		},
		{
			"mesh":8,
			"name":"Building_055.013"
		}
	],
	"materials":[
		{
			"doubleSided":true,
			"name":"BinaGrid",
			"pbrMetallicRoughness":{
				"baseColorFactor":[
					0.0009104993660002947,
					0.04091522842645645,
					0.06662598252296448,
					1
				],
				"metallicFactor":0,
				"roughnessFactor":0.5
			}
		},
		{
			"doubleSided":true,
			"name":"Kap\u0131Grid",
			"pbrMetallicRoughness":{
				"baseColorFactor":[
					0,
					0.01161225512623787,
					0.016807379201054573,
					1
				],
				"metallicFactor":0,
				"roughnessFactor":0.699999988079071
			}
		},
		{
			"doubleSided":true,
			"name":"PencereGrid",
			"pbrMetallicRoughness":{
				"baseColorFactor":[
					0.1328672468662262,
					0.26635584235191345,
					0.31854695081710815,
					1
				],
				"metallicFactor":0,
				"roughnessFactor":0.699999988079071
			}
		}
	],
	"meshes":[
		{
			"name":"Building_018_Mesh.012",
			"primitives":[
				{
					"attributes":{
						"POSITION":0,
						"NORMAL":1
					},
					"indices":2,
					"material":0
				}
			]
		},
		{
			"name":"Building_018_Mesh.013",
			"primitives":[
				{
					"attributes":{
						"POSITION":3,
						"NORMAL":4
					},
					"indices":5,
					"material":1
				}
			]
		},
		{
			"name":"Building_018_Mesh.014",
			"primitives":[
				{
					"attributes":{
						"POSITION":6,
						"NORMAL":7
					},
					"indices":8,
					"material":2
				}
			]
		},
		{
			"name":"Building_037_Mesh.002",
			"primitives":[
				{
					"attributes":{
						"POSITION":9,
						"NORMAL":10
					},
					"indices":11,
					"material":0
				}
			]
		},
		{
			"name":"Building_037_Mesh.012",
			"primitives":[
				{
					"attributes":{
						"POSITION":12,
						"NORMAL":13
					},
					"indices":14,
					"material":2
				}
			]
		},
		{
			"name":"Building_037_Mesh.013",
			"primitives":[
				{
					"attributes":{
						"POSITION":15,
						"NORMAL":16
					},
					"indices":5,
					"material":1
				}
			]
		},
		{
			"name":"Building_055_Mesh.002",
			"primitives":[
				{
					"attributes":{
						"POSITION":17,
						"NORMAL":18
					},
					"indices":19,
					"material":0
				}
			]
		},
		{
			"name":"Building_055_Mesh.012",
			"primitives":[
				{
					"attributes":{
						"POSITION":20,
						"NORMAL":21
					},
					"indices":22,
					"material":2
				}
			]
		},
		{
			"name":"Building_055_Mesh.013",
			"primitives":[
				{
					"attributes":{
						"POSITION":23,
						"NORMAL":24
					},
					"indices":5,
					"material":1
				}
			]
		}
	],
	"accessors":[
		{
			"bufferView":0,
			"componentType":5126,
			"count":505,
			"max":[
				-0.2517836093902588,
				-0.24178257584571838,
				0.047010865062475204
			],
			"min":[
				-0.30069664120674133,
				-0.2787390947341919,
				-0.007336959708482027
			],
			"type":"VEC3"
		},
		{
			"bufferView":1,
			"componentType":5126,
			"count":505,
			"type":"VEC3"
		},
		{
			"bufferView":2,
			"componentType":5123,
			"count":1476,
			"type":"SCALAR"
		},
		{
			"bufferView":3,
			"componentType":5126,
			"count":4,
			"max":[
				-0.2566749155521393,
				-0.2646086513996124,
				0.04483695700764656
			],
			"min":[
				-0.2631966471672058,
				-0.2787390947341919,
				0.04483695700764656
			],
			"type":"VEC3"
		},
		{
			"bufferView":4,
			"componentType":5126,
			"count":4,
			"type":"VEC3"
		},
		{
			"bufferView":5,
			"componentType":5123,
			"count":6,
			"type":"SCALAR"
		},
		{
			"bufferView":6,
			"componentType":5126,
			"count":32,
			"max":[
				-0.25667494535446167,
				-0.2483043223619461,
				0.04483695700764656
			],
			"min":[
				-0.29580533504486084,
				-0.2754782438278198,
				0.04483695700764656
			],
			"type":"VEC3"
		},
		{
			"bufferView":7,
			"componentType":5126,
			"count":32,
			"type":"VEC3"
		},
		{
			"bufferView":8,
			"componentType":5123,
			"count":48,
			"type":"SCALAR"
		},
		{
			"bufferView":9,
			"componentType":5126,
			"count":1258,
			"max":[
				-0.023522764444351196,
				-0.004826068878173828,
				0.047010865062475204
			],
			"min":[
				-0.07243582606315613,
				-0.08308693766593933,
				-0.007336959708482027
			],
			"type":"VEC3"
		},
		{
			"bufferView":10,
			"componentType":5126,
			"count":1258,
			"type":"VEC3"
		},
		{
			"bufferView":11,
			"componentType":5123,
			"count":4458,
			"type":"SCALAR"
		},
		{
			"bufferView":12,
			"componentType":5126,
			"count":60,
			"max":[
				-0.02841407060623169,
				-0.02004346251487732,
				0.04483695700764656
			],
			"min":[
				-0.06754451990127563,
				-0.07547822594642639,
				0.04483695700764656
			],
			"type":"VEC3"
		},
		{
			"bufferView":13,
			"componentType":5126,
			"count":60,
			"type":"VEC3"
		},
		{
			"bufferView":14,
			"componentType":5123,
			"count":90,
			"type":"SCALAR"
		},
		{
			"bufferView":15,
			"componentType":5126,
			"count":4,
			"max":[
				-0.06102275848388672,
				-0.06895646452903748,
				0.04483695700764656
			],
			"min":[
				-0.06754449009895325,
				-0.08308693766593933,
				0.04483695700764656
			],
			"type":"VEC3"
		},
		{
			"bufferView":16,
			"componentType":5126,
			"count":4,
			"type":"VEC3"
		},
		{
			"bufferView":17,
			"componentType":5126,
			"count":492,
			"max":[
				0.1286512017250061,
				-0.43743476271629333,
				0.0470108687877655
			],
			"min":[
				0.07973814010620117,
				-0.47439128160476685,
				-0.007336955517530441
			],
			"type":"VEC3"
		},
		{
			"bufferView":18,
			"componentType":5126,
			"count":492,
			"type":"VEC3"
		},
		{
			"bufferView":19,
			"componentType":5123,
			"count":1422,
			"type":"SCALAR"
		},
		{
			"bufferView":20,
			"componentType":5126,
			"count":30,
			"max":[
				0.12375986576080322,
				-0.44395649433135986,
				0.04483695700764656
			],
			"min":[
				0.08462941646575928,
				-0.4667825996875763,
				0.04483695700764656
			],
			"type":"VEC3"
		},
		{
			"bufferView":21,
			"componentType":5126,
			"count":30,
			"type":"VEC3"
		},
		{
			"bufferView":22,
			"componentType":5123,
			"count":48,
			"type":"SCALAR"
		},
		{
			"bufferView":23,
			"componentType":5126,
			"count":4,
			"max":[
				0.11289024353027344,
				-0.4602608382701874,
				0.04483695700764656
			],
			"min":[
				0.09549897909164429,
				-0.47439128160476685,
				0.04483695700764656
			],
			"type":"VEC3"
		},
		{
			"bufferView":24,
			"componentType":5126,
			"count":4,
			"type":"VEC3"
		}
	],
	"bufferViews":[
		{
			"buffer":0,
			"byteLength":6060,
			"byteOffset":0,
			"target":34962
		},
		{
			"buffer":0,
			"byteLength":6060,
			"byteOffset":6060,
			"target":34962
		},
		{
			"buffer":0,
			"byteLength":2952,
			"byteOffset":12120,
			"target":34963
		},
		{
			"buffer":0,
			"byteLength":48,
			"byteOffset":15072,
			"target":34962
		},
		{
			"buffer":0,
			"byteLength":48,
			"byteOffset":15120,
			"target":34962
		},
		{
			"buffer":0,
			"byteLength":12,
			"byteOffset":15168,
			"target":34963
		},
		{
			"buffer":0,
			"byteLength":384,
			"byteOffset":15180,
			"target":34962
		},
		{
			"buffer":0,
			"byteLength":384,
			"byteOffset":15564,
			"target":34962
		},
		{
			"buffer":0,
			"byteLength":96,
			"byteOffset":15948,
			"target":34963
		},
		{
			"buffer":0,
			"byteLength":15096,
			"byteOffset":16044,
			"target":34962
		},
		{
			"buffer":0,
			"byteLength":15096,
			"byteOffset":31140,
			"target":34962
		},
		{
			"buffer":0,
			"byteLength":8916,
			"byteOffset":46236,
			"target":34963
		},
		{
			"buffer":0,
			"byteLength":720,
			"byteOffset":55152,
			"target":34962
		},
		{
			"buffer":0,
			"byteLength":720,
			"byteOffset":55872,
			"target":34962
		},
		{
			"buffer":0,
			"byteLength":180,
			"byteOffset":56592,
			"target":34963
		},
		{
			"buffer":0,
			"byteLength":48,
			"byteOffset":56772,
			"target":34962
		},
		{
			"buffer":0,
			"byteLength":48,
			"byteOffset":56820,
			"target":34962
		},
		{
			"buffer":0,
			"byteLength":5904,
			"byteOffset":56868,
			"target":34962
		},
		{
			"buffer":0,
			"byteLength":5904,
			"byteOffset":62772,
			"target":34962
		},
		{
			"buffer":0,
			"byteLength":2844,
			"byteOffset":68676,
			"target":34963
		},
		{
			"buffer":0,
			"byteLength":360,
			"byteOffset":71520,
			"target":34962
		},
		{
			"buffer":0,
			"byteLength":360,
			"byteOffset":71880,
			"target":34962
		},
		{
			"buffer":0,
			"byteLength":96,
			"byteOffset":72240,
			"target":34963
		},
		{
			"buffer":0,
			"byteLength":48,
			"byteOffset":72336,
			"target":34962
		},
		{
			"buffer":0,
			"byteLength":48,
			"byteOffset":72384,
			"target":34962
		}
	],
	"buffers":[
		{
			"byteLength":72432,
			"uri":"BinaGrup1.bin"
		}
	]
}
