{
	"asset":{
		"generator":"Khronos glTF Blender I/O v4.2.60",
		"version":"2.0"
	},
	"scene":0,
	"scenes":[
		{
			"name":"Scene",
			"nodes":[
				0,
				1,
				2,
				3,
				4,
				5,
				6,
				7,
				8
			]
		}
	],
	"nodes":[
		{
			"mesh":0,
			"name":"Building_036.011"
		},
		{
			"mesh":1,
			"name":"Building_036.012"
		},
		{
			"mesh":2,
			"name":"Building_036.013"
		},
		{
			"mesh":3,
			"name":"Building_044.011"
		},
		{
			"mesh":4,
			"name":"Building_044.012"
		},
		{
			"mesh":5,
			"name":"Building_044.013"
		},
		{
			"mesh":6,
			"name":"Building_049.011"
		},
		{
			"mesh":7,
			"name":"Building_049.012"
		},
		{
			"mesh":8,
			"name":"Building_049.013"
		}
	],
	"materials":[
		{
			"doubleSided":true,
			"name":"BinaGrid",
			"pbrMetallicRoughness":{
				"baseColorFactor":[
					0.0009104993660002947,
					0.04091522842645645,
					0.06662598252296448,
					1
				],
				"metallicFactor":0,
				"roughnessFactor":0.5
			}
		},
		{
			"doubleSided":true,
			"name":"PencereGrid",
			"pbrMetallicRoughness":{
				"baseColorFactor":[
					0.1328672468662262,
					0.26635584235191345,
					0.31854695081710815,
					1
				],
				"metallicFactor":0,
				"roughnessFactor":0.699999988079071
			}
		},
		{
			"doubleSided":true,
			"name":"Kap\u0131Grid",
			"pbrMetallicRoughness":{
				"baseColorFactor":[
					0,
					0.01161225512623787,
					0.016807379201054573,
					1
				],
				"metallicFactor":0,
				"roughnessFactor":0.699999988079071
			}
		}
	],
	"meshes":[
		{
			"name":"Building_036_Mesh.002",
			"primitives":[
				{
					"attributes":{
						"POSITION":0,
						"NORMAL":1
					},
					"indices":2,
					"material":0
				}
			]
		},
		{
			"name":"Building_036_Mesh.012",
			"primitives":[
				{
					"attributes":{
						"POSITION":3,
						"NORMAL":4
					},
					"indices":5,
					"material":1
				}
			]
		},
		{
			"name":"Building_036_Mesh.013",
			"primitives":[
				{
					"attributes":{
						"POSITION":6,
						"NORMAL":7
					},
					"indices":8,
					"material":2
				}
			]
		},
		{
			"name":"Building_044_Mesh.002",
			"primitives":[
				{
					"attributes":{
						"POSITION":9,
						"NORMAL":10
					},
					"indices":11,
					"material":0
				}
			]
		},
		{
			"name":"Building_044_Mesh.012",
			"primitives":[
				{
					"attributes":{
						"POSITION":12,
						"NORMAL":13
					},
					"indices":14,
					"material":1
				}
			]
		},
		{
			"name":"Building_044_Mesh.013",
			"primitives":[
				{
					"attributes":{
						"POSITION":15,
						"NORMAL":16
					},
					"indices":8,
					"material":2
				}
			]
		},
		{
			"name":"Building_049_Mesh.002",
			"primitives":[
				{
					"attributes":{
						"POSITION":17,
						"NORMAL":18
					},
					"indices":19,
					"material":0
				}
			]
		},
		{
			"name":"Building_049_Mesh.012",
			"primitives":[
				{
					"attributes":{
						"POSITION":20,
						"NORMAL":21
					},
					"indices":22,
					"material":1
				}
			]
		},
		{
			"name":"Building_049_Mesh.013",
			"primitives":[
				{
					"attributes":{
						"POSITION":23,
						"NORMAL":24
					},
					"indices":8,
					"material":2
				}
			]
		}
	],
	"accessors":[
		{
			"bufferView":0,
			"componentType":5126,
			"count":497,
			"max":[
				-0.03167492151260376,
				0.07886958122253418,
				0.0470108687877655
			],
			"min":[
				-0.06428360939025879,
				0.014739125967025757,
				-0.007336955517530441
			],
			"type":"VEC3"
		},
		{
			"bufferView":1,
			"componentType":5126,
			"count":497,
			"type":"VEC3"
		},
		{
			"bufferView":2,
			"componentType":5123,
			"count":1398,
			"type":"SCALAR"
		},
		{
			"bufferView":3,
			"componentType":5126,
			"count":36,
			"max":[
				-0.03710973262786865,
				0.061478257179260254,
				0.04483695700764656
			],
			"min":[
				-0.05884888768196106,
				0.022347837686538696,
				0.04483695700764656
			],
			"type":"VEC3"
		},
		{
			"bufferView":4,
			"componentType":5126,
			"count":36,
			"type":"VEC3"
		},
		{
			"bufferView":5,
			"componentType":5123,
			"count":54,
			"type":"SCALAR"
		},
		{
			"bufferView":6,
			"componentType":5126,
			"count":4,
			"max":[
				-0.05015319585800171,
				0.028869569301605225,
				0.04483695700764656
			],
			"min":[
				-0.05884888768196106,
				0.014739125967025757,
				0.04483695700764656
			],
			"type":"VEC3"
		},
		{
			"bufferView":7,
			"componentType":5126,
			"count":4,
			"type":"VEC3"
		},
		{
			"bufferView":8,
			"componentType":5123,
			"count":6,
			"type":"SCALAR"
		},
		{
			"bufferView":9,
			"componentType":5126,
			"count":515,
			"max":[
				0.05256417393684387,
				-0.03743475675582886,
				0.036141302436590195
			],
			"min":[
				0.003651171922683716,
				-0.08308693766593933,
				-0.007336955517530441
			],
			"type":"VEC3"
		},
		{
			"bufferView":10,
			"componentType":5126,
			"count":515,
			"type":"VEC3"
		},
		{
			"bufferView":11,
			"componentType":5123,
			"count":1434,
			"type":"SCALAR"
		},
		{
			"bufferView":12,
			"componentType":5126,
			"count":28,
			"max":[
				0.04767286777496338,
				-0.05265215039253235,
				0.033967386931180954
			],
			"min":[
				0.008542418479919434,
				-0.07982602715492249,
				0.033967386931180954
			],
			"type":"VEC3"
		},
		{
			"bufferView":13,
			"componentType":5126,
			"count":28,
			"type":"VEC3"
		},
		{
			"bufferView":14,
			"componentType":5123,
			"count":42,
			"type":"SCALAR"
		},
		{
			"bufferView":15,
			"componentType":5126,
			"count":4,
			"max":[
				0.03680330514907837,
				-0.06895646452903748,
				0.03396739438176155
			],
			"min":[
				0.01941201090812683,
				-0.08308693766593933,
				0.03396739438176155
			],
			"type":"VEC3"
		},
		{
			"bufferView":16,
			"componentType":5126,
			"count":4,
			"type":"VEC3"
		},
		{
			"bufferView":17,
			"componentType":5126,
			"count":1267,
			"max":[
				0.12865114212036133,
				0.1908261775970459,
				0.057880427688360214
			],
			"min":[
				0.0797380805015564,
				0.11256527900695801,
				-0.007336955517530441
			],
			"type":"VEC3"
		},
		{
			"bufferView":18,
			"componentType":5126,
			"count":1267,
			"type":"VEC3"
		},
		{
			"bufferView":19,
			"componentType":5123,
			"count":4512,
			"type":"SCALAR"
		},
		{
			"bufferView":20,
			"componentType":5126,
			"count":72,
			"max":[
				0.12375980615615845,
				0.17560869455337524,
				0.05570651963353157
			],
			"min":[
				0.0846293568611145,
				0.12017393112182617,
				0.05570651963353157
			],
			"type":"VEC3"
		},
		{
			"bufferView":21,
			"componentType":5126,
			"count":72,
			"type":"VEC3"
		},
		{
			"bufferView":22,
			"componentType":5123,
			"count":108,
			"type":"SCALAR"
		},
		{
			"bufferView":23,
			"componentType":5126,
			"count":4,
			"max":[
				0.11289024353027344,
				0.1266956925392151,
				0.05570651963353157
			],
			"min":[
				0.09549897909164429,
				0.11256527900695801,
				0.05570651963353157
			],
			"type":"VEC3"
		},
		{
			"bufferView":24,
			"componentType":5126,
			"count":4,
			"type":"VEC3"
		}
	],
	"bufferViews":[
		{
			"buffer":0,
			"byteLength":5964,
			"byteOffset":0,
			"target":34962
		},
		{
			"buffer":0,
			"byteLength":5964,
			"byteOffset":5964,
			"target":34962
		},
		{
			"buffer":0,
			"byteLength":2796,
			"byteOffset":11928,
			"target":34963
		},
		{
			"buffer":0,
			"byteLength":432,
			"byteOffset":14724,
			"target":34962
		},
		{
			"buffer":0,
			"byteLength":432,
			"byteOffset":15156,
			"target":34962
		},
		{
			"buffer":0,
			"byteLength":108,
			"byteOffset":15588,
			"target":34963
		},
		{
			"buffer":0,
			"byteLength":48,
			"byteOffset":15696,
			"target":34962
		},
		{
			"buffer":0,
			"byteLength":48,
			"byteOffset":15744,
			"target":34962
		},
		{
			"buffer":0,
			"byteLength":12,
			"byteOffset":15792,
			"target":34963
		},
		{
			"buffer":0,
			"byteLength":6180,
			"byteOffset":15804,
			"target":34962
		},
		{
			"buffer":0,
			"byteLength":6180,
			"byteOffset":21984,
			"target":34962
		},
		{
			"buffer":0,
			"byteLength":2868,
			"byteOffset":28164,
			"target":34963
		},
		{
			"buffer":0,
			"byteLength":336,
			"byteOffset":31032,
			"target":34962
		},
		{
			"buffer":0,
			"byteLength":336,
			"byteOffset":31368,
			"target":34962
		},
		{
			"buffer":0,
			"byteLength":84,
			"byteOffset":31704,
			"target":34963
		},
		{
			"buffer":0,
			"byteLength":48,
			"byteOffset":31788,
			"target":34962
		},
		{
			"buffer":0,
			"byteLength":48,
			"byteOffset":31836,
			"target":34962
		},
		{
			"buffer":0,
			"byteLength":15204,
			"byteOffset":31884,
			"target":34962
		},
		{
			"buffer":0,
			"byteLength":15204,
			"byteOffset":47088,
			"target":34962
		},
		{
			"buffer":0,
			"byteLength":9024,
			"byteOffset":62292,
			"target":34963
		},
		{
			"buffer":0,
			"byteLength":864,
			"byteOffset":71316,
			"target":34962
		},
		{
			"buffer":0,
			"byteLength":864,
			"byteOffset":72180,
			"target":34962
		},
		{
			"buffer":0,
			"byteLength":216,
			"byteOffset":73044,
			"target":34963
		},
		{
			"buffer":0,
			"byteLength":48,
			"byteOffset":73260,
			"target":34962
		},
		{
			"buffer":0,
			"byteLength":48,
			"byteOffset":73308,
			"target":34962
		}
	],
	"buffers":[
		{
			"byteLength":73356,
			"uri":"BinaGrup11.bin"
		}
	]
}
