{
	"asset":{
		"generator":"Khronos glTF Blender I/O v4.2.60",
		"version":"2.0"
	},
	"scene":0,
	"scenes":[
		{
			"name":"Scene",
			"nodes":[
				0,
				1,
				2,
				3,
				4,
				5,
				6,
				7,
				8
			]
		}
	],
	"nodes":[
		{
			"mesh":0,
			"name":"Building_034.011"
		},
		{
			"mesh":1,
			"name":"Building_034.012"
		},
		{
			"mesh":2,
			"name":"Building_034.013"
		},
		{
			"mesh":3,
			"name":"Building_026.011"
		},
		{
			"mesh":4,
			"name":"Building_026.012"
		},
		{
			"mesh":5,
			"name":"Building_026.013"
		},
		{
			"mesh":6,
			"name":"Building_059.011"
		},
		{
			"mesh":7,
			"name":"Building_059.012"
		},
		{
			"mesh":8,
			"name":"Building_059.013"
		}
	],
	"materials":[
		{
			"doubleSided":true,
			"name":"BinaGrid",
			"pbrMetallicRoughness":{
				"baseColorFactor":[
					0.0009104993660002947,
					0.04091522842645645,
					0.06662598252296448,
					1
				],
				"metallicFactor":0,
				"roughnessFactor":0.5
			}
		},
		{
			"doubleSided":true,
			"name":"PencereGrid",
			"pbrMetallicRoughness":{
				"baseColorFactor":[
					0.1328672468662262,
					0.26635584235191345,
					0.31854695081710815,
					1
				],
				"metallicFactor":0,
				"roughnessFactor":0.699999988079071
			}
		},
		{
			"doubleSided":true,
			"name":"Kap\u0131Grid",
			"pbrMetallicRoughness":{
				"baseColorFactor":[
					0,
					0.01161225512623787,
					0.016807379201054573,
					1
				],
				"metallicFactor":0,
				"roughnessFactor":0.699999988079071
			}
		}
	],
	"meshes":[
		{
			"name":"Building_034_Mesh.002",
			"primitives":[
				{
					"attributes":{
						"POSITION":0,
						"NORMAL":1
					},
					"indices":2,
					"material":0
				}
			]
		},
		{
			"name":"Building_034_Mesh.012",
			"primitives":[
				{
					"attributes":{
						"POSITION":3,
						"NORMAL":4
					},
					"indices":5,
					"material":1
				}
			]
		},
		{
			"name":"Building_034_Mesh.013",
			"primitives":[
				{
					"attributes":{
						"POSITION":6,
						"NORMAL":7
					},
					"indices":8,
					"material":2
				}
			]
		},
		{
			"name":"Building_026_Mesh.002",
			"primitives":[
				{
					"attributes":{
						"POSITION":9,
						"NORMAL":10
					},
					"indices":11,
					"material":0
				}
			]
		},
		{
			"name":"Building_026_Mesh.012",
			"primitives":[
				{
					"attributes":{
						"POSITION":12,
						"NORMAL":13
					},
					"indices":14,
					"material":1
				}
			]
		},
		{
			"name":"Building_026_Mesh.013",
			"primitives":[
				{
					"attributes":{
						"POSITION":15,
						"NORMAL":16
					},
					"indices":8,
					"material":2
				}
			]
		},
		{
			"name":"Building_059_Mesh.002",
			"primitives":[
				{
					"attributes":{
						"POSITION":17,
						"NORMAL":18
					},
					"indices":19,
					"material":0
				}
			]
		},
		{
			"name":"Building_059_Mesh.012",
			"primitives":[
				{
					"attributes":{
						"POSITION":20,
						"NORMAL":21
					},
					"indices":22,
					"material":1
				}
			]
		},
		{
			"name":"Building_059_Mesh.013",
			"primitives":[
				{
					"attributes":{
						"POSITION":23,
						"NORMAL":24
					},
					"indices":8,
					"material":2
				}
			]
		}
	],
	"accessors":[
		{
			"bufferView":0,
			"componentType":5126,
			"count":722,
			"max":[
				-0.10776185989379883,
				-0.39613041281700134,
				0.0470108687877655
			],
			"min":[
				-0.14037057757377625,
				-0.47439128160476685,
				-0.007336955517530441
			],
			"type":"VEC3"
		},
		{
			"bufferView":1,
			"componentType":5126,
			"count":722,
			"type":"VEC3"
		},
		{
			"bufferView":2,
			"componentType":5123,
			"count":2286,
			"type":"SCALAR"
		},
		{
			"bufferView":3,
			"componentType":5126,
			"count":48,
			"max":[
				-0.11319667100906372,
				-0.41134780645370483,
				0.04483695700764656
			],
			"min":[
				-0.13493582606315613,
				-0.4711304008960724,
				0.04483695700764656
			],
			"type":"VEC3"
		},
		{
			"bufferView":4,
			"componentType":5126,
			"count":48,
			"type":"VEC3"
		},
		{
			"bufferView":5,
			"componentType":5123,
			"count":72,
			"type":"SCALAR"
		},
		{
			"bufferView":6,
			"componentType":5126,
			"count":4,
			"max":[
				-0.12624016404151917,
				-0.4602608382701874,
				0.04483695700764656
			],
			"min":[
				-0.13493582606315613,
				-0.47439128160476685,
				0.04483695700764656
			],
			"type":"VEC3"
		},
		{
			"bufferView":7,
			"componentType":5126,
			"count":4,
			"type":"VEC3"
		},
		{
			"bufferView":8,
			"componentType":5123,
			"count":6,
			"type":"SCALAR"
		},
		{
			"bufferView":9,
			"componentType":5126,
			"count":308,
			"max":[
				-0.18384884297847748,
				-0.3309130072593689,
				0.047010865062475204
			],
			"min":[
				-0.2164575308561325,
				-0.37656518816947937,
				-0.007336959708482027
			],
			"type":"VEC3"
		},
		{
			"bufferView":10,
			"componentType":5126,
			"count":308,
			"type":"VEC3"
		},
		{
			"bufferView":11,
			"componentType":5123,
			"count":750,
			"type":"SCALAR"
		},
		{
			"bufferView":12,
			"componentType":5126,
			"count":20,
			"max":[
				-0.18928362429141998,
				-0.3461304306983948,
				0.04483695700764656
			],
			"min":[
				-0.21102274954319,
				-0.37113040685653687,
				0.04483695700764656
			],
			"type":"VEC3"
		},
		{
			"bufferView":13,
			"componentType":5126,
			"count":20,
			"type":"VEC3"
		},
		{
			"bufferView":14,
			"componentType":5123,
			"count":30,
			"type":"SCALAR"
		},
		{
			"bufferView":15,
			"componentType":5126,
			"count":4,
			"max":[
				-0.20232710242271423,
				-0.3624347448348999,
				0.04483695700764656
			],
			"min":[
				-0.2110227346420288,
				-0.37656518816947937,
				0.04483695700764656
			],
			"type":"VEC3"
		},
		{
			"bufferView":16,
			"componentType":5126,
			"count":4,
			"type":"VEC3"
		},
		{
			"bufferView":17,
			"componentType":5126,
			"count":873,
			"max":[
				0.2047380805015564,
				-0.11895650625228882,
				0.0470108762383461
			],
			"min":[
				0.15582507848739624,
				-0.18091300129890442,
				-0.0073369513265788555
			],
			"type":"VEC3"
		},
		{
			"bufferView":18,
			"componentType":5126,
			"count":873,
			"type":"VEC3"
		},
		{
			"bufferView":19,
			"componentType":5123,
			"count":2826,
			"type":"SCALAR"
		},
		{
			"bufferView":20,
			"componentType":5126,
			"count":64,
			"max":[
				0.1998468041419983,
				-0.13417387008666992,
				0.04483695700764656
			],
			"min":[
				0.16071635484695435,
				-0.1754782497882843,
				0.04483695700764656
			],
			"type":"VEC3"
		},
		{
			"bufferView":21,
			"componentType":5126,
			"count":64,
			"type":"VEC3"
		},
		{
			"bufferView":22,
			"componentType":5123,
			"count":96,
			"type":"SCALAR"
		},
		{
			"bufferView":23,
			"componentType":5126,
			"count":4,
			"max":[
				0.19984674453735352,
				-0.16678255796432495,
				0.04483695700764656
			],
			"min":[
				0.1933249831199646,
				-0.18091300129890442,
				0.04483695700764656
			],
			"type":"VEC3"
		},
		{
			"bufferView":24,
			"componentType":5126,
			"count":4,
			"type":"VEC3"
		}
	],
	"bufferViews":[
		{
			"buffer":0,
			"byteLength":8664,
			"byteOffset":0,
			"target":34962
		},
		{
			"buffer":0,
			"byteLength":8664,
			"byteOffset":8664,
			"target":34962
		},
		{
			"buffer":0,
			"byteLength":4572,
			"byteOffset":17328,
			"target":34963
		},
		{
			"buffer":0,
			"byteLength":576,
			"byteOffset":21900,
			"target":34962
		},
		{
			"buffer":0,
			"byteLength":576,
			"byteOffset":22476,
			"target":34962
		},
		{
			"buffer":0,
			"byteLength":144,
			"byteOffset":23052,
			"target":34963
		},
		{
			"buffer":0,
			"byteLength":48,
			"byteOffset":23196,
			"target":34962
		},
		{
			"buffer":0,
			"byteLength":48,
			"byteOffset":23244,
			"target":34962
		},
		{
			"buffer":0,
			"byteLength":12,
			"byteOffset":23292,
			"target":34963
		},
		{
			"buffer":0,
			"byteLength":3696,
			"byteOffset":23304,
			"target":34962
		},
		{
			"buffer":0,
			"byteLength":3696,
			"byteOffset":27000,
			"target":34962
		},
		{
			"buffer":0,
			"byteLength":1500,
			"byteOffset":30696,
			"target":34963
		},
		{
			"buffer":0,
			"byteLength":240,
			"byteOffset":32196,
			"target":34962
		},
		{
			"buffer":0,
			"byteLength":240,
			"byteOffset":32436,
			"target":34962
		},
		{
			"buffer":0,
			"byteLength":60,
			"byteOffset":32676,
			"target":34963
		},
		{
			"buffer":0,
			"byteLength":48,
			"byteOffset":32736,
			"target":34962
		},
		{
			"buffer":0,
			"byteLength":48,
			"byteOffset":32784,
			"target":34962
		},
		{
			"buffer":0,
			"byteLength":10476,
			"byteOffset":32832,
			"target":34962
		},
		{
			"buffer":0,
			"byteLength":10476,
			"byteOffset":43308,
			"target":34962
		},
		{
			"buffer":0,
			"byteLength":5652,
			"byteOffset":53784,
			"target":34963
		},
		{
			"buffer":0,
			"byteLength":768,
			"byteOffset":59436,
			"target":34962
		},
		{
			"buffer":0,
			"byteLength":768,
			"byteOffset":60204,
			"target":34962
		},
		{
			"buffer":0,
			"byteLength":192,
			"byteOffset":60972,
			"target":34963
		},
		{
			"buffer":0,
			"byteLength":48,
			"byteOffset":61164,
			"target":34962
		},
		{
			"buffer":0,
			"byteLength":48,
			"byteOffset":61212,
			"target":34962
		}
	],
	"buffers":[
		{
			"byteLength":61260,
			"uri":"BinaGrup16.bin"
		}
	]
}
