{
	"asset":{
		"generator":"Khronos glTF Blender I/O v4.2.60",
		"version":"2.0"
	},
	"scene":0,
	"scenes":[
		{
			"name":"Scene",
			"nodes":[
				0,
				1,
				2,
				3,
				4,
				5,
				6,
				7,
				8
			]
		}
	],
	"nodes":[
		{
			"mesh":0,
			"name":"Building_054.011"
		},
		{
			"mesh":1,
			"name":"Building_054.012"
		},
		{
			"mesh":2,
			"name":"Building_054.013"
		},
		{
			"mesh":3,
			"name":"Building_030.011"
		},
		{
			"mesh":4,
			"name":"Building_030.012"
		},
		{
			"mesh":5,
			"name":"Building_030.013"
		},
		{
			"mesh":6,
			"name":"Building_048.011"
		},
		{
			"mesh":7,
			"name":"Building_048.012"
		},
		{
			"mesh":8,
			"name":"Building_048.013"
		}
	],
	"materials":[
		{
			"doubleSided":true,
			"name":"BinaGrid",
			"pbrMetallicRoughness":{
				"baseColorFactor":[
					0.0009104993660002947,
					0.04091522842645645,
					0.06662598252296448,
					1
				],
				"metallicFactor":0,
				"roughnessFactor":0.5
			}
		},
		{
			"doubleSided":true,
			"name":"PencereGrid",
			"pbrMetallicRoughness":{
				"baseColorFactor":[
					0.1328672468662262,
					0.26635584235191345,
					0.31854695081710815,
					1
				],
				"metallicFactor":0,
				"roughnessFactor":0.699999988079071
			}
		},
		{
			"doubleSided":true,
			"name":"Kap\u0131Grid",
			"pbrMetallicRoughness":{
				"baseColorFactor":[
					0,
					0.01161225512623787,
					0.016807379201054573,
					1
				],
				"metallicFactor":0,
				"roughnessFactor":0.699999988079071
			}
		}
	],
	"meshes":[
		{
			"name":"Building_054_Mesh.002",
			"primitives":[
				{
					"attributes":{
						"POSITION":0,
						"NORMAL":1
					},
					"indices":2,
					"material":0
				}
			]
		},
		{
			"name":"Building_054_Mesh.012",
			"primitives":[
				{
					"attributes":{
						"POSITION":3,
						"NORMAL":4
					},
					"indices":5,
					"material":1
				}
			]
		},
		{
			"name":"Building_054_Mesh.013",
			"primitives":[
				{
					"attributes":{
						"POSITION":6,
						"NORMAL":7
					},
					"indices":8,
					"material":2
				}
			]
		},
		{
			"name":"Building_030_Mesh.002",
			"primitives":[
				{
					"attributes":{
						"POSITION":9,
						"NORMAL":10
					},
					"indices":11,
					"material":0
				}
			]
		},
		{
			"name":"Building_030_Mesh.012",
			"primitives":[
				{
					"attributes":{
						"POSITION":12,
						"NORMAL":13
					},
					"indices":14,
					"material":1
				}
			]
		},
		{
			"name":"Building_030_Mesh.013",
			"primitives":[
				{
					"attributes":{
						"POSITION":15,
						"NORMAL":16
					},
					"indices":8,
					"material":2
				}
			]
		},
		{
			"name":"Building_048_Mesh.002",
			"primitives":[
				{
					"attributes":{
						"POSITION":17,
						"NORMAL":18
					},
					"indices":19,
					"material":0
				}
			]
		},
		{
			"name":"Building_048_Mesh.012",
			"primitives":[
				{
					"attributes":{
						"POSITION":20,
						"NORMAL":21
					},
					"indices":22,
					"material":1
				}
			]
		},
		{
			"name":"Building_048_Mesh.013",
			"primitives":[
				{
					"attributes":{
						"POSITION":23,
						"NORMAL":24
					},
					"indices":8,
					"material":2
				}
			]
		}
	],
	"accessors":[
		{
			"bufferView":0,
			"componentType":5126,
			"count":477,
			"max":[
				0.12049895524978638,
				-0.32330432534217834,
				0.0470108687877655
			],
			"min":[
				0.08789026737213135,
				-0.37656518816947937,
				-0.007336955517530441
			],
			"type":"VEC3"
		},
		{
			"bufferView":1,
			"componentType":5126,
			"count":477,
			"type":"VEC3"
		},
		{
			"bufferView":2,
			"componentType":5123,
			"count":1386,
			"type":"SCALAR"
		},
		{
			"bufferView":3,
			"componentType":5126,
			"count":36,
			"max":[
				0.11506420373916626,
				-0.3298260569572449,
				0.04483695700764656
			],
			"min":[
				0.09332507848739624,
				-0.3689565062522888,
				0.04483695700764656
			],
			"type":"VEC3"
		},
		{
			"bufferView":4,
			"componentType":5126,
			"count":36,
			"type":"VEC3"
		},
		{
			"bufferView":5,
			"componentType":5123,
			"count":54,
			"type":"SCALAR"
		},
		{
			"bufferView":6,
			"componentType":5126,
			"count":4,
			"max":[
				0.1020207405090332,
				-0.3624347448348999,
				0.04483695700764656
			],
			"min":[
				0.09332507848739624,
				-0.37656518816947937,
				0.04483695700764656
			],
			"type":"VEC3"
		},
		{
			"bufferView":7,
			"componentType":5126,
			"count":4,
			"type":"VEC3"
		},
		{
			"bufferView":8,
			"componentType":5123,
			"count":6,
			"type":"SCALAR"
		},
		{
			"bufferView":9,
			"componentType":5126,
			"count":501,
			"max":[
				-0.1077619194984436,
				-0.021130412817001343,
				0.036141302436590195
			],
			"min":[
				-0.14037060737609863,
				-0.08308693766593933,
				-0.007336955517530441
			],
			"type":"VEC3"
		},
		{
			"bufferView":10,
			"componentType":5126,
			"count":501,
			"type":"VEC3"
		},
		{
			"bufferView":11,
			"componentType":5123,
			"count":1401,
			"type":"SCALAR"
		},
		{
			"bufferView":12,
			"componentType":5126,
			"count":37,
			"max":[
				-0.11319667100906372,
				-0.036347806453704834,
				0.033967386931180954
			],
			"min":[
				-0.13493579626083374,
				-0.07765215635299683,
				0.033967386931180954
			],
			"type":"VEC3"
		},
		{
			"bufferView":13,
			"componentType":5126,
			"count":37,
			"type":"VEC3"
		},
		{
			"bufferView":14,
			"componentType":5123,
			"count":63,
			"type":"SCALAR"
		},
		{
			"bufferView":15,
			"componentType":5126,
			"count":4,
			"max":[
				-0.11319664120674133,
				-0.06895646452903748,
				0.03396739438176155
			],
			"min":[
				-0.12189233303070068,
				-0.08308693766593933,
				0.03396739438176155
			],
			"type":"VEC3"
		},
		{
			"bufferView":16,
			"componentType":5126,
			"count":4,
			"type":"VEC3"
		},
		{
			"bufferView":17,
			"componentType":5126,
			"count":820,
			"max":[
				0.05256417393684387,
				-0.4211304187774658,
				0.0470108762383461
			],
			"min":[
				0.003651171922683716,
				-0.47439128160476685,
				-0.0073369513265788555
			],
			"type":"VEC3"
		},
		{
			"bufferView":18,
			"componentType":5126,
			"count":820,
			"type":"VEC3"
		},
		{
			"bufferView":19,
			"componentType":5123,
			"count":2664,
			"type":"SCALAR"
		},
		{
			"bufferView":20,
			"componentType":5126,
			"count":48,
			"max":[
				0.04767283797264099,
				-0.42765215039253235,
				0.04483695700764656
			],
			"min":[
				0.008542418479919434,
				-0.46895650029182434,
				0.04483695700764656
			],
			"type":"VEC3"
		},
		{
			"bufferView":21,
			"componentType":5126,
			"count":48,
			"type":"VEC3"
		},
		{
			"bufferView":22,
			"componentType":5123,
			"count":72,
			"type":"SCALAR"
		},
		{
			"bufferView":23,
			"componentType":5126,
			"count":4,
			"max":[
				0.01506417989730835,
				-0.4602608382701874,
				0.04483695700764656
			],
			"min":[
				0.008542478084564209,
				-0.47439128160476685,
				0.04483695700764656
			],
			"type":"VEC3"
		},
		{
			"bufferView":24,
			"componentType":5126,
			"count":4,
			"type":"VEC3"
		}
	],
	"bufferViews":[
		{
			"buffer":0,
			"byteLength":5724,
			"byteOffset":0,
			"target":34962
		},
		{
			"buffer":0,
			"byteLength":5724,
			"byteOffset":5724,
			"target":34962
		},
		{
			"buffer":0,
			"byteLength":2772,
			"byteOffset":11448,
			"target":34963
		},
		{
			"buffer":0,
			"byteLength":432,
			"byteOffset":14220,
			"target":34962
		},
		{
			"buffer":0,
			"byteLength":432,
			"byteOffset":14652,
			"target":34962
		},
		{
			"buffer":0,
			"byteLength":108,
			"byteOffset":15084,
			"target":34963
		},
		{
			"buffer":0,
			"byteLength":48,
			"byteOffset":15192,
			"target":34962
		},
		{
			"buffer":0,
			"byteLength":48,
			"byteOffset":15240,
			"target":34962
		},
		{
			"buffer":0,
			"byteLength":12,
			"byteOffset":15288,
			"target":34963
		},
		{
			"buffer":0,
			"byteLength":6012,
			"byteOffset":15300,
			"target":34962
		},
		{
			"buffer":0,
			"byteLength":6012,
			"byteOffset":21312,
			"target":34962
		},
		{
			"buffer":0,
			"byteLength":2802,
			"byteOffset":27324,
			"target":34963
		},
		{
			"buffer":0,
			"byteLength":444,
			"byteOffset":30128,
			"target":34962
		},
		{
			"buffer":0,
			"byteLength":444,
			"byteOffset":30572,
			"target":34962
		},
		{
			"buffer":0,
			"byteLength":126,
			"byteOffset":31016,
			"target":34963
		},
		{
			"buffer":0,
			"byteLength":48,
			"byteOffset":31144,
			"target":34962
		},
		{
			"buffer":0,
			"byteLength":48,
			"byteOffset":31192,
			"target":34962
		},
		{
			"buffer":0,
			"byteLength":9840,
			"byteOffset":31240,
			"target":34962
		},
		{
			"buffer":0,
			"byteLength":9840,
			"byteOffset":41080,
			"target":34962
		},
		{
			"buffer":0,
			"byteLength":5328,
			"byteOffset":50920,
			"target":34963
		},
		{
			"buffer":0,
			"byteLength":576,
			"byteOffset":56248,
			"target":34962
		},
		{
			"buffer":0,
			"byteLength":576,
			"byteOffset":56824,
			"target":34962
		},
		{
			"buffer":0,
			"byteLength":144,
			"byteOffset":57400,
			"target":34963
		},
		{
			"buffer":0,
			"byteLength":48,
			"byteOffset":57544,
			"target":34962
		},
		{
			"buffer":0,
			"byteLength":48,
			"byteOffset":57592,
			"target":34962
		}
	],
	"buffers":[
		{
			"byteLength":57640,
			"uri":"BinaGrup14.bin"
		}
	]
}
