{
	"asset":{
		"generator":"Khronos glTF Blender I/O v4.2.60",
		"version":"2.0"
	},
	"scene":0,
	"scenes":[
		{
			"name":"Scene",
			"nodes":[
				0,
				1,
				2
			]
		}
	],
	"nodes":[
		{
			"mesh":0,
			"name":"Pencere2.003"
		},
		{
			"mesh":1,
			"name":"Pencere11.003"
		},
		{
			"mesh":2,
			"name":"Pencere7.003"
		}
	],
	"materials":[
		{
			"doubleSided":true,
			"name":"PencereSolar",
			"pbrMetallicRoughness":{
				"baseColorFactor":[
					0.9822452664375305,
					0.38132646679878235,
					0.0030353753827512264,
					1
				],
				"metallicFactor":0,
				"roughnessFactor":0.5
			}
		}
	],
	"meshes":[
		{
			"name":"Building_001_Mesh.006",
			"primitives":[
				{
					"attributes":{
						"POSITION":0,
						"NORMAL":1
					},
					"indices":2,
					"material":0
				}
			]
		},
		{
			"name":"Building_010_Mesh.006",
			"primitives":[
				{
					"attributes":{
						"POSITION":3,
						"NORMAL":4
					},
					"indices":5,
					"material":0
				}
			]
		},
		{
			"name":"Building_006_Mesh.006",
			"primitives":[
				{
					"attributes":{
						"POSITION":6,
						"NORMAL":7
					},
					"indices":8,
					"material":0
				}
			]
		}
	],
	"accessors":[
		{
			"bufferView":0,
			"componentType":5126,
			"count":48,
			"max":[
				-0.40918469429016113,
				0.061478257179260254,
				0.035054344683885574
			],
			"min":[
				-0.4483151435852051,
				0.022347867488861084,
				0.035054344683885574
			],
			"type":"VEC3"
		},
		{
			"bufferView":1,
			"componentType":5126,
			"count":48,
			"type":"VEC3"
		},
		{
			"bufferView":2,
			"componentType":5123,
			"count":72,
			"type":"SCALAR"
		},
		{
			"bufferView":3,
			"componentType":5126,
			"count":48,
			"max":[
				-0.34179338812828064,
				-0.11786952614784241,
				0.05679347738623619
			],
			"min":[
				-0.36353254318237305,
				-0.17547819018363953,
				0.05679347738623619
			],
			"type":"VEC3"
		},
		{
			"bufferView":4,
			"componentType":5126,
			"count":48,
			"type":"VEC3"
		},
		{
			"bufferView":5,
			"componentType":5123,
			"count":72,
			"type":"SCALAR"
		},
		{
			"bufferView":6,
			"componentType":5126,
			"count":76,
			"max":[
				-0.40918469429016113,
				-0.41134780645370483,
				0.05679347738623619
			],
			"min":[
				-0.4483151435852051,
				-0.4711304008960724,
				0.05679347738623619
			],
			"type":"VEC3"
		},
		{
			"bufferView":7,
			"componentType":5126,
			"count":76,
			"type":"VEC3"
		},
		{
			"bufferView":8,
			"componentType":5123,
			"count":120,
			"type":"SCALAR"
		}
	],
	"bufferViews":[
		{
			"buffer":0,
			"byteLength":576,
			"byteOffset":0,
			"target":34962
		},
		{
			"buffer":0,
			"byteLength":576,
			"byteOffset":576,
			"target":34962
		},
		{
			"buffer":0,
			"byteLength":144,
			"byteOffset":1152,
			"target":34963
		},
		{
			"buffer":0,
			"byteLength":576,
			"byteOffset":1296,
			"target":34962
		},
		{
			"buffer":0,
			"byteLength":576,
			"byteOffset":1872,
			"target":34962
		},
		{
			"buffer":0,
			"byteLength":144,
			"byteOffset":2448,
			"target":34963
		},
		{
			"buffer":0,
			"byteLength":912,
			"byteOffset":2592,
			"target":34962
		},
		{
			"buffer":0,
			"byteLength":912,
			"byteOffset":3504,
			"target":34962
		},
		{
			"buffer":0,
			"byteLength":240,
			"byteOffset":4416,
			"target":34963
		}
	],
	"buffers":[
		{
			"byteLength":4656,
			"uri":"Pencere2.bin"
		}
	]
}
