{
	"asset":{
		"generator":"Khronos glTF Blender I/O v4.2.60",
		"version":"2.0"
	},
	"scene":0,
	"scenes":[
		{
			"name":"Scene",
			"nodes":[
				0,
				1,
				2
			]
		}
	],
	"nodes":[
		{
			"mesh":0,
			"name":"Pencere1.003"
		},
		{
			"mesh":1,
			"name":"Pencere5.003"
		},
		{
			"mesh":2,
			"name":"Pencere18.002"
		}
	],
	"materials":[
		{
			"doubleSided":true,
			"name":"PencereSolar",
			"pbrMetallicRoughness":{
				"baseColorFactor":[
					0.9822452664375305,
					0.38132646679878235,
					0.0030353753827512264,
					1
				],
				"metallicFactor":0,
				"roughnessFactor":0.5
			}
		}
	],
	"meshes":[
		{
			"name":"Building_000_Mesh.011",
			"primitives":[
				{
					"attributes":{
						"POSITION":0,
						"NORMAL":1
					},
					"indices":2,
					"material":0
				}
			]
		},
		{
			"name":"Building_004_Mesh.006",
			"primitives":[
				{
					"attributes":{
						"POSITION":3,
						"NORMAL":4
					},
					"indices":5,
					"material":0
				}
			]
		},
		{
			"name":"Building_017_Mesh.006",
			"primitives":[
				{
					"attributes":{
						"POSITION":6,
						"NORMAL":7
					},
					"indices":8,
					"material":0
				}
			]
		}
	],
	"accessors":[
		{
			"bufferView":0,
			"componentType":5126,
			"count":48,
			"max":[
				-0.40918469429016113,
				0.15930438041687012,
				0.05679347738623619
			],
			"min":[
				-0.4483151435852051,
				0.11800003051757812,
				0.05679347738623619
			],
			"type":"VEC3"
		},
		{
			"bufferView":1,
			"componentType":5126,
			"count":48,
			"type":"VEC3"
		},
		{
			"bufferView":2,
			"componentType":5123,
			"count":72,
			"type":"SCALAR"
		},
		{
			"bufferView":3,
			"componentType":5126,
			"count":39,
			"max":[
				-0.4178803563117981,
				-0.2319999784231186,
				0.04592391476035118
			],
			"min":[
				-0.4396194815635681,
				-0.2733043432235718,
				0.04592391476035118
			],
			"type":"VEC3"
		},
		{
			"bufferView":4,
			"componentType":5126,
			"count":39,
			"type":"VEC3"
		},
		{
			"bufferView":5,
			"componentType":5123,
			"count":63,
			"type":"SCALAR"
		},
		{
			"bufferView":6,
			"componentType":5126,
			"count":64,
			"max":[
				-0.257010817527771,
				-0.13417387008666992,
				0.05679347738623619
			],
			"min":[
				-0.29614123702049255,
				-0.1754782497882843,
				0.05679347738623619
			],
			"type":"VEC3"
		},
		{
			"bufferView":7,
			"componentType":5126,
			"count":64,
			"type":"VEC3"
		},
		{
			"bufferView":8,
			"componentType":5123,
			"count":96,
			"type":"SCALAR"
		}
	],
	"bufferViews":[
		{
			"buffer":0,
			"byteLength":576,
			"byteOffset":0,
			"target":34962
		},
		{
			"buffer":0,
			"byteLength":576,
			"byteOffset":576,
			"target":34962
		},
		{
			"buffer":0,
			"byteLength":144,
			"byteOffset":1152,
			"target":34963
		},
		{
			"buffer":0,
			"byteLength":468,
			"byteOffset":1296,
			"target":34962
		},
		{
			"buffer":0,
			"byteLength":468,
			"byteOffset":1764,
			"target":34962
		},
		{
			"buffer":0,
			"byteLength":126,
			"byteOffset":2232,
			"target":34963
		},
		{
			"buffer":0,
			"byteLength":768,
			"byteOffset":2360,
			"target":34962
		},
		{
			"buffer":0,
			"byteLength":768,
			"byteOffset":3128,
			"target":34962
		},
		{
			"buffer":0,
			"byteLength":192,
			"byteOffset":3896,
			"target":34963
		}
	],
	"buffers":[
		{
			"byteLength":4088,
			"uri":"Pencere1.bin"
		}
	]
}
