{
	"asset":{
		"generator":"Khronos glTF Blender I/O v4.2.60",
		"version":"2.0"
	},
	"scene":0,
	"scenes":[
		{
			"name":"Scene",
			"nodes":[
				0,
				1,
				2
			]
		}
	],
	"nodes":[
		{
			"mesh":0,
			"name":"Pencere3.003"
		},
		{
			"mesh":1,
			"name":"Pencere9.003"
		},
		{
			"mesh":2,
			"name":"Pencere13.003"
		}
	],
	"materials":[
		{
			"doubleSided":true,
			"name":"PencereSolar",
			"pbrMetallicRoughness":{
				"baseColorFactor":[
					0.9822452664375305,
					0.38132646679878235,
					0.0030353753827512264,
					1
				],
				"metallicFactor":0,
				"roughnessFactor":0.5
			}
		}
	],
	"meshes":[
		{
			"name":"Building_002_Mesh.006",
			"primitives":[
				{
					"attributes":{
						"POSITION":0,
						"NORMAL":1
					},
					"indices":2,
					"material":0
				}
			]
		},
		{
			"name":"Building_008_Mesh.006",
			"primitives":[
				{
					"attributes":{
						"POSITION":3,
						"NORMAL":4
					},
					"indices":5,
					"material":0
				}
			]
		},
		{
			"name":"Building_012_Mesh.006",
			"primitives":[
				{
					"attributes":{
						"POSITION":6,
						"NORMAL":7
					},
					"indices":8,
					"material":0
				}
			]
		}
	],
	"accessors":[
		{
			"bufferView":0,
			"componentType":5126,
			"count":38,
			"max":[
				-0.4178803563117981,
				-0.036347776651382446,
				0.035054344683885574
			],
			"min":[
				-0.4396194815635681,
				-0.07547822594642639,
				0.035054344683885574
			],
			"type":"VEC3"
		},
		{
			"bufferView":1,
			"componentType":5126,
			"count":38,
			"type":"VEC3"
		},
		{
			"bufferView":2,
			"componentType":5123,
			"count":60,
			"type":"SCALAR"
		},
		{
			"bufferView":3,
			"componentType":5126,
			"count":56,
			"max":[
				-0.33309775590896606,
				0.061478257179260254,
				0.035054344683885574
			],
			"min":[
				-0.3722281754016876,
				0.022347837686538696,
				0.035054344683885574
			],
			"type":"VEC3"
		},
		{
			"bufferView":4,
			"componentType":5126,
			"count":56,
			"type":"VEC3"
		},
		{
			"bufferView":5,
			"componentType":5123,
			"count":84,
			"type":"SCALAR"
		},
		{
			"bufferView":6,
			"componentType":5126,
			"count":24,
			"max":[
				-0.33309775590896606,
				-0.3461304306983948,
				0.04592391476035118
			],
			"min":[
				-0.3722281754016876,
				-0.3733043074607849,
				0.04592391476035118
			],
			"type":"VEC3"
		},
		{
			"bufferView":7,
			"componentType":5126,
			"count":24,
			"type":"VEC3"
		},
		{
			"bufferView":8,
			"componentType":5123,
			"count":36,
			"type":"SCALAR"
		}
	],
	"bufferViews":[
		{
			"buffer":0,
			"byteLength":456,
			"byteOffset":0,
			"target":34962
		},
		{
			"buffer":0,
			"byteLength":456,
			"byteOffset":456,
			"target":34962
		},
		{
			"buffer":0,
			"byteLength":120,
			"byteOffset":912,
			"target":34963
		},
		{
			"buffer":0,
			"byteLength":672,
			"byteOffset":1032,
			"target":34962
		},
		{
			"buffer":0,
			"byteLength":672,
			"byteOffset":1704,
			"target":34962
		},
		{
			"buffer":0,
			"byteLength":168,
			"byteOffset":2376,
			"target":34963
		},
		{
			"buffer":0,
			"byteLength":288,
			"byteOffset":2544,
			"target":34962
		},
		{
			"buffer":0,
			"byteLength":288,
			"byteOffset":2832,
			"target":34962
		},
		{
			"buffer":0,
			"byteLength":72,
			"byteOffset":3120,
			"target":34963
		}
	],
	"buffers":[
		{
			"byteLength":3192,
			"uri":"Pencere3.bin"
		}
	]
}
