{
	"asset":{
		"generator":"Khronos glTF Blender I/O v4.2.60",
		"version":"2.0"
	},
	"scene":0,
	"scenes":[
		{
			"name":"Scene",
			"nodes":[
				0,
				1,
				2
			]
		}
	],
	"nodes":[
		{
			"mesh":0,
			"name":"Pencere4.003"
		},
		{
			"mesh":1,
			"name":"Pencere12.003"
		},
		{
			"mesh":2,
			"name":"Pencere16.002"
		}
	],
	"materials":[
		{
			"doubleSided":true,
			"name":"PencereSolar",
			"pbrMetallicRoughness":{
				"baseColorFactor":[
					0.9822452664375305,
					0.38132646679878235,
					0.0030353753827512264,
					1
				],
				"metallicFactor":0,
				"roughnessFactor":0.5
			}
		}
	],
	"meshes":[
		{
			"name":"Building_003_Mesh.006",
			"primitives":[
				{
					"attributes":{
						"POSITION":0,
						"NORMAL":1
					},
					"indices":2,
					"material":0
				}
			]
		},
		{
			"name":"Building_011_Mesh.006",
			"primitives":[
				{
					"attributes":{
						"POSITION":3,
						"NORMAL":4
					},
					"indices":5,
					"material":0
				}
			]
		},
		{
			"name":"Building_015_Mesh.006",
			"primitives":[
				{
					"attributes":{
						"POSITION":6,
						"NORMAL":7
					},
					"indices":8,
					"material":0
				}
			]
		}
	],
	"accessors":[
		{
			"bufferView":0,
			"componentType":5126,
			"count":39,
			"max":[
				-0.4178803563117981,
				-0.1341738998889923,
				0.05679347738623619
			],
			"min":[
				-0.4396194815635681,
				-0.1754782497882843,
				0.05679347738623619
			],
			"type":"VEC3"
		},
		{
			"bufferView":1,
			"componentType":5126,
			"count":39,
			"type":"VEC3"
		},
		{
			"bufferView":2,
			"componentType":5123,
			"count":63,
			"type":"SCALAR"
		},
		{
			"bufferView":3,
			"componentType":5126,
			"count":60,
			"max":[
				-0.33309775590896606,
				-0.2319999784231186,
				0.035054344683885574
			],
			"min":[
				-0.3722281754016876,
				-0.2754782438278198,
				0.035054344683885574
			],
			"type":"VEC3"
		},
		{
			"bufferView":4,
			"componentType":5126,
			"count":60,
			"type":"VEC3"
		},
		{
			"bufferView":5,
			"componentType":5123,
			"count":90,
			"type":"SCALAR"
		},
		{
			"bufferView":6,
			"componentType":5126,
			"count":36,
			"max":[
				-0.26570644974708557,
				0.061478257179260254,
				0.04592391476035118
			],
			"min":[
				-0.2874455749988556,
				0.02017390727996826,
				0.04592391476035118
			],
			"type":"VEC3"
		},
		{
			"bufferView":7,
			"componentType":5126,
			"count":36,
			"type":"VEC3"
		},
		{
			"bufferView":8,
			"componentType":5123,
			"count":54,
			"type":"SCALAR"
		}
	],
	"bufferViews":[
		{
			"buffer":0,
			"byteLength":468,
			"byteOffset":0,
			"target":34962
		},
		{
			"buffer":0,
			"byteLength":468,
			"byteOffset":468,
			"target":34962
		},
		{
			"buffer":0,
			"byteLength":126,
			"byteOffset":936,
			"target":34963
		},
		{
			"buffer":0,
			"byteLength":720,
			"byteOffset":1064,
			"target":34962
		},
		{
			"buffer":0,
			"byteLength":720,
			"byteOffset":1784,
			"target":34962
		},
		{
			"buffer":0,
			"byteLength":180,
			"byteOffset":2504,
			"target":34963
		},
		{
			"buffer":0,
			"byteLength":432,
			"byteOffset":2684,
			"target":34962
		},
		{
			"buffer":0,
			"byteLength":432,
			"byteOffset":3116,
			"target":34962
		},
		{
			"buffer":0,
			"byteLength":108,
			"byteOffset":3548,
			"target":34963
		}
	],
	"buffers":[
		{
			"byteLength":3656,
			"uri":"Pencere6.bin"
		}
	]
}
