{
	"asset":{
		"generator":"Khronos glTF Blender I/O v4.2.60",
		"version":"2.0"
	},
	"scene":0,
	"scenes":[
		{
			"name":"Scene",
			"nodes":[
				0,
				1,
				2
			]
		}
	],
	"nodes":[
		{
			"mesh":0,
			"name":"Pencere8.003"
		},
		{
			"mesh":1,
			"name":"Pencere17.002"
		},
		{
			"mesh":2,
			"name":"Pencere14.003"
		}
	],
	"materials":[
		{
			"doubleSided":true,
			"name":"PencereSolar",
			"pbrMetallicRoughness":{
				"baseColorFactor":[
					0.9822452664375305,
					0.38132646679878235,
					0.0030353753827512264,
					1
				],
				"metallicFactor":0,
				"roughnessFactor":0.5
			}
		}
	],
	"meshes":[
		{
			"name":"Building_007_Mesh.006",
			"primitives":[
				{
					"attributes":{
						"POSITION":0,
						"NORMAL":1
					},
					"indices":2,
					"material":0
				}
			]
		},
		{
			"name":"Building_016_Mesh.006",
			"primitives":[
				{
					"attributes":{
						"POSITION":3,
						"NORMAL":4
					},
					"indices":5,
					"material":0
				}
			]
		},
		{
			"name":"Building_013_Mesh.006",
			"primitives":[
				{
					"attributes":{
						"POSITION":6,
						"NORMAL":7
					},
					"indices":8,
					"material":0
				}
			]
		}
	],
	"accessors":[
		{
			"bufferView":0,
			"componentType":5126,
			"count":28,
			"max":[
				-0.33309775590896606,
				0.143000066280365,
				0.04592391476035118
			],
			"min":[
				-0.3722281754016876,
				0.12017399072647095,
				0.04592391476035118
			],
			"type":"VEC3"
		},
		{
			"bufferView":1,
			"componentType":5126,
			"count":28,
			"type":"VEC3"
		},
		{
			"bufferView":2,
			"componentType":5123,
			"count":42,
			"type":"SCALAR"
		},
		{
			"bufferView":3,
			"componentType":5126,
			"count":44,
			"max":[
				-0.26570647954940796,
				-0.02004346251487732,
				0.05679347738623619
			],
			"min":[
				-0.287445604801178,
				-0.07765215635299683,
				0.05679347738623619
			],
			"type":"VEC3"
		},
		{
			"bufferView":4,
			"componentType":5126,
			"count":44,
			"type":"VEC3"
		},
		{
			"bufferView":5,
			"componentType":5123,
			"count":66,
			"type":"SCALAR"
		},
		{
			"bufferView":6,
			"componentType":5126,
			"count":48,
			"max":[
				-0.33309775590896606,
				-0.42765215039253235,
				0.035054344683885574
			],
			"min":[
				-0.3722281754016876,
				-0.46895650029182434,
				0.035054344683885574
			],
			"type":"VEC3"
		},
		{
			"bufferView":7,
			"componentType":5126,
			"count":48,
			"type":"VEC3"
		},
		{
			"bufferView":8,
			"componentType":5123,
			"count":72,
			"type":"SCALAR"
		}
	],
	"bufferViews":[
		{
			"buffer":0,
			"byteLength":336,
			"byteOffset":0,
			"target":34962
		},
		{
			"buffer":0,
			"byteLength":336,
			"byteOffset":336,
			"target":34962
		},
		{
			"buffer":0,
			"byteLength":84,
			"byteOffset":672,
			"target":34963
		},
		{
			"buffer":0,
			"byteLength":528,
			"byteOffset":756,
			"target":34962
		},
		{
			"buffer":0,
			"byteLength":528,
			"byteOffset":1284,
			"target":34962
		},
		{
			"buffer":0,
			"byteLength":132,
			"byteOffset":1812,
			"target":34963
		},
		{
			"buffer":0,
			"byteLength":576,
			"byteOffset":1944,
			"target":34962
		},
		{
			"buffer":0,
			"byteLength":576,
			"byteOffset":2520,
			"target":34962
		},
		{
			"buffer":0,
			"byteLength":144,
			"byteOffset":3096,
			"target":34963
		}
	],
	"buffers":[
		{
			"byteLength":3240,
			"uri":"Pencere4.bin"
		}
	]
}
