{
	"asset":{
		"generator":"Khronos glTF Blender I/O v4.2.60",
		"version":"2.0"
	},
	"scene":0,
	"scenes":[
		{
			"name":"Scene",
			"nodes":[
				0,
				1,
				2,
				3,
				4,
				5,
				6,
				7,
				8,
				9,
				10,
				11,
				12,
				13
			]
		}
	],
	"nodes":[
		{
			"mesh":0,
			"name":"Building_021.003"
		},
		{
			"mesh":1,
			"name":"Building_021_RoofCap_0.001"
		},
		{
			"mesh":2,
			"name":"Building_021_RoofCap_1.001"
		},
		{
			"mesh":3,
			"name":"Building_021.005"
		},
		{
			"mesh":4,
			"name":"Building_021.004"
		},
		{
			"mesh":5,
			"name":"Building_039.003"
		},
		{
			"mesh":6,
			"name":"Building_039_RoofCap_0.001"
		},
		{
			"mesh":7,
			"name":"Building_039_RoofCap_1.001"
		},
		{
			"mesh":8,
			"name":"Building_039.005"
		},
		{
			"mesh":9,
			"name":"Building_039.004"
		},
		{
			"mesh":10,
			"name":"Building_062.003"
		},
		{
			"mesh":11,
			"name":"Building_062_RoofCap_0.001"
		},
		{
			"mesh":12,
			"name":"Building_062.005"
		},
		{
			"mesh":13,
			"name":"Building_062.004"
		}
	],
	"materials":[
		{
			"doubleSided":true,
			"name":"BinaSolar",
			"pbrMetallicRoughness":{
				"baseColorFactor":[
					0.4451989233493805,
					0.006995364557951689,
					0.002428226638585329,
					1
				],
				"metallicFactor":0,
				"roughnessFactor":0.699999988079071
			}
		},
		{
			"doubleSided":true,
			"name":"Mat_Roof_Cap",
			"pbrMetallicRoughness":{
				"baseColorFactor":[
					0.9822452664375305,
					0.38132646679878235,
					0.0030353753827512264,
					1
				],
				"metallicFactor":0,
				"roughnessFactor":0.699999988079071
			}
		},
		{
			"doubleSided":true,
			"name":"PencereSolarKapal\u0131",
			"pbrMetallicRoughness":{
				"baseColorFactor":[
					0.2122296690940857,
					0.0009105561766773462,
					0,
					1
				],
				"metallicFactor":0,
				"roughnessFactor":0.699999988079071
			}
		}
	],
	"meshes":[
		{
			"name":"Building_021_Mesh.003",
			"primitives":[
				{
					"attributes":{
						"POSITION":0,
						"NORMAL":1
					},
					"indices":2,
					"material":0
				}
			]
		},
		{
			"name":"Building_021_RoofCap_0_Mesh.001",
			"primitives":[
				{
					"attributes":{
						"POSITION":3,
						"NORMAL":4
					},
					"indices":5,
					"material":1
				}
			]
		},
		{
			"name":"Building_021_RoofCap_1_Mesh.001",
			"primitives":[
				{
					"attributes":{
						"POSITION":6,
						"NORMAL":7
					},
					"indices":8,
					"material":1
				}
			]
		},
		{
			"name":"Building_021_Mesh.005",
			"primitives":[
				{
					"attributes":{
						"POSITION":9,
						"NORMAL":10
					},
					"indices":11,
					"material":2
				}
			]
		},
		{
			"name":"Building_021_Mesh.004",
			"primitives":[
				{
					"attributes":{
						"POSITION":12,
						"NORMAL":13
					},
					"indices":14,
					"material":2
				}
			]
		},
		{
			"name":"Building_039_Mesh.003",
			"primitives":[
				{
					"attributes":{
						"POSITION":15,
						"NORMAL":16
					},
					"indices":17,
					"material":0
				}
			]
		},
		{
			"name":"Building_039_RoofCap_0_Mesh.001",
			"primitives":[
				{
					"attributes":{
						"POSITION":18,
						"NORMAL":19
					},
					"indices":20,
					"material":1
				}
			]
		},
		{
			"name":"Building_039_RoofCap_1_Mesh.001",
			"primitives":[
				{
					"attributes":{
						"POSITION":21,
						"NORMAL":22
					},
					"indices":23,
					"material":1
				}
			]
		},
		{
			"name":"Building_039_Mesh.005",
			"primitives":[
				{
					"attributes":{
						"POSITION":24,
						"NORMAL":25
					},
					"indices":26,
					"material":2
				}
			]
		},
		{
			"name":"Building_039_Mesh.004",
			"primitives":[
				{
					"attributes":{
						"POSITION":27,
						"NORMAL":28
					},
					"indices":14,
					"material":2
				}
			]
		},
		{
			"name":"Building_062_Mesh.003",
			"primitives":[
				{
					"attributes":{
						"POSITION":29,
						"NORMAL":30
					},
					"indices":31,
					"material":0
				}
			]
		},
		{
			"name":"Building_062_RoofCap_0_Mesh.001",
			"primitives":[
				{
					"attributes":{
						"POSITION":32,
						"NORMAL":33
					},
					"indices":20,
					"material":1
				}
			]
		},
		{
			"name":"Building_062_Mesh.005",
			"primitives":[
				{
					"attributes":{
						"POSITION":34,
						"NORMAL":35
					},
					"indices":36,
					"material":2
				}
			]
		},
		{
			"name":"Building_062_Mesh.004",
			"primitives":[
				{
					"attributes":{
						"POSITION":37,
						"NORMAL":38
					},
					"indices":14,
					"material":2
				}
			]
		}
	],
	"accessors":[
		{
			"bufferView":0,
			"componentType":5126,
			"count":497,
			"max":[
				-0.184184730052948,
				0.17669570446014404,
				0.036141302436590195
			],
			"min":[
				-0.21679341793060303,
				0.11256527900695801,
				-0.007336955517530441
			],
			"type":"VEC3"
		},
		{
			"bufferView":1,
			"componentType":5126,
			"count":497,
			"type":"VEC3"
		},
		{
			"bufferView":2,
			"componentType":5123,
			"count":1398,
			"type":"SCALAR"
		},
		{
			"bufferView":3,
			"componentType":5126,
			"count":24,
			"max":[
				-0.1869513839483261,
				0.17772704362869263,
				0.03493959456682205
			],
			"min":[
				-0.19999486207962036,
				0.16708695888519287,
				0.016576087102293968
			],
			"type":"VEC3"
		},
		{
			"bufferView":4,
			"componentType":5126,
			"count":24,
			"type":"VEC3"
		},
		{
			"bufferView":5,
			"componentType":5123,
			"count":36,
			"type":"SCALAR"
		},
		{
			"bufferView":6,
			"componentType":5126,
			"count":24,
			"max":[
				-0.19266743957996368,
				0.17772704362869263,
				0.012228259816765785
			],
			"min":[
				-0.21223266422748566,
				0.16708695888519287,
				-0.006135245785117149
			],
			"type":"VEC3"
		},
		{
			"bufferView":7,
			"componentType":5126,
			"count":24,
			"type":"VEC3"
		},
		{
			"bufferView":8,
			"componentType":5123,
			"count":36,
			"type":"SCALAR"
		},
		{
			"bufferView":9,
			"componentType":5126,
			"count":36,
			"max":[
				-0.1896195113658905,
				0.15930438041687012,
				0.033967386931180954
			],
			"min":[
				-0.21135863661766052,
				0.1158260703086853,
				0.033967386931180954
			],
			"type":"VEC3"
		},
		{
			"bufferView":10,
			"componentType":5126,
			"count":36,
			"type":"VEC3"
		},
		{
			"bufferView":11,
			"componentType":5123,
			"count":54,
			"type":"SCALAR"
		},
		{
			"bufferView":12,
			"componentType":5126,
			"count":4,
			"max":[
				-0.20266298949718475,
				0.1266956925392151,
				0.03396739065647125
			],
			"min":[
				-0.21135863661766052,
				0.11256527900695801,
				0.03396739065647125
			],
			"type":"VEC3"
		},
		{
			"bufferView":13,
			"componentType":5126,
			"count":4,
			"type":"VEC3"
		},
		{
			"bufferView":14,
			"componentType":5123,
			"count":6,
			"type":"SCALAR"
		},
		{
			"bufferView":15,
			"componentType":5126,
			"count":507,
			"max":[
				-0.02385866641998291,
				-0.23091301321983337,
				0.047010865062475204
			],
			"min":[
				-0.07277166843414307,
				-0.2787390947341919,
				-0.007336959708482027
			],
			"type":"VEC3"
		},
		{
			"bufferView":16,
			"componentType":5126,
			"count":507,
			"type":"VEC3"
		},
		{
			"bufferView":17,
			"componentType":5123,
			"count":1488,
			"type":"SCALAR"
		},
		{
			"bufferView":18,
			"componentType":5126,
			"count":24,
			"max":[
				-0.032520830631256104,
				-0.23093806207180023,
				0.042383454740047455
			],
			"min":[
				-0.07165127992630005,
				-0.2394782304763794,
				0.025271739810705185
			],
			"type":"VEC3"
		},
		{
			"bufferView":19,
			"componentType":5126,
			"count":24,
			"type":"VEC3"
		},
		{
			"bufferView":20,
			"componentType":5123,
			"count":36,
			"type":"SCALAR"
		},
		{
			"bufferView":21,
			"componentType":5126,
			"count":24,
			"max":[
				-0.04130887985229492,
				-0.23093806207180023,
				0.014402173459529877
			],
			"min":[
				-0.07065671682357788,
				-0.2394782304763794,
				-0.002709545660763979
			],
			"type":"VEC3"
		},
		{
			"bufferView":22,
			"componentType":5126,
			"count":24,
			"type":"VEC3"
		},
		{
			"bufferView":23,
			"componentType":5123,
			"count":36,
			"type":"SCALAR"
		},
		{
			"bufferView":24,
			"componentType":5126,
			"count":32,
			"max":[
				-0.028749972581863403,
				-0.2483043223619461,
				0.04483695700764656
			],
			"min":[
				-0.06788039207458496,
				-0.27113041281700134,
				0.04483695700764656
			],
			"type":"VEC3"
		},
		{
			"bufferView":25,
			"componentType":5126,
			"count":32,
			"type":"VEC3"
		},
		{
			"bufferView":26,
			"componentType":5123,
			"count":48,
			"type":"SCALAR"
		},
		{
			"bufferView":27,
			"componentType":5126,
			"count":4,
			"max":[
				-0.02875000238418579,
				-0.2646086513996124,
				0.04483695700764656
			],
			"min":[
				-0.03527170419692993,
				-0.2787390947341919,
				0.04483695700764656
			],
			"type":"VEC3"
		},
		{
			"bufferView":28,
			"componentType":5126,
			"count":4,
			"type":"VEC3"
		},
		{
			"bufferView":29,
			"componentType":5126,
			"count":481,
			"max":[
				0.19624996185302734,
				-0.4211304187774658,
				0.05788043513894081
			],
			"min":[
				0.1636413335800171,
				-0.47439128160476685,
				-0.007336955517530441
			],
			"type":"VEC3"
		},
		{
			"bufferView":30,
			"componentType":5126,
			"count":481,
			"type":"VEC3"
		},
		{
			"bufferView":31,
			"componentType":5123,
			"count":1389,
			"type":"SCALAR"
		},
		{
			"bufferView":32,
			"componentType":5126,
			"count":24,
			"max":[
				0.18208962678909302,
				-0.4155259430408478,
				0.051494300365448
			],
			"min":[
				0.16904616355895996,
				-0.42095649242401123,
				-0.0008152173832058907
			],
			"type":"VEC3"
		},
		{
			"bufferView":33,
			"componentType":5126,
			"count":24,
			"type":"VEC3"
		},
		{
			"bufferView":34,
			"componentType":5126,
			"count":39,
			"max":[
				0.19081521034240723,
				-0.42765215039253235,
				0.05570651963353157
			],
			"min":[
				0.1690760850906372,
				-0.46895650029182434,
				0.05570651963353157
			],
			"type":"VEC3"
		},
		{
			"bufferView":35,
			"componentType":5126,
			"count":39,
			"type":"VEC3"
		},
		{
			"bufferView":36,
			"componentType":5123,
			"count":63,
			"type":"SCALAR"
		},
		{
			"bufferView":37,
			"componentType":5126,
			"count":4,
			"max":[
				0.19081521034240723,
				-0.4602608382701874,
				0.05570651963353157
			],
			"min":[
				0.18211954832077026,
				-0.47439128160476685,
				0.05570651963353157
			],
			"type":"VEC3"
		},
		{
			"bufferView":38,
			"componentType":5126,
			"count":4,
			"type":"VEC3"
		}
	],
	"bufferViews":[
		{
			"buffer":0,
			"byteLength":5964,
			"byteOffset":0,
			"target":34962
		},
		{
			"buffer":0,
			"byteLength":5964,
			"byteOffset":5964,
			"target":34962
		},
		{
			"buffer":0,
			"byteLength":2796,
			"byteOffset":11928,
			"target":34963
		},
		{
			"buffer":0,
			"byteLength":288,
			"byteOffset":14724,
			"target":34962
		},
		{
			"buffer":0,
			"byteLength":288,
			"byteOffset":15012,
			"target":34962
		},
		{
			"buffer":0,
			"byteLength":72,
			"byteOffset":15300,
			"target":34963
		},
		{
			"buffer":0,
			"byteLength":288,
			"byteOffset":15372,
			"target":34962
		},
		{
			"buffer":0,
			"byteLength":288,
			"byteOffset":15660,
			"target":34962
		},
		{
			"buffer":0,
			"byteLength":72,
			"byteOffset":15948,
			"target":34963
		},
		{
			"buffer":0,
			"byteLength":432,
			"byteOffset":16020,
			"target":34962
		},
		{
			"buffer":0,
			"byteLength":432,
			"byteOffset":16452,
			"target":34962
		},
		{
			"buffer":0,
			"byteLength":108,
			"byteOffset":16884,
			"target":34963
		},
		{
			"buffer":0,
			"byteLength":48,
			"byteOffset":16992,
			"target":34962
		},
		{
			"buffer":0,
			"byteLength":48,
			"byteOffset":17040,
			"target":34962
		},
		{
			"buffer":0,
			"byteLength":12,
			"byteOffset":17088,
			"target":34963
		},
		{
			"buffer":0,
			"byteLength":6084,
			"byteOffset":17100,
			"target":34962
		},
		{
			"buffer":0,
			"byteLength":6084,
			"byteOffset":23184,
			"target":34962
		},
		{
			"buffer":0,
			"byteLength":2976,
			"byteOffset":29268,
			"target":34963
		},
		{
			"buffer":0,
			"byteLength":288,
			"byteOffset":32244,
			"target":34962
		},
		{
			"buffer":0,
			"byteLength":288,
			"byteOffset":32532,
			"target":34962
		},
		{
			"buffer":0,
			"byteLength":72,
			"byteOffset":32820,
			"target":34963
		},
		{
			"buffer":0,
			"byteLength":288,
			"byteOffset":32892,
			"target":34962
		},
		{
			"buffer":0,
			"byteLength":288,
			"byteOffset":33180,
			"target":34962
		},
		{
			"buffer":0,
			"byteLength":72,
			"byteOffset":33468,
			"target":34963
		},
		{
			"buffer":0,
			"byteLength":384,
			"byteOffset":33540,
			"target":34962
		},
		{
			"buffer":0,
			"byteLength":384,
			"byteOffset":33924,
			"target":34962
		},
		{
			"buffer":0,
			"byteLength":96,
			"byteOffset":34308,
			"target":34963
		},
		{
			"buffer":0,
			"byteLength":48,
			"byteOffset":34404,
			"target":34962
		},
		{
			"buffer":0,
			"byteLength":48,
			"byteOffset":34452,
			"target":34962
		},
		{
			"buffer":0,
			"byteLength":5772,
			"byteOffset":34500,
			"target":34962
		},
		{
			"buffer":0,
			"byteLength":5772,
			"byteOffset":40272,
			"target":34962
		},
		{
			"buffer":0,
			"byteLength":2778,
			"byteOffset":46044,
			"target":34963
		},
		{
			"buffer":0,
			"byteLength":288,
			"byteOffset":48824,
			"target":34962
		},
		{
			"buffer":0,
			"byteLength":288,
			"byteOffset":49112,
			"target":34962
		},
		{
			"buffer":0,
			"byteLength":468,
			"byteOffset":49400,
			"target":34962
		},
		{
			"buffer":0,
			"byteLength":468,
			"byteOffset":49868,
			"target":34962
		},
		{
			"buffer":0,
			"byteLength":126,
			"byteOffset":50336,
			"target":34963
		},
		{
			"buffer":0,
			"byteLength":48,
			"byteOffset":50464,
			"target":34962
		},
		{
			"buffer":0,
			"byteLength":48,
			"byteOffset":50512,
			"target":34962
		}
	],
	"buffers":[
		{
			"byteLength":50560,
			"uri":"BinaGrup8.bin"
		}
	]
}
