{
	"asset":{
		"generator":"Khronos glTF Blender I/O v4.2.60",
		"version":"2.0"
	},
	"scene":0,
	"scenes":[
		{
			"name":"Scene",
			"nodes":[
				0,
				1,
				2,
				3,
				4,
				5,
				6,
				7,
				8,
				9,
				10,
				11
			]
		}
	],
	"nodes":[
		{
			"mesh":0,
			"name":"Building_045.003"
		},
		{
			"mesh":1,
			"name":"Building_045_RoofCap_0.001"
		},
		{
			"mesh":2,
			"name":"Building_045.005"
		},
		{
			"mesh":3,
			"name":"Building_045.004"
		},
		{
			"mesh":4,
			"name":"Building_050.003"
		},
		{
			"mesh":5,
			"name":"Building_050_RoofCap_0.001"
		},
		{
			"mesh":6,
			"name":"Building_050.005"
		},
		{
			"mesh":7,
			"name":"Building_050.004"
		},
		{
			"mesh":8,
			"name":"Building_065.003"
		},
		{
			"mesh":9,
			"name":"Building_065_RoofCap_0.001"
		},
		{
			"mesh":10,
			"name":"Building_065.005"
		},
		{
			"mesh":11,
			"name":"Building_065.004"
		}
	],
	"materials":[
		{
			"doubleSided":true,
			"name":"BinaSolar",
			"pbrMetallicRoughness":{
				"baseColorFactor":[
					0.4451989233493805,
					0.006995364557951689,
					0.002428226638585329,
					1
				],
				"metallicFactor":0,
				"roughnessFactor":0.699999988079071
			}
		},
		{
			"doubleSided":true,
			"name":"Mat_Roof_Cap",
			"pbrMetallicRoughness":{
				"baseColorFactor":[
					0.9822452664375305,
					0.38132646679878235,
					0.0030353753827512264,
					1
				],
				"metallicFactor":0,
				"roughnessFactor":0.699999988079071
			}
		},
		{
			"doubleSided":true,
			"name":"PencereSolarKapal\u0131",
			"pbrMetallicRoughness":{
				"baseColorFactor":[
					0.2122296690940857,
					0.0009105561766773462,
					0,
					1
				],
				"metallicFactor":0,
				"roughnessFactor":0.699999988079071
			}
		}
	],
	"meshes":[
		{
			"name":"Building_045_Mesh.003",
			"primitives":[
				{
					"attributes":{
						"POSITION":0,
						"NORMAL":1
					},
					"indices":2,
					"material":0
				}
			]
		},
		{
			"name":"Building_045_RoofCap_0_Mesh.001",
			"primitives":[
				{
					"attributes":{
						"POSITION":3,
						"NORMAL":4
					},
					"indices":5,
					"material":1
				}
			]
		},
		{
			"name":"Building_045_Mesh.005",
			"primitives":[
				{
					"attributes":{
						"POSITION":6,
						"NORMAL":7
					},
					"indices":8,
					"material":2
				}
			]
		},
		{
			"name":"Building_045_Mesh.004",
			"primitives":[
				{
					"attributes":{
						"POSITION":9,
						"NORMAL":10
					},
					"indices":11,
					"material":2
				}
			]
		},
		{
			"name":"Building_050_Mesh.003",
			"primitives":[
				{
					"attributes":{
						"POSITION":12,
						"NORMAL":13
					},
					"indices":14,
					"material":0
				}
			]
		},
		{
			"name":"Building_050_RoofCap_0_Mesh.001",
			"primitives":[
				{
					"attributes":{
						"POSITION":15,
						"NORMAL":16
					},
					"indices":5,
					"material":1
				}
			]
		},
		{
			"name":"Building_050_Mesh.005",
			"primitives":[
				{
					"attributes":{
						"POSITION":17,
						"NORMAL":18
					},
					"indices":19,
					"material":2
				}
			]
		},
		{
			"name":"Building_050_Mesh.004",
			"primitives":[
				{
					"attributes":{
						"POSITION":20,
						"NORMAL":21
					},
					"indices":11,
					"material":2
				}
			]
		},
		{
			"name":"Building_065_Mesh.003",
			"primitives":[
				{
					"attributes":{
						"POSITION":22,
						"NORMAL":23
					},
					"indices":24,
					"material":0
				}
			]
		},
		{
			"name":"Building_065_RoofCap_0_Mesh.001",
			"primitives":[
				{
					"attributes":{
						"POSITION":25,
						"NORMAL":26
					},
					"indices":5,
					"material":1
				}
			]
		},
		{
			"name":"Building_065_Mesh.005",
			"primitives":[
				{
					"attributes":{
						"POSITION":27,
						"NORMAL":28
					},
					"indices":29,
					"material":2
				}
			]
		},
		{
			"name":"Building_065_Mesh.004",
			"primitives":[
				{
					"attributes":{
						"POSITION":30,
						"NORMAL":31
					},
					"indices":11,
					"material":2
				}
			]
		}
	],
	"accessors":[
		{
			"bufferView":0,
			"componentType":5126,
			"count":292,
			"max":[
				0.04407608509063721,
				-0.1439564824104309,
				0.05788043513894081
			],
			"min":[
				0.011467397212982178,
				-0.18091300129890442,
				-0.007336955517530441
			],
			"type":"VEC3"
		},
		{
			"bufferView":1,
			"componentType":5126,
			"count":292,
			"type":"VEC3"
		},
		{
			"bufferView":2,
			"componentType":5123,
			"count":738,
			"type":"SCALAR"
		},
		{
			"bufferView":3,
			"componentType":5126,
			"count":24,
			"max":[
				0.02633151412010193,
				-0.13835203647613525,
				0.051494300365448
			],
			"min":[
				0.013287991285324097,
				-0.1437825858592987,
				-0.0008152173832058907
			],
			"type":"VEC3"
		},
		{
			"bufferView":4,
			"componentType":5126,
			"count":24,
			"type":"VEC3"
		},
		{
			"bufferView":5,
			"componentType":5123,
			"count":36,
			"type":"SCALAR"
		},
		{
			"bufferView":6,
			"componentType":5126,
			"count":20,
			"max":[
				0.03864136338233948,
				-0.15047824382781982,
				0.05570651963353157
			],
			"min":[
				0.01690220832824707,
				-0.17765215039253235,
				0.05570651963353157
			],
			"type":"VEC3"
		},
		{
			"bufferView":7,
			"componentType":5126,
			"count":20,
			"type":"VEC3"
		},
		{
			"bufferView":8,
			"componentType":5123,
			"count":30,
			"type":"SCALAR"
		},
		{
			"bufferView":9,
			"componentType":5126,
			"count":4,
			"max":[
				0.025597840547561646,
				-0.16678255796432495,
				0.05570651963353157
			],
			"min":[
				0.016902178525924683,
				-0.18091300129890442,
				0.05570651963353157
			],
			"type":"VEC3"
		},
		{
			"bufferView":10,
			"componentType":5126,
			"count":4,
			"type":"VEC3"
		},
		{
			"bufferView":11,
			"componentType":5123,
			"count":6,
			"type":"SCALAR"
		},
		{
			"bufferView":12,
			"componentType":5126,
			"count":503,
			"max":[
				0.128315269947052,
				0.05169564485549927,
				0.036141302436590195
			],
			"min":[
				0.07940220832824707,
				0.014739125967025757,
				-0.007336955517530441
			],
			"type":"VEC3"
		},
		{
			"bufferView":13,
			"componentType":5126,
			"count":503,
			"type":"VEC3"
		},
		{
			"bufferView":14,
			"componentType":5123,
			"count":1476,
			"type":"SCALAR"
		},
		{
			"bufferView":15,
			"componentType":5126,
			"count":24,
			"max":[
				0.11098217964172363,
				0.05729484558105469,
				0.03199639171361923
			],
			"min":[
				0.08163434267044067,
				0.05186957120895386,
				-0.002989131025969982
			],
			"type":"VEC3"
		},
		{
			"bufferView":16,
			"componentType":5126,
			"count":24,
			"type":"VEC3"
		},
		{
			"bufferView":17,
			"componentType":5126,
			"count":32,
			"max":[
				0.12342393398284912,
				0.04517388343811035,
				0.033967386931180954
			],
			"min":[
				0.08429354429244995,
				0.022347837686538696,
				0.033967386931180954
			],
			"type":"VEC3"
		},
		{
			"bufferView":18,
			"componentType":5126,
			"count":32,
			"type":"VEC3"
		},
		{
			"bufferView":19,
			"componentType":5123,
			"count":48,
			"type":"SCALAR"
		},
		{
			"bufferView":20,
			"componentType":5126,
			"count":4,
			"max":[
				0.1234239935874939,
				0.028869569301605225,
				0.03396739065647125
			],
			"min":[
				0.11690223217010498,
				0.014739125967025757,
				0.03396739065647125
			],
			"type":"VEC3"
		},
		{
			"bufferView":21,
			"componentType":5126,
			"count":4,
			"type":"VEC3"
		},
		{
			"bufferView":22,
			"componentType":5126,
			"count":820,
			"max":[
				0.28048908710479736,
				-0.029826074838638306,
				0.057880427688360214
			],
			"min":[
				0.23157602548599243,
				-0.08308693766593933,
				-0.007336955517530441
			],
			"type":"VEC3"
		},
		{
			"bufferView":23,
			"componentType":5126,
			"count":820,
			"type":"VEC3"
		},
		{
			"bufferView":24,
			"componentType":5123,
			"count":2664,
			"type":"SCALAR"
		},
		{
			"bufferView":25,
			"componentType":5126,
			"count":24,
			"max":[
				0.26317328214645386,
				-0.024221599102020264,
				0.051494300365448
			],
			"min":[
				0.24360805749893188,
				-0.029652178287506104,
				-0.0008152173832058907
			],
			"type":"VEC3"
		},
		{
			"bufferView":26,
			"componentType":5126,
			"count":24,
			"type":"VEC3"
		},
		{
			"bufferView":27,
			"componentType":5126,
			"count":48,
			"max":[
				0.27559781074523926,
				-0.036347776651382446,
				0.05570651963353157
			],
			"min":[
				0.2364674210548401,
				-0.07765215635299683,
				0.05570651963353157
			],
			"type":"VEC3"
		},
		{
			"bufferView":28,
			"componentType":5126,
			"count":48,
			"type":"VEC3"
		},
		{
			"bufferView":29,
			"componentType":5123,
			"count":72,
			"type":"SCALAR"
		},
		{
			"bufferView":30,
			"componentType":5126,
			"count":4,
			"max":[
				0.242989182472229,
				-0.06895646452903748,
				0.05570651963353157
			],
			"min":[
				0.2364673614501953,
				-0.08308693766593933,
				0.05570651963353157
			],
			"type":"VEC3"
		},
		{
			"bufferView":31,
			"componentType":5126,
			"count":4,
			"type":"VEC3"
		}
	],
	"bufferViews":[
		{
			"buffer":0,
			"byteLength":3504,
			"byteOffset":0,
			"target":34962
		},
		{
			"buffer":0,
			"byteLength":3504,
			"byteOffset":3504,
			"target":34962
		},
		{
			"buffer":0,
			"byteLength":1476,
			"byteOffset":7008,
			"target":34963
		},
		{
			"buffer":0,
			"byteLength":288,
			"byteOffset":8484,
			"target":34962
		},
		{
			"buffer":0,
			"byteLength":288,
			"byteOffset":8772,
			"target":34962
		},
		{
			"buffer":0,
			"byteLength":72,
			"byteOffset":9060,
			"target":34963
		},
		{
			"buffer":0,
			"byteLength":240,
			"byteOffset":9132,
			"target":34962
		},
		{
			"buffer":0,
			"byteLength":240,
			"byteOffset":9372,
			"target":34962
		},
		{
			"buffer":0,
			"byteLength":60,
			"byteOffset":9612,
			"target":34963
		},
		{
			"buffer":0,
			"byteLength":48,
			"byteOffset":9672,
			"target":34962
		},
		{
			"buffer":0,
			"byteLength":48,
			"byteOffset":9720,
			"target":34962
		},
		{
			"buffer":0,
			"byteLength":12,
			"byteOffset":9768,
			"target":34963
		},
		{
			"buffer":0,
			"byteLength":6036,
			"byteOffset":9780,
			"target":34962
		},
		{
			"buffer":0,
			"byteLength":6036,
			"byteOffset":15816,
			"target":34962
		},
		{
			"buffer":0,
			"byteLength":2952,
			"byteOffset":21852,
			"target":34963
		},
		{
			"buffer":0,
			"byteLength":288,
			"byteOffset":24804,
			"target":34962
		},
		{
			"buffer":0,
			"byteLength":288,
			"byteOffset":25092,
			"target":34962
		},
		{
			"buffer":0,
			"byteLength":384,
			"byteOffset":25380,
			"target":34962
		},
		{
			"buffer":0,
			"byteLength":384,
			"byteOffset":25764,
			"target":34962
		},
		{
			"buffer":0,
			"byteLength":96,
			"byteOffset":26148,
			"target":34963
		},
		{
			"buffer":0,
			"byteLength":48,
			"byteOffset":26244,
			"target":34962
		},
		{
			"buffer":0,
			"byteLength":48,
			"byteOffset":26292,
			"target":34962
		},
		{
			"buffer":0,
			"byteLength":9840,
			"byteOffset":26340,
			"target":34962
		},
		{
			"buffer":0,
			"byteLength":9840,
			"byteOffset":36180,
			"target":34962
		},
		{
			"buffer":0,
			"byteLength":5328,
			"byteOffset":46020,
			"target":34963
		},
		{
			"buffer":0,
			"byteLength":288,
			"byteOffset":51348,
			"target":34962
		},
		{
			"buffer":0,
			"byteLength":288,
			"byteOffset":51636,
			"target":34962
		},
		{
			"buffer":0,
			"byteLength":576,
			"byteOffset":51924,
			"target":34962
		},
		{
			"buffer":0,
			"byteLength":576,
			"byteOffset":52500,
			"target":34962
		},
		{
			"buffer":0,
			"byteLength":144,
			"byteOffset":53076,
			"target":34963
		},
		{
			"buffer":0,
			"byteLength":48,
			"byteOffset":53220,
			"target":34962
		},
		{
			"buffer":0,
			"byteLength":48,
			"byteOffset":53268,
			"target":34962
		}
	],
	"buffers":[
		{
			"byteLength":53316,
			"uri":"BinaGrup12.bin"
		}
	]
}
