{
	"asset":{
		"generator":"Khronos glTF Blender I/O v4.2.60",
		"version":"2.0"
	},
	"scene":0,
	"scenes":[
		{
			"name":"Scene",
			"nodes":[
				0,
				1,
				2,
				3,
				4,
				5,
				6,
				7,
				8,
				9,
				10,
				11,
				12,
				13
			]
		}
	],
	"nodes":[
		{
			"mesh":0,
			"name":"Building_023.003"
		},
		{
			"mesh":1,
			"name":"Building_023_RoofCap_0.001"
		},
		{
			"mesh":2,
			"name":"Building_023_RoofCap_1.001"
		},
		{
			"mesh":3,
			"name":"Building_023.005"
		},
		{
			"mesh":4,
			"name":"Building_023.004"
		},
		{
			"mesh":5,
			"name":"Building_052.003"
		},
		{
			"mesh":6,
			"name":"Building_052_RoofCap_0.001"
		},
		{
			"mesh":7,
			"name":"Building_052.005"
		},
		{
			"mesh":8,
			"name":"Building_052.004"
		},
		{
			"mesh":9,
			"name":"Building_061.003"
		},
		{
			"mesh":10,
			"name":"Building_061_RoofCap_0.001"
		},
		{
			"mesh":11,
			"name":"Building_061_RoofCap_1.001"
		},
		{
			"mesh":12,
			"name":"Building_061.005"
		},
		{
			"mesh":13,
			"name":"Building_061.004"
		}
	],
	"materials":[
		{
			"doubleSided":true,
			"name":"BinaSolar",
			"pbrMetallicRoughness":{
				"baseColorFactor":[
					0.4451989233493805,
					0.006995364557951689,
					0.002428226638585329,
					1
				],
				"metallicFactor":0,
				"roughnessFactor":0.699999988079071
			}
		},
		{
			"doubleSided":true,
			"name":"Mat_Roof_Cap",
			"pbrMetallicRoughness":{
				"baseColorFactor":[
					0.9822452664375305,
					0.38132646679878235,
					0.0030353753827512264,
					1
				],
				"metallicFactor":0,
				"roughnessFactor":0.699999988079071
			}
		},
		{
			"doubleSided":true,
			"name":"PencereSolarKapal\u0131",
			"pbrMetallicRoughness":{
				"baseColorFactor":[
					0.2122296690940857,
					0.0009105561766773462,
					0,
					1
				],
				"metallicFactor":0,
				"roughnessFactor":0.699999988079071
			}
		}
	],
	"meshes":[
		{
			"name":"Building_023_Mesh.003",
			"primitives":[
				{
					"attributes":{
						"POSITION":0,
						"NORMAL":1
					},
					"indices":2,
					"material":0
				}
			]
		},
		{
			"name":"Building_023_RoofCap_0_Mesh.001",
			"primitives":[
				{
					"attributes":{
						"POSITION":3,
						"NORMAL":4
					},
					"indices":5,
					"material":1
				}
			]
		},
		{
			"name":"Building_023_RoofCap_1_Mesh.001",
			"primitives":[
				{
					"attributes":{
						"POSITION":6,
						"NORMAL":7
					},
					"indices":8,
					"material":1
				}
			]
		},
		{
			"name":"Building_023_Mesh.005",
			"primitives":[
				{
					"attributes":{
						"POSITION":9,
						"NORMAL":10
					},
					"indices":11,
					"material":2
				}
			]
		},
		{
			"name":"Building_023_Mesh.004",
			"primitives":[
				{
					"attributes":{
						"POSITION":12,
						"NORMAL":13
					},
					"indices":14,
					"material":2
				}
			]
		},
		{
			"name":"Building_052_Mesh.003",
			"primitives":[
				{
					"attributes":{
						"POSITION":15,
						"NORMAL":16
					},
					"indices":17,
					"material":0
				}
			]
		},
		{
			"name":"Building_052_RoofCap_0_Mesh.001",
			"primitives":[
				{
					"attributes":{
						"POSITION":18,
						"NORMAL":19
					},
					"indices":20,
					"material":1
				}
			]
		},
		{
			"name":"Building_052_Mesh.005",
			"primitives":[
				{
					"attributes":{
						"POSITION":21,
						"NORMAL":22
					},
					"indices":23,
					"material":2
				}
			]
		},
		{
			"name":"Building_052_Mesh.004",
			"primitives":[
				{
					"attributes":{
						"POSITION":24,
						"NORMAL":25
					},
					"indices":14,
					"material":2
				}
			]
		},
		{
			"name":"Building_061_Mesh.003",
			"primitives":[
				{
					"attributes":{
						"POSITION":26,
						"NORMAL":27
					},
					"indices":28,
					"material":0
				}
			]
		},
		{
			"name":"Building_061_RoofCap_0_Mesh.001",
			"primitives":[
				{
					"attributes":{
						"POSITION":29,
						"NORMAL":30
					},
					"indices":5,
					"material":1
				}
			]
		},
		{
			"name":"Building_061_RoofCap_1_Mesh.001",
			"primitives":[
				{
					"attributes":{
						"POSITION":31,
						"NORMAL":32
					},
					"indices":33,
					"material":1
				}
			]
		},
		{
			"name":"Building_061_Mesh.005",
			"primitives":[
				{
					"attributes":{
						"POSITION":34,
						"NORMAL":35
					},
					"indices":36,
					"material":2
				}
			]
		},
		{
			"name":"Building_061_Mesh.004",
			"primitives":[
				{
					"attributes":{
						"POSITION":37,
						"NORMAL":38
					},
					"indices":14,
					"material":2
				}
			]
		}
	],
	"accessors":[
		{
			"bufferView":0,
			"componentType":5126,
			"count":857,
			"max":[
				-0.17603257298469543,
				-0.021130383014678955,
				0.036141302436590195
			],
			"min":[
				-0.22494560480117798,
				-0.08308693766593933,
				-0.007336955517530441
			],
			"type":"VEC3"
		},
		{
			"bufferView":1,
			"componentType":5126,
			"count":857,
			"type":"VEC3"
		},
		{
			"bufferView":2,
			"componentType":5123,
			"count":2730,
			"type":"SCALAR"
		},
		{
			"bufferView":3,
			"componentType":5126,
			"count":24,
			"max":[
				-0.18705962598323822,
				-0.019807636737823486,
				0.03477476164698601
			],
			"min":[
				-0.21640746295452118,
				-0.02878260612487793,
				0.016576087102293968
			],
			"type":"VEC3"
		},
		{
			"bufferView":4,
			"componentType":5126,
			"count":24,
			"type":"VEC3"
		},
		{
			"bufferView":5,
			"componentType":5123,
			"count":36,
			"type":"SCALAR"
		},
		{
			"bufferView":6,
			"componentType":5126,
			"count":24,
			"max":[
				-0.19407573342323303,
				-0.020720690488815308,
				0.010054348036646843
			],
			"min":[
				-0.213640958070755,
				-0.027956485748291016,
				-0.003796500852331519
			],
			"type":"VEC3"
		},
		{
			"bufferView":7,
			"componentType":5126,
			"count":24,
			"type":"VEC3"
		},
		{
			"bufferView":8,
			"componentType":5123,
			"count":36,
			"type":"SCALAR"
		},
		{
			"bufferView":9,
			"componentType":5126,
			"count":60,
			"max":[
				-0.18092384934425354,
				-0.036347806453704834,
				0.033967386931180954
			],
			"min":[
				-0.2200542837381363,
				-0.07982605695724487,
				0.033967386931180954
			],
			"type":"VEC3"
		},
		{
			"bufferView":10,
			"componentType":5126,
			"count":60,
			"type":"VEC3"
		},
		{
			"bufferView":11,
			"componentType":5123,
			"count":90,
			"type":"SCALAR"
		},
		{
			"bufferView":12,
			"componentType":5126,
			"count":4,
			"max":[
				-0.19179342687129974,
				-0.06895646452903748,
				0.03396739065647125
			],
			"min":[
				-0.20918473601341248,
				-0.08308693766593933,
				0.03396739065647125
			],
			"type":"VEC3"
		},
		{
			"bufferView":13,
			"componentType":5126,
			"count":4,
			"type":"VEC3"
		},
		{
			"bufferView":14,
			"componentType":5123,
			"count":6,
			"type":"SCALAR"
		},
		{
			"bufferView":15,
			"componentType":5126,
			"count":491,
			"max":[
				0.128315269947052,
				-0.1439565122127533,
				0.036141302436590195
			],
			"min":[
				0.07940226793289185,
				-0.18091300129890442,
				-0.007336955517530441
			],
			"type":"VEC3"
		},
		{
			"bufferView":16,
			"componentType":5126,
			"count":491,
			"type":"VEC3"
		},
		{
			"bufferView":17,
			"componentType":5123,
			"count":1404,
			"type":"SCALAR"
		},
		{
			"bufferView":18,
			"componentType":5126,
			"count":24,
			"max":[
				0.12465178966522217,
				-0.13847199082374573,
				0.023498453199863434
			],
			"min":[
				0.085521399974823,
				-0.1438695192337036,
				0.005706521682441235
			],
			"type":"VEC3"
		},
		{
			"bufferView":19,
			"componentType":5126,
			"count":24,
			"type":"VEC3"
		},
		{
			"bufferView":20,
			"componentType":5123,
			"count":36,
			"type":"SCALAR"
		},
		{
			"bufferView":21,
			"componentType":5126,
			"count":24,
			"max":[
				0.12342393398284912,
				-0.15047824382781982,
				0.033967386931180954
			],
			"min":[
				0.08429354429244995,
				-0.17765215039253235,
				0.033967386931180954
			],
			"type":"VEC3"
		},
		{
			"bufferView":22,
			"componentType":5126,
			"count":24,
			"type":"VEC3"
		},
		{
			"bufferView":23,
			"componentType":5123,
			"count":36,
			"type":"SCALAR"
		},
		{
			"bufferView":24,
			"componentType":5126,
			"count":4,
			"max":[
				0.09081524610519409,
				-0.16678255796432495,
				0.03396739065647125
			],
			"min":[
				0.08429354429244995,
				-0.18091300129890442,
				0.03396739065647125
			],
			"type":"VEC3"
		},
		{
			"bufferView":25,
			"componentType":5126,
			"count":4,
			"type":"VEC3"
		},
		{
			"bufferView":26,
			"componentType":5126,
			"count":1288,
			"max":[
				0.2044021487236023,
				-0.3004782199859619,
				0.036141302436590195
			],
			"min":[
				0.15548908710479736,
				-0.37656518816947937,
				-0.007336955517530441
			],
			"type":"VEC3"
		},
		{
			"bufferView":27,
			"componentType":5126,
			"count":1288,
			"type":"VEC3"
		},
		{
			"bufferView":28,
			"componentType":5123,
			"count":4650,
			"type":"SCALAR"
		},
		{
			"bufferView":29,
			"componentType":5126,
			"count":24,
			"max":[
				0.19949501752853394,
				-0.3002655506134033,
				0.030244234949350357
			],
			"min":[
				0.16036456823349,
				-0.30495649576187134,
				0.020923912525177002
			],
			"type":"VEC3"
		},
		{
			"bufferView":30,
			"componentType":5126,
			"count":24,
			"type":"VEC3"
		},
		{
			"bufferView":31,
			"componentType":5126,
			"count":24,
			"max":[
				0.19296610355377197,
				-0.3002655506134033,
				0.0078804362565279
			],
			"min":[
				0.1636183261871338,
				-0.30495649576187134,
				-0.0014398880302906036
			],
			"type":"VEC3"
		},
		{
			"bufferView":32,
			"componentType":5126,
			"count":24,
			"type":"VEC3"
		},
		{
			"bufferView":33,
			"componentType":5123,
			"count":36,
			"type":"SCALAR"
		},
		{
			"bufferView":34,
			"componentType":5126,
			"count":76,
			"max":[
				0.1995108723640442,
				-0.31352171301841736,
				0.033967386931180954
			],
			"min":[
				0.16038042306900024,
				-0.3689565062522888,
				0.033967386931180954
			],
			"type":"VEC3"
		},
		{
			"bufferView":35,
			"componentType":5126,
			"count":76,
			"type":"VEC3"
		},
		{
			"bufferView":36,
			"componentType":5123,
			"count":114,
			"type":"SCALAR"
		},
		{
			"bufferView":37,
			"componentType":5126,
			"count":4,
			"max":[
				0.1995108723640442,
				-0.3624347448348999,
				0.03396739065647125
			],
			"min":[
				0.19298911094665527,
				-0.37656518816947937,
				0.03396739065647125
			],
			"type":"VEC3"
		},
		{
			"bufferView":38,
			"componentType":5126,
			"count":4,
			"type":"VEC3"
		}
	],
	"bufferViews":[
		{
			"buffer":0,
			"byteLength":10284,
			"byteOffset":0,
			"target":34962
		},
		{
			"buffer":0,
			"byteLength":10284,
			"byteOffset":10284,
			"target":34962
		},
		{
			"buffer":0,
			"byteLength":5460,
			"byteOffset":20568,
			"target":34963
		},
		{
			"buffer":0,
			"byteLength":288,
			"byteOffset":26028,
			"target":34962
		},
		{
			"buffer":0,
			"byteLength":288,
			"byteOffset":26316,
			"target":34962
		},
		{
			"buffer":0,
			"byteLength":72,
			"byteOffset":26604,
			"target":34963
		},
		{
			"buffer":0,
			"byteLength":288,
			"byteOffset":26676,
			"target":34962
		},
		{
			"buffer":0,
			"byteLength":288,
			"byteOffset":26964,
			"target":34962
		},
		{
			"buffer":0,
			"byteLength":72,
			"byteOffset":27252,
			"target":34963
		},
		{
			"buffer":0,
			"byteLength":720,
			"byteOffset":27324,
			"target":34962
		},
		{
			"buffer":0,
			"byteLength":720,
			"byteOffset":28044,
			"target":34962
		},
		{
			"buffer":0,
			"byteLength":180,
			"byteOffset":28764,
			"target":34963
		},
		{
			"buffer":0,
			"byteLength":48,
			"byteOffset":28944,
			"target":34962
		},
		{
			"buffer":0,
			"byteLength":48,
			"byteOffset":28992,
			"target":34962
		},
		{
			"buffer":0,
			"byteLength":12,
			"byteOffset":29040,
			"target":34963
		},
		{
			"buffer":0,
			"byteLength":5892,
			"byteOffset":29052,
			"target":34962
		},
		{
			"buffer":0,
			"byteLength":5892,
			"byteOffset":34944,
			"target":34962
		},
		{
			"buffer":0,
			"byteLength":2808,
			"byteOffset":40836,
			"target":34963
		},
		{
			"buffer":0,
			"byteLength":288,
			"byteOffset":43644,
			"target":34962
		},
		{
			"buffer":0,
			"byteLength":288,
			"byteOffset":43932,
			"target":34962
		},
		{
			"buffer":0,
			"byteLength":72,
			"byteOffset":44220,
			"target":34963
		},
		{
			"buffer":0,
			"byteLength":288,
			"byteOffset":44292,
			"target":34962
		},
		{
			"buffer":0,
			"byteLength":288,
			"byteOffset":44580,
			"target":34962
		},
		{
			"buffer":0,
			"byteLength":72,
			"byteOffset":44868,
			"target":34963
		},
		{
			"buffer":0,
			"byteLength":48,
			"byteOffset":44940,
			"target":34962
		},
		{
			"buffer":0,
			"byteLength":48,
			"byteOffset":44988,
			"target":34962
		},
		{
			"buffer":0,
			"byteLength":15456,
			"byteOffset":45036,
			"target":34962
		},
		{
			"buffer":0,
			"byteLength":15456,
			"byteOffset":60492,
			"target":34962
		},
		{
			"buffer":0,
			"byteLength":9300,
			"byteOffset":75948,
			"target":34963
		},
		{
			"buffer":0,
			"byteLength":288,
			"byteOffset":85248,
			"target":34962
		},
		{
			"buffer":0,
			"byteLength":288,
			"byteOffset":85536,
			"target":34962
		},
		{
			"buffer":0,
			"byteLength":288,
			"byteOffset":85824,
			"target":34962
		},
		{
			"buffer":0,
			"byteLength":288,
			"byteOffset":86112,
			"target":34962
		},
		{
			"buffer":0,
			"byteLength":72,
			"byteOffset":86400,
			"target":34963
		},
		{
			"buffer":0,
			"byteLength":912,
			"byteOffset":86472,
			"target":34962
		},
		{
			"buffer":0,
			"byteLength":912,
			"byteOffset":87384,
			"target":34962
		},
		{
			"buffer":0,
			"byteLength":228,
			"byteOffset":88296,
			"target":34963
		},
		{
			"buffer":0,
			"byteLength":48,
			"byteOffset":88524,
			"target":34962
		},
		{
			"buffer":0,
			"byteLength":48,
			"byteOffset":88572,
			"target":34962
		}
	],
	"buffers":[
		{
			"byteLength":88620,
			"uri":"BinaGrup10.bin"
		}
	]
}
