{
	"asset":{
		"generator":"Khronos glTF Blender I/O v4.2.60",
		"version":"2.0"
	},
	"scene":0,
	"scenes":[
		{
			"name":"Scene",
			"nodes":[
				0,
				1,
				2,
				3,
				4,
				5,
				6,
				7,
				8,
				9,
				10,
				11,
				12,
				13,
				14
			]
		}
	],
	"nodes":[
		{
			"mesh":0,
			"name":"Building_036.003"
		},
		{
			"mesh":1,
			"name":"Building_036_RoofCap_0.001"
		},
		{
			"mesh":2,
			"name":"Building_036_RoofCap_1.001"
		},
		{
			"mesh":3,
			"name":"Building_036.005"
		},
		{
			"mesh":4,
			"name":"Building_036.004"
		},
		{
			"mesh":5,
			"name":"Building_044.003"
		},
		{
			"mesh":6,
			"name":"Building_044_RoofCap_0.001"
		},
		{
			"mesh":7,
			"name":"Building_044_RoofCap_1.001"
		},
		{
			"mesh":8,
			"name":"Building_044.005"
		},
		{
			"mesh":9,
			"name":"Building_044.004"
		},
		{
			"mesh":10,
			"name":"Building_049.003"
		},
		{
			"mesh":11,
			"name":"Building_049_RoofCap_0.001"
		},
		{
			"mesh":12,
			"name":"Building_049_RoofCap_1.001"
		},
		{
			"mesh":13,
			"name":"Building_049.005"
		},
		{
			"mesh":14,
			"name":"Building_049.004"
		}
	],
	"materials":[
		{
			"doubleSided":true,
			"name":"BinaSolar",
			"pbrMetallicRoughness":{
				"baseColorFactor":[
					0.4451989233493805,
					0.006995364557951689,
					0.002428226638585329,
					1
				],
				"metallicFactor":0,
				"roughnessFactor":0.699999988079071
			}
		},
		{
			"doubleSided":true,
			"name":"Mat_Roof_Cap",
			"pbrMetallicRoughness":{
				"baseColorFactor":[
					0.9822452664375305,
					0.38132646679878235,
					0.0030353753827512264,
					1
				],
				"metallicFactor":0,
				"roughnessFactor":0.699999988079071
			}
		},
		{
			"doubleSided":true,
			"name":"PencereSolarKapal\u0131",
			"pbrMetallicRoughness":{
				"baseColorFactor":[
					0.2122296690940857,
					0.0009105561766773462,
					0,
					1
				],
				"metallicFactor":0,
				"roughnessFactor":0.699999988079071
			}
		}
	],
	"meshes":[
		{
			"name":"Building_036_Mesh.003",
			"primitives":[
				{
					"attributes":{
						"POSITION":0,
						"NORMAL":1
					},
					"indices":2,
					"material":0
				}
			]
		},
		{
			"name":"Building_036_RoofCap_0_Mesh.001",
			"primitives":[
				{
					"attributes":{
						"POSITION":3,
						"NORMAL":4
					},
					"indices":5,
					"material":1
				}
			]
		},
		{
			"name":"Building_036_RoofCap_1_Mesh.001",
			"primitives":[
				{
					"attributes":{
						"POSITION":6,
						"NORMAL":7
					},
					"indices":8,
					"material":1
				}
			]
		},
		{
			"name":"Building_036_Mesh.005",
			"primitives":[
				{
					"attributes":{
						"POSITION":9,
						"NORMAL":10
					},
					"indices":11,
					"material":2
				}
			]
		},
		{
			"name":"Building_036_Mesh.004",
			"primitives":[
				{
					"attributes":{
						"POSITION":12,
						"NORMAL":13
					},
					"indices":14,
					"material":2
				}
			]
		},
		{
			"name":"Building_044_Mesh.003",
			"primitives":[
				{
					"attributes":{
						"POSITION":15,
						"NORMAL":16
					},
					"indices":17,
					"material":0
				}
			]
		},
		{
			"name":"Building_044_RoofCap_0_Mesh.001",
			"primitives":[
				{
					"attributes":{
						"POSITION":18,
						"NORMAL":19
					},
					"indices":5,
					"material":1
				}
			]
		},
		{
			"name":"Building_044_RoofCap_1_Mesh.001",
			"primitives":[
				{
					"attributes":{
						"POSITION":20,
						"NORMAL":21
					},
					"indices":22,
					"material":1
				}
			]
		},
		{
			"name":"Building_044_Mesh.005",
			"primitives":[
				{
					"attributes":{
						"POSITION":23,
						"NORMAL":24
					},
					"indices":25,
					"material":2
				}
			]
		},
		{
			"name":"Building_044_Mesh.004",
			"primitives":[
				{
					"attributes":{
						"POSITION":26,
						"NORMAL":27
					},
					"indices":14,
					"material":2
				}
			]
		},
		{
			"name":"Building_049_Mesh.003",
			"primitives":[
				{
					"attributes":{
						"POSITION":28,
						"NORMAL":29
					},
					"indices":30,
					"material":0
				}
			]
		},
		{
			"name":"Building_049_RoofCap_0_Mesh.001",
			"primitives":[
				{
					"attributes":{
						"POSITION":31,
						"NORMAL":32
					},
					"indices":33,
					"material":1
				}
			]
		},
		{
			"name":"Building_049_RoofCap_1_Mesh.001",
			"primitives":[
				{
					"attributes":{
						"POSITION":34,
						"NORMAL":35
					},
					"indices":36,
					"material":1
				}
			]
		},
		{
			"name":"Building_049_Mesh.005",
			"primitives":[
				{
					"attributes":{
						"POSITION":37,
						"NORMAL":38
					},
					"indices":39,
					"material":2
				}
			]
		},
		{
			"name":"Building_049_Mesh.004",
			"primitives":[
				{
					"attributes":{
						"POSITION":40,
						"NORMAL":41
					},
					"indices":14,
					"material":2
				}
			]
		}
	],
	"accessors":[
		{
			"bufferView":0,
			"componentType":5126,
			"count":497,
			"max":[
				-0.032010823488235474,
				0.07886958122253418,
				0.0470108687877655
			],
			"min":[
				-0.0646195113658905,
				0.014739125967025757,
				-0.007336955517530441
			],
			"type":"VEC3"
		},
		{
			"bufferView":1,
			"componentType":5126,
			"count":497,
			"type":"VEC3"
		},
		{
			"bufferView":2,
			"componentType":5123,
			"count":1398,
			"type":"SCALAR"
		},
		{
			"bufferView":3,
			"componentType":5126,
			"count":24,
			"max":[
				-0.03573727607727051,
				0.0799749493598938,
				0.045100849121809006
			],
			"min":[
				-0.06182423233985901,
				0.06926083564758301,
				0.022554347291588783
			],
			"type":"VEC3"
		},
		{
			"bufferView":4,
			"componentType":5126,
			"count":24,
			"type":"VEC3"
		},
		{
			"bufferView":5,
			"componentType":5123,
			"count":36,
			"type":"SCALAR"
		},
		{
			"bufferView":6,
			"componentType":5126,
			"count":24,
			"max":[
				-0.05059221386909485,
				0.07884448766708374,
				0.014402173459529877
			],
			"min":[
				-0.06363570690155029,
				0.07030433416366577,
				-0.002709545660763979
			],
			"type":"VEC3"
		},
		{
			"bufferView":7,
			"componentType":5126,
			"count":24,
			"type":"VEC3"
		},
		{
			"bufferView":8,
			"componentType":5123,
			"count":36,
			"type":"SCALAR"
		},
		{
			"bufferView":9,
			"componentType":5126,
			"count":36,
			"max":[
				-0.037445634603500366,
				0.061478257179260254,
				0.04483695700764656
			],
			"min":[
				-0.059184759855270386,
				0.022347837686538696,
				0.04483695700764656
			],
			"type":"VEC3"
		},
		{
			"bufferView":10,
			"componentType":5126,
			"count":36,
			"type":"VEC3"
		},
		{
			"bufferView":11,
			"componentType":5123,
			"count":54,
			"type":"SCALAR"
		},
		{
			"bufferView":12,
			"componentType":5126,
			"count":4,
			"max":[
				-0.05048909783363342,
				0.028869569301605225,
				0.04483695700764656
			],
			"min":[
				-0.059184759855270386,
				0.014739125967025757,
				0.04483695700764656
			],
			"type":"VEC3"
		},
		{
			"bufferView":13,
			"componentType":5126,
			"count":4,
			"type":"VEC3"
		},
		{
			"bufferView":14,
			"componentType":5123,
			"count":6,
			"type":"SCALAR"
		},
		{
			"bufferView":15,
			"componentType":5126,
			"count":515,
			"max":[
				0.052228301763534546,
				-0.03743475675582886,
				0.036141302436590195
			],
			"min":[
				0.003315269947052002,
				-0.08308693766593933,
				-0.007336955517530441
			],
			"type":"VEC3"
		},
		{
			"bufferView":16,
			"componentType":5126,
			"count":515,
			"type":"VEC3"
		},
		{
			"bufferView":17,
			"componentType":5123,
			"count":1434,
			"type":"SCALAR"
		},
		{
			"bufferView":18,
			"componentType":5126,
			"count":24,
			"max":[
				0.049305081367492676,
				-0.03611195087432861,
				0.03477476164698601
			],
			"min":[
				0.01017463207244873,
				-0.04508692026138306,
				0.016576087102293968
			],
			"type":"VEC3"
		},
		{
			"bufferView":19,
			"componentType":5126,
			"count":24,
			"type":"VEC3"
		},
		{
			"bufferView":20,
			"componentType":5126,
			"count":24,
			"max":[
				0.03804236650466919,
				-0.03611195087432861,
				0.012228259816765785
			],
			"min":[
				0.018477141857147217,
				-0.04508692026138306,
				-0.00597041379660368
			],
			"type":"VEC3"
		},
		{
			"bufferView":21,
			"componentType":5126,
			"count":24,
			"type":"VEC3"
		},
		{
			"bufferView":22,
			"componentType":5123,
			"count":36,
			"type":"SCALAR"
		},
		{
			"bufferView":23,
			"componentType":5126,
			"count":28,
			"max":[
				0.04733699560165405,
				-0.05265215039253235,
				0.033967386931180954
			],
			"min":[
				0.008206546306610107,
				-0.07982602715492249,
				0.033967386931180954
			],
			"type":"VEC3"
		},
		{
			"bufferView":24,
			"componentType":5126,
			"count":28,
			"type":"VEC3"
		},
		{
			"bufferView":25,
			"componentType":5123,
			"count":42,
			"type":"SCALAR"
		},
		{
			"bufferView":26,
			"componentType":5126,
			"count":4,
			"max":[
				0.036467403173446655,
				-0.06895646452903748,
				0.03396739065647125
			],
			"min":[
				0.019076138734817505,
				-0.08308693766593933,
				0.03396739065647125
			],
			"type":"VEC3"
		},
		{
			"bufferView":27,
			"componentType":5126,
			"count":4,
			"type":"VEC3"
		},
		{
			"bufferView":28,
			"componentType":5126,
			"count":1292,
			"max":[
				0.128315269947052,
				0.1908261775970459,
				0.057880427688360214
			],
			"min":[
				0.07940220832824707,
				0.11256527900695801,
				-0.007336955517530441
			],
			"type":"VEC3"
		},
		{
			"bufferView":29,
			"componentType":5126,
			"count":1292,
			"type":"VEC3"
		},
		{
			"bufferView":30,
			"componentType":5123,
			"count":4512,
			"type":"SCALAR"
		},
		{
			"bufferView":31,
			"componentType":5126,
			"count":24,
			"max":[
				0.11520731449127197,
				0.19223099946975708,
				0.055179696530103683
			],
			"min":[
				0.09564208984375,
				0.18317395448684692,
				0.028532609343528748
			],
			"type":"VEC3"
		},
		{
			"bufferView":32,
			"componentType":5126,
			"count":24,
			"type":"VEC3"
		},
		{
			"bufferView":33,
			"componentType":5123,
			"count":36,
			"type":"SCALAR"
		},
		{
			"bufferView":34,
			"componentType":5126,
			"count":24,
			"max":[
				0.12477266788482666,
				0.19040489196777344,
				0.015489129349589348
			],
			"min":[
				0.08564221858978271,
				0.18482613563537598,
				0.0018855156376957893
			],
			"type":"VEC3"
		},
		{
			"bufferView":35,
			"componentType":5126,
			"count":24,
			"type":"VEC3"
		},
		{
			"bufferView":36,
			"componentType":5123,
			"count":36,
			"type":"SCALAR"
		},
		{
			"bufferView":37,
			"componentType":5126,
			"count":72,
			"max":[
				0.12342393398284912,
				0.17560869455337524,
				0.05570651963353157
			],
			"min":[
				0.08429354429244995,
				0.12017393112182617,
				0.05570651963353157
			],
			"type":"VEC3"
		},
		{
			"bufferView":38,
			"componentType":5126,
			"count":72,
			"type":"VEC3"
		},
		{
			"bufferView":39,
			"componentType":5123,
			"count":108,
			"type":"SCALAR"
		},
		{
			"bufferView":40,
			"componentType":5126,
			"count":4,
			"max":[
				0.11255437135696411,
				0.1266956925392151,
				0.05570651963353157
			],
			"min":[
				0.09516310691833496,
				0.11256527900695801,
				0.05570651963353157
			],
			"type":"VEC3"
		},
		{
			"bufferView":41,
			"componentType":5126,
			"count":4,
			"type":"VEC3"
		}
	],
	"bufferViews":[
		{
			"buffer":0,
			"byteLength":5964,
			"byteOffset":0,
			"target":34962
		},
		{
			"buffer":0,
			"byteLength":5964,
			"byteOffset":5964,
			"target":34962
		},
		{
			"buffer":0,
			"byteLength":2796,
			"byteOffset":11928,
			"target":34963
		},
		{
			"buffer":0,
			"byteLength":288,
			"byteOffset":14724,
			"target":34962
		},
		{
			"buffer":0,
			"byteLength":288,
			"byteOffset":15012,
			"target":34962
		},
		{
			"buffer":0,
			"byteLength":72,
			"byteOffset":15300,
			"target":34963
		},
		{
			"buffer":0,
			"byteLength":288,
			"byteOffset":15372,
			"target":34962
		},
		{
			"buffer":0,
			"byteLength":288,
			"byteOffset":15660,
			"target":34962
		},
		{
			"buffer":0,
			"byteLength":72,
			"byteOffset":15948,
			"target":34963
		},
		{
			"buffer":0,
			"byteLength":432,
			"byteOffset":16020,
			"target":34962
		},
		{
			"buffer":0,
			"byteLength":432,
			"byteOffset":16452,
			"target":34962
		},
		{
			"buffer":0,
			"byteLength":108,
			"byteOffset":16884,
			"target":34963
		},
		{
			"buffer":0,
			"byteLength":48,
			"byteOffset":16992,
			"target":34962
		},
		{
			"buffer":0,
			"byteLength":48,
			"byteOffset":17040,
			"target":34962
		},
		{
			"buffer":0,
			"byteLength":12,
			"byteOffset":17088,
			"target":34963
		},
		{
			"buffer":0,
			"byteLength":6180,
			"byteOffset":17100,
			"target":34962
		},
		{
			"buffer":0,
			"byteLength":6180,
			"byteOffset":23280,
			"target":34962
		},
		{
			"buffer":0,
			"byteLength":2868,
			"byteOffset":29460,
			"target":34963
		},
		{
			"buffer":0,
			"byteLength":288,
			"byteOffset":32328,
			"target":34962
		},
		{
			"buffer":0,
			"byteLength":288,
			"byteOffset":32616,
			"target":34962
		},
		{
			"buffer":0,
			"byteLength":288,
			"byteOffset":32904,
			"target":34962
		},
		{
			"buffer":0,
			"byteLength":288,
			"byteOffset":33192,
			"target":34962
		},
		{
			"buffer":0,
			"byteLength":72,
			"byteOffset":33480,
			"target":34963
		},
		{
			"buffer":0,
			"byteLength":336,
			"byteOffset":33552,
			"target":34962
		},
		{
			"buffer":0,
			"byteLength":336,
			"byteOffset":33888,
			"target":34962
		},
		{
			"buffer":0,
			"byteLength":84,
			"byteOffset":34224,
			"target":34963
		},
		{
			"buffer":0,
			"byteLength":48,
			"byteOffset":34308,
			"target":34962
		},
		{
			"buffer":0,
			"byteLength":48,
			"byteOffset":34356,
			"target":34962
		},
		{
			"buffer":0,
			"byteLength":15504,
			"byteOffset":34404,
			"target":34962
		},
		{
			"buffer":0,
			"byteLength":15504,
			"byteOffset":49908,
			"target":34962
		},
		{
			"buffer":0,
			"byteLength":9024,
			"byteOffset":65412,
			"target":34963
		},
		{
			"buffer":0,
			"byteLength":288,
			"byteOffset":74436,
			"target":34962
		},
		{
			"buffer":0,
			"byteLength":288,
			"byteOffset":74724,
			"target":34962
		},
		{
			"buffer":0,
			"byteLength":72,
			"byteOffset":75012,
			"target":34963
		},
		{
			"buffer":0,
			"byteLength":288,
			"byteOffset":75084,
			"target":34962
		},
		{
			"buffer":0,
			"byteLength":288,
			"byteOffset":75372,
			"target":34962
		},
		{
			"buffer":0,
			"byteLength":72,
			"byteOffset":75660,
			"target":34963
		},
		{
			"buffer":0,
			"byteLength":864,
			"byteOffset":75732,
			"target":34962
		},
		{
			"buffer":0,
			"byteLength":864,
			"byteOffset":76596,
			"target":34962
		},
		{
			"buffer":0,
			"byteLength":216,
			"byteOffset":77460,
			"target":34963
		},
		{
			"buffer":0,
			"byteLength":48,
			"byteOffset":77676,
			"target":34962
		},
		{
			"buffer":0,
			"byteLength":48,
			"byteOffset":77724,
			"target":34962
		}
	],
	"buffers":[
		{
			"byteLength":77772,
			"uri":"BinaGrup11.bin"
		}
	]
}
