{
	"asset":{
		"generator":"Khronos glTF Blender I/O v4.2.60",
		"version":"2.0"
	},
	"scene":0,
	"scenes":[
		{
			"name":"Scene",
			"nodes":[
				0,
				1,
				2,
				3,
				4,
				5,
				6,
				7,
				8,
				9,
				10,
				11,
				12,
				13,
				14
			]
		}
	],
	"nodes":[
		{
			"mesh":0,
			"name":"Building_040.003"
		},
		{
			"mesh":1,
			"name":"Building_040_RoofCap_0.001"
		},
		{
			"mesh":2,
			"name":"Building_040_RoofCap_1.001"
		},
		{
			"mesh":3,
			"name":"Building_040.005"
		},
		{
			"mesh":4,
			"name":"Building_040.004"
		},
		{
			"mesh":5,
			"name":"Building_053.003"
		},
		{
			"mesh":6,
			"name":"Building_053_RoofCap_0.001"
		},
		{
			"mesh":7,
			"name":"Building_053_RoofCap_1.001"
		},
		{
			"mesh":8,
			"name":"Building_053.005"
		},
		{
			"mesh":9,
			"name":"Building_053.004"
		},
		{
			"mesh":10,
			"name":"Building_067.003"
		},
		{
			"mesh":11,
			"name":"Building_067_RoofCap_0.001"
		},
		{
			"mesh":12,
			"name":"Building_067_RoofCap_1.001"
		},
		{
			"mesh":13,
			"name":"Building_067.005"
		},
		{
			"mesh":14,
			"name":"Building_067.004"
		}
	],
	"materials":[
		{
			"doubleSided":true,
			"name":"BinaSolar",
			"pbrMetallicRoughness":{
				"baseColorFactor":[
					0.4451989233493805,
					0.006995364557951689,
					0.002428226638585329,
					1
				],
				"metallicFactor":0,
				"roughnessFactor":0.699999988079071
			}
		},
		{
			"doubleSided":true,
			"name":"Mat_Roof_Cap",
			"pbrMetallicRoughness":{
				"baseColorFactor":[
					0.9822452664375305,
					0.38132646679878235,
					0.0030353753827512264,
					1
				],
				"metallicFactor":0,
				"roughnessFactor":0.699999988079071
			}
		},
		{
			"doubleSided":true,
			"name":"PencereSolarKapal\u0131",
			"pbrMetallicRoughness":{
				"baseColorFactor":[
					0.2122296690940857,
					0.0009105561766773462,
					0,
					1
				],
				"metallicFactor":0,
				"roughnessFactor":0.699999988079071
			}
		}
	],
	"meshes":[
		{
			"name":"Building_040_Mesh.003",
			"primitives":[
				{
					"attributes":{
						"POSITION":0,
						"NORMAL":1
					},
					"indices":2,
					"material":0
				}
			]
		},
		{
			"name":"Building_040_RoofCap_0_Mesh.001",
			"primitives":[
				{
					"attributes":{
						"POSITION":3,
						"NORMAL":4
					},
					"indices":5,
					"material":1
				}
			]
		},
		{
			"name":"Building_040_RoofCap_1_Mesh.001",
			"primitives":[
				{
					"attributes":{
						"POSITION":6,
						"NORMAL":7
					},
					"indices":8,
					"material":1
				}
			]
		},
		{
			"name":"Building_040_Mesh.005",
			"primitives":[
				{
					"attributes":{
						"POSITION":9,
						"NORMAL":10
					},
					"indices":11,
					"material":2
				}
			]
		},
		{
			"name":"Building_040_Mesh.004",
			"primitives":[
				{
					"attributes":{
						"POSITION":12,
						"NORMAL":13
					},
					"indices":14,
					"material":2
				}
			]
		},
		{
			"name":"Building_053_Mesh.003",
			"primitives":[
				{
					"attributes":{
						"POSITION":15,
						"NORMAL":16
					},
					"indices":17,
					"material":0
				}
			]
		},
		{
			"name":"Building_053_RoofCap_0_Mesh.001",
			"primitives":[
				{
					"attributes":{
						"POSITION":18,
						"NORMAL":19
					},
					"indices":20,
					"material":1
				}
			]
		},
		{
			"name":"Building_053_RoofCap_1_Mesh.001",
			"primitives":[
				{
					"attributes":{
						"POSITION":21,
						"NORMAL":22
					},
					"indices":23,
					"material":1
				}
			]
		},
		{
			"name":"Building_053_Mesh.005",
			"primitives":[
				{
					"attributes":{
						"POSITION":24,
						"NORMAL":25
					},
					"indices":26,
					"material":2
				}
			]
		},
		{
			"name":"Building_053_Mesh.004",
			"primitives":[
				{
					"attributes":{
						"POSITION":27,
						"NORMAL":28
					},
					"indices":14,
					"material":2
				}
			]
		},
		{
			"name":"Building_067_Mesh.003",
			"primitives":[
				{
					"attributes":{
						"POSITION":29,
						"NORMAL":30
					},
					"indices":31,
					"material":0
				}
			]
		},
		{
			"name":"Building_067_RoofCap_0_Mesh.001",
			"primitives":[
				{
					"attributes":{
						"POSITION":32,
						"NORMAL":33
					},
					"indices":34,
					"material":1
				}
			]
		},
		{
			"name":"Building_067_RoofCap_1_Mesh.001",
			"primitives":[
				{
					"attributes":{
						"POSITION":35,
						"NORMAL":36
					},
					"indices":23,
					"material":1
				}
			]
		},
		{
			"name":"Building_067_Mesh.005",
			"primitives":[
				{
					"attributes":{
						"POSITION":37,
						"NORMAL":38
					},
					"indices":39,
					"material":2
				}
			]
		},
		{
			"name":"Building_067_Mesh.004",
			"primitives":[
				{
					"attributes":{
						"POSITION":40,
						"NORMAL":41
					},
					"indices":14,
					"material":2
				}
			]
		}
	],
	"accessors":[
		{
			"bufferView":0,
			"componentType":5126,
			"count":501,
			"max":[
				-0.03201085329055786,
				-0.31243476271629333,
				0.05788043513894081
			],
			"min":[
				-0.06461954116821289,
				-0.37656518816947937,
				-0.007336955517530441
			],
			"type":"VEC3"
		},
		{
			"bufferView":1,
			"componentType":5126,
			"count":501,
			"type":"VEC3"
		},
		{
			"bufferView":2,
			"componentType":5123,
			"count":1401,
			"type":"SCALAR"
		},
		{
			"bufferView":3,
			"componentType":5126,
			"count":24,
			"max":[
				-0.03333979845046997,
				-0.3135462999343872,
				0.04878528043627739
			],
			"min":[
				-0.05942675471305847,
				-0.3199564814567566,
				0.035054344683885574
			],
			"type":"VEC3"
		},
		{
			"bufferView":4,
			"componentType":5126,
			"count":24,
			"type":"VEC3"
		},
		{
			"bufferView":5,
			"componentType":5123,
			"count":36,
			"type":"SCALAR"
		},
		{
			"bufferView":6,
			"componentType":5126,
			"count":24,
			"max":[
				-0.044782936573028564,
				-0.31128543615341187,
				0.022010868415236473
			],
			"min":[
				-0.05782642960548401,
				-0.3220434784889221,
				-0.004763537086546421
			],
			"type":"VEC3"
		},
		{
			"bufferView":7,
			"componentType":5126,
			"count":24,
			"type":"VEC3"
		},
		{
			"bufferView":8,
			"componentType":5123,
			"count":36,
			"type":"SCALAR"
		},
		{
			"bufferView":9,
			"componentType":5126,
			"count":39,
			"max":[
				-0.037445634603500366,
				-0.3298260569572449,
				0.05570651963353157
			],
			"min":[
				-0.059184730052948,
				-0.37113040685653687,
				0.05570651963353157
			],
			"type":"VEC3"
		},
		{
			"bufferView":10,
			"componentType":5126,
			"count":39,
			"type":"VEC3"
		},
		{
			"bufferView":11,
			"componentType":5123,
			"count":63,
			"type":"SCALAR"
		},
		{
			"bufferView":12,
			"componentType":5126,
			"count":4,
			"max":[
				-0.03744560480117798,
				-0.3624347448348999,
				0.05570651963353157
			],
			"min":[
				-0.04614126682281494,
				-0.37656518816947937,
				0.05570651963353157
			],
			"type":"VEC3"
		},
		{
			"bufferView":13,
			"componentType":5126,
			"count":4,
			"type":"VEC3"
		},
		{
			"bufferView":14,
			"componentType":5123,
			"count":6,
			"type":"SCALAR"
		},
		{
			"bufferView":15,
			"componentType":5126,
			"count":826,
			"max":[
				0.128315269947052,
				-0.21460866928100586,
				0.047010865062475204
			],
			"min":[
				0.07940220832824707,
				-0.2787390947341919,
				-0.007336955517530441
			],
			"type":"VEC3"
		},
		{
			"bufferView":16,
			"componentType":5126,
			"count":826,
			"type":"VEC3"
		},
		{
			"bufferView":17,
			"componentType":5123,
			"count":2670,
			"type":"SCALAR"
		},
		{
			"bufferView":18,
			"componentType":5126,
			"count":24,
			"max":[
				0.10576075315475464,
				-0.21350327134132385,
				0.045100849121809006
			],
			"min":[
				0.08619552850723267,
				-0.22421738505363464,
				0.022554347291588783
			],
			"type":"VEC3"
		},
		{
			"bufferView":19,
			"componentType":5126,
			"count":24,
			"type":"VEC3"
		},
		{
			"bufferView":20,
			"componentType":5123,
			"count":36,
			"type":"SCALAR"
		},
		{
			"bufferView":21,
			"componentType":5126,
			"count":24,
			"max":[
				0.11014270782470703,
				-0.2157641351222992,
				0.011684780940413475
			],
			"min":[
				0.08079487085342407,
				-0.2221304178237915,
				7.845927029848099e-06
			],
			"type":"VEC3"
		},
		{
			"bufferView":22,
			"componentType":5126,
			"count":24,
			"type":"VEC3"
		},
		{
			"bufferView":23,
			"componentType":5123,
			"count":36,
			"type":"SCALAR"
		},
		{
			"bufferView":24,
			"componentType":5126,
			"count":52,
			"max":[
				0.12342393398284912,
				-0.2319999784231186,
				0.04483695700764656
			],
			"min":[
				0.08429354429244995,
				-0.2754782438278198,
				0.04483695700764656
			],
			"type":"VEC3"
		},
		{
			"bufferView":25,
			"componentType":5126,
			"count":52,
			"type":"VEC3"
		},
		{
			"bufferView":26,
			"componentType":5123,
			"count":78,
			"type":"SCALAR"
		},
		{
			"bufferView":27,
			"componentType":5126,
			"count":4,
			"max":[
				0.09081524610519409,
				-0.2646086513996124,
				0.04483695700764656
			],
			"min":[
				0.08429354429244995,
				-0.2787390947341919,
				0.04483695700764656
			],
			"type":"VEC3"
		},
		{
			"bufferView":28,
			"componentType":5126,
			"count":4,
			"type":"VEC3"
		},
		{
			"bufferView":29,
			"componentType":5126,
			"count":705,
			"max":[
				0.2723369598388672,
				-0.19830432534217834,
				0.057880427688360214
			],
			"min":[
				0.23972821235656738,
				-0.2787390947341919,
				-0.007336955517530441
			],
			"type":"VEC3"
		},
		{
			"bufferView":30,
			"componentType":5126,
			"count":705,
			"type":"VEC3"
		},
		{
			"bufferView":31,
			"componentType":5123,
			"count":2286,
			"type":"SCALAR"
		},
		{
			"bufferView":32,
			"componentType":5126,
			"count":24,
			"max":[
				0.27230340242385864,
				-0.1994158923625946,
				0.04878528043627739
			],
			"min":[
				0.25273817777633667,
				-0.2058260440826416,
				0.035054344683885574
			],
			"type":"VEC3"
		},
		{
			"bufferView":33,
			"componentType":5126,
			"count":24,
			"type":"VEC3"
		},
		{
			"bufferView":34,
			"componentType":5123,
			"count":36,
			"type":"SCALAR"
		},
		{
			"bufferView":35,
			"componentType":5126,
			"count":24,
			"max":[
				0.27205437421798706,
				-0.1994158923625946,
				0.015489131212234497
			],
			"min":[
				0.2524891495704651,
				-0.2058260440826416,
				0.0017582010477781296
			],
			"type":"VEC3"
		},
		{
			"bufferView":36,
			"componentType":5126,
			"count":24,
			"type":"VEC3"
		},
		{
			"bufferView":37,
			"componentType":5126,
			"count":48,
			"max":[
				0.2669021487236023,
				-0.21569561958312988,
				0.05570651963353157
			],
			"min":[
				0.24516302347183228,
				-0.2733043432235718,
				0.05570651963353157
			],
			"type":"VEC3"
		},
		{
			"bufferView":38,
			"componentType":5126,
			"count":48,
			"type":"VEC3"
		},
		{
			"bufferView":39,
			"componentType":5123,
			"count":72,
			"type":"SCALAR"
		},
		{
			"bufferView":40,
			"componentType":5126,
			"count":4,
			"max":[
				0.253858745098114,
				-0.2646086513996124,
				0.05570651963353157
			],
			"min":[
				0.24516302347183228,
				-0.2787390947341919,
				0.05570651963353157
			],
			"type":"VEC3"
		},
		{
			"bufferView":41,
			"componentType":5126,
			"count":4,
			"type":"VEC3"
		}
	],
	"bufferViews":[
		{
			"buffer":0,
			"byteLength":6012,
			"byteOffset":0,
			"target":34962
		},
		{
			"buffer":0,
			"byteLength":6012,
			"byteOffset":6012,
			"target":34962
		},
		{
			"buffer":0,
			"byteLength":2802,
			"byteOffset":12024,
			"target":34963
		},
		{
			"buffer":0,
			"byteLength":288,
			"byteOffset":14828,
			"target":34962
		},
		{
			"buffer":0,
			"byteLength":288,
			"byteOffset":15116,
			"target":34962
		},
		{
			"buffer":0,
			"byteLength":72,
			"byteOffset":15404,
			"target":34963
		},
		{
			"buffer":0,
			"byteLength":288,
			"byteOffset":15476,
			"target":34962
		},
		{
			"buffer":0,
			"byteLength":288,
			"byteOffset":15764,
			"target":34962
		},
		{
			"buffer":0,
			"byteLength":72,
			"byteOffset":16052,
			"target":34963
		},
		{
			"buffer":0,
			"byteLength":468,
			"byteOffset":16124,
			"target":34962
		},
		{
			"buffer":0,
			"byteLength":468,
			"byteOffset":16592,
			"target":34962
		},
		{
			"buffer":0,
			"byteLength":126,
			"byteOffset":17060,
			"target":34963
		},
		{
			"buffer":0,
			"byteLength":48,
			"byteOffset":17188,
			"target":34962
		},
		{
			"buffer":0,
			"byteLength":48,
			"byteOffset":17236,
			"target":34962
		},
		{
			"buffer":0,
			"byteLength":12,
			"byteOffset":17284,
			"target":34963
		},
		{
			"buffer":0,
			"byteLength":9912,
			"byteOffset":17296,
			"target":34962
		},
		{
			"buffer":0,
			"byteLength":9912,
			"byteOffset":27208,
			"target":34962
		},
		{
			"buffer":0,
			"byteLength":5340,
			"byteOffset":37120,
			"target":34963
		},
		{
			"buffer":0,
			"byteLength":288,
			"byteOffset":42460,
			"target":34962
		},
		{
			"buffer":0,
			"byteLength":288,
			"byteOffset":42748,
			"target":34962
		},
		{
			"buffer":0,
			"byteLength":72,
			"byteOffset":43036,
			"target":34963
		},
		{
			"buffer":0,
			"byteLength":288,
			"byteOffset":43108,
			"target":34962
		},
		{
			"buffer":0,
			"byteLength":288,
			"byteOffset":43396,
			"target":34962
		},
		{
			"buffer":0,
			"byteLength":72,
			"byteOffset":43684,
			"target":34963
		},
		{
			"buffer":0,
			"byteLength":624,
			"byteOffset":43756,
			"target":34962
		},
		{
			"buffer":0,
			"byteLength":624,
			"byteOffset":44380,
			"target":34962
		},
		{
			"buffer":0,
			"byteLength":156,
			"byteOffset":45004,
			"target":34963
		},
		{
			"buffer":0,
			"byteLength":48,
			"byteOffset":45160,
			"target":34962
		},
		{
			"buffer":0,
			"byteLength":48,
			"byteOffset":45208,
			"target":34962
		},
		{
			"buffer":0,
			"byteLength":8460,
			"byteOffset":45256,
			"target":34962
		},
		{
			"buffer":0,
			"byteLength":8460,
			"byteOffset":53716,
			"target":34962
		},
		{
			"buffer":0,
			"byteLength":4572,
			"byteOffset":62176,
			"target":34963
		},
		{
			"buffer":0,
			"byteLength":288,
			"byteOffset":66748,
			"target":34962
		},
		{
			"buffer":0,
			"byteLength":288,
			"byteOffset":67036,
			"target":34962
		},
		{
			"buffer":0,
			"byteLength":72,
			"byteOffset":67324,
			"target":34963
		},
		{
			"buffer":0,
			"byteLength":288,
			"byteOffset":67396,
			"target":34962
		},
		{
			"buffer":0,
			"byteLength":288,
			"byteOffset":67684,
			"target":34962
		},
		{
			"buffer":0,
			"byteLength":576,
			"byteOffset":67972,
			"target":34962
		},
		{
			"buffer":0,
			"byteLength":576,
			"byteOffset":68548,
			"target":34962
		},
		{
			"buffer":0,
			"byteLength":144,
			"byteOffset":69124,
			"target":34963
		},
		{
			"buffer":0,
			"byteLength":48,
			"byteOffset":69268,
			"target":34962
		},
		{
			"buffer":0,
			"byteLength":48,
			"byteOffset":69316,
			"target":34962
		}
	],
	"buffers":[
		{
			"byteLength":69364,
			"uri":"BinaGrup15.bin"
		}
	]
}
