{
	"asset":{
		"generator":"Khronos glTF Blender I/O v4.2.60",
		"version":"2.0"
	},
	"scene":0,
	"scenes":[
		{
			"name":"Scene",
			"nodes":[
				0,
				1,
				2,
				3,
				4,
				5,
				6,
				7,
				8,
				9,
				10,
				11,
				12
			]
		}
	],
	"nodes":[
		{
			"mesh":0,
			"name":"Building_032.003"
		},
		{
			"mesh":1,
			"name":"Building_032_RoofCap_0.001"
		},
		{
			"mesh":2,
			"name":"Building_032_RoofCap_1.001"
		},
		{
			"mesh":3,
			"name":"Building_032.005"
		},
		{
			"mesh":4,
			"name":"Building_032.004"
		},
		{
			"mesh":5,
			"name":"Building_038.003"
		},
		{
			"mesh":6,
			"name":"Building_038_RoofCap_0.001"
		},
		{
			"mesh":7,
			"name":"Building_038.005"
		},
		{
			"mesh":8,
			"name":"Building_038.004"
		},
		{
			"mesh":9,
			"name":"Building_047.003"
		},
		{
			"mesh":10,
			"name":"Building_047_RoofCap_0.001"
		},
		{
			"mesh":11,
			"name":"Building_047.005"
		},
		{
			"mesh":12,
			"name":"Building_047.004"
		}
	],
	"materials":[
		{
			"doubleSided":true,
			"name":"BinaSolar",
			"pbrMetallicRoughness":{
				"baseColorFactor":[
					0.4451989233493805,
					0.006995364557951689,
					0.002428226638585329,
					1
				],
				"metallicFactor":0,
				"roughnessFactor":0.699999988079071
			}
		},
		{
			"doubleSided":true,
			"name":"Mat_Roof_Cap",
			"pbrMetallicRoughness":{
				"baseColorFactor":[
					0.9822452664375305,
					0.38132646679878235,
					0.0030353753827512264,
					1
				],
				"metallicFactor":0,
				"roughnessFactor":0.699999988079071
			}
		},
		{
			"doubleSided":true,
			"name":"PencereSolarKapal\u0131",
			"pbrMetallicRoughness":{
				"baseColorFactor":[
					0.2122296690940857,
					0.0009105561766773462,
					0,
					1
				],
				"metallicFactor":0,
				"roughnessFactor":0.699999988079071
			}
		}
	],
	"meshes":[
		{
			"name":"Building_032_Mesh.003",
			"primitives":[
				{
					"attributes":{
						"POSITION":0,
						"NORMAL":1
					},
					"indices":2,
					"material":0
				}
			]
		},
		{
			"name":"Building_032_RoofCap_0_Mesh.001",
			"primitives":[
				{
					"attributes":{
						"POSITION":3,
						"NORMAL":4
					},
					"indices":5,
					"material":1
				}
			]
		},
		{
			"name":"Building_032_RoofCap_1_Mesh.001",
			"primitives":[
				{
					"attributes":{
						"POSITION":6,
						"NORMAL":7
					},
					"indices":8,
					"material":1
				}
			]
		},
		{
			"name":"Building_032_Mesh.005",
			"primitives":[
				{
					"attributes":{
						"POSITION":9,
						"NORMAL":10
					},
					"indices":11,
					"material":2
				}
			]
		},
		{
			"name":"Building_032_Mesh.004",
			"primitives":[
				{
					"attributes":{
						"POSITION":12,
						"NORMAL":13
					},
					"indices":14,
					"material":2
				}
			]
		},
		{
			"name":"Building_038_Mesh.003",
			"primitives":[
				{
					"attributes":{
						"POSITION":15,
						"NORMAL":16
					},
					"indices":17,
					"material":0
				}
			]
		},
		{
			"name":"Building_038_RoofCap_0_Mesh.001",
			"primitives":[
				{
					"attributes":{
						"POSITION":18,
						"NORMAL":19
					},
					"indices":20,
					"material":1
				}
			]
		},
		{
			"name":"Building_038_Mesh.005",
			"primitives":[
				{
					"attributes":{
						"POSITION":21,
						"NORMAL":22
					},
					"indices":23,
					"material":2
				}
			]
		},
		{
			"name":"Building_038_Mesh.004",
			"primitives":[
				{
					"attributes":{
						"POSITION":24,
						"NORMAL":25
					},
					"indices":14,
					"material":2
				}
			]
		},
		{
			"name":"Building_047_Mesh.003",
			"primitives":[
				{
					"attributes":{
						"POSITION":26,
						"NORMAL":27
					},
					"indices":28,
					"material":0
				}
			]
		},
		{
			"name":"Building_047_RoofCap_0_Mesh.001",
			"primitives":[
				{
					"attributes":{
						"POSITION":29,
						"NORMAL":30
					},
					"indices":31,
					"material":1
				}
			]
		},
		{
			"name":"Building_047_Mesh.005",
			"primitives":[
				{
					"attributes":{
						"POSITION":32,
						"NORMAL":33
					},
					"indices":34,
					"material":2
				}
			]
		},
		{
			"name":"Building_047_Mesh.004",
			"primitives":[
				{
					"attributes":{
						"POSITION":35,
						"NORMAL":36
					},
					"indices":14,
					"material":2
				}
			]
		}
	],
	"accessors":[
		{
			"bufferView":0,
			"componentType":5126,
			"count":496,
			"max":[
				-0.09994563460350037,
				-0.23308691382408142,
				0.036141302436590195
			],
			"min":[
				-0.1488586664199829,
				-0.2787390947341919,
				-0.007336955517530441
			],
			"type":"VEC3"
		},
		{
			"bufferView":1,
			"componentType":5126,
			"count":496,
			"type":"VEC3"
		},
		{
			"bufferView":2,
			"componentType":5123,
			"count":1416,
			"type":"SCALAR"
		},
		{
			"bufferView":3,
			"componentType":5126,
			"count":24,
			"max":[
				-0.12523245811462402,
				-0.23267720639705658,
				0.03260084614157677
			],
			"min":[
				-0.144797682762146,
				-0.23991301655769348,
				0.01874999888241291
			],
			"type":"VEC3"
		},
		{
			"bufferView":4,
			"componentType":5126,
			"count":24,
			"type":"VEC3"
		},
		{
			"bufferView":5,
			"componentType":5123,
			"count":36,
			"type":"SCALAR"
		},
		{
			"bufferView":6,
			"componentType":5126,
			"count":24,
			"max":[
				-0.10823336243629456,
				-0.23176416754722595,
				0.012228259816765785
			],
			"min":[
				-0.1473638117313385,
				-0.240739107131958,
				-0.00597041379660368
			],
			"type":"VEC3"
		},
		{
			"bufferView":7,
			"componentType":5126,
			"count":24,
			"type":"VEC3"
		},
		{
			"bufferView":8,
			"componentType":5123,
			"count":36,
			"type":"SCALAR"
		},
		{
			"bufferView":9,
			"componentType":5126,
			"count":24,
			"max":[
				-0.10483691096305847,
				-0.2483043074607849,
				0.033967386931180954
			],
			"min":[
				-0.14396736025810242,
				-0.2754782438278198,
				0.033967386931180954
			],
			"type":"VEC3"
		},
		{
			"bufferView":10,
			"componentType":5126,
			"count":24,
			"type":"VEC3"
		},
		{
			"bufferView":11,
			"componentType":5123,
			"count":36,
			"type":"SCALAR"
		},
		{
			"bufferView":12,
			"componentType":5126,
			"count":4,
			"max":[
				-0.1374455988407135,
				-0.2646086513996124,
				0.03396739065647125
			],
			"min":[
				-0.14396733045578003,
				-0.2787390947341919,
				0.03396739065647125
			],
			"type":"VEC3"
		},
		{
			"bufferView":13,
			"componentType":5126,
			"count":4,
			"type":"VEC3"
		},
		{
			"bufferView":14,
			"componentType":5123,
			"count":6,
			"type":"SCALAR"
		},
		{
			"bufferView":15,
			"componentType":5126,
			"count":292,
			"max":[
				-0.03201085329055786,
				-0.1439565122127533,
				0.036141302436590195
			],
			"min":[
				-0.06461954116821289,
				-0.18091300129890442,
				-0.007336955517530441
			],
			"type":"VEC3"
		},
		{
			"bufferView":16,
			"componentType":5126,
			"count":292,
			"type":"VEC3"
		},
		{
			"bufferView":17,
			"componentType":5123,
			"count":732,
			"type":"SCALAR"
		},
		{
			"bufferView":18,
			"componentType":5126,
			"count":24,
			"max":[
				-0.03632223606109619,
				-0.1383572816848755,
				0.03199639171361923
			],
			"min":[
				-0.055887460708618164,
				-0.1437825858592987,
				-0.002989131025969982
			],
			"type":"VEC3"
		},
		{
			"bufferView":19,
			"componentType":5126,
			"count":24,
			"type":"VEC3"
		},
		{
			"bufferView":20,
			"componentType":5123,
			"count":36,
			"type":"SCALAR"
		},
		{
			"bufferView":21,
			"componentType":5126,
			"count":18,
			"max":[
				-0.037445634603500366,
				-0.15047824382781982,
				0.03396739065647125
			],
			"min":[
				-0.059184759855270386,
				-0.17765215039253235,
				0.03396739065647125
			],
			"type":"VEC3"
		},
		{
			"bufferView":22,
			"componentType":5126,
			"count":18,
			"type":"VEC3"
		},
		{
			"bufferView":23,
			"componentType":5123,
			"count":30,
			"type":"SCALAR"
		},
		{
			"bufferView":24,
			"componentType":5126,
			"count":4,
			"max":[
				-0.03744560480117798,
				-0.16678255796432495,
				0.03396739065647125
			],
			"min":[
				-0.04614126682281494,
				-0.18091300129890442,
				0.03396739065647125
			],
			"type":"VEC3"
		},
		{
			"bufferView":25,
			"componentType":5126,
			"count":4,
			"type":"VEC3"
		},
		{
			"bufferView":26,
			"componentType":5126,
			"count":831,
			"max":[
				0.052228301763534546,
				-0.32330432534217834,
				0.0470108687877655
			],
			"min":[
				0.0033152401447296143,
				-0.37656518816947937,
				-0.007336955517530441
			],
			"type":"VEC3"
		},
		{
			"bufferView":27,
			"componentType":5126,
			"count":831,
			"type":"VEC3"
		},
		{
			"bufferView":28,
			"componentType":5123,
			"count":2718,
			"type":"SCALAR"
		},
		{
			"bufferView":29,
			"componentType":5126,
			"count":24,
			"max":[
				0.03717359900474548,
				-0.3177017271518707,
				0.04173867404460907
			],
			"min":[
				0.007825762033462524,
				-0.32313042879104614,
				-0.0019021760672330856
			],
			"type":"VEC3"
		},
		{
			"bufferView":30,
			"componentType":5126,
			"count":24,
			"type":"VEC3"
		},
		{
			"bufferView":31,
			"componentType":5123,
			"count":36,
			"type":"SCALAR"
		},
		{
			"bufferView":32,
			"componentType":5126,
			"count":60,
			"max":[
				0.04733699560165405,
				-0.3298260569572449,
				0.04483695700764656
			],
			"min":[
				0.008206546306610107,
				-0.3733043074607849,
				0.04483695700764656
			],
			"type":"VEC3"
		},
		{
			"bufferView":33,
			"componentType":5126,
			"count":60,
			"type":"VEC3"
		},
		{
			"bufferView":34,
			"componentType":5123,
			"count":90,
			"type":"SCALAR"
		},
		{
			"bufferView":35,
			"componentType":5126,
			"count":4,
			"max":[
				0.036467403173446655,
				-0.3624347448348999,
				0.04483695700764656
			],
			"min":[
				0.019076138734817505,
				-0.37656518816947937,
				0.04483695700764656
			],
			"type":"VEC3"
		},
		{
			"bufferView":36,
			"componentType":5126,
			"count":4,
			"type":"VEC3"
		}
	],
	"bufferViews":[
		{
			"buffer":0,
			"byteLength":5952,
			"byteOffset":0,
			"target":34962
		},
		{
			"buffer":0,
			"byteLength":5952,
			"byteOffset":5952,
			"target":34962
		},
		{
			"buffer":0,
			"byteLength":2832,
			"byteOffset":11904,
			"target":34963
		},
		{
			"buffer":0,
			"byteLength":288,
			"byteOffset":14736,
			"target":34962
		},
		{
			"buffer":0,
			"byteLength":288,
			"byteOffset":15024,
			"target":34962
		},
		{
			"buffer":0,
			"byteLength":72,
			"byteOffset":15312,
			"target":34963
		},
		{
			"buffer":0,
			"byteLength":288,
			"byteOffset":15384,
			"target":34962
		},
		{
			"buffer":0,
			"byteLength":288,
			"byteOffset":15672,
			"target":34962
		},
		{
			"buffer":0,
			"byteLength":72,
			"byteOffset":15960,
			"target":34963
		},
		{
			"buffer":0,
			"byteLength":288,
			"byteOffset":16032,
			"target":34962
		},
		{
			"buffer":0,
			"byteLength":288,
			"byteOffset":16320,
			"target":34962
		},
		{
			"buffer":0,
			"byteLength":72,
			"byteOffset":16608,
			"target":34963
		},
		{
			"buffer":0,
			"byteLength":48,
			"byteOffset":16680,
			"target":34962
		},
		{
			"buffer":0,
			"byteLength":48,
			"byteOffset":16728,
			"target":34962
		},
		{
			"buffer":0,
			"byteLength":12,
			"byteOffset":16776,
			"target":34963
		},
		{
			"buffer":0,
			"byteLength":3504,
			"byteOffset":16788,
			"target":34962
		},
		{
			"buffer":0,
			"byteLength":3504,
			"byteOffset":20292,
			"target":34962
		},
		{
			"buffer":0,
			"byteLength":1464,
			"byteOffset":23796,
			"target":34963
		},
		{
			"buffer":0,
			"byteLength":288,
			"byteOffset":25260,
			"target":34962
		},
		{
			"buffer":0,
			"byteLength":288,
			"byteOffset":25548,
			"target":34962
		},
		{
			"buffer":0,
			"byteLength":72,
			"byteOffset":25836,
			"target":34963
		},
		{
			"buffer":0,
			"byteLength":216,
			"byteOffset":25908,
			"target":34962
		},
		{
			"buffer":0,
			"byteLength":216,
			"byteOffset":26124,
			"target":34962
		},
		{
			"buffer":0,
			"byteLength":60,
			"byteOffset":26340,
			"target":34963
		},
		{
			"buffer":0,
			"byteLength":48,
			"byteOffset":26400,
			"target":34962
		},
		{
			"buffer":0,
			"byteLength":48,
			"byteOffset":26448,
			"target":34962
		},
		{
			"buffer":0,
			"byteLength":9972,
			"byteOffset":26496,
			"target":34962
		},
		{
			"buffer":0,
			"byteLength":9972,
			"byteOffset":36468,
			"target":34962
		},
		{
			"buffer":0,
			"byteLength":5436,
			"byteOffset":46440,
			"target":34963
		},
		{
			"buffer":0,
			"byteLength":288,
			"byteOffset":51876,
			"target":34962
		},
		{
			"buffer":0,
			"byteLength":288,
			"byteOffset":52164,
			"target":34962
		},
		{
			"buffer":0,
			"byteLength":72,
			"byteOffset":52452,
			"target":34963
		},
		{
			"buffer":0,
			"byteLength":720,
			"byteOffset":52524,
			"target":34962
		},
		{
			"buffer":0,
			"byteLength":720,
			"byteOffset":53244,
			"target":34962
		},
		{
			"buffer":0,
			"byteLength":180,
			"byteOffset":53964,
			"target":34963
		},
		{
			"buffer":0,
			"byteLength":48,
			"byteOffset":54144,
			"target":34962
		},
		{
			"buffer":0,
			"byteLength":48,
			"byteOffset":54192,
			"target":34962
		}
	],
	"buffers":[
		{
			"byteLength":54240,
			"uri":"BinaGrup17.bin"
		}
	]
}
