{
	"asset":{
		"generator":"Khronos glTF Blender I/O v4.2.60",
		"version":"2.0"
	},
	"scene":0,
	"scenes":[
		{
			"name":"Scene",
			"nodes":[
				0,
				1,
				2,
				3,
				4,
				5,
				6,
				7,
				8,
				9,
				10,
				11,
				12,
				13,
				14
			]
		}
	],
	"nodes":[
		{
			"mesh":0,
			"name":"Building_019.003"
		},
		{
			"mesh":1,
			"name":"Building_019_RoofCap_0.001"
		},
		{
			"mesh":2,
			"name":"Building_019_RoofCap_1.001"
		},
		{
			"mesh":3,
			"name":"Building_019.005"
		},
		{
			"mesh":4,
			"name":"Building_019.004"
		},
		{
			"mesh":5,
			"name":"Building_029.003"
		},
		{
			"mesh":6,
			"name":"Building_029_RoofCap_0.001"
		},
		{
			"mesh":7,
			"name":"Building_029_RoofCap_1.001"
		},
		{
			"mesh":8,
			"name":"Building_029.005"
		},
		{
			"mesh":9,
			"name":"Building_029.004"
		},
		{
			"mesh":10,
			"name":"Building_056.003"
		},
		{
			"mesh":11,
			"name":"Building_056_RoofCap_0.001"
		},
		{
			"mesh":12,
			"name":"Building_056_RoofCap_1.001"
		},
		{
			"mesh":13,
			"name":"Building_056.005"
		},
		{
			"mesh":14,
			"name":"Building_056.004"
		}
	],
	"materials":[
		{
			"doubleSided":true,
			"name":"BinaSolar",
			"pbrMetallicRoughness":{
				"baseColorFactor":[
					0.4451989233493805,
					0.006995364557951689,
					0.002428226638585329,
					1
				],
				"metallicFactor":0,
				"roughnessFactor":0.699999988079071
			}
		},
		{
			"doubleSided":true,
			"name":"Mat_Roof_Cap",
			"pbrMetallicRoughness":{
				"baseColorFactor":[
					0.9822452664375305,
					0.38132646679878235,
					0.0030353753827512264,
					1
				],
				"metallicFactor":0,
				"roughnessFactor":0.699999988079071
			}
		},
		{
			"doubleSided":true,
			"name":"PencereSolarKapal\u0131",
			"pbrMetallicRoughness":{
				"baseColorFactor":[
					0.2122296690940857,
					0.0009105561766773462,
					0,
					1
				],
				"metallicFactor":0,
				"roughnessFactor":0.699999988079071
			}
		}
	],
	"meshes":[
		{
			"name":"Building_019_Mesh.003",
			"primitives":[
				{
					"attributes":{
						"POSITION":0,
						"NORMAL":1
					},
					"indices":2,
					"material":0
				}
			]
		},
		{
			"name":"Building_019_RoofCap_0_Mesh.001",
			"primitives":[
				{
					"attributes":{
						"POSITION":3,
						"NORMAL":4
					},
					"indices":5,
					"material":1
				}
			]
		},
		{
			"name":"Building_019_RoofCap_1_Mesh.001",
			"primitives":[
				{
					"attributes":{
						"POSITION":6,
						"NORMAL":7
					},
					"indices":8,
					"material":1
				}
			]
		},
		{
			"name":"Building_019_Mesh.005",
			"primitives":[
				{
					"attributes":{
						"POSITION":9,
						"NORMAL":10
					},
					"indices":11,
					"material":2
				}
			]
		},
		{
			"name":"Building_019_Mesh.004",
			"primitives":[
				{
					"attributes":{
						"POSITION":12,
						"NORMAL":13
					},
					"indices":14,
					"material":2
				}
			]
		},
		{
			"name":"Building_029_Mesh.003",
			"primitives":[
				{
					"attributes":{
						"POSITION":15,
						"NORMAL":16
					},
					"indices":17,
					"material":0
				}
			]
		},
		{
			"name":"Building_029_RoofCap_0_Mesh.001",
			"primitives":[
				{
					"attributes":{
						"POSITION":18,
						"NORMAL":19
					},
					"indices":20,
					"material":1
				}
			]
		},
		{
			"name":"Building_029_RoofCap_1_Mesh.001",
			"primitives":[
				{
					"attributes":{
						"POSITION":21,
						"NORMAL":22
					},
					"indices":23,
					"material":1
				}
			]
		},
		{
			"name":"Building_029_Mesh.005",
			"primitives":[
				{
					"attributes":{
						"POSITION":24,
						"NORMAL":25
					},
					"indices":26,
					"material":2
				}
			]
		},
		{
			"name":"Building_029_Mesh.004",
			"primitives":[
				{
					"attributes":{
						"POSITION":27,
						"NORMAL":28
					},
					"indices":14,
					"material":2
				}
			]
		},
		{
			"name":"Building_056_Mesh.003",
			"primitives":[
				{
					"attributes":{
						"POSITION":29,
						"NORMAL":30
					},
					"indices":31,
					"material":0
				}
			]
		},
		{
			"name":"Building_056_RoofCap_0_Mesh.001",
			"primitives":[
				{
					"attributes":{
						"POSITION":32,
						"NORMAL":33
					},
					"indices":5,
					"material":1
				}
			]
		},
		{
			"name":"Building_056_RoofCap_1_Mesh.001",
			"primitives":[
				{
					"attributes":{
						"POSITION":34,
						"NORMAL":35
					},
					"indices":23,
					"material":1
				}
			]
		},
		{
			"name":"Building_056_Mesh.005",
			"primitives":[
				{
					"attributes":{
						"POSITION":36,
						"NORMAL":37
					},
					"indices":38,
					"material":2
				}
			]
		},
		{
			"name":"Building_056_Mesh.004",
			"primitives":[
				{
					"attributes":{
						"POSITION":39,
						"NORMAL":40
					},
					"indices":14,
					"material":2
				}
			]
		}
	],
	"accessors":[
		{
			"bufferView":0,
			"componentType":5126,
			"count":512,
			"max":[
				-0.2521194815635681,
				-0.42873910069465637,
				0.036141302436590195
			],
			"min":[
				-0.30103254318237305,
				-0.47439128160476685,
				-0.007336955517530441
			],
			"type":"VEC3"
		},
		{
			"bufferView":1,
			"componentType":5126,
			"count":512,
			"type":"VEC3"
		},
		{
			"bufferView":2,
			"componentType":5123,
			"count":1434,
			"type":"SCALAR"
		},
		{
			"bufferView":3,
			"componentType":5126,
			"count":24,
			"max":[
				-0.268854022026062,
				-0.4274163246154785,
				0.03477476164698601
			],
			"min":[
				-0.288419246673584,
				-0.43639129400253296,
				0.016576087102293968
			],
			"type":"VEC3"
		},
		{
			"bufferView":4,
			"componentType":5126,
			"count":24,
			"type":"VEC3"
		},
		{
			"bufferView":5,
			"componentType":5123,
			"count":36,
			"type":"SCALAR"
		},
		{
			"bufferView":6,
			"componentType":5126,
			"count":24,
			"max":[
				-0.25409597158432007,
				-0.4274163246154785,
				0.012228259816765785
			],
			"min":[
				-0.283443808555603,
				-0.43639129400253296,
				-0.00597041379660368
			],
			"type":"VEC3"
		},
		{
			"bufferView":7,
			"componentType":5126,
			"count":24,
			"type":"VEC3"
		},
		{
			"bufferView":8,
			"componentType":5123,
			"count":36,
			"type":"SCALAR"
		},
		{
			"bufferView":9,
			"componentType":5126,
			"count":30,
			"max":[
				-0.257010817527771,
				-0.44395649433135986,
				0.033967386931180954
			],
			"min":[
				-0.29614126682281494,
				-0.4667825996875763,
				0.033967386931180954
			],
			"type":"VEC3"
		},
		{
			"bufferView":10,
			"componentType":5126,
			"count":30,
			"type":"VEC3"
		},
		{
			"bufferView":11,
			"componentType":5123,
			"count":48,
			"type":"SCALAR"
		},
		{
			"bufferView":12,
			"componentType":5126,
			"count":4,
			"max":[
				-0.267880380153656,
				-0.4602608382701874,
				0.03396739065647125
			],
			"min":[
				-0.28527167439460754,
				-0.47439128160476685,
				0.03396739065647125
			],
			"type":"VEC3"
		},
		{
			"bufferView":13,
			"componentType":5126,
			"count":4,
			"type":"VEC3"
		},
		{
			"bufferView":14,
			"componentType":5123,
			"count":6,
			"type":"SCALAR"
		},
		{
			"bufferView":15,
			"componentType":5126,
			"count":497,
			"max":[
				-0.10809776186943054,
				0.07886958122253418,
				0.036141302436590195
			],
			"min":[
				-0.14070644974708557,
				0.014739125967025757,
				-0.007336955517530441
			],
			"type":"VEC3"
		},
		{
			"bufferView":16,
			"componentType":5126,
			"count":497,
			"type":"VEC3"
		},
		{
			"bufferView":17,
			"componentType":5123,
			"count":1398,
			"type":"SCALAR"
		},
		{
			"bufferView":18,
			"componentType":5126,
			"count":24,
			"max":[
				-0.1124330461025238,
				0.07990092039108276,
				0.03493959456682205
			],
			"min":[
				-0.12547653913497925,
				0.06926083564758301,
				0.016576087102293968
			],
			"type":"VEC3"
		},
		{
			"bufferView":19,
			"componentType":5126,
			"count":24,
			"type":"VEC3"
		},
		{
			"bufferView":20,
			"componentType":5123,
			"count":36,
			"type":"SCALAR"
		},
		{
			"bufferView":21,
			"componentType":5126,
			"count":24,
			"max":[
				-0.11124154925346375,
				0.07990092039108276,
				0.012228259816765785
			],
			"min":[
				-0.13732850551605225,
				0.06926083564758301,
				-0.006135245785117149
			],
			"type":"VEC3"
		},
		{
			"bufferView":22,
			"componentType":5126,
			"count":24,
			"type":"VEC3"
		},
		{
			"bufferView":23,
			"componentType":5123,
			"count":36,
			"type":"SCALAR"
		},
		{
			"bufferView":24,
			"componentType":5126,
			"count":36,
			"max":[
				-0.11353257298469543,
				0.061478257179260254,
				0.033967386931180954
			],
			"min":[
				-0.13527172803878784,
				0.022347837686538696,
				0.033967386931180954
			],
			"type":"VEC3"
		},
		{
			"bufferView":25,
			"componentType":5126,
			"count":36,
			"type":"VEC3"
		},
		{
			"bufferView":26,
			"componentType":5123,
			"count":54,
			"type":"SCALAR"
		},
		{
			"bufferView":27,
			"componentType":5126,
			"count":4,
			"max":[
				-0.1265760362148285,
				0.028869569301605225,
				0.03396739065647125
			],
			"min":[
				-0.13527172803878784,
				0.014739125967025757,
				0.03396739065647125
			],
			"type":"VEC3"
		},
		{
			"bufferView":28,
			"componentType":5126,
			"count":4,
			"type":"VEC3"
		},
		{
			"bufferView":29,
			"componentType":5126,
			"count":857,
			"max":[
				0.2044021487236023,
				0.17669564485549927,
				0.036141302436590195
			],
			"min":[
				0.15548914670944214,
				0.11256527900695801,
				-0.007336955517530441
			],
			"type":"VEC3"
		},
		{
			"bufferView":30,
			"componentType":5126,
			"count":857,
			"type":"VEC3"
		},
		{
			"bufferView":31,
			"componentType":5123,
			"count":2736,
			"type":"SCALAR"
		},
		{
			"bufferView":32,
			"componentType":5126,
			"count":24,
			"max":[
				0.2003631591796875,
				0.17659664154052734,
				0.03276567906141281
			],
			"min":[
				0.16123270988464355,
				0.16813045740127563,
				0.01875000074505806
			],
			"type":"VEC3"
		},
		{
			"bufferView":33,
			"componentType":5126,
			"count":24,
			"type":"VEC3"
		},
		{
			"bufferView":34,
			"componentType":5126,
			"count":24,
			"max":[
				0.20265519618988037,
				0.17772704362869263,
				0.012228259816765785
			],
			"min":[
				0.16352474689483643,
				0.16708695888519287,
				-0.006135245785117149
			],
			"type":"VEC3"
		},
		{
			"bufferView":35,
			"componentType":5126,
			"count":24,
			"type":"VEC3"
		},
		{
			"bufferView":36,
			"componentType":5126,
			"count":56,
			"max":[
				0.1995108723640442,
				0.15930438041687012,
				0.03396739065647125
			],
			"min":[
				0.16038042306900024,
				0.12017393112182617,
				0.03396739065647125
			],
			"type":"VEC3"
		},
		{
			"bufferView":37,
			"componentType":5126,
			"count":56,
			"type":"VEC3"
		},
		{
			"bufferView":38,
			"componentType":5123,
			"count":84,
			"type":"SCALAR"
		},
		{
			"bufferView":39,
			"componentType":5126,
			"count":4,
			"max":[
				0.18864130973815918,
				0.1266956925392151,
				0.03396739065647125
			],
			"min":[
				0.17124998569488525,
				0.11256527900695801,
				0.03396739065647125
			],
			"type":"VEC3"
		},
		{
			"bufferView":40,
			"componentType":5126,
			"count":4,
			"type":"VEC3"
		}
	],
	"bufferViews":[
		{
			"buffer":0,
			"byteLength":6144,
			"byteOffset":0,
			"target":34962
		},
		{
			"buffer":0,
			"byteLength":6144,
			"byteOffset":6144,
			"target":34962
		},
		{
			"buffer":0,
			"byteLength":2868,
			"byteOffset":12288,
			"target":34963
		},
		{
			"buffer":0,
			"byteLength":288,
			"byteOffset":15156,
			"target":34962
		},
		{
			"buffer":0,
			"byteLength":288,
			"byteOffset":15444,
			"target":34962
		},
		{
			"buffer":0,
			"byteLength":72,
			"byteOffset":15732,
			"target":34963
		},
		{
			"buffer":0,
			"byteLength":288,
			"byteOffset":15804,
			"target":34962
		},
		{
			"buffer":0,
			"byteLength":288,
			"byteOffset":16092,
			"target":34962
		},
		{
			"buffer":0,
			"byteLength":72,
			"byteOffset":16380,
			"target":34963
		},
		{
			"buffer":0,
			"byteLength":360,
			"byteOffset":16452,
			"target":34962
		},
		{
			"buffer":0,
			"byteLength":360,
			"byteOffset":16812,
			"target":34962
		},
		{
			"buffer":0,
			"byteLength":96,
			"byteOffset":17172,
			"target":34963
		},
		{
			"buffer":0,
			"byteLength":48,
			"byteOffset":17268,
			"target":34962
		},
		{
			"buffer":0,
			"byteLength":48,
			"byteOffset":17316,
			"target":34962
		},
		{
			"buffer":0,
			"byteLength":12,
			"byteOffset":17364,
			"target":34963
		},
		{
			"buffer":0,
			"byteLength":5964,
			"byteOffset":17376,
			"target":34962
		},
		{
			"buffer":0,
			"byteLength":5964,
			"byteOffset":23340,
			"target":34962
		},
		{
			"buffer":0,
			"byteLength":2796,
			"byteOffset":29304,
			"target":34963
		},
		{
			"buffer":0,
			"byteLength":288,
			"byteOffset":32100,
			"target":34962
		},
		{
			"buffer":0,
			"byteLength":288,
			"byteOffset":32388,
			"target":34962
		},
		{
			"buffer":0,
			"byteLength":72,
			"byteOffset":32676,
			"target":34963
		},
		{
			"buffer":0,
			"byteLength":288,
			"byteOffset":32748,
			"target":34962
		},
		{
			"buffer":0,
			"byteLength":288,
			"byteOffset":33036,
			"target":34962
		},
		{
			"buffer":0,
			"byteLength":72,
			"byteOffset":33324,
			"target":34963
		},
		{
			"buffer":0,
			"byteLength":432,
			"byteOffset":33396,
			"target":34962
		},
		{
			"buffer":0,
			"byteLength":432,
			"byteOffset":33828,
			"target":34962
		},
		{
			"buffer":0,
			"byteLength":108,
			"byteOffset":34260,
			"target":34963
		},
		{
			"buffer":0,
			"byteLength":48,
			"byteOffset":34368,
			"target":34962
		},
		{
			"buffer":0,
			"byteLength":48,
			"byteOffset":34416,
			"target":34962
		},
		{
			"buffer":0,
			"byteLength":10284,
			"byteOffset":34464,
			"target":34962
		},
		{
			"buffer":0,
			"byteLength":10284,
			"byteOffset":44748,
			"target":34962
		},
		{
			"buffer":0,
			"byteLength":5472,
			"byteOffset":55032,
			"target":34963
		},
		{
			"buffer":0,
			"byteLength":288,
			"byteOffset":60504,
			"target":34962
		},
		{
			"buffer":0,
			"byteLength":288,
			"byteOffset":60792,
			"target":34962
		},
		{
			"buffer":0,
			"byteLength":288,
			"byteOffset":61080,
			"target":34962
		},
		{
			"buffer":0,
			"byteLength":288,
			"byteOffset":61368,
			"target":34962
		},
		{
			"buffer":0,
			"byteLength":672,
			"byteOffset":61656,
			"target":34962
		},
		{
			"buffer":0,
			"byteLength":672,
			"byteOffset":62328,
			"target":34962
		},
		{
			"buffer":0,
			"byteLength":168,
			"byteOffset":63000,
			"target":34963
		},
		{
			"buffer":0,
			"byteLength":48,
			"byteOffset":63168,
			"target":34962
		},
		{
			"buffer":0,
			"byteLength":48,
			"byteOffset":63216,
			"target":34962
		}
	],
	"buffers":[
		{
			"byteLength":63264,
			"uri":"BinaGrup7.bin"
		}
	]
}
