{
	"asset":{
		"generator":"Khronos glTF Blender I/O v4.2.60",
		"version":"2.0"
	},
	"scene":0,
	"scenes":[
		{
			"name":"Scene",
			"nodes":[
				0,
				1,
				2,
				3,
				4,
				5,
				6,
				7,
				8,
				9,
				10,
				11,
				12,
				13
			]
		}
	],
	"nodes":[
		{
			"mesh":0,
			"name":"Building_028.003"
		},
		{
			"mesh":1,
			"name":"Building_028_RoofCap_0.001"
		},
		{
			"mesh":2,
			"name":"Building_028_RoofCap_1.001"
		},
		{
			"mesh":3,
			"name":"Building_028.005"
		},
		{
			"mesh":4,
			"name":"Building_028.004"
		},
		{
			"mesh":5,
			"name":"Building_041.003"
		},
		{
			"mesh":6,
			"name":"Building_041_RoofCap_0.001"
		},
		{
			"mesh":7,
			"name":"Building_041_RoofCap_1.001"
		},
		{
			"mesh":8,
			"name":"Building_041.005"
		},
		{
			"mesh":9,
			"name":"Building_041.004"
		},
		{
			"mesh":10,
			"name":"Building_066.003"
		},
		{
			"mesh":11,
			"name":"Building_066_RoofCap_0.001"
		},
		{
			"mesh":12,
			"name":"Building_066.005"
		},
		{
			"mesh":13,
			"name":"Building_066.004"
		}
	],
	"materials":[
		{
			"doubleSided":true,
			"name":"BinaSolar",
			"pbrMetallicRoughness":{
				"baseColorFactor":[
					0.4451989233493805,
					0.006995364557951689,
					0.002428226638585329,
					1
				],
				"metallicFactor":0,
				"roughnessFactor":0.699999988079071
			}
		},
		{
			"doubleSided":true,
			"name":"Mat_Roof_Cap",
			"pbrMetallicRoughness":{
				"baseColorFactor":[
					0.9822452664375305,
					0.38132646679878235,
					0.0030353753827512264,
					1
				],
				"metallicFactor":0,
				"roughnessFactor":0.699999988079071
			}
		},
		{
			"doubleSided":true,
			"name":"PencereSolarKapal\u0131",
			"pbrMetallicRoughness":{
				"baseColorFactor":[
					0.2122296690940857,
					0.0009105561766773462,
					0,
					1
				],
				"metallicFactor":0,
				"roughnessFactor":0.699999988079071
			}
		}
	],
	"meshes":[
		{
			"name":"Building_028_Mesh.003",
			"primitives":[
				{
					"attributes":{
						"POSITION":0,
						"NORMAL":1
					},
					"indices":2,
					"material":0
				}
			]
		},
		{
			"name":"Building_028_RoofCap_0_Mesh.001",
			"primitives":[
				{
					"attributes":{
						"POSITION":3,
						"NORMAL":4
					},
					"indices":5,
					"material":1
				}
			]
		},
		{
			"name":"Building_028_RoofCap_1_Mesh.001",
			"primitives":[
				{
					"attributes":{
						"POSITION":6,
						"NORMAL":7
					},
					"indices":8,
					"material":1
				}
			]
		},
		{
			"name":"Building_028_Mesh.005",
			"primitives":[
				{
					"attributes":{
						"POSITION":9,
						"NORMAL":10
					},
					"indices":11,
					"material":2
				}
			]
		},
		{
			"name":"Building_028_Mesh.004",
			"primitives":[
				{
					"attributes":{
						"POSITION":12,
						"NORMAL":13
					},
					"indices":14,
					"material":2
				}
			]
		},
		{
			"name":"Building_041_Mesh.003",
			"primitives":[
				{
					"attributes":{
						"POSITION":15,
						"NORMAL":16
					},
					"indices":17,
					"material":0
				}
			]
		},
		{
			"name":"Building_041_RoofCap_0_Mesh.001",
			"primitives":[
				{
					"attributes":{
						"POSITION":18,
						"NORMAL":19
					},
					"indices":20,
					"material":1
				}
			]
		},
		{
			"name":"Building_041_RoofCap_1_Mesh.001",
			"primitives":[
				{
					"attributes":{
						"POSITION":21,
						"NORMAL":22
					},
					"indices":8,
					"material":1
				}
			]
		},
		{
			"name":"Building_041_Mesh.005",
			"primitives":[
				{
					"attributes":{
						"POSITION":23,
						"NORMAL":24
					},
					"indices":25,
					"material":2
				}
			]
		},
		{
			"name":"Building_041_Mesh.004",
			"primitives":[
				{
					"attributes":{
						"POSITION":26,
						"NORMAL":27
					},
					"indices":14,
					"material":2
				}
			]
		},
		{
			"name":"Building_066_Mesh.003",
			"primitives":[
				{
					"attributes":{
						"POSITION":28,
						"NORMAL":29
					},
					"indices":30,
					"material":0
				}
			]
		},
		{
			"name":"Building_066_RoofCap_0_Mesh.001",
			"primitives":[
				{
					"attributes":{
						"POSITION":31,
						"NORMAL":32
					},
					"indices":20,
					"material":1
				}
			]
		},
		{
			"name":"Building_066_Mesh.005",
			"primitives":[
				{
					"attributes":{
						"POSITION":33,
						"NORMAL":34
					},
					"indices":25,
					"material":2
				}
			]
		},
		{
			"name":"Building_066_Mesh.004",
			"primitives":[
				{
					"attributes":{
						"POSITION":35,
						"NORMAL":36
					},
					"indices":14,
					"material":2
				}
			]
		}
	],
	"accessors":[
		{
			"bufferView":0,
			"componentType":5126,
			"count":501,
			"max":[
				-0.10809779167175293,
				0.17452174425125122,
				0.036141302436590195
			],
			"min":[
				-0.14070647954940796,
				0.11256527900695801,
				-0.007336955517530441
			],
			"type":"VEC3"
		},
		{
			"bufferView":1,
			"componentType":5126,
			"count":501,
			"type":"VEC3"
		},
		{
			"bufferView":2,
			"componentType":5123,
			"count":1404,
			"type":"SCALAR"
		},
		{
			"bufferView":3,
			"componentType":5126,
			"count":24,
			"max":[
				-0.11164942383766174,
				0.1740185022354126,
				0.030426934361457825
			],
			"min":[
				-0.13773638010025024,
				0.16852176189422607,
				0.020923912525177002
			],
			"type":"VEC3"
		},
		{
			"bufferView":4,
			"componentType":5126,
			"count":24,
			"type":"VEC3"
		},
		{
			"bufferView":5,
			"componentType":5123,
			"count":36,
			"type":"SCALAR"
		},
		{
			"bufferView":6,
			"componentType":5126,
			"count":24,
			"max":[
				-0.11335146427154541,
				0.17493152618408203,
				0.010054348036646843
			],
			"min":[
				-0.13943839073181152,
				0.16769564151763916,
				-0.003796500852331519
			],
			"type":"VEC3"
		},
		{
			"bufferView":7,
			"componentType":5126,
			"count":24,
			"type":"VEC3"
		},
		{
			"bufferView":8,
			"componentType":5123,
			"count":36,
			"type":"SCALAR"
		},
		{
			"bufferView":9,
			"componentType":5126,
			"count":38,
			"max":[
				-0.11353257298469543,
				0.15930438041687012,
				0.033967386931180954
			],
			"min":[
				-0.13527169823646545,
				0.12017399072647095,
				0.033967386931180954
			],
			"type":"VEC3"
		},
		{
			"bufferView":10,
			"componentType":5126,
			"count":38,
			"type":"VEC3"
		},
		{
			"bufferView":11,
			"componentType":5123,
			"count":60,
			"type":"SCALAR"
		},
		{
			"bufferView":12,
			"componentType":5126,
			"count":4,
			"max":[
				-0.11353254318237305,
				0.1266956925392151,
				0.03396739065647125
			],
			"min":[
				-0.12222820520401001,
				0.11256527900695801,
				0.03396739065647125
			],
			"type":"VEC3"
		},
		{
			"bufferView":13,
			"componentType":5126,
			"count":4,
			"type":"VEC3"
		},
		{
			"bufferView":14,
			"componentType":5123,
			"count":6,
			"type":"SCALAR"
		},
		{
			"bufferView":15,
			"componentType":5126,
			"count":497,
			"max":[
				-0.032010823488235474,
				-0.41243475675582886,
				0.036141302436590195
			],
			"min":[
				-0.0646195113658905,
				-0.47439128160476685,
				-0.007336955517530441
			],
			"type":"VEC3"
		},
		{
			"bufferView":16,
			"componentType":5126,
			"count":497,
			"type":"VEC3"
		},
		{
			"bufferView":17,
			"componentType":5123,
			"count":1398,
			"type":"SCALAR"
		},
		{
			"bufferView":18,
			"componentType":5126,
			"count":24,
			"max":[
				-0.03432825207710266,
				-0.411111980676651,
				0.03477476164698601
			],
			"min":[
				-0.053893476724624634,
				-0.42008695006370544,
				0.016576087102293968
			],
			"type":"VEC3"
		},
		{
			"bufferView":19,
			"componentType":5126,
			"count":24,
			"type":"VEC3"
		},
		{
			"bufferView":20,
			"componentType":5123,
			"count":36,
			"type":"SCALAR"
		},
		{
			"bufferView":21,
			"componentType":5126,
			"count":24,
			"max":[
				-0.036764055490493774,
				-0.411111980676651,
				0.012228259816765785
			],
			"min":[
				-0.05632928013801575,
				-0.42008695006370544,
				-0.00597041379660368
			],
			"type":"VEC3"
		},
		{
			"bufferView":22,
			"componentType":5126,
			"count":24,
			"type":"VEC3"
		},
		{
			"bufferView":23,
			"componentType":5126,
			"count":36,
			"max":[
				-0.037445634603500366,
				-0.42765215039253235,
				0.033967386931180954
			],
			"min":[
				-0.059184759855270386,
				-0.4711304008960724,
				0.033967386931180954
			],
			"type":"VEC3"
		},
		{
			"bufferView":24,
			"componentType":5126,
			"count":36,
			"type":"VEC3"
		},
		{
			"bufferView":25,
			"componentType":5123,
			"count":54,
			"type":"SCALAR"
		},
		{
			"bufferView":26,
			"componentType":5126,
			"count":4,
			"max":[
				-0.05048909783363342,
				-0.4602608382701874,
				0.03396739065647125
			],
			"min":[
				-0.059184759855270386,
				-0.47439128160476685,
				0.03396739065647125
			],
			"type":"VEC3"
		},
		{
			"bufferView":27,
			"componentType":5126,
			"count":4,
			"type":"VEC3"
		},
		{
			"bufferView":28,
			"componentType":5126,
			"count":477,
			"max":[
				0.2723369598388672,
				-0.127652108669281,
				0.047010865062475204
			],
			"min":[
				0.23972827196121216,
				-0.18091300129890442,
				-0.007336959708482027
			],
			"type":"VEC3"
		},
		{
			"bufferView":29,
			"componentType":5126,
			"count":477,
			"type":"VEC3"
		},
		{
			"bufferView":30,
			"componentType":5123,
			"count":1386,
			"type":"SCALAR"
		},
		{
			"bufferView":31,
			"componentType":5126,
			"count":24,
			"max":[
				0.27173876762390137,
				-0.12209770083427429,
				0.03635761886835098
			],
			"min":[
				0.2521735429763794,
				-0.12752172350883484,
				0.0035326071083545685
			],
			"type":"VEC3"
		},
		{
			"bufferView":32,
			"componentType":5126,
			"count":24,
			"type":"VEC3"
		},
		{
			"bufferView":33,
			"componentType":5126,
			"count":36,
			"max":[
				0.26690220832824707,
				-0.1341738998889923,
				0.04483695700764656
			],
			"min":[
				0.24516302347183228,
				-0.17330431938171387,
				0.04483695700764656
			],
			"type":"VEC3"
		},
		{
			"bufferView":34,
			"componentType":5126,
			"count":36,
			"type":"VEC3"
		},
		{
			"bufferView":35,
			"componentType":5126,
			"count":4,
			"max":[
				0.253858745098114,
				-0.16678255796432495,
				0.04483695700764656
			],
			"min":[
				0.24516302347183228,
				-0.18091300129890442,
				0.04483695700764656
			],
			"type":"VEC3"
		},
		{
			"bufferView":36,
			"componentType":5126,
			"count":4,
			"type":"VEC3"
		}
	],
	"bufferViews":[
		{
			"buffer":0,
			"byteLength":6012,
			"byteOffset":0,
			"target":34962
		},
		{
			"buffer":0,
			"byteLength":6012,
			"byteOffset":6012,
			"target":34962
		},
		{
			"buffer":0,
			"byteLength":2808,
			"byteOffset":12024,
			"target":34963
		},
		{
			"buffer":0,
			"byteLength":288,
			"byteOffset":14832,
			"target":34962
		},
		{
			"buffer":0,
			"byteLength":288,
			"byteOffset":15120,
			"target":34962
		},
		{
			"buffer":0,
			"byteLength":72,
			"byteOffset":15408,
			"target":34963
		},
		{
			"buffer":0,
			"byteLength":288,
			"byteOffset":15480,
			"target":34962
		},
		{
			"buffer":0,
			"byteLength":288,
			"byteOffset":15768,
			"target":34962
		},
		{
			"buffer":0,
			"byteLength":72,
			"byteOffset":16056,
			"target":34963
		},
		{
			"buffer":0,
			"byteLength":456,
			"byteOffset":16128,
			"target":34962
		},
		{
			"buffer":0,
			"byteLength":456,
			"byteOffset":16584,
			"target":34962
		},
		{
			"buffer":0,
			"byteLength":120,
			"byteOffset":17040,
			"target":34963
		},
		{
			"buffer":0,
			"byteLength":48,
			"byteOffset":17160,
			"target":34962
		},
		{
			"buffer":0,
			"byteLength":48,
			"byteOffset":17208,
			"target":34962
		},
		{
			"buffer":0,
			"byteLength":12,
			"byteOffset":17256,
			"target":34963
		},
		{
			"buffer":0,
			"byteLength":5964,
			"byteOffset":17268,
			"target":34962
		},
		{
			"buffer":0,
			"byteLength":5964,
			"byteOffset":23232,
			"target":34962
		},
		{
			"buffer":0,
			"byteLength":2796,
			"byteOffset":29196,
			"target":34963
		},
		{
			"buffer":0,
			"byteLength":288,
			"byteOffset":31992,
			"target":34962
		},
		{
			"buffer":0,
			"byteLength":288,
			"byteOffset":32280,
			"target":34962
		},
		{
			"buffer":0,
			"byteLength":72,
			"byteOffset":32568,
			"target":34963
		},
		{
			"buffer":0,
			"byteLength":288,
			"byteOffset":32640,
			"target":34962
		},
		{
			"buffer":0,
			"byteLength":288,
			"byteOffset":32928,
			"target":34962
		},
		{
			"buffer":0,
			"byteLength":432,
			"byteOffset":33216,
			"target":34962
		},
		{
			"buffer":0,
			"byteLength":432,
			"byteOffset":33648,
			"target":34962
		},
		{
			"buffer":0,
			"byteLength":108,
			"byteOffset":34080,
			"target":34963
		},
		{
			"buffer":0,
			"byteLength":48,
			"byteOffset":34188,
			"target":34962
		},
		{
			"buffer":0,
			"byteLength":48,
			"byteOffset":34236,
			"target":34962
		},
		{
			"buffer":0,
			"byteLength":5724,
			"byteOffset":34284,
			"target":34962
		},
		{
			"buffer":0,
			"byteLength":5724,
			"byteOffset":40008,
			"target":34962
		},
		{
			"buffer":0,
			"byteLength":2772,
			"byteOffset":45732,
			"target":34963
		},
		{
			"buffer":0,
			"byteLength":288,
			"byteOffset":48504,
			"target":34962
		},
		{
			"buffer":0,
			"byteLength":288,
			"byteOffset":48792,
			"target":34962
		},
		{
			"buffer":0,
			"byteLength":432,
			"byteOffset":49080,
			"target":34962
		},
		{
			"buffer":0,
			"byteLength":432,
			"byteOffset":49512,
			"target":34962
		},
		{
			"buffer":0,
			"byteLength":48,
			"byteOffset":49944,
			"target":34962
		},
		{
			"buffer":0,
			"byteLength":48,
			"byteOffset":49992,
			"target":34962
		}
	],
	"buffers":[
		{
			"byteLength":50040,
			"uri":"BinaGrup6.bin"
		}
	]
}
