{
	"asset":{
		"generator":"Khronos glTF Blender I/O v4.2.60",
		"version":"2.0"
	},
	"scene":0,
	"scenes":[
		{
			"name":"Scene",
			"nodes":[
				0,
				1,
				2,
				3,
				4,
				5,
				6,
				7,
				8,
				9,
				10,
				11,
				12,
				13
			]
		}
	],
	"nodes":[
		{
			"mesh":0,
			"name":"Building_035.003"
		},
		{
			"mesh":1,
			"name":"Building_035_RoofCap_0.001"
		},
		{
			"mesh":2,
			"name":"Building_035_RoofCap_1.001"
		},
		{
			"mesh":3,
			"name":"Building_035.005"
		},
		{
			"mesh":4,
			"name":"Building_035.004"
		},
		{
			"mesh":5,
			"name":"Building_043.003"
		},
		{
			"mesh":6,
			"name":"Building_043_RoofCap_0.001"
		},
		{
			"mesh":7,
			"name":"Building_043.005"
		},
		{
			"mesh":8,
			"name":"Building_043.004"
		},
		{
			"mesh":9,
			"name":"Building_068.003"
		},
		{
			"mesh":10,
			"name":"Building_068_RoofCap_0.001"
		},
		{
			"mesh":11,
			"name":"Building_068_RoofCap_1.001"
		},
		{
			"mesh":12,
			"name":"Building_068.005"
		},
		{
			"mesh":13,
			"name":"Building_068.004"
		}
	],
	"materials":[
		{
			"doubleSided":true,
			"name":"BinaSolar",
			"pbrMetallicRoughness":{
				"baseColorFactor":[
					0.4451989233493805,
					0.006995364557951689,
					0.002428226638585329,
					1
				],
				"metallicFactor":0,
				"roughnessFactor":0.699999988079071
			}
		},
		{
			"doubleSided":true,
			"name":"Mat_Roof_Cap",
			"pbrMetallicRoughness":{
				"baseColorFactor":[
					0.9822452664375305,
					0.38132646679878235,
					0.0030353753827512264,
					1
				],
				"metallicFactor":0,
				"roughnessFactor":0.699999988079071
			}
		},
		{
			"doubleSided":true,
			"name":"PencereSolarKapal\u0131",
			"pbrMetallicRoughness":{
				"baseColorFactor":[
					0.2122296690940857,
					0.0009105561766773462,
					0,
					1
				],
				"metallicFactor":0,
				"roughnessFactor":0.699999988079071
			}
		}
	],
	"meshes":[
		{
			"name":"Building_035_Mesh.003",
			"primitives":[
				{
					"attributes":{
						"POSITION":0,
						"NORMAL":1
					},
					"indices":2,
					"material":0
				}
			]
		},
		{
			"name":"Building_035_RoofCap_0_Mesh.001",
			"primitives":[
				{
					"attributes":{
						"POSITION":3,
						"NORMAL":4
					},
					"indices":5,
					"material":1
				}
			]
		},
		{
			"name":"Building_035_RoofCap_1_Mesh.001",
			"primitives":[
				{
					"attributes":{
						"POSITION":6,
						"NORMAL":7
					},
					"indices":8,
					"material":1
				}
			]
		},
		{
			"name":"Building_035_Mesh.005",
			"primitives":[
				{
					"attributes":{
						"POSITION":9,
						"NORMAL":10
					},
					"indices":11,
					"material":2
				}
			]
		},
		{
			"name":"Building_035_Mesh.004",
			"primitives":[
				{
					"attributes":{
						"POSITION":12,
						"NORMAL":13
					},
					"indices":14,
					"material":2
				}
			]
		},
		{
			"name":"Building_043_Mesh.003",
			"primitives":[
				{
					"attributes":{
						"POSITION":15,
						"NORMAL":16
					},
					"indices":17,
					"material":0
				}
			]
		},
		{
			"name":"Building_043_RoofCap_0_Mesh.001",
			"primitives":[
				{
					"attributes":{
						"POSITION":18,
						"NORMAL":19
					},
					"indices":20,
					"material":1
				}
			]
		},
		{
			"name":"Building_043_Mesh.005",
			"primitives":[
				{
					"attributes":{
						"POSITION":21,
						"NORMAL":22
					},
					"indices":23,
					"material":2
				}
			]
		},
		{
			"name":"Building_043_Mesh.004",
			"primitives":[
				{
					"attributes":{
						"POSITION":24,
						"NORMAL":25
					},
					"indices":14,
					"material":2
				}
			]
		},
		{
			"name":"Building_068_Mesh.003",
			"primitives":[
				{
					"attributes":{
						"POSITION":26,
						"NORMAL":27
					},
					"indices":28,
					"material":0
				}
			]
		},
		{
			"name":"Building_068_RoofCap_0_Mesh.001",
			"primitives":[
				{
					"attributes":{
						"POSITION":29,
						"NORMAL":30
					},
					"indices":5,
					"material":1
				}
			]
		},
		{
			"name":"Building_068_RoofCap_1_Mesh.001",
			"primitives":[
				{
					"attributes":{
						"POSITION":31,
						"NORMAL":32
					},
					"indices":33,
					"material":1
				}
			]
		},
		{
			"name":"Building_068_Mesh.005",
			"primitives":[
				{
					"attributes":{
						"POSITION":34,
						"NORMAL":35
					},
					"indices":36,
					"material":2
				}
			]
		},
		{
			"name":"Building_068_Mesh.004",
			"primitives":[
				{
					"attributes":{
						"POSITION":37,
						"NORMAL":38
					},
					"indices":14,
					"material":2
				}
			]
		}
	],
	"accessors":[
		{
			"bufferView":0,
			"componentType":5126,
			"count":308,
			"max":[
				-0.03201085329055786,
				0.1582174301147461,
				0.0470108762383461
			],
			"min":[
				-0.06461954116821289,
				0.11256527900695801,
				-0.007336955517530441
			],
			"type":"VEC3"
		},
		{
			"bufferView":1,
			"componentType":5126,
			"count":308,
			"type":"VEC3"
		},
		{
			"bufferView":2,
			"componentType":5123,
			"count":750,
			"type":"SCALAR"
		},
		{
			"bufferView":3,
			"componentType":5126,
			"count":24,
			"max":[
				-0.0406700074672699,
				0.15959227085113525,
				0.0449560321867466
			],
			"min":[
				-0.06023523211479187,
				0.1505652666091919,
				0.022554347291588783
			],
			"type":"VEC3"
		},
		{
			"bufferView":4,
			"componentType":5126,
			"count":24,
			"type":"VEC3"
		},
		{
			"bufferView":5,
			"componentType":5123,
			"count":36,
			"type":"SCALAR"
		},
		{
			"bufferView":6,
			"componentType":5126,
			"count":24,
			"max":[
				-0.03560847043991089,
				0.1577661633491516,
				0.011684782803058624
			],
			"min":[
				-0.05517369508743286,
				0.15221738815307617,
				0.00015266146510839462
			],
			"type":"VEC3"
		},
		{
			"bufferView":7,
			"componentType":5126,
			"count":24,
			"type":"VEC3"
		},
		{
			"bufferView":8,
			"componentType":5123,
			"count":36,
			"type":"SCALAR"
		},
		{
			"bufferView":9,
			"componentType":5126,
			"count":20,
			"max":[
				-0.03744560480117798,
				0.14300000667572021,
				0.04483695700764656
			],
			"min":[
				-0.059184730052948,
				0.1158260703086853,
				0.04483695700764656
			],
			"type":"VEC3"
		},
		{
			"bufferView":10,
			"componentType":5126,
			"count":20,
			"type":"VEC3"
		},
		{
			"bufferView":11,
			"componentType":5123,
			"count":30,
			"type":"SCALAR"
		},
		{
			"bufferView":12,
			"componentType":5126,
			"count":4,
			"max":[
				-0.05048909783363342,
				0.1266956925392151,
				0.04483695700764656
			],
			"min":[
				-0.059184759855270386,
				0.11256527900695801,
				0.04483695700764656
			],
			"type":"VEC3"
		},
		{
			"bufferView":13,
			"componentType":5126,
			"count":4,
			"type":"VEC3"
		},
		{
			"bufferView":14,
			"componentType":5123,
			"count":6,
			"type":"SCALAR"
		},
		{
			"bufferView":15,
			"componentType":5126,
			"count":481,
			"max":[
				0.044076114892959595,
				0.06800001859664917,
				0.05788043513894081
			],
			"min":[
				0.011467427015304565,
				0.014739125967025757,
				-0.007336955517530441
			],
			"type":"VEC3"
		},
		{
			"bufferView":16,
			"componentType":5126,
			"count":481,
			"type":"VEC3"
		},
		{
			"bufferView":17,
			"componentType":5123,
			"count":1389,
			"type":"SCALAR"
		},
		{
			"bufferView":18,
			"componentType":5126,
			"count":24,
			"max":[
				0.0341821014881134,
				0.07360440492630005,
				0.051494300365448
			],
			"min":[
				0.02113860845565796,
				0.06817388534545898,
				-0.0008152173832058907
			],
			"type":"VEC3"
		},
		{
			"bufferView":19,
			"componentType":5126,
			"count":24,
			"type":"VEC3"
		},
		{
			"bufferView":20,
			"componentType":5123,
			"count":36,
			"type":"SCALAR"
		},
		{
			"bufferView":21,
			"componentType":5126,
			"count":39,
			"max":[
				0.03864133358001709,
				0.061478257179260254,
				0.05570651963353157
			],
			"min":[
				0.01690220832824707,
				0.02017390727996826,
				0.05570651963353157
			],
			"type":"VEC3"
		},
		{
			"bufferView":22,
			"componentType":5126,
			"count":39,
			"type":"VEC3"
		},
		{
			"bufferView":23,
			"componentType":5123,
			"count":63,
			"type":"SCALAR"
		},
		{
			"bufferView":24,
			"componentType":5126,
			"count":4,
			"max":[
				0.03864136338233948,
				0.028869569301605225,
				0.05570651963353157
			],
			"min":[
				0.029945671558380127,
				0.014739125967025757,
				0.05570651963353157
			],
			"type":"VEC3"
		},
		{
			"bufferView":25,
			"componentType":5126,
			"count":4,
			"type":"VEC3"
		},
		{
			"bufferView":26,
			"componentType":5126,
			"count":873,
			"max":[
				0.28048908710479736,
				-0.3167825937271118,
				0.05788043513894081
			],
			"min":[
				0.2315760850906372,
				-0.37656518816947937,
				-0.007336955517530441
			],
			"type":"VEC3"
		},
		{
			"bufferView":27,
			"componentType":5126,
			"count":873,
			"type":"VEC3"
		},
		{
			"bufferView":28,
			"componentType":5123,
			"count":2826,
			"type":"SCALAR"
		},
		{
			"bufferView":29,
			"componentType":5126,
			"count":24,
			"max":[
				0.25975102186203003,
				-0.3151291608810425,
				0.055045902729034424
			],
			"min":[
				0.24018579721450806,
				-0.3224782347679138,
				0.028532609343528748
			],
			"type":"VEC3"
		},
		{
			"bufferView":30,
			"componentType":5126,
			"count":24,
			"type":"VEC3"
		},
		{
			"bufferView":31,
			"componentType":5126,
			"count":24,
			"max":[
				0.25830793380737305,
				-0.3151291608810425,
				0.022010870277881622
			],
			"min":[
				0.23874270915985107,
				-0.3224782347679138,
				-0.004502424970269203
			],
			"type":"VEC3"
		},
		{
			"bufferView":32,
			"componentType":5126,
			"count":24,
			"type":"VEC3"
		},
		{
			"bufferView":33,
			"componentType":5123,
			"count":36,
			"type":"SCALAR"
		},
		{
			"bufferView":34,
			"componentType":5126,
			"count":64,
			"max":[
				0.27559781074523926,
				-0.3298260569572449,
				0.05570651963353157
			],
			"min":[
				0.2364673614501953,
				-0.37113040685653687,
				0.05570651963353157
			],
			"type":"VEC3"
		},
		{
			"bufferView":35,
			"componentType":5126,
			"count":64,
			"type":"VEC3"
		},
		{
			"bufferView":36,
			"componentType":5123,
			"count":96,
			"type":"SCALAR"
		},
		{
			"bufferView":37,
			"componentType":5126,
			"count":4,
			"max":[
				0.27559781074523926,
				-0.3624347448348999,
				0.05570651963353157
			],
			"min":[
				0.26907604932785034,
				-0.37656518816947937,
				0.05570651963353157
			],
			"type":"VEC3"
		},
		{
			"bufferView":38,
			"componentType":5126,
			"count":4,
			"type":"VEC3"
		}
	],
	"bufferViews":[
		{
			"buffer":0,
			"byteLength":3696,
			"byteOffset":0,
			"target":34962
		},
		{
			"buffer":0,
			"byteLength":3696,
			"byteOffset":3696,
			"target":34962
		},
		{
			"buffer":0,
			"byteLength":1500,
			"byteOffset":7392,
			"target":34963
		},
		{
			"buffer":0,
			"byteLength":288,
			"byteOffset":8892,
			"target":34962
		},
		{
			"buffer":0,
			"byteLength":288,
			"byteOffset":9180,
			"target":34962
		},
		{
			"buffer":0,
			"byteLength":72,
			"byteOffset":9468,
			"target":34963
		},
		{
			"buffer":0,
			"byteLength":288,
			"byteOffset":9540,
			"target":34962
		},
		{
			"buffer":0,
			"byteLength":288,
			"byteOffset":9828,
			"target":34962
		},
		{
			"buffer":0,
			"byteLength":72,
			"byteOffset":10116,
			"target":34963
		},
		{
			"buffer":0,
			"byteLength":240,
			"byteOffset":10188,
			"target":34962
		},
		{
			"buffer":0,
			"byteLength":240,
			"byteOffset":10428,
			"target":34962
		},
		{
			"buffer":0,
			"byteLength":60,
			"byteOffset":10668,
			"target":34963
		},
		{
			"buffer":0,
			"byteLength":48,
			"byteOffset":10728,
			"target":34962
		},
		{
			"buffer":0,
			"byteLength":48,
			"byteOffset":10776,
			"target":34962
		},
		{
			"buffer":0,
			"byteLength":12,
			"byteOffset":10824,
			"target":34963
		},
		{
			"buffer":0,
			"byteLength":5772,
			"byteOffset":10836,
			"target":34962
		},
		{
			"buffer":0,
			"byteLength":5772,
			"byteOffset":16608,
			"target":34962
		},
		{
			"buffer":0,
			"byteLength":2778,
			"byteOffset":22380,
			"target":34963
		},
		{
			"buffer":0,
			"byteLength":288,
			"byteOffset":25160,
			"target":34962
		},
		{
			"buffer":0,
			"byteLength":288,
			"byteOffset":25448,
			"target":34962
		},
		{
			"buffer":0,
			"byteLength":72,
			"byteOffset":25736,
			"target":34963
		},
		{
			"buffer":0,
			"byteLength":468,
			"byteOffset":25808,
			"target":34962
		},
		{
			"buffer":0,
			"byteLength":468,
			"byteOffset":26276,
			"target":34962
		},
		{
			"buffer":0,
			"byteLength":126,
			"byteOffset":26744,
			"target":34963
		},
		{
			"buffer":0,
			"byteLength":48,
			"byteOffset":26872,
			"target":34962
		},
		{
			"buffer":0,
			"byteLength":48,
			"byteOffset":26920,
			"target":34962
		},
		{
			"buffer":0,
			"byteLength":10476,
			"byteOffset":26968,
			"target":34962
		},
		{
			"buffer":0,
			"byteLength":10476,
			"byteOffset":37444,
			"target":34962
		},
		{
			"buffer":0,
			"byteLength":5652,
			"byteOffset":47920,
			"target":34963
		},
		{
			"buffer":0,
			"byteLength":288,
			"byteOffset":53572,
			"target":34962
		},
		{
			"buffer":0,
			"byteLength":288,
			"byteOffset":53860,
			"target":34962
		},
		{
			"buffer":0,
			"byteLength":288,
			"byteOffset":54148,
			"target":34962
		},
		{
			"buffer":0,
			"byteLength":288,
			"byteOffset":54436,
			"target":34962
		},
		{
			"buffer":0,
			"byteLength":72,
			"byteOffset":54724,
			"target":34963
		},
		{
			"buffer":0,
			"byteLength":768,
			"byteOffset":54796,
			"target":34962
		},
		{
			"buffer":0,
			"byteLength":768,
			"byteOffset":55564,
			"target":34962
		},
		{
			"buffer":0,
			"byteLength":192,
			"byteOffset":56332,
			"target":34963
		},
		{
			"buffer":0,
			"byteLength":48,
			"byteOffset":56524,
			"target":34962
		},
		{
			"buffer":0,
			"byteLength":48,
			"byteOffset":56572,
			"target":34962
		}
	],
	"buffers":[
		{
			"byteLength":56620,
			"uri":"BinaGrup9.bin"
		}
	]
}
