{
	"asset":{
		"generator":"Khronos glTF Blender I/O v4.2.60",
		"version":"2.0"
	},
	"scene":0,
	"scenes":[
		{
			"name":"Scene",
			"nodes":[
				0,
				1,
				2,
				3,
				4,
				5,
				6,
				7,
				8,
				9,
				10,
				11,
				12,
				13,
				14
			]
		}
	],
	"nodes":[
		{
			"mesh":0,
			"name":"Building_026.003"
		},
		{
			"mesh":1,
			"name":"Building_026_RoofCap_0.001"
		},
		{
			"mesh":2,
			"name":"Building_026_RoofCap_1.001"
		},
		{
			"mesh":3,
			"name":"Building_026.005"
		},
		{
			"mesh":4,
			"name":"Building_026.004"
		},
		{
			"mesh":5,
			"name":"Building_034.003"
		},
		{
			"mesh":6,
			"name":"Building_034_RoofCap_0.001"
		},
		{
			"mesh":7,
			"name":"Building_034_RoofCap_1.001"
		},
		{
			"mesh":8,
			"name":"Building_034.005"
		},
		{
			"mesh":9,
			"name":"Building_034.004"
		},
		{
			"mesh":10,
			"name":"Building_059.003"
		},
		{
			"mesh":11,
			"name":"Building_059_RoofCap_0.001"
		},
		{
			"mesh":12,
			"name":"Building_059_RoofCap_1.001"
		},
		{
			"mesh":13,
			"name":"Building_059.005"
		},
		{
			"mesh":14,
			"name":"Building_059.004"
		}
	],
	"materials":[
		{
			"doubleSided":true,
			"name":"BinaSolar",
			"pbrMetallicRoughness":{
				"baseColorFactor":[
					0.4451989233493805,
					0.006995364557951689,
					0.002428226638585329,
					1
				],
				"metallicFactor":0,
				"roughnessFactor":0.699999988079071
			}
		},
		{
			"doubleSided":true,
			"name":"Mat_Roof_Cap",
			"pbrMetallicRoughness":{
				"baseColorFactor":[
					0.9822452664375305,
					0.38132646679878235,
					0.0030353753827512264,
					1
				],
				"metallicFactor":0,
				"roughnessFactor":0.699999988079071
			}
		},
		{
			"doubleSided":true,
			"name":"PencereSolarKapal\u0131",
			"pbrMetallicRoughness":{
				"baseColorFactor":[
					0.2122296690940857,
					0.0009105561766773462,
					0,
					1
				],
				"metallicFactor":0,
				"roughnessFactor":0.699999988079071
			}
		}
	],
	"meshes":[
		{
			"name":"Building_026_Mesh.003",
			"primitives":[
				{
					"attributes":{
						"POSITION":0,
						"NORMAL":1
					},
					"indices":2,
					"material":0
				}
			]
		},
		{
			"name":"Building_026_RoofCap_0_Mesh.001",
			"primitives":[
				{
					"attributes":{
						"POSITION":3,
						"NORMAL":4
					},
					"indices":5,
					"material":1
				}
			]
		},
		{
			"name":"Building_026_RoofCap_1_Mesh.001",
			"primitives":[
				{
					"attributes":{
						"POSITION":6,
						"NORMAL":7
					},
					"indices":8,
					"material":1
				}
			]
		},
		{
			"name":"Building_026_Mesh.005",
			"primitives":[
				{
					"attributes":{
						"POSITION":9,
						"NORMAL":10
					},
					"indices":11,
					"material":2
				}
			]
		},
		{
			"name":"Building_026_Mesh.004",
			"primitives":[
				{
					"attributes":{
						"POSITION":12,
						"NORMAL":13
					},
					"indices":14,
					"material":2
				}
			]
		},
		{
			"name":"Building_034_Mesh.003",
			"primitives":[
				{
					"attributes":{
						"POSITION":15,
						"NORMAL":16
					},
					"indices":17,
					"material":0
				}
			]
		},
		{
			"name":"Building_034_RoofCap_0_Mesh.001",
			"primitives":[
				{
					"attributes":{
						"POSITION":18,
						"NORMAL":19
					},
					"indices":20,
					"material":1
				}
			]
		},
		{
			"name":"Building_034_RoofCap_1_Mesh.001",
			"primitives":[
				{
					"attributes":{
						"POSITION":21,
						"NORMAL":22
					},
					"indices":23,
					"material":1
				}
			]
		},
		{
			"name":"Building_034_Mesh.005",
			"primitives":[
				{
					"attributes":{
						"POSITION":24,
						"NORMAL":25
					},
					"indices":26,
					"material":2
				}
			]
		},
		{
			"name":"Building_034_Mesh.004",
			"primitives":[
				{
					"attributes":{
						"POSITION":27,
						"NORMAL":28
					},
					"indices":14,
					"material":2
				}
			]
		},
		{
			"name":"Building_059_Mesh.003",
			"primitives":[
				{
					"attributes":{
						"POSITION":29,
						"NORMAL":30
					},
					"indices":31,
					"material":0
				}
			]
		},
		{
			"name":"Building_059_RoofCap_0_Mesh.001",
			"primitives":[
				{
					"attributes":{
						"POSITION":32,
						"NORMAL":33
					},
					"indices":34,
					"material":1
				}
			]
		},
		{
			"name":"Building_059_RoofCap_1_Mesh.001",
			"primitives":[
				{
					"attributes":{
						"POSITION":35,
						"NORMAL":36
					},
					"indices":37,
					"material":1
				}
			]
		},
		{
			"name":"Building_059_Mesh.005",
			"primitives":[
				{
					"attributes":{
						"POSITION":38,
						"NORMAL":39
					},
					"indices":40,
					"material":2
				}
			]
		},
		{
			"name":"Building_059_Mesh.004",
			"primitives":[
				{
					"attributes":{
						"POSITION":41,
						"NORMAL":42
					},
					"indices":14,
					"material":2
				}
			]
		}
	],
	"accessors":[
		{
			"bufferView":0,
			"componentType":5126,
			"count":308,
			"max":[
				-0.184184730052948,
				-0.3309130072593689,
				0.0470108762383461
			],
			"min":[
				-0.21679341793060303,
				-0.37656518816947937,
				-0.007336955517530441
			],
			"type":"VEC3"
		},
		{
			"bufferView":1,
			"componentType":5126,
			"count":308,
			"type":"VEC3"
		},
		{
			"bufferView":2,
			"componentType":5123,
			"count":750,
			"type":"SCALAR"
		},
		{
			"bufferView":3,
			"componentType":5126,
			"count":24,
			"max":[
				-0.19116313755512238,
				-0.3313642740249634,
				0.03952125087380409
			],
			"min":[
				-0.21072836220264435,
				-0.33691298961639404,
				0.027989130467176437
			],
			"type":"VEC3"
		},
		{
			"bufferView":4,
			"componentType":5126,
			"count":24,
			"type":"VEC3"
		},
		{
			"bufferView":5,
			"componentType":5123,
			"count":36,
			"type":"SCALAR"
		},
		{
			"bufferView":6,
			"componentType":5126,
			"count":24,
			"max":[
				-0.19374871253967285,
				-0.3295381963253021,
				0.01711956597864628
			],
			"min":[
				-0.2067921906709671,
				-0.3385652005672455,
				-0.005282120779156685
			],
			"type":"VEC3"
		},
		{
			"bufferView":7,
			"componentType":5126,
			"count":24,
			"type":"VEC3"
		},
		{
			"bufferView":8,
			"componentType":5123,
			"count":36,
			"type":"SCALAR"
		},
		{
			"bufferView":9,
			"componentType":5126,
			"count":20,
			"max":[
				-0.1896195262670517,
				-0.3461304306983948,
				0.04483695700764656
			],
			"min":[
				-0.21135865151882172,
				-0.37113040685653687,
				0.04483695700764656
			],
			"type":"VEC3"
		},
		{
			"bufferView":10,
			"componentType":5126,
			"count":20,
			"type":"VEC3"
		},
		{
			"bufferView":11,
			"componentType":5123,
			"count":30,
			"type":"SCALAR"
		},
		{
			"bufferView":12,
			"componentType":5126,
			"count":4,
			"max":[
				-0.20266298949718475,
				-0.3624347448348999,
				0.04483695700764656
			],
			"min":[
				-0.21135863661766052,
				-0.37656518816947937,
				0.04483695700764656
			],
			"type":"VEC3"
		},
		{
			"bufferView":13,
			"componentType":5126,
			"count":4,
			"type":"VEC3"
		},
		{
			"bufferView":14,
			"componentType":5123,
			"count":6,
			"type":"SCALAR"
		},
		{
			"bufferView":15,
			"componentType":5126,
			"count":722,
			"max":[
				-0.10809776186943054,
				-0.39613041281700134,
				0.0470108687877655
			],
			"min":[
				-0.14070644974708557,
				-0.47439128160476685,
				-0.007336955517530441
			],
			"type":"VEC3"
		},
		{
			"bufferView":16,
			"componentType":5126,
			"count":722,
			"type":"VEC3"
		},
		{
			"bufferView":17,
			"componentType":5123,
			"count":2286,
			"type":"SCALAR"
		},
		{
			"bufferView":18,
			"componentType":5126,
			"count":24,
			"max":[
				-0.11000931262969971,
				-0.39475560188293457,
				0.0449560321867466
			],
			"min":[
				-0.12957453727722168,
				-0.40378257632255554,
				0.022554347291588783
			],
			"type":"VEC3"
		},
		{
			"bufferView":19,
			"componentType":5126,
			"count":24,
			"type":"VEC3"
		},
		{
			"bufferView":20,
			"componentType":5123,
			"count":36,
			"type":"SCALAR"
		},
		{
			"bufferView":21,
			"componentType":5126,
			"count":24,
			"max":[
				-0.11412099003791809,
				-0.395668625831604,
				0.014402173459529877
			],
			"min":[
				-0.13368621468544006,
				-0.402956485748291,
				-0.0025647287257015705
			],
			"type":"VEC3"
		},
		{
			"bufferView":22,
			"componentType":5126,
			"count":24,
			"type":"VEC3"
		},
		{
			"bufferView":23,
			"componentType":5123,
			"count":36,
			"type":"SCALAR"
		},
		{
			"bufferView":24,
			"componentType":5126,
			"count":48,
			"max":[
				-0.11353257298469543,
				-0.41134780645370483,
				0.04483695700764656
			],
			"min":[
				-0.13527172803878784,
				-0.4711304008960724,
				0.04483695700764656
			],
			"type":"VEC3"
		},
		{
			"bufferView":25,
			"componentType":5126,
			"count":48,
			"type":"VEC3"
		},
		{
			"bufferView":26,
			"componentType":5123,
			"count":72,
			"type":"SCALAR"
		},
		{
			"bufferView":27,
			"componentType":5126,
			"count":4,
			"max":[
				-0.1265760362148285,
				-0.4602608382701874,
				0.04483695700764656
			],
			"min":[
				-0.13527172803878784,
				-0.47439128160476685,
				0.04483695700764656
			],
			"type":"VEC3"
		},
		{
			"bufferView":28,
			"componentType":5126,
			"count":4,
			"type":"VEC3"
		},
		{
			"bufferView":29,
			"componentType":5126,
			"count":889,
			"max":[
				0.2044021487236023,
				-0.11895650625228882,
				0.047010865062475204
			],
			"min":[
				0.15548914670944214,
				-0.18091300129890442,
				-0.007336955517530441
			],
			"type":"VEC3"
		},
		{
			"bufferView":30,
			"componentType":5126,
			"count":889,
			"type":"VEC3"
		},
		{
			"bufferView":31,
			"componentType":5123,
			"count":2826,
			"type":"SCALAR"
		},
		{
			"bufferView":32,
			"componentType":5126,
			"count":24,
			"max":[
				0.19435524940490723,
				-0.11849471926689148,
				0.042238641530275345
			],
			"min":[
				0.17479002475738525,
				-0.12578260898590088,
				0.025271739810705185
			],
			"type":"VEC3"
		},
		{
			"bufferView":33,
			"componentType":5126,
			"count":24,
			"type":"VEC3"
		},
		{
			"bufferView":34,
			"componentType":5123,
			"count":36,
			"type":"SCALAR"
		},
		{
			"bufferView":35,
			"componentType":5126,
			"count":24,
			"max":[
				0.18589746952056885,
				-0.11758166551589966,
				0.01711956597864628
			],
			"min":[
				0.15654969215393066,
				-0.12660863995552063,
				-0.005282120779156685
			],
			"type":"VEC3"
		},
		{
			"bufferView":36,
			"componentType":5126,
			"count":24,
			"type":"VEC3"
		},
		{
			"bufferView":37,
			"componentType":5123,
			"count":36,
			"type":"SCALAR"
		},
		{
			"bufferView":38,
			"componentType":5126,
			"count":64,
			"max":[
				0.1995108723640442,
				-0.13417387008666992,
				0.04483695700764656
			],
			"min":[
				0.16038042306900024,
				-0.1754782497882843,
				0.04483695700764656
			],
			"type":"VEC3"
		},
		{
			"bufferView":39,
			"componentType":5126,
			"count":64,
			"type":"VEC3"
		},
		{
			"bufferView":40,
			"componentType":5123,
			"count":96,
			"type":"SCALAR"
		},
		{
			"bufferView":41,
			"componentType":5126,
			"count":4,
			"max":[
				0.1995108723640442,
				-0.16678255796432495,
				0.04483695700764656
			],
			"min":[
				0.19298911094665527,
				-0.18091300129890442,
				0.04483695700764656
			],
			"type":"VEC3"
		},
		{
			"bufferView":42,
			"componentType":5126,
			"count":4,
			"type":"VEC3"
		}
	],
	"bufferViews":[
		{
			"buffer":0,
			"byteLength":3696,
			"byteOffset":0,
			"target":34962
		},
		{
			"buffer":0,
			"byteLength":3696,
			"byteOffset":3696,
			"target":34962
		},
		{
			"buffer":0,
			"byteLength":1500,
			"byteOffset":7392,
			"target":34963
		},
		{
			"buffer":0,
			"byteLength":288,
			"byteOffset":8892,
			"target":34962
		},
		{
			"buffer":0,
			"byteLength":288,
			"byteOffset":9180,
			"target":34962
		},
		{
			"buffer":0,
			"byteLength":72,
			"byteOffset":9468,
			"target":34963
		},
		{
			"buffer":0,
			"byteLength":288,
			"byteOffset":9540,
			"target":34962
		},
		{
			"buffer":0,
			"byteLength":288,
			"byteOffset":9828,
			"target":34962
		},
		{
			"buffer":0,
			"byteLength":72,
			"byteOffset":10116,
			"target":34963
		},
		{
			"buffer":0,
			"byteLength":240,
			"byteOffset":10188,
			"target":34962
		},
		{
			"buffer":0,
			"byteLength":240,
			"byteOffset":10428,
			"target":34962
		},
		{
			"buffer":0,
			"byteLength":60,
			"byteOffset":10668,
			"target":34963
		},
		{
			"buffer":0,
			"byteLength":48,
			"byteOffset":10728,
			"target":34962
		},
		{
			"buffer":0,
			"byteLength":48,
			"byteOffset":10776,
			"target":34962
		},
		{
			"buffer":0,
			"byteLength":12,
			"byteOffset":10824,
			"target":34963
		},
		{
			"buffer":0,
			"byteLength":8664,
			"byteOffset":10836,
			"target":34962
		},
		{
			"buffer":0,
			"byteLength":8664,
			"byteOffset":19500,
			"target":34962
		},
		{
			"buffer":0,
			"byteLength":4572,
			"byteOffset":28164,
			"target":34963
		},
		{
			"buffer":0,
			"byteLength":288,
			"byteOffset":32736,
			"target":34962
		},
		{
			"buffer":0,
			"byteLength":288,
			"byteOffset":33024,
			"target":34962
		},
		{
			"buffer":0,
			"byteLength":72,
			"byteOffset":33312,
			"target":34963
		},
		{
			"buffer":0,
			"byteLength":288,
			"byteOffset":33384,
			"target":34962
		},
		{
			"buffer":0,
			"byteLength":288,
			"byteOffset":33672,
			"target":34962
		},
		{
			"buffer":0,
			"byteLength":72,
			"byteOffset":33960,
			"target":34963
		},
		{
			"buffer":0,
			"byteLength":576,
			"byteOffset":34032,
			"target":34962
		},
		{
			"buffer":0,
			"byteLength":576,
			"byteOffset":34608,
			"target":34962
		},
		{
			"buffer":0,
			"byteLength":144,
			"byteOffset":35184,
			"target":34963
		},
		{
			"buffer":0,
			"byteLength":48,
			"byteOffset":35328,
			"target":34962
		},
		{
			"buffer":0,
			"byteLength":48,
			"byteOffset":35376,
			"target":34962
		},
		{
			"buffer":0,
			"byteLength":10668,
			"byteOffset":35424,
			"target":34962
		},
		{
			"buffer":0,
			"byteLength":10668,
			"byteOffset":46092,
			"target":34962
		},
		{
			"buffer":0,
			"byteLength":5652,
			"byteOffset":56760,
			"target":34963
		},
		{
			"buffer":0,
			"byteLength":288,
			"byteOffset":62412,
			"target":34962
		},
		{
			"buffer":0,
			"byteLength":288,
			"byteOffset":62700,
			"target":34962
		},
		{
			"buffer":0,
			"byteLength":72,
			"byteOffset":62988,
			"target":34963
		},
		{
			"buffer":0,
			"byteLength":288,
			"byteOffset":63060,
			"target":34962
		},
		{
			"buffer":0,
			"byteLength":288,
			"byteOffset":63348,
			"target":34962
		},
		{
			"buffer":0,
			"byteLength":72,
			"byteOffset":63636,
			"target":34963
		},
		{
			"buffer":0,
			"byteLength":768,
			"byteOffset":63708,
			"target":34962
		},
		{
			"buffer":0,
			"byteLength":768,
			"byteOffset":64476,
			"target":34962
		},
		{
			"buffer":0,
			"byteLength":192,
			"byteOffset":65244,
			"target":34963
		},
		{
			"buffer":0,
			"byteLength":48,
			"byteOffset":65436,
			"target":34962
		},
		{
			"buffer":0,
			"byteLength":48,
			"byteOffset":65484,
			"target":34962
		}
	],
	"buffers":[
		{
			"byteLength":65532,
			"uri":"BinaGrup16.bin"
		}
	]
}
