{
	"asset":{
		"generator":"Khronos glTF Blender I/O v4.2.60",
		"version":"2.0"
	},
	"scene":0,
	"scenes":[
		{
			"name":"Scene",
			"nodes":[
				0,
				1,
				2,
				3,
				4,
				5,
				6,
				7,
				8,
				9,
				10,
				11,
				12,
				13
			]
		}
	],
	"nodes":[
		{
			"mesh":0,
			"name":"Building_031.003"
		},
		{
			"mesh":1,
			"name":"Building_031_RoofCap_0.001"
		},
		{
			"mesh":2,
			"name":"Building_031.005"
		},
		{
			"mesh":3,
			"name":"Building_031.004"
		},
		{
			"mesh":4,
			"name":"Building_042.003"
		},
		{
			"mesh":5,
			"name":"Building_042_RoofCap_0.001"
		},
		{
			"mesh":6,
			"name":"Building_042_RoofCap_1.001"
		},
		{
			"mesh":7,
			"name":"Building_042.005"
		},
		{
			"mesh":8,
			"name":"Building_042.004"
		},
		{
			"mesh":9,
			"name":"Building_051.003"
		},
		{
			"mesh":10,
			"name":"Building_051_RoofCap_0.001"
		},
		{
			"mesh":11,
			"name":"Building_051_RoofCap_1.001"
		},
		{
			"mesh":12,
			"name":"Building_051.005"
		},
		{
			"mesh":13,
			"name":"Building_051.004"
		}
	],
	"materials":[
		{
			"doubleSided":true,
			"name":"BinaSolar",
			"pbrMetallicRoughness":{
				"baseColorFactor":[
					0.4451989233493805,
					0.006995364557951689,
					0.002428226638585329,
					1
				],
				"metallicFactor":0,
				"roughnessFactor":0.699999988079071
			}
		},
		{
			"doubleSided":true,
			"name":"Mat_Roof_Cap",
			"pbrMetallicRoughness":{
				"baseColorFactor":[
					0.9822452664375305,
					0.38132646679878235,
					0.0030353753827512264,
					1
				],
				"metallicFactor":0,
				"roughnessFactor":0.699999988079071
			}
		},
		{
			"doubleSided":true,
			"name":"PencereSolarKapal\u0131",
			"pbrMetallicRoughness":{
				"baseColorFactor":[
					0.2122296690940857,
					0.0009105561766773462,
					0,
					1
				],
				"metallicFactor":0,
				"roughnessFactor":0.699999988079071
			}
		}
	],
	"meshes":[
		{
			"name":"Building_031_Mesh.003",
			"primitives":[
				{
					"attributes":{
						"POSITION":0,
						"NORMAL":1
					},
					"indices":2,
					"material":0
				}
			]
		},
		{
			"name":"Building_031_RoofCap_0_Mesh.001",
			"primitives":[
				{
					"attributes":{
						"POSITION":3,
						"NORMAL":4
					},
					"indices":5,
					"material":1
				}
			]
		},
		{
			"name":"Building_031_Mesh.005",
			"primitives":[
				{
					"attributes":{
						"POSITION":6,
						"NORMAL":7
					},
					"indices":8,
					"material":2
				}
			]
		},
		{
			"name":"Building_031_Mesh.004",
			"primitives":[
				{
					"attributes":{
						"POSITION":9,
						"NORMAL":10
					},
					"indices":11,
					"material":2
				}
			]
		},
		{
			"name":"Building_042_Mesh.003",
			"primitives":[
				{
					"attributes":{
						"POSITION":12,
						"NORMAL":13
					},
					"indices":14,
					"material":0
				}
			]
		},
		{
			"name":"Building_042_RoofCap_0_Mesh.001",
			"primitives":[
				{
					"attributes":{
						"POSITION":15,
						"NORMAL":16
					},
					"indices":5,
					"material":1
				}
			]
		},
		{
			"name":"Building_042_RoofCap_1_Mesh.001",
			"primitives":[
				{
					"attributes":{
						"POSITION":17,
						"NORMAL":18
					},
					"indices":19,
					"material":1
				}
			]
		},
		{
			"name":"Building_042_Mesh.005",
			"primitives":[
				{
					"attributes":{
						"POSITION":20,
						"NORMAL":21
					},
					"indices":8,
					"material":2
				}
			]
		},
		{
			"name":"Building_042_Mesh.004",
			"primitives":[
				{
					"attributes":{
						"POSITION":22,
						"NORMAL":23
					},
					"indices":11,
					"material":2
				}
			]
		},
		{
			"name":"Building_051_Mesh.003",
			"primitives":[
				{
					"attributes":{
						"POSITION":24,
						"NORMAL":25
					},
					"indices":26,
					"material":0
				}
			]
		},
		{
			"name":"Building_051_RoofCap_0_Mesh.001",
			"primitives":[
				{
					"attributes":{
						"POSITION":27,
						"NORMAL":28
					},
					"indices":5,
					"material":1
				}
			]
		},
		{
			"name":"Building_051_RoofCap_1_Mesh.001",
			"primitives":[
				{
					"attributes":{
						"POSITION":29,
						"NORMAL":30
					},
					"indices":31,
					"material":1
				}
			]
		},
		{
			"name":"Building_051_Mesh.005",
			"primitives":[
				{
					"attributes":{
						"POSITION":32,
						"NORMAL":33
					},
					"indices":34,
					"material":2
				}
			]
		},
		{
			"name":"Building_051_Mesh.004",
			"primitives":[
				{
					"attributes":{
						"POSITION":35,
						"NORMAL":36
					},
					"indices":11,
					"material":2
				}
			]
		}
	],
	"accessors":[
		{
			"bufferView":0,
			"componentType":5126,
			"count":495,
			"max":[
				-0.09994563460350037,
				-0.1439564824104309,
				0.036141302436590195
			],
			"min":[
				-0.1488586664199829,
				-0.18091300129890442,
				-0.007336955517530441
			],
			"type":"VEC3"
		},
		{
			"bufferView":1,
			"componentType":5126,
			"count":495,
			"type":"VEC3"
		},
		{
			"bufferView":2,
			"componentType":5123,
			"count":1422,
			"type":"SCALAR"
		},
		{
			"bufferView":3,
			"componentType":5126,
			"count":24,
			"max":[
				-0.10480216145515442,
				-0.1383572816848755,
				0.03199639171361923
			],
			"min":[
				-0.134149968624115,
				-0.1437825858592987,
				-0.002989131025969982
			],
			"type":"VEC3"
		},
		{
			"bufferView":4,
			"componentType":5126,
			"count":24,
			"type":"VEC3"
		},
		{
			"bufferView":5,
			"componentType":5123,
			"count":36,
			"type":"SCALAR"
		},
		{
			"bufferView":6,
			"componentType":5126,
			"count":28,
			"max":[
				-0.10483691096305847,
				-0.15047824382781982,
				0.033967386931180954
			],
			"min":[
				-0.14396736025810242,
				-0.17765215039253235,
				0.033967386931180954
			],
			"type":"VEC3"
		},
		{
			"bufferView":7,
			"componentType":5126,
			"count":28,
			"type":"VEC3"
		},
		{
			"bufferView":8,
			"componentType":5123,
			"count":42,
			"type":"SCALAR"
		},
		{
			"bufferView":9,
			"componentType":5126,
			"count":4,
			"max":[
				-0.11570650339126587,
				-0.16678255796432495,
				0.03396739065647125
			],
			"min":[
				-0.13309776782989502,
				-0.18091300129890442,
				0.03396739065647125
			],
			"type":"VEC3"
		},
		{
			"bufferView":10,
			"componentType":5126,
			"count":4,
			"type":"VEC3"
		},
		{
			"bufferView":11,
			"componentType":5123,
			"count":6,
			"type":"SCALAR"
		},
		{
			"bufferView":12,
			"componentType":5126,
			"count":515,
			"max":[
				0.052228301763534546,
				0.16039139032363892,
				0.047010865062475204
			],
			"min":[
				0.003315269947052002,
				0.11256527900695801,
				-0.007336959708482027
			],
			"type":"VEC3"
		},
		{
			"bufferView":13,
			"componentType":5126,
			"count":515,
			"type":"VEC3"
		},
		{
			"bufferView":14,
			"componentType":5123,
			"count":1434,
			"type":"SCALAR"
		},
		{
			"bufferView":15,
			"componentType":5126,
			"count":24,
			"max":[
				0.04471355676651001,
				0.16036629676818848,
				0.042383454740047455
			],
			"min":[
				0.01536571979522705,
				0.1518261432647705,
				0.025271739810705185
			],
			"type":"VEC3"
		},
		{
			"bufferView":16,
			"componentType":5126,
			"count":24,
			"type":"VEC3"
		},
		{
			"bufferView":17,
			"componentType":5126,
			"count":24,
			"max":[
				0.04175841808319092,
				0.16036629676818848,
				0.014402173459529877
			],
			"min":[
				0.012410581111907959,
				0.1518261432647705,
				-0.002709545660763979
			],
			"type":"VEC3"
		},
		{
			"bufferView":18,
			"componentType":5126,
			"count":24,
			"type":"VEC3"
		},
		{
			"bufferView":19,
			"componentType":5123,
			"count":36,
			"type":"SCALAR"
		},
		{
			"bufferView":20,
			"componentType":5126,
			"count":28,
			"max":[
				0.04733699560165405,
				0.14300000667572021,
				0.04483695700764656
			],
			"min":[
				0.008206546306610107,
				0.11582612991333008,
				0.04483695700764656
			],
			"type":"VEC3"
		},
		{
			"bufferView":21,
			"componentType":5126,
			"count":28,
			"type":"VEC3"
		},
		{
			"bufferView":22,
			"componentType":5126,
			"count":4,
			"max":[
				0.036467403173446655,
				0.1266956925392151,
				0.04483695700764656
			],
			"min":[
				0.019076138734817505,
				0.11256527900695801,
				0.04483695700764656
			],
			"type":"VEC3"
		},
		{
			"bufferView":23,
			"componentType":5126,
			"count":4,
			"type":"VEC3"
		},
		{
			"bufferView":24,
			"componentType":5126,
			"count":879,
			"max":[
				0.128315269947052,
				-0.02330431342124939,
				0.047010865062475204
			],
			"min":[
				0.07940226793289185,
				-0.08308693766593933,
				-0.007336955517530441
			],
			"type":"VEC3"
		},
		{
			"bufferView":25,
			"componentType":5126,
			"count":879,
			"type":"VEC3"
		},
		{
			"bufferView":26,
			"componentType":5123,
			"count":2829,
			"type":"SCALAR"
		},
		{
			"bufferView":27,
			"componentType":5126,
			"count":24,
			"max":[
				0.12061280012130737,
				-0.021668672561645508,
				0.044800810515880585
			],
			"min":[
				0.09126496315002441,
				-0.02899998426437378,
				0.022554347291588783
			],
			"type":"VEC3"
		},
		{
			"bufferView":28,
			"componentType":5126,
			"count":24,
			"type":"VEC3"
		},
		{
			"bufferView":29,
			"componentType":5126,
			"count":24,
			"max":[
				0.12612098455429077,
				-0.023059993982315063,
				0.011684780940413475
			],
			"min":[
				0.08699053525924683,
				-0.027782559394836426,
				0.00030788546428084373
			],
			"type":"VEC3"
		},
		{
			"bufferView":30,
			"componentType":5126,
			"count":24,
			"type":"VEC3"
		},
		{
			"bufferView":31,
			"componentType":5123,
			"count":36,
			"type":"SCALAR"
		},
		{
			"bufferView":32,
			"componentType":5126,
			"count":63,
			"max":[
				0.12342393398284912,
				-0.036347776651382446,
				0.04483695700764656
			],
			"min":[
				0.08429354429244995,
				-0.07547822594642639,
				0.04483695700764656
			],
			"type":"VEC3"
		},
		{
			"bufferView":33,
			"componentType":5126,
			"count":63,
			"type":"VEC3"
		},
		{
			"bufferView":34,
			"componentType":5123,
			"count":93,
			"type":"SCALAR"
		},
		{
			"bufferView":35,
			"componentType":5126,
			"count":4,
			"max":[
				0.1234239935874939,
				-0.06895646452903748,
				0.04483695700764656
			],
			"min":[
				0.11690223217010498,
				-0.08308693766593933,
				0.04483695700764656
			],
			"type":"VEC3"
		},
		{
			"bufferView":36,
			"componentType":5126,
			"count":4,
			"type":"VEC3"
		}
	],
	"bufferViews":[
		{
			"buffer":0,
			"byteLength":5940,
			"byteOffset":0,
			"target":34962
		},
		{
			"buffer":0,
			"byteLength":5940,
			"byteOffset":5940,
			"target":34962
		},
		{
			"buffer":0,
			"byteLength":2844,
			"byteOffset":11880,
			"target":34963
		},
		{
			"buffer":0,
			"byteLength":288,
			"byteOffset":14724,
			"target":34962
		},
		{
			"buffer":0,
			"byteLength":288,
			"byteOffset":15012,
			"target":34962
		},
		{
			"buffer":0,
			"byteLength":72,
			"byteOffset":15300,
			"target":34963
		},
		{
			"buffer":0,
			"byteLength":336,
			"byteOffset":15372,
			"target":34962
		},
		{
			"buffer":0,
			"byteLength":336,
			"byteOffset":15708,
			"target":34962
		},
		{
			"buffer":0,
			"byteLength":84,
			"byteOffset":16044,
			"target":34963
		},
		{
			"buffer":0,
			"byteLength":48,
			"byteOffset":16128,
			"target":34962
		},
		{
			"buffer":0,
			"byteLength":48,
			"byteOffset":16176,
			"target":34962
		},
		{
			"buffer":0,
			"byteLength":12,
			"byteOffset":16224,
			"target":34963
		},
		{
			"buffer":0,
			"byteLength":6180,
			"byteOffset":16236,
			"target":34962
		},
		{
			"buffer":0,
			"byteLength":6180,
			"byteOffset":22416,
			"target":34962
		},
		{
			"buffer":0,
			"byteLength":2868,
			"byteOffset":28596,
			"target":34963
		},
		{
			"buffer":0,
			"byteLength":288,
			"byteOffset":31464,
			"target":34962
		},
		{
			"buffer":0,
			"byteLength":288,
			"byteOffset":31752,
			"target":34962
		},
		{
			"buffer":0,
			"byteLength":288,
			"byteOffset":32040,
			"target":34962
		},
		{
			"buffer":0,
			"byteLength":288,
			"byteOffset":32328,
			"target":34962
		},
		{
			"buffer":0,
			"byteLength":72,
			"byteOffset":32616,
			"target":34963
		},
		{
			"buffer":0,
			"byteLength":336,
			"byteOffset":32688,
			"target":34962
		},
		{
			"buffer":0,
			"byteLength":336,
			"byteOffset":33024,
			"target":34962
		},
		{
			"buffer":0,
			"byteLength":48,
			"byteOffset":33360,
			"target":34962
		},
		{
			"buffer":0,
			"byteLength":48,
			"byteOffset":33408,
			"target":34962
		},
		{
			"buffer":0,
			"byteLength":10548,
			"byteOffset":33456,
			"target":34962
		},
		{
			"buffer":0,
			"byteLength":10548,
			"byteOffset":44004,
			"target":34962
		},
		{
			"buffer":0,
			"byteLength":5658,
			"byteOffset":54552,
			"target":34963
		},
		{
			"buffer":0,
			"byteLength":288,
			"byteOffset":60212,
			"target":34962
		},
		{
			"buffer":0,
			"byteLength":288,
			"byteOffset":60500,
			"target":34962
		},
		{
			"buffer":0,
			"byteLength":288,
			"byteOffset":60788,
			"target":34962
		},
		{
			"buffer":0,
			"byteLength":288,
			"byteOffset":61076,
			"target":34962
		},
		{
			"buffer":0,
			"byteLength":72,
			"byteOffset":61364,
			"target":34963
		},
		{
			"buffer":0,
			"byteLength":756,
			"byteOffset":61436,
			"target":34962
		},
		{
			"buffer":0,
			"byteLength":756,
			"byteOffset":62192,
			"target":34962
		},
		{
			"buffer":0,
			"byteLength":186,
			"byteOffset":62948,
			"target":34963
		},
		{
			"buffer":0,
			"byteLength":48,
			"byteOffset":63136,
			"target":34962
		},
		{
			"buffer":0,
			"byteLength":48,
			"byteOffset":63184,
			"target":34962
		}
	],
	"buffers":[
		{
			"byteLength":63232,
			"uri":"BinaGrup3.bin"
		}
	]
}
