{
	"asset":{
		"generator":"Khronos glTF Blender I/O v4.2.60",
		"version":"2.0"
	},
	"scene":0,
	"scenes":[
		{
			"name":"Scene",
			"nodes":[
				0,
				1,
				2,
				3,
				4,
				5,
				6,
				7,
				8,
				9,
				10,
				11,
				12
			]
		}
	],
	"nodes":[
		{
			"mesh":0,
			"name":"Building_018.013"
		},
		{
			"mesh":1,
			"name":"Building_018_RoofCap_0.003"
		},
		{
			"mesh":2,
			"name":"Building_018.014"
		},
		{
			"mesh":3,
			"name":"Building_018.015"
		},
		{
			"mesh":4,
			"name":"Building_037.003"
		},
		{
			"mesh":5,
			"name":"Building_037_RoofCap_0.001"
		},
		{
			"mesh":6,
			"name":"Building_037_RoofCap_1.001"
		},
		{
			"mesh":7,
			"name":"Building_037.005"
		},
		{
			"mesh":8,
			"name":"Building_037.004"
		},
		{
			"mesh":9,
			"name":"Building_055.003"
		},
		{
			"mesh":10,
			"name":"Building_055_RoofCap_0.001"
		},
		{
			"mesh":11,
			"name":"Building_055.005"
		},
		{
			"mesh":12,
			"name":"Building_055.004"
		}
	],
	"materials":[
		{
			"doubleSided":true,
			"name":"BinaSolar",
			"pbrMetallicRoughness":{
				"baseColorFactor":[
					0.4451989233493805,
					0.006995364557951689,
					0.002428226638585329,
					1
				],
				"metallicFactor":0,
				"roughnessFactor":0.699999988079071
			}
		},
		{
			"doubleSided":true,
			"name":"Mat_Roof_Cap",
			"pbrMetallicRoughness":{
				"baseColorFactor":[
					0.9822452664375305,
					0.38132646679878235,
					0.0030353753827512264,
					1
				],
				"metallicFactor":0,
				"roughnessFactor":0.699999988079071
			}
		},
		{
			"doubleSided":true,
			"name":"PencereSolarKapal\u0131",
			"pbrMetallicRoughness":{
				"baseColorFactor":[
					0.2122296690940857,
					0.0009105561766773462,
					0,
					1
				],
				"metallicFactor":0,
				"roughnessFactor":0.699999988079071
			}
		}
	],
	"meshes":[
		{
			"name":"Building_018_Mesh.015",
			"primitives":[
				{
					"attributes":{
						"POSITION":0,
						"NORMAL":1
					},
					"indices":2,
					"material":0
				}
			]
		},
		{
			"name":"Building_018_RoofCap_0_Mesh.003",
			"primitives":[
				{
					"attributes":{
						"POSITION":3,
						"NORMAL":4
					},
					"indices":5,
					"material":1
				}
			]
		},
		{
			"name":"Building_018_Mesh.016",
			"primitives":[
				{
					"attributes":{
						"POSITION":6,
						"NORMAL":7
					},
					"indices":8,
					"material":2
				}
			]
		},
		{
			"name":"Building_018_Mesh.017",
			"primitives":[
				{
					"attributes":{
						"POSITION":9,
						"NORMAL":10
					},
					"indices":11,
					"material":2
				}
			]
		},
		{
			"name":"Building_037_Mesh.003",
			"primitives":[
				{
					"attributes":{
						"POSITION":12,
						"NORMAL":13
					},
					"indices":14,
					"material":0
				}
			]
		},
		{
			"name":"Building_037_RoofCap_0_Mesh.001",
			"primitives":[
				{
					"attributes":{
						"POSITION":15,
						"NORMAL":16
					},
					"indices":5,
					"material":1
				}
			]
		},
		{
			"name":"Building_037_RoofCap_1_Mesh.001",
			"primitives":[
				{
					"attributes":{
						"POSITION":17,
						"NORMAL":18
					},
					"indices":19,
					"material":1
				}
			]
		},
		{
			"name":"Building_037_Mesh.005",
			"primitives":[
				{
					"attributes":{
						"POSITION":20,
						"NORMAL":21
					},
					"indices":22,
					"material":2
				}
			]
		},
		{
			"name":"Building_037_Mesh.004",
			"primitives":[
				{
					"attributes":{
						"POSITION":23,
						"NORMAL":24
					},
					"indices":8,
					"material":2
				}
			]
		},
		{
			"name":"Building_055_Mesh.003",
			"primitives":[
				{
					"attributes":{
						"POSITION":25,
						"NORMAL":26
					},
					"indices":27,
					"material":0
				}
			]
		},
		{
			"name":"Building_055_RoofCap_0_Mesh.001",
			"primitives":[
				{
					"attributes":{
						"POSITION":28,
						"NORMAL":29
					},
					"indices":30,
					"material":1
				}
			]
		},
		{
			"name":"Building_055_Mesh.005",
			"primitives":[
				{
					"attributes":{
						"POSITION":31,
						"NORMAL":32
					},
					"indices":33,
					"material":2
				}
			]
		},
		{
			"name":"Building_055_Mesh.004",
			"primitives":[
				{
					"attributes":{
						"POSITION":34,
						"NORMAL":35
					},
					"indices":8,
					"material":2
				}
			]
		}
	],
	"accessors":[
		{
			"bufferView":0,
			"componentType":5126,
			"count":505,
			"max":[
				-0.2521194815635681,
				-0.24178257584571838,
				0.0470108762383461
			],
			"min":[
				-0.30103254318237305,
				-0.2787390947341919,
				-0.007336955517530441
			],
			"type":"VEC3"
		},
		{
			"bufferView":1,
			"componentType":5126,
			"count":505,
			"type":"VEC3"
		},
		{
			"bufferView":2,
			"componentType":5123,
			"count":1476,
			"type":"SCALAR"
		},
		{
			"bufferView":3,
			"componentType":5126,
			"count":24,
			"max":[
				-0.2565975785255432,
				-0.23617997765541077,
				0.04173867404460907
			],
			"min":[
				-0.28594541549682617,
				-0.241608664393425,
				-0.0019021760672330856
			],
			"type":"VEC3"
		},
		{
			"bufferView":4,
			"componentType":5126,
			"count":24,
			"type":"VEC3"
		},
		{
			"bufferView":5,
			"componentType":5123,
			"count":36,
			"type":"SCALAR"
		},
		{
			"bufferView":6,
			"componentType":5126,
			"count":4,
			"max":[
				-0.257010817527771,
				-0.2646086513996124,
				0.04483695700764656
			],
			"min":[
				-0.2635325491428375,
				-0.2787390947341919,
				0.04483695700764656
			],
			"type":"VEC3"
		},
		{
			"bufferView":7,
			"componentType":5126,
			"count":4,
			"type":"VEC3"
		},
		{
			"bufferView":8,
			"componentType":5123,
			"count":6,
			"type":"SCALAR"
		},
		{
			"bufferView":9,
			"componentType":5126,
			"count":32,
			"max":[
				-0.257010817527771,
				-0.2483043223619461,
				0.04483695700764656
			],
			"min":[
				-0.29614123702049255,
				-0.2754782438278198,
				0.04483695700764656
			],
			"type":"VEC3"
		},
		{
			"bufferView":10,
			"componentType":5126,
			"count":32,
			"type":"VEC3"
		},
		{
			"bufferView":11,
			"componentType":5123,
			"count":48,
			"type":"SCALAR"
		},
		{
			"bufferView":12,
			"componentType":5126,
			"count":1258,
			"max":[
				-0.02385866641998291,
				-0.004826068878173828,
				0.0470108762383461
			],
			"min":[
				-0.07277166843414307,
				-0.08308693766593933,
				-0.007336955517530441
			],
			"type":"VEC3"
		},
		{
			"bufferView":13,
			"componentType":5126,
			"count":1258,
			"type":"VEC3"
		},
		{
			"bufferView":14,
			"componentType":5123,
			"count":4458,
			"type":"SCALAR"
		},
		{
			"bufferView":15,
			"componentType":5126,
			"count":24,
			"max":[
				-0.03848811984062195,
				-0.003451228141784668,
				0.0449560321867466
			],
			"min":[
				-0.06783595681190491,
				-0.012478232383728027,
				0.022554347291588783
			],
			"type":"VEC3"
		},
		{
			"bufferView":16,
			"componentType":5126,
			"count":24,
			"type":"VEC3"
		},
		{
			"bufferView":17,
			"componentType":5126,
			"count":24,
			"max":[
				-0.03122425079345703,
				-0.003451228141784668,
				0.01711956597864628
			],
			"min":[
				-0.050789475440979004,
				-0.012478232383728027,
				-0.005282120779156685
			],
			"type":"VEC3"
		},
		{
			"bufferView":18,
			"componentType":5126,
			"count":24,
			"type":"VEC3"
		},
		{
			"bufferView":19,
			"componentType":5123,
			"count":36,
			"type":"SCALAR"
		},
		{
			"bufferView":20,
			"componentType":5126,
			"count":60,
			"max":[
				-0.028749972581863403,
				-0.02004346251487732,
				0.04483695700764656
			],
			"min":[
				-0.06788039207458496,
				-0.07547822594642639,
				0.04483695700764656
			],
			"type":"VEC3"
		},
		{
			"bufferView":21,
			"componentType":5126,
			"count":60,
			"type":"VEC3"
		},
		{
			"bufferView":22,
			"componentType":5123,
			"count":90,
			"type":"SCALAR"
		},
		{
			"bufferView":23,
			"componentType":5126,
			"count":4,
			"max":[
				-0.06135866045951843,
				-0.06895646452903748,
				0.04483695700764656
			],
			"min":[
				-0.06788036227226257,
				-0.08308693766593933,
				0.04483695700764656
			],
			"type":"VEC3"
		},
		{
			"bufferView":24,
			"componentType":5126,
			"count":4,
			"type":"VEC3"
		},
		{
			"bufferView":25,
			"componentType":5126,
			"count":492,
			"max":[
				0.128315269947052,
				-0.43743476271629333,
				0.0470108687877655
			],
			"min":[
				0.07940226793289185,
				-0.47439128160476685,
				-0.007336955517530441
			],
			"type":"VEC3"
		},
		{
			"bufferView":26,
			"componentType":5126,
			"count":492,
			"type":"VEC3"
		},
		{
			"bufferView":27,
			"componentType":5123,
			"count":1422,
			"type":"SCALAR"
		},
		{
			"bufferView":28,
			"componentType":5126,
			"count":24,
			"max":[
				0.11854183673858643,
				-0.4319370687007904,
				0.031028997153043747
			],
			"min":[
				0.08919405937194824,
				-0.43734779953956604,
				0.008967390283942223
			],
			"type":"VEC3"
		},
		{
			"bufferView":29,
			"componentType":5126,
			"count":24,
			"type":"VEC3"
		},
		{
			"bufferView":30,
			"componentType":5123,
			"count":36,
			"type":"SCALAR"
		},
		{
			"bufferView":31,
			"componentType":5126,
			"count":30,
			"max":[
				0.1234239935874939,
				-0.44395649433135986,
				0.04483695700764656
			],
			"min":[
				0.08429354429244995,
				-0.4667825996875763,
				0.04483695700764656
			],
			"type":"VEC3"
		},
		{
			"bufferView":32,
			"componentType":5126,
			"count":30,
			"type":"VEC3"
		},
		{
			"bufferView":33,
			"componentType":5123,
			"count":48,
			"type":"SCALAR"
		},
		{
			"bufferView":34,
			"componentType":5126,
			"count":4,
			"max":[
				0.11255437135696411,
				-0.4602608382701874,
				0.04483695700764656
			],
			"min":[
				0.09516310691833496,
				-0.47439128160476685,
				0.04483695700764656
			],
			"type":"VEC3"
		},
		{
			"bufferView":35,
			"componentType":5126,
			"count":4,
			"type":"VEC3"
		}
	],
	"bufferViews":[
		{
			"buffer":0,
			"byteLength":6060,
			"byteOffset":0,
			"target":34962
		},
		{
			"buffer":0,
			"byteLength":6060,
			"byteOffset":6060,
			"target":34962
		},
		{
			"buffer":0,
			"byteLength":2952,
			"byteOffset":12120,
			"target":34963
		},
		{
			"buffer":0,
			"byteLength":288,
			"byteOffset":15072,
			"target":34962
		},
		{
			"buffer":0,
			"byteLength":288,
			"byteOffset":15360,
			"target":34962
		},
		{
			"buffer":0,
			"byteLength":72,
			"byteOffset":15648,
			"target":34963
		},
		{
			"buffer":0,
			"byteLength":48,
			"byteOffset":15720,
			"target":34962
		},
		{
			"buffer":0,
			"byteLength":48,
			"byteOffset":15768,
			"target":34962
		},
		{
			"buffer":0,
			"byteLength":12,
			"byteOffset":15816,
			"target":34963
		},
		{
			"buffer":0,
			"byteLength":384,
			"byteOffset":15828,
			"target":34962
		},
		{
			"buffer":0,
			"byteLength":384,
			"byteOffset":16212,
			"target":34962
		},
		{
			"buffer":0,
			"byteLength":96,
			"byteOffset":16596,
			"target":34963
		},
		{
			"buffer":0,
			"byteLength":15096,
			"byteOffset":16692,
			"target":34962
		},
		{
			"buffer":0,
			"byteLength":15096,
			"byteOffset":31788,
			"target":34962
		},
		{
			"buffer":0,
			"byteLength":8916,
			"byteOffset":46884,
			"target":34963
		},
		{
			"buffer":0,
			"byteLength":288,
			"byteOffset":55800,
			"target":34962
		},
		{
			"buffer":0,
			"byteLength":288,
			"byteOffset":56088,
			"target":34962
		},
		{
			"buffer":0,
			"byteLength":288,
			"byteOffset":56376,
			"target":34962
		},
		{
			"buffer":0,
			"byteLength":288,
			"byteOffset":56664,
			"target":34962
		},
		{
			"buffer":0,
			"byteLength":72,
			"byteOffset":56952,
			"target":34963
		},
		{
			"buffer":0,
			"byteLength":720,
			"byteOffset":57024,
			"target":34962
		},
		{
			"buffer":0,
			"byteLength":720,
			"byteOffset":57744,
			"target":34962
		},
		{
			"buffer":0,
			"byteLength":180,
			"byteOffset":58464,
			"target":34963
		},
		{
			"buffer":0,
			"byteLength":48,
			"byteOffset":58644,
			"target":34962
		},
		{
			"buffer":0,
			"byteLength":48,
			"byteOffset":58692,
			"target":34962
		},
		{
			"buffer":0,
			"byteLength":5904,
			"byteOffset":58740,
			"target":34962
		},
		{
			"buffer":0,
			"byteLength":5904,
			"byteOffset":64644,
			"target":34962
		},
		{
			"buffer":0,
			"byteLength":2844,
			"byteOffset":70548,
			"target":34963
		},
		{
			"buffer":0,
			"byteLength":288,
			"byteOffset":73392,
			"target":34962
		},
		{
			"buffer":0,
			"byteLength":288,
			"byteOffset":73680,
			"target":34962
		},
		{
			"buffer":0,
			"byteLength":72,
			"byteOffset":73968,
			"target":34963
		},
		{
			"buffer":0,
			"byteLength":360,
			"byteOffset":74040,
			"target":34962
		},
		{
			"buffer":0,
			"byteLength":360,
			"byteOffset":74400,
			"target":34962
		},
		{
			"buffer":0,
			"byteLength":96,
			"byteOffset":74760,
			"target":34963
		},
		{
			"buffer":0,
			"byteLength":48,
			"byteOffset":74856,
			"target":34962
		},
		{
			"buffer":0,
			"byteLength":48,
			"byteOffset":74904,
			"target":34962
		}
	],
	"buffers":[
		{
			"byteLength":74952,
			"uri":"BinaGrup1.bin"
		}
	]
}
