{
	"asset":{
		"generator":"Khronos glTF Blender I/O v4.2.60",
		"version":"2.0"
	},
	"scene":0,
	"scenes":[
		{
			"name":"Scene",
			"nodes":[
				0,
				1,
				2,
				3,
				4,
				5,
				6,
				7,
				8,
				9,
				10,
				11,
				12,
				13
			]
		}
	],
	"nodes":[
		{
			"mesh":0,
			"name":"Building_020.003"
		},
		{
			"mesh":1,
			"name":"Building_020_RoofCap_0.001"
		},
		{
			"mesh":2,
			"name":"Building_020.005"
		},
		{
			"mesh":3,
			"name":"Building_020.004"
		},
		{
			"mesh":4,
			"name":"Building_025.003"
		},
		{
			"mesh":5,
			"name":"Building_025_RoofCap_0.001"
		},
		{
			"mesh":6,
			"name":"Building_025_RoofCap_1.001"
		},
		{
			"mesh":7,
			"name":"Building_025.005"
		},
		{
			"mesh":8,
			"name":"Building_025.004"
		},
		{
			"mesh":9,
			"name":"Building_058.003"
		},
		{
			"mesh":10,
			"name":"Building_058_RoofCap_0.001"
		},
		{
			"mesh":11,
			"name":"Building_058_RoofCap_1.001"
		},
		{
			"mesh":12,
			"name":"Building_058.005"
		},
		{
			"mesh":13,
			"name":"Building_058.004"
		}
	],
	"materials":[
		{
			"doubleSided":true,
			"name":"BinaSolar",
			"pbrMetallicRoughness":{
				"baseColorFactor":[
					0.4451989233493805,
					0.006995364557951689,
					0.002428226638585329,
					1
				],
				"metallicFactor":0,
				"roughnessFactor":0.699999988079071
			}
		},
		{
			"doubleSided":true,
			"name":"Mat_Roof_Cap",
			"pbrMetallicRoughness":{
				"baseColorFactor":[
					0.9822452664375305,
					0.38132646679878235,
					0.0030353753827512264,
					1
				],
				"metallicFactor":0,
				"roughnessFactor":0.699999988079071
			}
		},
		{
			"doubleSided":true,
			"name":"PencereSolarKapal\u0131",
			"pbrMetallicRoughness":{
				"baseColorFactor":[
					0.2122296690940857,
					0.0009105561766773462,
					0,
					1
				],
				"metallicFactor":0,
				"roughnessFactor":0.699999988079071
			}
		}
	],
	"meshes":[
		{
			"name":"Building_020_Mesh.003",
			"primitives":[
				{
					"attributes":{
						"POSITION":0,
						"NORMAL":1
					},
					"indices":2,
					"material":0
				}
			]
		},
		{
			"name":"Building_020_RoofCap_0_Mesh.001",
			"primitives":[
				{
					"attributes":{
						"POSITION":3,
						"NORMAL":4
					},
					"indices":5,
					"material":1
				}
			]
		},
		{
			"name":"Building_020_Mesh.005",
			"primitives":[
				{
					"attributes":{
						"POSITION":6,
						"NORMAL":7
					},
					"indices":8,
					"material":2
				}
			]
		},
		{
			"name":"Building_020_Mesh.004",
			"primitives":[
				{
					"attributes":{
						"POSITION":9,
						"NORMAL":10
					},
					"indices":11,
					"material":2
				}
			]
		},
		{
			"name":"Building_025_Mesh.003",
			"primitives":[
				{
					"attributes":{
						"POSITION":12,
						"NORMAL":13
					},
					"indices":14,
					"material":0
				}
			]
		},
		{
			"name":"Building_025_RoofCap_0_Mesh.001",
			"primitives":[
				{
					"attributes":{
						"POSITION":15,
						"NORMAL":16
					},
					"indices":17,
					"material":1
				}
			]
		},
		{
			"name":"Building_025_RoofCap_1_Mesh.001",
			"primitives":[
				{
					"attributes":{
						"POSITION":18,
						"NORMAL":19
					},
					"indices":20,
					"material":1
				}
			]
		},
		{
			"name":"Building_025_Mesh.005",
			"primitives":[
				{
					"attributes":{
						"POSITION":21,
						"NORMAL":22
					},
					"indices":23,
					"material":2
				}
			]
		},
		{
			"name":"Building_025_Mesh.004",
			"primitives":[
				{
					"attributes":{
						"POSITION":24,
						"NORMAL":25
					},
					"indices":11,
					"material":2
				}
			]
		},
		{
			"name":"Building_058_Mesh.003",
			"primitives":[
				{
					"attributes":{
						"POSITION":26,
						"NORMAL":27
					},
					"indices":28,
					"material":0
				}
			]
		},
		{
			"name":"Building_058_RoofCap_0_Mesh.001",
			"primitives":[
				{
					"attributes":{
						"POSITION":29,
						"NORMAL":30
					},
					"indices":31,
					"material":1
				}
			]
		},
		{
			"name":"Building_058_RoofCap_1_Mesh.001",
			"primitives":[
				{
					"attributes":{
						"POSITION":32,
						"NORMAL":33
					},
					"indices":34,
					"material":1
				}
			]
		},
		{
			"name":"Building_058_Mesh.005",
			"primitives":[
				{
					"attributes":{
						"POSITION":35,
						"NORMAL":36
					},
					"indices":37,
					"material":2
				}
			]
		},
		{
			"name":"Building_058_Mesh.004",
			"primitives":[
				{
					"attributes":{
						"POSITION":38,
						"NORMAL":39
					},
					"indices":11,
					"material":2
				}
			]
		}
	],
	"accessors":[
		{
			"bufferView":0,
			"componentType":5126,
			"count":864,
			"max":[
				-0.2521194815635681,
				-0.32330432534217834,
				0.05788043513894081
			],
			"min":[
				-0.30103254318237305,
				-0.37656518816947937,
				-0.007336955517530441
			],
			"type":"VEC3"
		},
		{
			"bufferView":1,
			"componentType":5126,
			"count":864,
			"type":"VEC3"
		},
		{
			"bufferView":2,
			"componentType":5123,
			"count":2814,
			"type":"SCALAR"
		},
		{
			"bufferView":3,
			"componentType":5126,
			"count":24,
			"max":[
				-0.25609302520751953,
				-0.317746639251709,
				0.04501749202609062
			],
			"min":[
				-0.2756582498550415,
				-0.3231738805770874,
				0.00570652075111866
			],
			"type":"VEC3"
		},
		{
			"bufferView":4,
			"componentType":5126,
			"count":24,
			"type":"VEC3"
		},
		{
			"bufferView":5,
			"componentType":5123,
			"count":36,
			"type":"SCALAR"
		},
		{
			"bufferView":6,
			"componentType":5126,
			"count":64,
			"max":[
				-0.257010817527771,
				-0.3298260569572449,
				0.05570651963353157
			],
			"min":[
				-0.29614123702049255,
				-0.37113040685653687,
				0.05570651963353157
			],
			"type":"VEC3"
		},
		{
			"bufferView":7,
			"componentType":5126,
			"count":64,
			"type":"VEC3"
		},
		{
			"bufferView":8,
			"componentType":5123,
			"count":96,
			"type":"SCALAR"
		},
		{
			"bufferView":9,
			"componentType":5126,
			"count":4,
			"max":[
				-0.257010817527771,
				-0.3624347448348999,
				0.05570651963353157
			],
			"min":[
				-0.2635325491428375,
				-0.37656518816947937,
				0.05570651963353157
			],
			"type":"VEC3"
		},
		{
			"bufferView":10,
			"componentType":5126,
			"count":4,
			"type":"VEC3"
		},
		{
			"bufferView":11,
			"componentType":5123,
			"count":6,
			"type":"SCALAR"
		},
		{
			"bufferView":12,
			"componentType":5126,
			"count":483,
			"max":[
				-0.184184730052948,
				-0.2167825996875763,
				0.05788043513894081
			],
			"min":[
				-0.21679341793060303,
				-0.2787390947341919,
				-0.007336955517530441
			],
			"type":"VEC3"
		},
		{
			"bufferView":13,
			"componentType":5126,
			"count":483,
			"type":"VEC3"
		},
		{
			"bufferView":14,
			"componentType":5123,
			"count":1392,
			"type":"SCALAR"
		},
		{
			"bufferView":15,
			"componentType":5126,
			"count":24,
			"max":[
				-0.18839362263679504,
				-0.21720382571220398,
				0.04865796118974686
			],
			"min":[
				-0.20795884728431702,
				-0.22278258204460144,
				0.035054344683885574
			],
			"type":"VEC3"
		},
		{
			"bufferView":16,
			"componentType":5126,
			"count":24,
			"type":"VEC3"
		},
		{
			"bufferView":17,
			"componentType":5123,
			"count":36,
			"type":"SCALAR"
		},
		{
			"bufferView":18,
			"componentType":5126,
			"count":24,
			"max":[
				-0.18699492514133453,
				-0.21629077196121216,
				0.01875000074505806
			],
			"min":[
				-0.21308186650276184,
				-0.22360867261886597,
				-0.001375353429466486
			],
			"type":"VEC3"
		},
		{
			"bufferView":19,
			"componentType":5126,
			"count":24,
			"type":"VEC3"
		},
		{
			"bufferView":20,
			"componentType":5123,
			"count":36,
			"type":"SCALAR"
		},
		{
			"bufferView":21,
			"componentType":5126,
			"count":36,
			"max":[
				-0.1896195113658905,
				-0.2319999635219574,
				0.05570651963353157
			],
			"min":[
				-0.21135863661766052,
				-0.27113041281700134,
				0.05570651963353157
			],
			"type":"VEC3"
		},
		{
			"bufferView":22,
			"componentType":5126,
			"count":36,
			"type":"VEC3"
		},
		{
			"bufferView":23,
			"componentType":5123,
			"count":54,
			"type":"SCALAR"
		},
		{
			"bufferView":24,
			"componentType":5126,
			"count":4,
			"max":[
				-0.20266298949718475,
				-0.2646086513996124,
				0.05570651963353157
			],
			"min":[
				-0.21135863661766052,
				-0.2787390947341919,
				0.05570651963353157
			],
			"type":"VEC3"
		},
		{
			"bufferView":25,
			"componentType":5126,
			"count":4,
			"type":"VEC3"
		},
		{
			"bufferView":26,
			"componentType":5126,
			"count":308,
			"max":[
				0.19624996185302734,
				-0.03526082634925842,
				0.036141302436590195
			],
			"min":[
				0.1636413335800171,
				-0.08308693766593933,
				-0.007336955517530441
			],
			"type":"VEC3"
		},
		{
			"bufferView":27,
			"componentType":5126,
			"count":308,
			"type":"VEC3"
		},
		{
			"bufferView":28,
			"componentType":5123,
			"count":750,
			"type":"SCALAR"
		},
		{
			"bufferView":29,
			"componentType":5126,
			"count":24,
			"max":[
				0.19589263200759888,
				-0.03422945737838745,
				0.03493959456682205
			],
			"min":[
				0.1698055863380432,
				-0.04486954212188721,
				0.016576087102293968
			],
			"type":"VEC3"
		},
		{
			"bufferView":30,
			"componentType":5126,
			"count":24,
			"type":"VEC3"
		},
		{
			"bufferView":31,
			"componentType":5123,
			"count":36,
			"type":"SCALAR"
		},
		{
			"bufferView":32,
			"componentType":5126,
			"count":24,
			"max":[
				0.1899675726890564,
				-0.03535991907119751,
				0.010054348036646843
			],
			"min":[
				0.1638805866241455,
				-0.04382607340812683,
				-0.0039613330736756325
			],
			"type":"VEC3"
		},
		{
			"bufferView":33,
			"componentType":5126,
			"count":24,
			"type":"VEC3"
		},
		{
			"bufferView":34,
			"componentType":5123,
			"count":36,
			"type":"SCALAR"
		},
		{
			"bufferView":35,
			"componentType":5126,
			"count":16,
			"max":[
				0.190815269947052,
				-0.05265215039253235,
				0.03396739065647125
			],
			"min":[
				0.1690760850906372,
				-0.07547822594642639,
				0.03396739065647125
			],
			"type":"VEC3"
		},
		{
			"bufferView":36,
			"componentType":5126,
			"count":16,
			"type":"VEC3"
		},
		{
			"bufferView":37,
			"componentType":5123,
			"count":24,
			"type":"SCALAR"
		},
		{
			"bufferView":38,
			"componentType":5126,
			"count":4,
			"max":[
				0.19081521034240723,
				-0.06895646452903748,
				0.03396739065647125
			],
			"min":[
				0.18211954832077026,
				-0.08308693766593933,
				0.03396739065647125
			],
			"type":"VEC3"
		},
		{
			"bufferView":39,
			"componentType":5126,
			"count":4,
			"type":"VEC3"
		}
	],
	"bufferViews":[
		{
			"buffer":0,
			"byteLength":10368,
			"byteOffset":0,
			"target":34962
		},
		{
			"buffer":0,
			"byteLength":10368,
			"byteOffset":10368,
			"target":34962
		},
		{
			"buffer":0,
			"byteLength":5628,
			"byteOffset":20736,
			"target":34963
		},
		{
			"buffer":0,
			"byteLength":288,
			"byteOffset":26364,
			"target":34962
		},
		{
			"buffer":0,
			"byteLength":288,
			"byteOffset":26652,
			"target":34962
		},
		{
			"buffer":0,
			"byteLength":72,
			"byteOffset":26940,
			"target":34963
		},
		{
			"buffer":0,
			"byteLength":768,
			"byteOffset":27012,
			"target":34962
		},
		{
			"buffer":0,
			"byteLength":768,
			"byteOffset":27780,
			"target":34962
		},
		{
			"buffer":0,
			"byteLength":192,
			"byteOffset":28548,
			"target":34963
		},
		{
			"buffer":0,
			"byteLength":48,
			"byteOffset":28740,
			"target":34962
		},
		{
			"buffer":0,
			"byteLength":48,
			"byteOffset":28788,
			"target":34962
		},
		{
			"buffer":0,
			"byteLength":12,
			"byteOffset":28836,
			"target":34963
		},
		{
			"buffer":0,
			"byteLength":5796,
			"byteOffset":28848,
			"target":34962
		},
		{
			"buffer":0,
			"byteLength":5796,
			"byteOffset":34644,
			"target":34962
		},
		{
			"buffer":0,
			"byteLength":2784,
			"byteOffset":40440,
			"target":34963
		},
		{
			"buffer":0,
			"byteLength":288,
			"byteOffset":43224,
			"target":34962
		},
		{
			"buffer":0,
			"byteLength":288,
			"byteOffset":43512,
			"target":34962
		},
		{
			"buffer":0,
			"byteLength":72,
			"byteOffset":43800,
			"target":34963
		},
		{
			"buffer":0,
			"byteLength":288,
			"byteOffset":43872,
			"target":34962
		},
		{
			"buffer":0,
			"byteLength":288,
			"byteOffset":44160,
			"target":34962
		},
		{
			"buffer":0,
			"byteLength":72,
			"byteOffset":44448,
			"target":34963
		},
		{
			"buffer":0,
			"byteLength":432,
			"byteOffset":44520,
			"target":34962
		},
		{
			"buffer":0,
			"byteLength":432,
			"byteOffset":44952,
			"target":34962
		},
		{
			"buffer":0,
			"byteLength":108,
			"byteOffset":45384,
			"target":34963
		},
		{
			"buffer":0,
			"byteLength":48,
			"byteOffset":45492,
			"target":34962
		},
		{
			"buffer":0,
			"byteLength":48,
			"byteOffset":45540,
			"target":34962
		},
		{
			"buffer":0,
			"byteLength":3696,
			"byteOffset":45588,
			"target":34962
		},
		{
			"buffer":0,
			"byteLength":3696,
			"byteOffset":49284,
			"target":34962
		},
		{
			"buffer":0,
			"byteLength":1500,
			"byteOffset":52980,
			"target":34963
		},
		{
			"buffer":0,
			"byteLength":288,
			"byteOffset":54480,
			"target":34962
		},
		{
			"buffer":0,
			"byteLength":288,
			"byteOffset":54768,
			"target":34962
		},
		{
			"buffer":0,
			"byteLength":72,
			"byteOffset":55056,
			"target":34963
		},
		{
			"buffer":0,
			"byteLength":288,
			"byteOffset":55128,
			"target":34962
		},
		{
			"buffer":0,
			"byteLength":288,
			"byteOffset":55416,
			"target":34962
		},
		{
			"buffer":0,
			"byteLength":72,
			"byteOffset":55704,
			"target":34963
		},
		{
			"buffer":0,
			"byteLength":192,
			"byteOffset":55776,
			"target":34962
		},
		{
			"buffer":0,
			"byteLength":192,
			"byteOffset":55968,
			"target":34962
		},
		{
			"buffer":0,
			"byteLength":48,
			"byteOffset":56160,
			"target":34963
		},
		{
			"buffer":0,
			"byteLength":48,
			"byteOffset":56208,
			"target":34962
		},
		{
			"buffer":0,
			"byteLength":48,
			"byteOffset":56256,
			"target":34962
		}
	],
	"buffers":[
		{
			"byteLength":56304,
			"uri":"BinaGrup13.bin"
		}
	]
}
