{
	"asset":{
		"generator":"Khronos glTF Blender I/O v4.2.60",
		"version":"2.0"
	},
	"scene":0,
	"scenes":[
		{
			"name":"Scene",
			"nodes":[
				0,
				1,
				2,
				3,
				4,
				5,
				6,
				7,
				8,
				9,
				10,
				11,
				12,
				13
			]
		}
	],
	"nodes":[
		{
			"mesh":0,
			"name":"Building_027.003"
		},
		{
			"mesh":1,
			"name":"Building_027_RoofCap_0.001"
		},
		{
			"mesh":2,
			"name":"Building_027_RoofCap_1.001"
		},
		{
			"mesh":3,
			"name":"Building_027.005"
		},
		{
			"mesh":4,
			"name":"Building_027.004"
		},
		{
			"mesh":5,
			"name":"Building_046.003"
		},
		{
			"mesh":6,
			"name":"Building_046_RoofCap_0.001"
		},
		{
			"mesh":7,
			"name":"Building_046.005"
		},
		{
			"mesh":8,
			"name":"Building_046.004"
		},
		{
			"mesh":9,
			"name":"Building_064.003"
		},
		{
			"mesh":10,
			"name":"Building_064_RoofCap_0.001"
		},
		{
			"mesh":11,
			"name":"Building_064_RoofCap_1.001"
		},
		{
			"mesh":12,
			"name":"Building_064.005"
		},
		{
			"mesh":13,
			"name":"Building_064.004"
		}
	],
	"materials":[
		{
			"doubleSided":true,
			"name":"BinaSolar",
			"pbrMetallicRoughness":{
				"baseColorFactor":[
					0.4451989233493805,
					0.006995364557951689,
					0.002428226638585329,
					1
				],
				"metallicFactor":0,
				"roughnessFactor":0.699999988079071
			}
		},
		{
			"doubleSided":true,
			"name":"Mat_Roof_Cap",
			"pbrMetallicRoughness":{
				"baseColorFactor":[
					0.9822452664375305,
					0.38132646679878235,
					0.0030353753827512264,
					1
				],
				"metallicFactor":0,
				"roughnessFactor":0.699999988079071
			}
		},
		{
			"doubleSided":true,
			"name":"PencereSolarKapal\u0131",
			"pbrMetallicRoughness":{
				"baseColorFactor":[
					0.2122296690940857,
					0.0009105561766773462,
					0,
					1
				],
				"metallicFactor":0,
				"roughnessFactor":0.699999988079071
			}
		}
	],
	"meshes":[
		{
			"name":"Building_027_Mesh.003",
			"primitives":[
				{
					"attributes":{
						"POSITION":0,
						"NORMAL":1
					},
					"indices":2,
					"material":0
				}
			]
		},
		{
			"name":"Building_027_RoofCap_0_Mesh.001",
			"primitives":[
				{
					"attributes":{
						"POSITION":3,
						"NORMAL":4
					},
					"indices":5,
					"material":1
				}
			]
		},
		{
			"name":"Building_027_RoofCap_1_Mesh.001",
			"primitives":[
				{
					"attributes":{
						"POSITION":6,
						"NORMAL":7
					},
					"indices":8,
					"material":1
				}
			]
		},
		{
			"name":"Building_027_Mesh.005",
			"primitives":[
				{
					"attributes":{
						"POSITION":9,
						"NORMAL":10
					},
					"indices":11,
					"material":2
				}
			]
		},
		{
			"name":"Building_027_Mesh.004",
			"primitives":[
				{
					"attributes":{
						"POSITION":12,
						"NORMAL":13
					},
					"indices":14,
					"material":2
				}
			]
		},
		{
			"name":"Building_046_Mesh.003",
			"primitives":[
				{
					"attributes":{
						"POSITION":15,
						"NORMAL":16
					},
					"indices":17,
					"material":0
				}
			]
		},
		{
			"name":"Building_046_RoofCap_0_Mesh.001",
			"primitives":[
				{
					"attributes":{
						"POSITION":18,
						"NORMAL":19
					},
					"indices":20,
					"material":1
				}
			]
		},
		{
			"name":"Building_046_Mesh.005",
			"primitives":[
				{
					"attributes":{
						"POSITION":21,
						"NORMAL":22
					},
					"indices":23,
					"material":2
				}
			]
		},
		{
			"name":"Building_046_Mesh.004",
			"primitives":[
				{
					"attributes":{
						"POSITION":24,
						"NORMAL":25
					},
					"indices":14,
					"material":2
				}
			]
		},
		{
			"name":"Building_064_Mesh.003",
			"primitives":[
				{
					"attributes":{
						"POSITION":26,
						"NORMAL":27
					},
					"indices":28,
					"material":0
				}
			]
		},
		{
			"name":"Building_064_RoofCap_0_Mesh.001",
			"primitives":[
				{
					"attributes":{
						"POSITION":29,
						"NORMAL":30
					},
					"indices":5,
					"material":1
				}
			]
		},
		{
			"name":"Building_064_RoofCap_1_Mesh.001",
			"primitives":[
				{
					"attributes":{
						"POSITION":31,
						"NORMAL":32
					},
					"indices":33,
					"material":1
				}
			]
		},
		{
			"name":"Building_064_Mesh.005",
			"primitives":[
				{
					"attributes":{
						"POSITION":34,
						"NORMAL":35
					},
					"indices":36,
					"material":2
				}
			]
		},
		{
			"name":"Building_064_Mesh.004",
			"primitives":[
				{
					"attributes":{
						"POSITION":37,
						"NORMAL":38
					},
					"indices":14,
					"material":2
				}
			]
		}
	],
	"accessors":[
		{
			"bufferView":0,
			"componentType":5126,
			"count":497,
			"max":[
				-0.184184730052948,
				-0.4102608561515808,
				0.0470108687877655
			],
			"min":[
				-0.21679341793060303,
				-0.47439128160476685,
				-0.007336955517530441
			],
			"type":"VEC3"
		},
		{
			"bufferView":1,
			"componentType":5126,
			"count":497,
			"type":"VEC3"
		},
		{
			"bufferView":2,
			"componentType":5123,
			"count":1398,
			"type":"SCALAR"
		},
		{
			"bufferView":3,
			"componentType":5126,
			"count":24,
			"max":[
				-0.18536894023418427,
				-0.41141632199287415,
				0.0396660678088665
			],
			"min":[
				-0.21145588159561157,
				-0.41778257489204407,
				0.027989130467176437
			],
			"type":"VEC3"
		},
		{
			"bufferView":4,
			"componentType":5126,
			"count":24,
			"type":"VEC3"
		},
		{
			"bufferView":5,
			"componentType":5123,
			"count":36,
			"type":"SCALAR"
		},
		{
			"bufferView":6,
			"componentType":5126,
			"count":24,
			"max":[
				-0.19429811835289001,
				-0.41141632199287415,
				0.011684780940413475
			],
			"min":[
				-0.213863343000412,
				-0.41778257489204407,
				7.845927029848099e-06
			],
			"type":"VEC3"
		},
		{
			"bufferView":7,
			"componentType":5126,
			"count":24,
			"type":"VEC3"
		},
		{
			"bufferView":8,
			"componentType":5123,
			"count":36,
			"type":"SCALAR"
		},
		{
			"bufferView":9,
			"componentType":5126,
			"count":36,
			"max":[
				-0.1896195113658905,
				-0.42765215039253235,
				0.04483695700764656
			],
			"min":[
				-0.21135863661766052,
				-0.4711304008960724,
				0.04483695700764656
			],
			"type":"VEC3"
		},
		{
			"bufferView":10,
			"componentType":5126,
			"count":36,
			"type":"VEC3"
		},
		{
			"bufferView":11,
			"componentType":5123,
			"count":54,
			"type":"SCALAR"
		},
		{
			"bufferView":12,
			"componentType":5126,
			"count":4,
			"max":[
				-0.20266298949718475,
				-0.4602608382701874,
				0.04483695700764656
			],
			"min":[
				-0.21135863661766052,
				-0.47439128160476685,
				0.04483695700764656
			],
			"type":"VEC3"
		},
		{
			"bufferView":13,
			"componentType":5126,
			"count":4,
			"type":"VEC3"
		},
		{
			"bufferView":14,
			"componentType":5123,
			"count":6,
			"type":"SCALAR"
		},
		{
			"bufferView":15,
			"componentType":5126,
			"count":281,
			"max":[
				0.04407608509063721,
				-0.24178257584571838,
				0.0470108687877655
			],
			"min":[
				0.011467397212982178,
				-0.2787390947341919,
				-0.007336955517530441
			],
			"type":"VEC3"
		},
		{
			"bufferView":16,
			"componentType":5126,
			"count":281,
			"type":"VEC3"
		},
		{
			"bufferView":17,
			"componentType":5123,
			"count":732,
			"type":"SCALAR"
		},
		{
			"bufferView":18,
			"componentType":5126,
			"count":24,
			"max":[
				0.04101687669754028,
				-0.23617997765541077,
				0.04173867404460907
			],
			"min":[
				0.01492995023727417,
				-0.241608664393425,
				-0.0019021760672330856
			],
			"type":"VEC3"
		},
		{
			"bufferView":19,
			"componentType":5126,
			"count":24,
			"type":"VEC3"
		},
		{
			"bufferView":20,
			"componentType":5123,
			"count":36,
			"type":"SCALAR"
		},
		{
			"bufferView":21,
			"componentType":5126,
			"count":18,
			"max":[
				0.03864133358001709,
				-0.2483043223619461,
				0.04483695700764656
			],
			"min":[
				0.016902178525924683,
				-0.2733043432235718,
				0.04483695700764656
			],
			"type":"VEC3"
		},
		{
			"bufferView":22,
			"componentType":5126,
			"count":18,
			"type":"VEC3"
		},
		{
			"bufferView":23,
			"componentType":5123,
			"count":30,
			"type":"SCALAR"
		},
		{
			"bufferView":24,
			"componentType":5126,
			"count":4,
			"max":[
				0.03864136338233948,
				-0.2646086513996124,
				0.04483695700764656
			],
			"min":[
				0.029945671558380127,
				-0.2787390947341919,
				0.04483695700764656
			],
			"type":"VEC3"
		},
		{
			"bufferView":25,
			"componentType":5126,
			"count":4,
			"type":"VEC3"
		},
		{
			"bufferView":26,
			"componentType":5126,
			"count":1257,
			"max":[
				0.28048914670944214,
				0.09082609415054321,
				0.036141302436590195
			],
			"min":[
				0.2315760850906372,
				0.014739125967025757,
				-0.007336955517530441
			],
			"type":"VEC3"
		},
		{
			"bufferView":27,
			"componentType":5126,
			"count":1257,
			"type":"VEC3"
		},
		{
			"bufferView":28,
			"componentType":5123,
			"count":4446,
			"type":"SCALAR"
		},
		{
			"bufferView":29,
			"componentType":5126,
			"count":24,
			"max":[
				0.2617778182029724,
				0.09173440933227539,
				0.032418143004179
			],
			"min":[
				0.232430100440979,
				0.08573907613754272,
				0.01874999888241291
			],
			"type":"VEC3"
		},
		{
			"bufferView":30,
			"componentType":5126,
			"count":24,
			"type":"VEC3"
		},
		{
			"bufferView":31,
			"componentType":5126,
			"count":24,
			"max":[
				0.2684776186943054,
				0.09103870391845703,
				0.0078804362565279
			],
			"min":[
				0.23912984132766724,
				0.08634781837463379,
				-0.0014398880302906036
			],
			"type":"VEC3"
		},
		{
			"bufferView":32,
			"componentType":5126,
			"count":24,
			"type":"VEC3"
		},
		{
			"bufferView":33,
			"componentType":5123,
			"count":36,
			"type":"SCALAR"
		},
		{
			"bufferView":34,
			"componentType":5126,
			"count":56,
			"max":[
				0.27559781074523926,
				0.07778263092041016,
				0.033967386931180954
			],
			"min":[
				0.2364673614501953,
				0.02017390727996826,
				0.033967386931180954
			],
			"type":"VEC3"
		},
		{
			"bufferView":35,
			"componentType":5126,
			"count":56,
			"type":"VEC3"
		},
		{
			"bufferView":36,
			"componentType":5123,
			"count":84,
			"type":"SCALAR"
		},
		{
			"bufferView":37,
			"componentType":5126,
			"count":4,
			"max":[
				0.242989182472229,
				0.028869569301605225,
				0.03396739065647125
			],
			"min":[
				0.2364673614501953,
				0.014739125967025757,
				0.03396739065647125
			],
			"type":"VEC3"
		},
		{
			"bufferView":38,
			"componentType":5126,
			"count":4,
			"type":"VEC3"
		}
	],
	"bufferViews":[
		{
			"buffer":0,
			"byteLength":5964,
			"byteOffset":0,
			"target":34962
		},
		{
			"buffer":0,
			"byteLength":5964,
			"byteOffset":5964,
			"target":34962
		},
		{
			"buffer":0,
			"byteLength":2796,
			"byteOffset":11928,
			"target":34963
		},
		{
			"buffer":0,
			"byteLength":288,
			"byteOffset":14724,
			"target":34962
		},
		{
			"buffer":0,
			"byteLength":288,
			"byteOffset":15012,
			"target":34962
		},
		{
			"buffer":0,
			"byteLength":72,
			"byteOffset":15300,
			"target":34963
		},
		{
			"buffer":0,
			"byteLength":288,
			"byteOffset":15372,
			"target":34962
		},
		{
			"buffer":0,
			"byteLength":288,
			"byteOffset":15660,
			"target":34962
		},
		{
			"buffer":0,
			"byteLength":72,
			"byteOffset":15948,
			"target":34963
		},
		{
			"buffer":0,
			"byteLength":432,
			"byteOffset":16020,
			"target":34962
		},
		{
			"buffer":0,
			"byteLength":432,
			"byteOffset":16452,
			"target":34962
		},
		{
			"buffer":0,
			"byteLength":108,
			"byteOffset":16884,
			"target":34963
		},
		{
			"buffer":0,
			"byteLength":48,
			"byteOffset":16992,
			"target":34962
		},
		{
			"buffer":0,
			"byteLength":48,
			"byteOffset":17040,
			"target":34962
		},
		{
			"buffer":0,
			"byteLength":12,
			"byteOffset":17088,
			"target":34963
		},
		{
			"buffer":0,
			"byteLength":3372,
			"byteOffset":17100,
			"target":34962
		},
		{
			"buffer":0,
			"byteLength":3372,
			"byteOffset":20472,
			"target":34962
		},
		{
			"buffer":0,
			"byteLength":1464,
			"byteOffset":23844,
			"target":34963
		},
		{
			"buffer":0,
			"byteLength":288,
			"byteOffset":25308,
			"target":34962
		},
		{
			"buffer":0,
			"byteLength":288,
			"byteOffset":25596,
			"target":34962
		},
		{
			"buffer":0,
			"byteLength":72,
			"byteOffset":25884,
			"target":34963
		},
		{
			"buffer":0,
			"byteLength":216,
			"byteOffset":25956,
			"target":34962
		},
		{
			"buffer":0,
			"byteLength":216,
			"byteOffset":26172,
			"target":34962
		},
		{
			"buffer":0,
			"byteLength":60,
			"byteOffset":26388,
			"target":34963
		},
		{
			"buffer":0,
			"byteLength":48,
			"byteOffset":26448,
			"target":34962
		},
		{
			"buffer":0,
			"byteLength":48,
			"byteOffset":26496,
			"target":34962
		},
		{
			"buffer":0,
			"byteLength":15084,
			"byteOffset":26544,
			"target":34962
		},
		{
			"buffer":0,
			"byteLength":15084,
			"byteOffset":41628,
			"target":34962
		},
		{
			"buffer":0,
			"byteLength":8892,
			"byteOffset":56712,
			"target":34963
		},
		{
			"buffer":0,
			"byteLength":288,
			"byteOffset":65604,
			"target":34962
		},
		{
			"buffer":0,
			"byteLength":288,
			"byteOffset":65892,
			"target":34962
		},
		{
			"buffer":0,
			"byteLength":288,
			"byteOffset":66180,
			"target":34962
		},
		{
			"buffer":0,
			"byteLength":288,
			"byteOffset":66468,
			"target":34962
		},
		{
			"buffer":0,
			"byteLength":72,
			"byteOffset":66756,
			"target":34963
		},
		{
			"buffer":0,
			"byteLength":672,
			"byteOffset":66828,
			"target":34962
		},
		{
			"buffer":0,
			"byteLength":672,
			"byteOffset":67500,
			"target":34962
		},
		{
			"buffer":0,
			"byteLength":168,
			"byteOffset":68172,
			"target":34963
		},
		{
			"buffer":0,
			"byteLength":48,
			"byteOffset":68340,
			"target":34962
		},
		{
			"buffer":0,
			"byteLength":48,
			"byteOffset":68388,
			"target":34962
		}
	],
	"buffers":[
		{
			"byteLength":68436,
			"uri":"BinaGrup5.bin"
		}
	]
}
