{
	"asset":{
		"generator":"Khronos glTF Blender I/O v4.2.60",
		"version":"2.0"
	},
	"scene":0,
	"scenes":[
		{
			"name":"Scene",
			"nodes":[
				0,
				1,
				2,
				3,
				4,
				5,
				6,
				7,
				8,
				9,
				10,
				11,
				12,
				13
			]
		}
	],
	"nodes":[
		{
			"mesh":0,
			"name":"Building_022.003"
		},
		{
			"mesh":1,
			"name":"Building_022_RoofCap_0.001"
		},
		{
			"mesh":2,
			"name":"Building_022_RoofCap_1.001"
		},
		{
			"mesh":3,
			"name":"Building_022.005"
		},
		{
			"mesh":4,
			"name":"Building_022.004"
		},
		{
			"mesh":5,
			"name":"Building_060.003"
		},
		{
			"mesh":6,
			"name":"Building_060_RoofCap_0.001"
		},
		{
			"mesh":7,
			"name":"Building_060.005"
		},
		{
			"mesh":8,
			"name":"Building_060.004"
		},
		{
			"mesh":9,
			"name":"Building_063.003"
		},
		{
			"mesh":10,
			"name":"Building_063_RoofCap_0.001"
		},
		{
			"mesh":11,
			"name":"Building_063_RoofCap_1.001"
		},
		{
			"mesh":12,
			"name":"Building_063.005"
		},
		{
			"mesh":13,
			"name":"Building_063.004"
		}
	],
	"materials":[
		{
			"doubleSided":true,
			"name":"BinaSolar",
			"pbrMetallicRoughness":{
				"baseColorFactor":[
					0.4451989233493805,
					0.006995364557951689,
					0.002428226638585329,
					1
				],
				"metallicFactor":0,
				"roughnessFactor":0.699999988079071
			}
		},
		{
			"doubleSided":true,
			"name":"Mat_Roof_Cap",
			"pbrMetallicRoughness":{
				"baseColorFactor":[
					0.9822452664375305,
					0.38132646679878235,
					0.0030353753827512264,
					1
				],
				"metallicFactor":0,
				"roughnessFactor":0.699999988079071
			}
		},
		{
			"doubleSided":true,
			"name":"PencereSolarKapal\u0131",
			"pbrMetallicRoughness":{
				"baseColorFactor":[
					0.2122296690940857,
					0.0009105561766773462,
					0,
					1
				],
				"metallicFactor":0,
				"roughnessFactor":0.699999988079071
			}
		}
	],
	"meshes":[
		{
			"name":"Building_022_Mesh.003",
			"primitives":[
				{
					"attributes":{
						"POSITION":0,
						"NORMAL":1
					},
					"indices":2,
					"material":0
				}
			]
		},
		{
			"name":"Building_022_RoofCap_0_Mesh.001",
			"primitives":[
				{
					"attributes":{
						"POSITION":3,
						"NORMAL":4
					},
					"indices":5,
					"material":1
				}
			]
		},
		{
			"name":"Building_022_RoofCap_1_Mesh.001",
			"primitives":[
				{
					"attributes":{
						"POSITION":6,
						"NORMAL":7
					},
					"indices":8,
					"material":1
				}
			]
		},
		{
			"name":"Building_022_Mesh.005",
			"primitives":[
				{
					"attributes":{
						"POSITION":9,
						"NORMAL":10
					},
					"indices":11,
					"material":2
				}
			]
		},
		{
			"name":"Building_022_Mesh.004",
			"primitives":[
				{
					"attributes":{
						"POSITION":12,
						"NORMAL":13
					},
					"indices":14,
					"material":2
				}
			]
		},
		{
			"name":"Building_060_Mesh.003",
			"primitives":[
				{
					"attributes":{
						"POSITION":15,
						"NORMAL":16
					},
					"indices":17,
					"material":0
				}
			]
		},
		{
			"name":"Building_060_RoofCap_0_Mesh.001",
			"primitives":[
				{
					"attributes":{
						"POSITION":18,
						"NORMAL":19
					},
					"indices":20,
					"material":1
				}
			]
		},
		{
			"name":"Building_060_Mesh.005",
			"primitives":[
				{
					"attributes":{
						"POSITION":21,
						"NORMAL":22
					},
					"indices":23,
					"material":2
				}
			]
		},
		{
			"name":"Building_060_Mesh.004",
			"primitives":[
				{
					"attributes":{
						"POSITION":24,
						"NORMAL":25
					},
					"indices":14,
					"material":2
				}
			]
		},
		{
			"name":"Building_063_Mesh.003",
			"primitives":[
				{
					"attributes":{
						"POSITION":26,
						"NORMAL":27
					},
					"indices":28,
					"material":0
				}
			]
		},
		{
			"name":"Building_063_RoofCap_0_Mesh.001",
			"primitives":[
				{
					"attributes":{
						"POSITION":29,
						"NORMAL":30
					},
					"indices":20,
					"material":1
				}
			]
		},
		{
			"name":"Building_063_RoofCap_1_Mesh.001",
			"primitives":[
				{
					"attributes":{
						"POSITION":31,
						"NORMAL":32
					},
					"indices":33,
					"material":1
				}
			]
		},
		{
			"name":"Building_063_Mesh.005",
			"primitives":[
				{
					"attributes":{
						"POSITION":34,
						"NORMAL":35
					},
					"indices":36,
					"material":2
				}
			]
		},
		{
			"name":"Building_063_Mesh.004",
			"primitives":[
				{
					"attributes":{
						"POSITION":37,
						"NORMAL":38
					},
					"indices":14,
					"material":2
				}
			]
		}
	],
	"accessors":[
		{
			"bufferView":0,
			"componentType":5126,
			"count":857,
			"max":[
				-0.17603257298469543,
				0.07669562101364136,
				0.057880427688360214
			],
			"min":[
				-0.22494560480117798,
				0.014739125967025757,
				-0.007336955517530441
			],
			"type":"VEC3"
		},
		{
			"bufferView":1,
			"componentType":5126,
			"count":857,
			"type":"VEC3"
		},
		{
			"bufferView":2,
			"componentType":5123,
			"count":2730,
			"type":"SCALAR"
		},
		{
			"bufferView":3,
			"componentType":5126,
			"count":24,
			"max":[
				-0.17700427770614624,
				0.07810050249099731,
				0.055179696530103683
			],
			"min":[
				-0.1965695023536682,
				0.06904345750808716,
				0.028532609343528748
			],
			"type":"VEC3"
		},
		{
			"bufferView":4,
			"componentType":5126,
			"count":24,
			"type":"VEC3"
		},
		{
			"bufferView":5,
			"componentType":5123,
			"count":36,
			"type":"SCALAR"
		},
		{
			"bufferView":6,
			"componentType":5126,
			"count":24,
			"max":[
				-0.18083183467388153,
				0.07810050249099731,
				0.022010868415236473
			],
			"min":[
				-0.21996228396892548,
				0.06904345750808716,
				-0.004636221565306187
			],
			"type":"VEC3"
		},
		{
			"bufferView":7,
			"componentType":5126,
			"count":24,
			"type":"VEC3"
		},
		{
			"bufferView":8,
			"componentType":5123,
			"count":36,
			"type":"SCALAR"
		},
		{
			"bufferView":9,
			"componentType":5126,
			"count":60,
			"max":[
				-0.18092384934425354,
				0.061478257179260254,
				0.05570651963353157
			],
			"min":[
				-0.2200542837381363,
				0.017999976873397827,
				0.05570651963353157
			],
			"type":"VEC3"
		},
		{
			"bufferView":10,
			"componentType":5126,
			"count":60,
			"type":"VEC3"
		},
		{
			"bufferView":11,
			"componentType":5123,
			"count":90,
			"type":"SCALAR"
		},
		{
			"bufferView":12,
			"componentType":5126,
			"count":4,
			"max":[
				-0.19179342687129974,
				0.028869569301605225,
				0.05570651963353157
			],
			"min":[
				-0.20918473601341248,
				0.014739125967025757,
				0.05570651963353157
			],
			"type":"VEC3"
		},
		{
			"bufferView":13,
			"componentType":5126,
			"count":4,
			"type":"VEC3"
		},
		{
			"bufferView":14,
			"componentType":5123,
			"count":6,
			"type":"SCALAR"
		},
		{
			"bufferView":15,
			"componentType":5126,
			"count":800,
			"max":[
				0.2044021487236023,
				-0.22547824680805206,
				0.036141302436590195
			],
			"min":[
				0.15548908710479736,
				-0.2787390947341919,
				-0.007336955517530441
			],
			"type":"VEC3"
		},
		{
			"bufferView":16,
			"componentType":5126,
			"count":800,
			"type":"VEC3"
		},
		{
			"bufferView":17,
			"componentType":5123,
			"count":2664,
			"type":"SCALAR"
		},
		{
			"bufferView":18,
			"componentType":5126,
			"count":24,
			"max":[
				0.19936132431030273,
				-0.21987903118133545,
				0.03199639171361923
			],
			"min":[
				0.16023093461990356,
				-0.22530432045459747,
				-0.002989131025969982
			],
			"type":"VEC3"
		},
		{
			"bufferView":19,
			"componentType":5126,
			"count":24,
			"type":"VEC3"
		},
		{
			"bufferView":20,
			"componentType":5123,
			"count":36,
			"type":"SCALAR"
		},
		{
			"bufferView":21,
			"componentType":5126,
			"count":48,
			"max":[
				0.1995108723640442,
				-0.2319999784231186,
				0.03396739065647125
			],
			"min":[
				0.16038042306900024,
				-0.27113041281700134,
				0.03396739065647125
			],
			"type":"VEC3"
		},
		{
			"bufferView":22,
			"componentType":5126,
			"count":48,
			"type":"VEC3"
		},
		{
			"bufferView":23,
			"componentType":5123,
			"count":72,
			"type":"SCALAR"
		},
		{
			"bufferView":24,
			"componentType":5126,
			"count":4,
			"max":[
				0.16146743297576904,
				-0.2646086513996124,
				0.03396739065647125
			],
			"min":[
				0.15494567155838013,
				-0.2787390947341919,
				0.03396739065647125
			],
			"type":"VEC3"
		},
		{
			"bufferView":25,
			"componentType":5126,
			"count":4,
			"type":"VEC3"
		},
		{
			"bufferView":26,
			"componentType":5126,
			"count":879,
			"max":[
				0.28048908710479736,
				0.174521803855896,
				0.036141302436590195
			],
			"min":[
				0.23157602548599243,
				0.11256533861160278,
				-0.007336955517530441
			],
			"type":"VEC3"
		},
		{
			"bufferView":27,
			"componentType":5126,
			"count":879,
			"type":"VEC3"
		},
		{
			"bufferView":28,
			"componentType":5123,
			"count":2829,
			"type":"SCALAR"
		},
		{
			"bufferView":29,
			"componentType":5126,
			"count":24,
			"max":[
				0.28047841787338257,
				0.17493152618408203,
				0.032600849866867065
			],
			"min":[
				0.24134796857833862,
				0.16769564151763916,
				0.01875000074505806
			],
			"type":"VEC3"
		},
		{
			"bufferView":30,
			"componentType":5126,
			"count":24,
			"type":"VEC3"
		},
		{
			"bufferView":31,
			"componentType":5126,
			"count":24,
			"max":[
				0.26424652338027954,
				0.17584455013275146,
				0.012228259816765785
			],
			"min":[
				0.24468129873275757,
				0.1668696403503418,
				-0.00597041379660368
			],
			"type":"VEC3"
		},
		{
			"bufferView":32,
			"componentType":5126,
			"count":24,
			"type":"VEC3"
		},
		{
			"bufferView":33,
			"componentType":5123,
			"count":36,
			"type":"SCALAR"
		},
		{
			"bufferView":34,
			"componentType":5126,
			"count":63,
			"max":[
				0.27559781074523926,
				0.15930438041687012,
				0.03396739065647125
			],
			"min":[
				0.2364673614501953,
				0.12017399072647095,
				0.03396739065647125
			],
			"type":"VEC3"
		},
		{
			"bufferView":35,
			"componentType":5126,
			"count":63,
			"type":"VEC3"
		},
		{
			"bufferView":36,
			"componentType":5123,
			"count":93,
			"type":"SCALAR"
		},
		{
			"bufferView":37,
			"componentType":5126,
			"count":4,
			"max":[
				0.27559781074523926,
				0.1266956925392151,
				0.03396739065647125
			],
			"min":[
				0.26907604932785034,
				0.11256527900695801,
				0.03396739065647125
			],
			"type":"VEC3"
		},
		{
			"bufferView":38,
			"componentType":5126,
			"count":4,
			"type":"VEC3"
		}
	],
	"bufferViews":[
		{
			"buffer":0,
			"byteLength":10284,
			"byteOffset":0,
			"target":34962
		},
		{
			"buffer":0,
			"byteLength":10284,
			"byteOffset":10284,
			"target":34962
		},
		{
			"buffer":0,
			"byteLength":5460,
			"byteOffset":20568,
			"target":34963
		},
		{
			"buffer":0,
			"byteLength":288,
			"byteOffset":26028,
			"target":34962
		},
		{
			"buffer":0,
			"byteLength":288,
			"byteOffset":26316,
			"target":34962
		},
		{
			"buffer":0,
			"byteLength":72,
			"byteOffset":26604,
			"target":34963
		},
		{
			"buffer":0,
			"byteLength":288,
			"byteOffset":26676,
			"target":34962
		},
		{
			"buffer":0,
			"byteLength":288,
			"byteOffset":26964,
			"target":34962
		},
		{
			"buffer":0,
			"byteLength":72,
			"byteOffset":27252,
			"target":34963
		},
		{
			"buffer":0,
			"byteLength":720,
			"byteOffset":27324,
			"target":34962
		},
		{
			"buffer":0,
			"byteLength":720,
			"byteOffset":28044,
			"target":34962
		},
		{
			"buffer":0,
			"byteLength":180,
			"byteOffset":28764,
			"target":34963
		},
		{
			"buffer":0,
			"byteLength":48,
			"byteOffset":28944,
			"target":34962
		},
		{
			"buffer":0,
			"byteLength":48,
			"byteOffset":28992,
			"target":34962
		},
		{
			"buffer":0,
			"byteLength":12,
			"byteOffset":29040,
			"target":34963
		},
		{
			"buffer":0,
			"byteLength":9600,
			"byteOffset":29052,
			"target":34962
		},
		{
			"buffer":0,
			"byteLength":9600,
			"byteOffset":38652,
			"target":34962
		},
		{
			"buffer":0,
			"byteLength":5328,
			"byteOffset":48252,
			"target":34963
		},
		{
			"buffer":0,
			"byteLength":288,
			"byteOffset":53580,
			"target":34962
		},
		{
			"buffer":0,
			"byteLength":288,
			"byteOffset":53868,
			"target":34962
		},
		{
			"buffer":0,
			"byteLength":72,
			"byteOffset":54156,
			"target":34963
		},
		{
			"buffer":0,
			"byteLength":576,
			"byteOffset":54228,
			"target":34962
		},
		{
			"buffer":0,
			"byteLength":576,
			"byteOffset":54804,
			"target":34962
		},
		{
			"buffer":0,
			"byteLength":144,
			"byteOffset":55380,
			"target":34963
		},
		{
			"buffer":0,
			"byteLength":48,
			"byteOffset":55524,
			"target":34962
		},
		{
			"buffer":0,
			"byteLength":48,
			"byteOffset":55572,
			"target":34962
		},
		{
			"buffer":0,
			"byteLength":10548,
			"byteOffset":55620,
			"target":34962
		},
		{
			"buffer":0,
			"byteLength":10548,
			"byteOffset":66168,
			"target":34962
		},
		{
			"buffer":0,
			"byteLength":5658,
			"byteOffset":76716,
			"target":34963
		},
		{
			"buffer":0,
			"byteLength":288,
			"byteOffset":82376,
			"target":34962
		},
		{
			"buffer":0,
			"byteLength":288,
			"byteOffset":82664,
			"target":34962
		},
		{
			"buffer":0,
			"byteLength":288,
			"byteOffset":82952,
			"target":34962
		},
		{
			"buffer":0,
			"byteLength":288,
			"byteOffset":83240,
			"target":34962
		},
		{
			"buffer":0,
			"byteLength":72,
			"byteOffset":83528,
			"target":34963
		},
		{
			"buffer":0,
			"byteLength":756,
			"byteOffset":83600,
			"target":34962
		},
		{
			"buffer":0,
			"byteLength":756,
			"byteOffset":84356,
			"target":34962
		},
		{
			"buffer":0,
			"byteLength":186,
			"byteOffset":85112,
			"target":34963
		},
		{
			"buffer":0,
			"byteLength":48,
			"byteOffset":85300,
			"target":34962
		},
		{
			"buffer":0,
			"byteLength":48,
			"byteOffset":85348,
			"target":34962
		}
	],
	"buffers":[
		{
			"byteLength":85396,
			"uri":"BinaGrup4.bin"
		}
	]
}
