{
	"asset":{
		"generator":"Khronos glTF Blender I/O v4.2.60",
		"version":"2.0"
	},
	"scene":0,
	"scenes":[
		{
			"name":"Scene",
			"nodes":[
				0,
				1,
				2,
				3,
				4,
				5,
				6,
				7,
				8,
				9,
				10,
				11
			]
		}
	],
	"nodes":[
		{
			"mesh":0,
			"name":"Building_024.003"
		},
		{
			"mesh":1,
			"name":"Building_024_RoofCap_0.001"
		},
		{
			"mesh":2,
			"name":"Building_024.005"
		},
		{
			"mesh":3,
			"name":"Building_024.004"
		},
		{
			"mesh":4,
			"name":"Building_033.003"
		},
		{
			"mesh":5,
			"name":"Building_033_RoofCap_0.001"
		},
		{
			"mesh":6,
			"name":"Building_033.005"
		},
		{
			"mesh":7,
			"name":"Building_033.004"
		},
		{
			"mesh":8,
			"name":"Building_057.003"
		},
		{
			"mesh":9,
			"name":"Building_057_RoofCap_0.001"
		},
		{
			"mesh":10,
			"name":"Building_057.005"
		},
		{
			"mesh":11,
			"name":"Building_057.004"
		}
	],
	"materials":[
		{
			"doubleSided":true,
			"name":"BinaSolar",
			"pbrMetallicRoughness":{
				"baseColorFactor":[
					0.4451989233493805,
					0.006995364557951689,
					0.002428226638585329,
					1
				],
				"metallicFactor":0,
				"roughnessFactor":0.699999988079071
			}
		},
		{
			"doubleSided":true,
			"name":"Mat_Roof_Cap",
			"pbrMetallicRoughness":{
				"baseColorFactor":[
					0.9822452664375305,
					0.38132646679878235,
					0.0030353753827512264,
					1
				],
				"metallicFactor":0,
				"roughnessFactor":0.699999988079071
			}
		},
		{
			"doubleSided":true,
			"name":"PencereSolarKapal\u0131",
			"pbrMetallicRoughness":{
				"baseColorFactor":[
					0.2122296690940857,
					0.0009105561766773462,
					0,
					1
				],
				"metallicFactor":0,
				"roughnessFactor":0.699999988079071
			}
		}
	],
	"meshes":[
		{
			"name":"Building_024_Mesh.003",
			"primitives":[
				{
					"attributes":{
						"POSITION":0,
						"NORMAL":1
					},
					"indices":2,
					"material":0
				}
			]
		},
		{
			"name":"Building_024_RoofCap_0_Mesh.001",
			"primitives":[
				{
					"attributes":{
						"POSITION":3,
						"NORMAL":4
					},
					"indices":5,
					"material":1
				}
			]
		},
		{
			"name":"Building_024_Mesh.005",
			"primitives":[
				{
					"attributes":{
						"POSITION":6,
						"NORMAL":7
					},
					"indices":8,
					"material":2
				}
			]
		},
		{
			"name":"Building_024_Mesh.004",
			"primitives":[
				{
					"attributes":{
						"POSITION":9,
						"NORMAL":10
					},
					"indices":11,
					"material":2
				}
			]
		},
		{
			"name":"Building_033_Mesh.003",
			"primitives":[
				{
					"attributes":{
						"POSITION":12,
						"NORMAL":13
					},
					"indices":14,
					"material":0
				}
			]
		},
		{
			"name":"Building_033_RoofCap_0_Mesh.001",
			"primitives":[
				{
					"attributes":{
						"POSITION":15,
						"NORMAL":16
					},
					"indices":17,
					"material":1
				}
			]
		},
		{
			"name":"Building_033_Mesh.005",
			"primitives":[
				{
					"attributes":{
						"POSITION":18,
						"NORMAL":19
					},
					"indices":20,
					"material":2
				}
			]
		},
		{
			"name":"Building_033_Mesh.004",
			"primitives":[
				{
					"attributes":{
						"POSITION":21,
						"NORMAL":22
					},
					"indices":11,
					"material":2
				}
			]
		},
		{
			"name":"Building_057_Mesh.003",
			"primitives":[
				{
					"attributes":{
						"POSITION":23,
						"NORMAL":24
					},
					"indices":25,
					"material":0
				}
			]
		},
		{
			"name":"Building_057_RoofCap_0_Mesh.001",
			"primitives":[
				{
					"attributes":{
						"POSITION":26,
						"NORMAL":27
					},
					"indices":5,
					"material":1
				}
			]
		},
		{
			"name":"Building_057_Mesh.005",
			"primitives":[
				{
					"attributes":{
						"POSITION":28,
						"NORMAL":29
					},
					"indices":30,
					"material":2
				}
			]
		},
		{
			"name":"Building_057_Mesh.004",
			"primitives":[
				{
					"attributes":{
						"POSITION":31,
						"NORMAL":32
					},
					"indices":11,
					"material":2
				}
			]
		}
	],
	"accessors":[
		{
			"bufferView":0,
			"componentType":5126,
			"count":831,
			"max":[
				-0.17603257298469543,
				-0.1276521384716034,
				0.036141302436590195
			],
			"min":[
				-0.22494560480117798,
				-0.18091300129890442,
				-0.007336955517530441
			],
			"type":"VEC3"
		},
		{
			"bufferView":1,
			"componentType":5126,
			"count":831,
			"type":"VEC3"
		},
		{
			"bufferView":2,
			"componentType":5123,
			"count":2724,
			"type":"SCALAR"
		},
		{
			"bufferView":3,
			"componentType":5126,
			"count":24,
			"max":[
				-0.18274423480033875,
				-0.12210369110107422,
				0.0277152918279171
			],
			"min":[
				-0.2218746840953827,
				-0.12752169370651245,
				0.0013586953282356262
			],
			"type":"VEC3"
		},
		{
			"bufferView":4,
			"componentType":5126,
			"count":24,
			"type":"VEC3"
		},
		{
			"bufferView":5,
			"componentType":5123,
			"count":36,
			"type":"SCALAR"
		},
		{
			"bufferView":6,
			"componentType":5126,
			"count":56,
			"max":[
				-0.18092386424541473,
				-0.13417387008666992,
				0.03396739065647125
			],
			"min":[
				-0.22005429863929749,
				-0.17547819018363953,
				0.03396739065647125
			],
			"type":"VEC3"
		},
		{
			"bufferView":7,
			"componentType":5126,
			"count":56,
			"type":"VEC3"
		},
		{
			"bufferView":8,
			"componentType":5123,
			"count":84,
			"type":"SCALAR"
		},
		{
			"bufferView":9,
			"componentType":5126,
			"count":4,
			"max":[
				-0.19179342687129974,
				-0.16678255796432495,
				0.03396739065647125
			],
			"min":[
				-0.20918473601341248,
				-0.18091300129890442,
				0.03396739065647125
			],
			"type":"VEC3"
		},
		{
			"bufferView":10,
			"componentType":5126,
			"count":4,
			"type":"VEC3"
		},
		{
			"bufferView":11,
			"componentType":5123,
			"count":6,
			"type":"SCALAR"
		},
		{
			"bufferView":12,
			"componentType":5126,
			"count":481,
			"max":[
				-0.10809776186943054,
				-0.32330432534217834,
				0.036141302436590195
			],
			"min":[
				-0.14070644974708557,
				-0.37656518816947937,
				-0.007336955517530441
			],
			"type":"VEC3"
		},
		{
			"bufferView":13,
			"componentType":5126,
			"count":481,
			"type":"VEC3"
		},
		{
			"bufferView":14,
			"componentType":5123,
			"count":1392,
			"type":"SCALAR"
		},
		{
			"bufferView":15,
			"componentType":5126,
			"count":24,
			"max":[
				-0.1084495484828949,
				-0.3177051246166229,
				0.03199639171361923
			],
			"min":[
				-0.1345365047454834,
				-0.32313042879104614,
				-0.002989131025969982
			],
			"type":"VEC3"
		},
		{
			"bufferView":16,
			"componentType":5126,
			"count":24,
			"type":"VEC3"
		},
		{
			"bufferView":17,
			"componentType":5123,
			"count":36,
			"type":"SCALAR"
		},
		{
			"bufferView":18,
			"componentType":5126,
			"count":38,
			"max":[
				-0.11353257298469543,
				-0.3298260569572449,
				0.033967386931180954
			],
			"min":[
				-0.13527169823646545,
				-0.3689565062522888,
				0.033967386931180954
			],
			"type":"VEC3"
		},
		{
			"bufferView":19,
			"componentType":5126,
			"count":38,
			"type":"VEC3"
		},
		{
			"bufferView":20,
			"componentType":5123,
			"count":60,
			"type":"SCALAR"
		},
		{
			"bufferView":21,
			"componentType":5126,
			"count":4,
			"max":[
				-0.11353254318237305,
				-0.3624347448348999,
				0.03396739065647125
			],
			"min":[
				-0.12222820520401001,
				-0.37656518816947937,
				0.03396739065647125
			],
			"type":"VEC3"
		},
		{
			"bufferView":22,
			"componentType":5126,
			"count":4,
			"type":"VEC3"
		},
		{
			"bufferView":23,
			"componentType":5126,
			"count":477,
			"max":[
				0.19624996185302734,
				0.06800001859664917,
				0.05788043513894081
			],
			"min":[
				0.1636413335800171,
				0.014739125967025757,
				-0.007336955517530441
			],
			"type":"VEC3"
		},
		{
			"bufferView":24,
			"componentType":5126,
			"count":477,
			"type":"VEC3"
		},
		{
			"bufferView":25,
			"componentType":5123,
			"count":1386,
			"type":"SCALAR"
		},
		{
			"bufferView":26,
			"componentType":5126,
			"count":24,
			"max":[
				0.18774521350860596,
				0.07355773448944092,
				0.04501749202609062
			],
			"min":[
				0.16817998886108398,
				0.06813043355941772,
				0.00570652075111866
			],
			"type":"VEC3"
		},
		{
			"bufferView":27,
			"componentType":5126,
			"count":24,
			"type":"VEC3"
		},
		{
			"bufferView":28,
			"componentType":5126,
			"count":36,
			"max":[
				0.19081521034240723,
				0.061478257179260254,
				0.05570651963353157
			],
			"min":[
				0.1690760850906372,
				0.02017390727996826,
				0.05570651963353157
			],
			"type":"VEC3"
		},
		{
			"bufferView":29,
			"componentType":5126,
			"count":36,
			"type":"VEC3"
		},
		{
			"bufferView":30,
			"componentType":5123,
			"count":54,
			"type":"SCALAR"
		},
		{
			"bufferView":31,
			"componentType":5126,
			"count":4,
			"max":[
				0.17777174711227417,
				0.028869569301605225,
				0.05570651963353157
			],
			"min":[
				0.1690760850906372,
				0.014739125967025757,
				0.05570651963353157
			],
			"type":"VEC3"
		},
		{
			"bufferView":32,
			"componentType":5126,
			"count":4,
			"type":"VEC3"
		}
	],
	"bufferViews":[
		{
			"buffer":0,
			"byteLength":9972,
			"byteOffset":0,
			"target":34962
		},
		{
			"buffer":0,
			"byteLength":9972,
			"byteOffset":9972,
			"target":34962
		},
		{
			"buffer":0,
			"byteLength":5448,
			"byteOffset":19944,
			"target":34963
		},
		{
			"buffer":0,
			"byteLength":288,
			"byteOffset":25392,
			"target":34962
		},
		{
			"buffer":0,
			"byteLength":288,
			"byteOffset":25680,
			"target":34962
		},
		{
			"buffer":0,
			"byteLength":72,
			"byteOffset":25968,
			"target":34963
		},
		{
			"buffer":0,
			"byteLength":672,
			"byteOffset":26040,
			"target":34962
		},
		{
			"buffer":0,
			"byteLength":672,
			"byteOffset":26712,
			"target":34962
		},
		{
			"buffer":0,
			"byteLength":168,
			"byteOffset":27384,
			"target":34963
		},
		{
			"buffer":0,
			"byteLength":48,
			"byteOffset":27552,
			"target":34962
		},
		{
			"buffer":0,
			"byteLength":48,
			"byteOffset":27600,
			"target":34962
		},
		{
			"buffer":0,
			"byteLength":12,
			"byteOffset":27648,
			"target":34963
		},
		{
			"buffer":0,
			"byteLength":5772,
			"byteOffset":27660,
			"target":34962
		},
		{
			"buffer":0,
			"byteLength":5772,
			"byteOffset":33432,
			"target":34962
		},
		{
			"buffer":0,
			"byteLength":2784,
			"byteOffset":39204,
			"target":34963
		},
		{
			"buffer":0,
			"byteLength":288,
			"byteOffset":41988,
			"target":34962
		},
		{
			"buffer":0,
			"byteLength":288,
			"byteOffset":42276,
			"target":34962
		},
		{
			"buffer":0,
			"byteLength":72,
			"byteOffset":42564,
			"target":34963
		},
		{
			"buffer":0,
			"byteLength":456,
			"byteOffset":42636,
			"target":34962
		},
		{
			"buffer":0,
			"byteLength":456,
			"byteOffset":43092,
			"target":34962
		},
		{
			"buffer":0,
			"byteLength":120,
			"byteOffset":43548,
			"target":34963
		},
		{
			"buffer":0,
			"byteLength":48,
			"byteOffset":43668,
			"target":34962
		},
		{
			"buffer":0,
			"byteLength":48,
			"byteOffset":43716,
			"target":34962
		},
		{
			"buffer":0,
			"byteLength":5724,
			"byteOffset":43764,
			"target":34962
		},
		{
			"buffer":0,
			"byteLength":5724,
			"byteOffset":49488,
			"target":34962
		},
		{
			"buffer":0,
			"byteLength":2772,
			"byteOffset":55212,
			"target":34963
		},
		{
			"buffer":0,
			"byteLength":288,
			"byteOffset":57984,
			"target":34962
		},
		{
			"buffer":0,
			"byteLength":288,
			"byteOffset":58272,
			"target":34962
		},
		{
			"buffer":0,
			"byteLength":432,
			"byteOffset":58560,
			"target":34962
		},
		{
			"buffer":0,
			"byteLength":432,
			"byteOffset":58992,
			"target":34962
		},
		{
			"buffer":0,
			"byteLength":108,
			"byteOffset":59424,
			"target":34963
		},
		{
			"buffer":0,
			"byteLength":48,
			"byteOffset":59532,
			"target":34962
		},
		{
			"buffer":0,
			"byteLength":48,
			"byteOffset":59580,
			"target":34962
		}
	],
	"buffers":[
		{
			"byteLength":59628,
			"uri":"BinaGrup2.bin"
		}
	]
}
