{
	"asset":{
		"generator":"Khronos glTF Blender I/O v4.2.60",
		"version":"2.0"
	},
	"scene":0,
	"scenes":[
		{
			"name":"Scene",
			"nodes":[
				0,
				1,
				2,
				3,
				4,
				5,
				6,
				7,
				8,
				9,
				10,
				11,
				12
			]
		}
	],
	"nodes":[
		{
			"mesh":0,
			"name":"Building_030.003"
		},
		{
			"mesh":1,
			"name":"Building_030_RoofCap_0.001"
		},
		{
			"mesh":2,
			"name":"Building_030_RoofCap_1.001"
		},
		{
			"mesh":3,
			"name":"Building_030.005"
		},
		{
			"mesh":4,
			"name":"Building_030.004"
		},
		{
			"mesh":5,
			"name":"Building_048.003"
		},
		{
			"mesh":6,
			"name":"Building_048_RoofCap_0.001"
		},
		{
			"mesh":7,
			"name":"Building_048.005"
		},
		{
			"mesh":8,
			"name":"Building_048.004"
		},
		{
			"mesh":9,
			"name":"Building_054.003"
		},
		{
			"mesh":10,
			"name":"Building_054_RoofCap_0.001"
		},
		{
			"mesh":11,
			"name":"Building_054.005"
		},
		{
			"mesh":12,
			"name":"Building_054.004"
		}
	],
	"materials":[
		{
			"doubleSided":true,
			"name":"BinaSolar",
			"pbrMetallicRoughness":{
				"baseColorFactor":[
					0.4451989233493805,
					0.006995364557951689,
					0.002428226638585329,
					1
				],
				"metallicFactor":0,
				"roughnessFactor":0.699999988079071
			}
		},
		{
			"doubleSided":true,
			"name":"Mat_Roof_Cap",
			"pbrMetallicRoughness":{
				"baseColorFactor":[
					0.9822452664375305,
					0.38132646679878235,
					0.0030353753827512264,
					1
				],
				"metallicFactor":0,
				"roughnessFactor":0.699999988079071
			}
		},
		{
			"doubleSided":true,
			"name":"PencereSolarKapal\u0131",
			"pbrMetallicRoughness":{
				"baseColorFactor":[
					0.2122296690940857,
					0.0009105561766773462,
					0,
					1
				],
				"metallicFactor":0,
				"roughnessFactor":0.699999988079071
			}
		}
	],
	"meshes":[
		{
			"name":"Building_030_Mesh.003",
			"primitives":[
				{
					"attributes":{
						"POSITION":0,
						"NORMAL":1
					},
					"indices":2,
					"material":0
				}
			]
		},
		{
			"name":"Building_030_RoofCap_0_Mesh.001",
			"primitives":[
				{
					"attributes":{
						"POSITION":3,
						"NORMAL":4
					},
					"indices":5,
					"material":1
				}
			]
		},
		{
			"name":"Building_030_RoofCap_1_Mesh.001",
			"primitives":[
				{
					"attributes":{
						"POSITION":6,
						"NORMAL":7
					},
					"indices":8,
					"material":1
				}
			]
		},
		{
			"name":"Building_030_Mesh.005",
			"primitives":[
				{
					"attributes":{
						"POSITION":9,
						"NORMAL":10
					},
					"indices":11,
					"material":2
				}
			]
		},
		{
			"name":"Building_030_Mesh.004",
			"primitives":[
				{
					"attributes":{
						"POSITION":12,
						"NORMAL":13
					},
					"indices":14,
					"material":2
				}
			]
		},
		{
			"name":"Building_048_Mesh.003",
			"primitives":[
				{
					"attributes":{
						"POSITION":15,
						"NORMAL":16
					},
					"indices":17,
					"material":0
				}
			]
		},
		{
			"name":"Building_048_RoofCap_0_Mesh.001",
			"primitives":[
				{
					"attributes":{
						"POSITION":18,
						"NORMAL":19
					},
					"indices":20,
					"material":1
				}
			]
		},
		{
			"name":"Building_048_Mesh.005",
			"primitives":[
				{
					"attributes":{
						"POSITION":21,
						"NORMAL":22
					},
					"indices":23,
					"material":2
				}
			]
		},
		{
			"name":"Building_048_Mesh.004",
			"primitives":[
				{
					"attributes":{
						"POSITION":24,
						"NORMAL":25
					},
					"indices":14,
					"material":2
				}
			]
		},
		{
			"name":"Building_054_Mesh.003",
			"primitives":[
				{
					"attributes":{
						"POSITION":26,
						"NORMAL":27
					},
					"indices":28,
					"material":0
				}
			]
		},
		{
			"name":"Building_054_RoofCap_0_Mesh.001",
			"primitives":[
				{
					"attributes":{
						"POSITION":29,
						"NORMAL":30
					},
					"indices":31,
					"material":1
				}
			]
		},
		{
			"name":"Building_054_Mesh.005",
			"primitives":[
				{
					"attributes":{
						"POSITION":32,
						"NORMAL":33
					},
					"indices":34,
					"material":2
				}
			]
		},
		{
			"name":"Building_054_Mesh.004",
			"primitives":[
				{
					"attributes":{
						"POSITION":35,
						"NORMAL":36
					},
					"indices":14,
					"material":2
				}
			]
		}
	],
	"accessors":[
		{
			"bufferView":0,
			"componentType":5126,
			"count":501,
			"max":[
				-0.10809779167175293,
				-0.021130412817001343,
				0.036141302436590195
			],
			"min":[
				-0.14070647954940796,
				-0.08308693766593933,
				-0.007336955517530441
			],
			"type":"VEC3"
		},
		{
			"bufferView":1,
			"componentType":5126,
			"count":501,
			"type":"VEC3"
		},
		{
			"bufferView":2,
			"componentType":5123,
			"count":1401,
			"type":"SCALAR"
		},
		{
			"bufferView":3,
			"componentType":5126,
			"count":24,
			"max":[
				-0.10874941945075989,
				-0.021633684635162354,
				0.030426934361457825
			],
			"min":[
				-0.12831464409828186,
				-0.027130424976348877,
				0.020923912525177002
			],
			"type":"VEC3"
		},
		{
			"bufferView":4,
			"componentType":5126,
			"count":24,
			"type":"VEC3"
		},
		{
			"bufferView":5,
			"componentType":5123,
			"count":36,
			"type":"SCALAR"
		},
		{
			"bufferView":6,
			"componentType":5126,
			"count":24,
			"max":[
				-0.109304279088974,
				-0.020720690488815308,
				0.010054348036646843
			],
			"min":[
				-0.1353912055492401,
				-0.027956485748291016,
				-0.003796500852331519
			],
			"type":"VEC3"
		},
		{
			"bufferView":7,
			"componentType":5126,
			"count":24,
			"type":"VEC3"
		},
		{
			"bufferView":8,
			"componentType":5123,
			"count":36,
			"type":"SCALAR"
		},
		{
			"bufferView":9,
			"componentType":5126,
			"count":37,
			"max":[
				-0.11353257298469543,
				-0.036347806453704834,
				0.033967386931180954
			],
			"min":[
				-0.13527169823646545,
				-0.07765215635299683,
				0.033967386931180954
			],
			"type":"VEC3"
		},
		{
			"bufferView":10,
			"componentType":5126,
			"count":37,
			"type":"VEC3"
		},
		{
			"bufferView":11,
			"componentType":5123,
			"count":63,
			"type":"SCALAR"
		},
		{
			"bufferView":12,
			"componentType":5126,
			"count":4,
			"max":[
				-0.11353254318237305,
				-0.06895646452903748,
				0.03396739065647125
			],
			"min":[
				-0.12222820520401001,
				-0.08308693766593933,
				0.03396739065647125
			],
			"type":"VEC3"
		},
		{
			"bufferView":13,
			"componentType":5126,
			"count":4,
			"type":"VEC3"
		},
		{
			"bufferView":14,
			"componentType":5123,
			"count":6,
			"type":"SCALAR"
		},
		{
			"bufferView":15,
			"componentType":5126,
			"count":820,
			"max":[
				0.052228301763534546,
				-0.4211304187774658,
				0.047010865062475204
			],
			"min":[
				0.003315269947052002,
				-0.47439128160476685,
				-0.007336955517530441
			],
			"type":"VEC3"
		},
		{
			"bufferView":16,
			"componentType":5126,
			"count":820,
			"type":"VEC3"
		},
		{
			"bufferView":17,
			"componentType":5123,
			"count":2664,
			"type":"SCALAR"
		},
		{
			"bufferView":18,
			"componentType":5126,
			"count":24,
			"max":[
				0.04828387498855591,
				-0.4155759811401367,
				0.03635761886835098
			],
			"min":[
				0.009153425693511963,
				-0.4209999740123749,
				0.0035326071083545685
			],
			"type":"VEC3"
		},
		{
			"bufferView":19,
			"componentType":5126,
			"count":24,
			"type":"VEC3"
		},
		{
			"bufferView":20,
			"componentType":5123,
			"count":36,
			"type":"SCALAR"
		},
		{
			"bufferView":21,
			"componentType":5126,
			"count":48,
			"max":[
				0.04733699560165405,
				-0.42765215039253235,
				0.04483695700764656
			],
			"min":[
				0.008206546306610107,
				-0.46895650029182434,
				0.04483695700764656
			],
			"type":"VEC3"
		},
		{
			"bufferView":22,
			"componentType":5126,
			"count":48,
			"type":"VEC3"
		},
		{
			"bufferView":23,
			"componentType":5123,
			"count":72,
			"type":"SCALAR"
		},
		{
			"bufferView":24,
			"componentType":5126,
			"count":4,
			"max":[
				0.009293526411056519,
				-0.4602608382701874,
				0.04483695700764656
			],
			"min":[
				0.0027717947959899902,
				-0.47439128160476685,
				0.04483695700764656
			],
			"type":"VEC3"
		},
		{
			"bufferView":25,
			"componentType":5126,
			"count":4,
			"type":"VEC3"
		},
		{
			"bufferView":26,
			"componentType":5126,
			"count":477,
			"max":[
				0.12016308307647705,
				-0.32330432534217834,
				0.047010865062475204
			],
			"min":[
				0.08755439519882202,
				-0.37656518816947937,
				-0.007336959708482027
			],
			"type":"VEC3"
		},
		{
			"bufferView":27,
			"componentType":5126,
			"count":477,
			"type":"VEC3"
		},
		{
			"bufferView":28,
			"componentType":5123,
			"count":1386,
			"type":"SCALAR"
		},
		{
			"bufferView":29,
			"componentType":5126,
			"count":24,
			"max":[
				0.11610585451126099,
				-0.3177017271518707,
				0.04173867404460907
			],
			"min":[
				0.10306233167648315,
				-0.32313042879104614,
				-0.0019021760672330856
			],
			"type":"VEC3"
		},
		{
			"bufferView":30,
			"componentType":5126,
			"count":24,
			"type":"VEC3"
		},
		{
			"bufferView":31,
			"componentType":5123,
			"count":36,
			"type":"SCALAR"
		},
		{
			"bufferView":32,
			"componentType":5126,
			"count":36,
			"max":[
				0.11472827196121216,
				-0.3298260569572449,
				0.04483695700764656
			],
			"min":[
				0.09298914670944214,
				-0.3689565062522888,
				0.04483695700764656
			],
			"type":"VEC3"
		},
		{
			"bufferView":33,
			"componentType":5126,
			"count":36,
			"type":"VEC3"
		},
		{
			"bufferView":34,
			"componentType":5123,
			"count":54,
			"type":"SCALAR"
		},
		{
			"bufferView":35,
			"componentType":5126,
			"count":4,
			"max":[
				0.1016848087310791,
				-0.3624347448348999,
				0.04483695700764656
			],
			"min":[
				0.09298914670944214,
				-0.37656518816947937,
				0.04483695700764656
			],
			"type":"VEC3"
		},
		{
			"bufferView":36,
			"componentType":5126,
			"count":4,
			"type":"VEC3"
		}
	],
	"bufferViews":[
		{
			"buffer":0,
			"byteLength":6012,
			"byteOffset":0,
			"target":34962
		},
		{
			"buffer":0,
			"byteLength":6012,
			"byteOffset":6012,
			"target":34962
		},
		{
			"buffer":0,
			"byteLength":2802,
			"byteOffset":12024,
			"target":34963
		},
		{
			"buffer":0,
			"byteLength":288,
			"byteOffset":14828,
			"target":34962
		},
		{
			"buffer":0,
			"byteLength":288,
			"byteOffset":15116,
			"target":34962
		},
		{
			"buffer":0,
			"byteLength":72,
			"byteOffset":15404,
			"target":34963
		},
		{
			"buffer":0,
			"byteLength":288,
			"byteOffset":15476,
			"target":34962
		},
		{
			"buffer":0,
			"byteLength":288,
			"byteOffset":15764,
			"target":34962
		},
		{
			"buffer":0,
			"byteLength":72,
			"byteOffset":16052,
			"target":34963
		},
		{
			"buffer":0,
			"byteLength":444,
			"byteOffset":16124,
			"target":34962
		},
		{
			"buffer":0,
			"byteLength":444,
			"byteOffset":16568,
			"target":34962
		},
		{
			"buffer":0,
			"byteLength":126,
			"byteOffset":17012,
			"target":34963
		},
		{
			"buffer":0,
			"byteLength":48,
			"byteOffset":17140,
			"target":34962
		},
		{
			"buffer":0,
			"byteLength":48,
			"byteOffset":17188,
			"target":34962
		},
		{
			"buffer":0,
			"byteLength":12,
			"byteOffset":17236,
			"target":34963
		},
		{
			"buffer":0,
			"byteLength":9840,
			"byteOffset":17248,
			"target":34962
		},
		{
			"buffer":0,
			"byteLength":9840,
			"byteOffset":27088,
			"target":34962
		},
		{
			"buffer":0,
			"byteLength":5328,
			"byteOffset":36928,
			"target":34963
		},
		{
			"buffer":0,
			"byteLength":288,
			"byteOffset":42256,
			"target":34962
		},
		{
			"buffer":0,
			"byteLength":288,
			"byteOffset":42544,
			"target":34962
		},
		{
			"buffer":0,
			"byteLength":72,
			"byteOffset":42832,
			"target":34963
		},
		{
			"buffer":0,
			"byteLength":576,
			"byteOffset":42904,
			"target":34962
		},
		{
			"buffer":0,
			"byteLength":576,
			"byteOffset":43480,
			"target":34962
		},
		{
			"buffer":0,
			"byteLength":144,
			"byteOffset":44056,
			"target":34963
		},
		{
			"buffer":0,
			"byteLength":48,
			"byteOffset":44200,
			"target":34962
		},
		{
			"buffer":0,
			"byteLength":48,
			"byteOffset":44248,
			"target":34962
		},
		{
			"buffer":0,
			"byteLength":5724,
			"byteOffset":44296,
			"target":34962
		},
		{
			"buffer":0,
			"byteLength":5724,
			"byteOffset":50020,
			"target":34962
		},
		{
			"buffer":0,
			"byteLength":2772,
			"byteOffset":55744,
			"target":34963
		},
		{
			"buffer":0,
			"byteLength":288,
			"byteOffset":58516,
			"target":34962
		},
		{
			"buffer":0,
			"byteLength":288,
			"byteOffset":58804,
			"target":34962
		},
		{
			"buffer":0,
			"byteLength":72,
			"byteOffset":59092,
			"target":34963
		},
		{
			"buffer":0,
			"byteLength":432,
			"byteOffset":59164,
			"target":34962
		},
		{
			"buffer":0,
			"byteLength":432,
			"byteOffset":59596,
			"target":34962
		},
		{
			"buffer":0,
			"byteLength":108,
			"byteOffset":60028,
			"target":34963
		},
		{
			"buffer":0,
			"byteLength":48,
			"byteOffset":60136,
			"target":34962
		},
		{
			"buffer":0,
			"byteLength":48,
			"byteOffset":60184,
			"target":34962
		}
	],
	"buffers":[
		{
			"byteLength":60232,
			"uri":"BinaGrup14.bin"
		}
	]
}
